<svg xmlns="http://www.w3.org/2000/svg" width="441" height="150" fill="none">
  <path fill="#193167" d="M357.98 2.73c41.14-.2 74.15 31.96 74.35 71.8.21 39.84-32.46 72.27-73.6 72.47-13.13.06-10.5 1.35 4.37 1.28 42.52-.22 76.8-32.96 76.6-74.12C439.47 32.99 404.83-.21 362.32 0"/>
  <path fill="#8A2432" d="M364.2 27.77c-23.77-2.6-43.77 11.76-50.25 33.45l.24.35c6.25-20.78 25.43-34.17 48.34-31.65 26.04 2.87 43.96 24.95 41.08 50.7-1.79 15.89-10.55 29.04-23.77 36.1l-.1 2.88a48.6 48.6 0 0 0 27.91-38.63c3-26.7-16.45-50.23-43.46-53.2Z"/>
  <path fill="#193167" d="M215.9 73.34c-.01-37.1-21.62-43.28-49.22-43.46l-23.45.02v1.57c9.11.74 7.8 4.63 7.89 11.86V93.7h.11v26.22l15.45.02c22.6-.16 40.88-4.35 46.87-26.22h.03c1.56-5.55 2.32-12.27 2.32-20.38Zm-16.31 8.5a59.5 59.5 0 0 1-1.1 7.14 55.99 55.99 0 0 1-3.56 10.5c-1.85 3.62-3.8 7.4-8.33 10.1-4.66 2.77-8.19 3.93-14.5 3.93a16.3 16.3 0 0 1-4.82-.7V36.8c1.14-.37 2.69-.5 4.63-.5 23.94 0 27.66 17.78 28.04 37.04.03 1.5.01 4.7-.36 8.5ZM254.05 112.2c-9.53 0-10.69-3.83-10.69-11.18l-.22-27.49h24.26v-.31h.04v-4.99l-.04-.01v-2h-24.19l-.07-.02.02-21.36c0-6.83.64-8.27 8.08-8.27H275.05l.04-6.7h-55.8v1.57c9.09.74 7.77 4.63 7.87 11.86v76.6h47.93v-7.7h-21.04ZM109.9 29.88l-18.37-.01v1.58c6.33.55 7.52 3.33 6.83 6.93-.12 1-1.1 3.85-2.17 6.72l-27.74 74.8h10.12l14.45-39.93h21.55l14.24 39.93h14.91L109.9 29.88Zm-15.36 43.7 8.82-24.56 9.16 24.55H94.54ZM66.25 93.26h-.01V29.85H55.45l.02 63.4s.02 2.05-.13 4.3c-.23 3.45-.7 7.96-3.5 11.31-2.15 2.57-5.47 3.68-7.9 4.11a33 33 0 0 1-8.62-.07c-2.54-.47-5.62-1.6-7.9-4.31-2.8-3.36-3.45-8.2-3.62-11.57-.1-2.26-.03-3.86-.03-3.86h-.01V29.88h-.32L0 29.9v1.57c9.1.74 7.78 4.63 7.88 11.86v49.83s.03 1.94.36 4.6c.9 7.35 4.42 21.92 31.14 22.05 8.83-.18 15.96-2 19.98-6.12 7-6.03 6.9-20.43 6.9-20.43ZM336.29 129.63c.64-1.94 1.48-3.84 5-2.66 2.75.92 3.34 2.45 2.62 4.6l-1.54 4.63c-.4 1.2-.36 1.24 1.08 1.93l-.1.32-3.38-.76 2-5.97c.54-1.65 1.12-3.4-1.1-4.14-2.39-.8-2.92.8-3.4 2.26l-2.06 6.14-1.12-.37 2-5.98ZM330.5 131.8c-.7 1.22-.47 1.28.63 2.2l-.17.3-3.01-1.72-.41-9.75-.03-.02-4.09 7.2-.9-.5 5.06-8.92 1.37.78.44 10.21.03.01 4.27-7.52.9.5-4.1 7.23ZM319.76 124.95c-.79 1.01-.76 1.05.37 2.2l-.2.25-2.93-1.84 6.4-8.2 1.43 1.11-5.07 6.48ZM314.92 121.12c-.63 1.34-.54 1.44.21 2.55l-.24.23-2.2-2.3 3.77-8.1-.02-.02-8.19 3.52-.74-.77 10.17-4.21.99 1.03-3.75 8.07ZM306.93 111.97c-1.25.84-1.22.88-.57 2.26l-.28.18-4.37-6.54 1.85-1.29.25.38c-1 .68-.9 1.42-.3 2.33l.72 1.06c.45.69.63.83 1.23.43l2.52-1.68-1.1-1.65c-.63-.95-1.25-.67-1.72-.48l-.26-.38 2.67-1.77.25.38c-.68.46-.89 1.03-.34 1.85l1.1 1.65 2.82-1.88c.71-.47.62-.67.16-1.35l-1-1.51c-.52-.79-1.03-.99-2.07-.41l-.26-.39 1.87-1.18 3.64 5.45-6.81 4.54ZM301.32 102.86c-1.38.6-1.37.63-.96 2.12l-.3.14-1.63-3.7c-.5-1.14-1.85-4.25.64-5.34 1.6-.7 2.61.19 3.31 1.3l3.38-4.77.76 1.73-3.17 4.56.4.93 4.34-1.9.72 1.66-7.49 3.27Zm1.78-2.75-.38-.85c-.43-.98-1.28-2.24-2.84-1.56-1.5.66-1.52 1.78-.96 3.04.44 1 .69.9 1.7.46l2.48-1.09ZM295.12 87.2a7.7 7.7 0 0 0 .03 3c.2.85.83 1.43 1.8 1.2 2.28-.56.81-5.7 3.98-6.46 2.12-.52 3.36 1.1 3.9 3.3.29 1.22.28 2.53.29 2.88l-1.2.3c.14-.57.45-2 .14-3.27-.24-1-.87-1.9-2.21-1.58-2.4.58-.91 5.71-4.04 6.47-1.63.4-2.88-.72-3.43-2.97-.27-1.1-.33-2.18-.36-2.61l1.1-.27ZM295.24 82.6c-1.28.13-1.29.18-1.31 1.78l-.34.04-.7-3.4 10.35-1.08.2 1.8-8.2.86ZM294.74 76.14c-1.5-.08-1.5-.03-1.8 1.47l-.34-.02.21-4.54c.15-3.11 1.05-5.35 5.35-5.15 4.8.24 5.02 3 4.87 6.19l-.12 2.44-8.17-.4Zm6.54-1.5c.6.03 1 .05 1.06-1.08.13-2.98-1.16-3.7-4.23-3.85-2.7-.13-4.43.13-4.57 3.21-.05.96.04 1.36.76 1.39l6.98.34ZM296.15 61.92c-.23-.15-.7-.46-.8-.48-.6-.15-.76.44-1 1.06l-.33-.08.73-3 10.9-1.45-.4 1.66-3.36.44-1 4.06 2.8 1.96-.25.98-7.29-5.15Zm4.12 1.77.86-3.51-4.77.75 3.9 2.76ZM298.98 52.67c-1.37-.64-1.4-.6-2.24.68l-.3-.14 1.92-4.12c1.32-2.82 3-4.56 6.9-2.73 4.37 2.04 3.52 4.66 2.16 7.56l-1.03 2.22-7.41-3.47Zm6.61 1.1c.54.25.92.43 1.4-.6 1.25-2.7.33-3.86-2.45-5.16-2.45-1.15-4.16-1.56-5.46 1.23-.4.86-.47 1.27.18 1.57l6.33 2.96ZM309.9 34.54c-.12-.24-.4-.73-.48-.8-.45-.4-.87.03-1.38.46l-.25-.23 2.07-2.29 10.3 3.9-1.14 1.26-3.18-1.2-2.8 3.1 1.53 3.04-.68.75-3.99-7.99Zm2.8 3.51 2.42-2.69-4.56-1.59 2.13 4.28ZM316.71 27.82c-.92-1.19-.95-1.17-2.3-.41l-.2-.27 3.18-2.47c.97-.76 3.65-2.85 5.33-.7 1.07 1.38.46 2.58-.44 3.53l5.47 2.1-1.5 1.16-5.2-1.95-.8.62 2.91 3.74-1.42 1.11-5.03-6.46Zm3.1 1.05.74-.58c.84-.66 1.85-1.8.8-3.13-1.01-1.3-2.1-1.04-3.18-.2-.87.68-.7.9-.03 1.76l1.67 2.15ZM336.3 24.47c-.51.5-1.7 1.58-2.99 2.25-3.16 1.64-5.14.28-6.68-2.68-1.4-2.67-1.48-5.01 1.72-6.68 2.17-1.12 3.6-.68 4.28.33l-1.75.9c-.31-.45-1.15-1.13-2.4-.49-2.08 1.08-1.1 3.47-.2 5.22 1.17 2.23 2.75 3.78 5.02 2.6.56-.29.9-.59 1.24-.93l-1.43-2.75c-.63-1.22-.8-1.09-2.2-.66l-.15-.3 3.06-1.58 2.48 4.77ZM337.13 15.89c-.45-1.44-.5-1.43-2.01-1.2l-.1-.32 7.5-2.34.73 2.13-.44.14c-.37-1.16-1.12-1.26-2.16-.94l-1.22.38c-.78.25-.96.37-.74 1.07l.9 2.9 1.9-.6c1.08-.34.99-1 .93-1.52l.44-.14.96 3.05-.44.14c-.25-.78-.74-1.14-1.68-.85l-1.9.6 1.02 3.24c.26.81.47.78 1.26.53l1.74-.54c.89-.28 1.22-.7.95-1.87l.44-.14.62 2.13-6.25 1.96-2.45-7.81ZM347.46 12.87c-.18-1.4-.4-1.3-1.83-1.38l-.05-.34 3.44-.44 6.19 7.57.03-.01-1.06-8.22 1.02-.13 1.32 10.17-1.57.2-6.48-7.9h-.03l1.11 8.6-1.03.12-1.06-8.24ZM362.11 10.62l-1.13-.05c-1.3-.06-1.7.3-1.83 1.41l-.46-.02.16-2.2 8.4.36-.04 2.26-.46-.02c.05-1.18-.46-1.56-1.72-1.62l-1.12-.04-.4 9.52-1.8-.08.4-9.52ZM370.44 12.1c.2-1.26.16-1.29-1.38-1.74l.06-.34 3.45.23-1.71 10.27-1.78-.3 1.36-8.12ZM376.65 13.79c.43-1.35.2-1.36-1.07-2.04l.1-.32 3.3 1.06 2.4 9.47h.04l2.52-7.88.99.31-3.13 9.76-1.5-.48-2.52-9.9-.03-.01-2.64 8.25-.98-.32 2.52-7.9ZM390.45 19.13c.21-.18.63-.56.68-.66.29-.53-.24-.84-.78-1.23l.16-.3 2.72 1.48-1.35 10.92-1.5-.82.43-3.37-3.7-2-2.58 2.2-.9-.48 6.82-5.74Zm-2.75 3.53 3.2 1.73.46-4.8-3.66 3.07ZM403.87 28.3c1.06-1.06 1.02-1.1.11-2.33l.24-.23 3.22 3.2c2.21 2.22 3.27 4.39.23 7.43-3.4 3.4-5.57 1.71-7.84-.55l-1.74-1.73 5.78-5.79Zm-3.28 5.85c-.42.42-.71.7.09 1.5 2.12 2.12 3.52 1.65 5.69-.53 1.9-1.9 2.87-3.37.69-5.55-.68-.67-1.03-.87-1.54-.37l-4.93 4.95ZM412.37 37.5c1.23-.86 1.2-.9.54-2.28l.27-.18 4.48 6.47-1.83 1.32-.26-.38c1-.7.87-1.44.26-2.34l-.74-1.04c-.46-.68-.63-.82-1.23-.4l-2.5 1.71 1.13 1.64c.65.93 1.27.65 1.73.44l.26.38-2.63 1.82-.26-.39c.68-.46.88-1.03.32-1.84l-1.13-1.64-2.8 1.93c-.7.48-.6.68-.14 1.35l1.04 1.5c.53.77 1.04.96 2.06.37l.27.38-1.84 1.21-3.73-5.39 6.73-4.65ZM420.95 52.62c1.21-.42 1.21-.46.89-2.04l.32-.1 1.44 3.15-8.12 2.73c-1.08.37-1.08.37-.73 1.4l.46 1.35c.33.98.68 1.82 2.03 1.36l.15.43-2.1.66-2.15-6.32 7.81-2.62ZM424.34 64.78c.26.06.82.16.92.15.6-.09.53-.7.53-1.36l.33-.04.44 3.05L417 72l-.25-1.68 2.96-1.67-.6-4.14-3.31-.77-.16-1.01 8.7 2.05Zm-4.49-.1.53 3.59 4.13-2.49-4.66-1.1ZM424.86 81.01c1.49.22 1.5.17 1.94-1.3l.33.05-1.13 7.79-2.23-.28.06-.46c1.2.18 1.62-.46 1.77-1.53l.19-1.27c.12-.8.09-1.03-.64-1.13l-3-.44-.28 1.96c-.16 1.13.49 1.34.96 1.5l-.06.46-3.16-.47.06-.45c.82.12 1.35-.17 1.49-1.14l.28-1.96-3.36-.5c-.84-.12-.9.08-1.02.9l-.26 1.8c-.13.93.1 1.4 1.26 1.68l-.06.45-2.18-.37.94-6.47 8.1 1.18ZM423.11 91.87c1.33.5 1.35.27 2.08-.94l.31.11-1.31 3.5-9.01.05-.02.03 6.75 5.96-.78 2.07-9.6-3.63.58-1.54 8.48 3.22.01-.03-7.26-6.44.41-1.1 9.61-.02.01-.03-8.4-3.18.37-.97 7.77 2.94ZM416.73 106.2c1.26.8 1.28.79 2.31-.39l.28.19-2.77 4.3c-1.1 1.68-2.67 2.24-4.18 1.26-2.42-1.56-1.08-3.63.02-5.34l.31-.48-3.82-2.47.98-1.52 6.87 4.44Zm-3.42-.07-.47.72c-.7 1.08-.97 2.23.56 3.23 1.44.93 2.2.38 2.98-.85.48-.74.27-.94-.26-1.28l-2.81-1.82ZM410.67 114.88c1.1 1.03 1.13 1 2.33.03l.24.23-2.73 2.97c-.84.9-3.14 3.4-5.14 1.55-1.28-1.18-.88-2.46-.15-3.55l-5.73-1.19 1.28-1.38 5.45 1.07.7-.74-3.5-3.21 1.23-1.33 6.02 5.55Zm-3.24-.52-.63.69c-.72.78-1.53 2.06-.28 3.22 1.22 1.11 2.24.68 3.17-.34.75-.8.55-1-.26-1.73l-2-1.84ZM402.75 122.83c.93 1.2.97 1.16 2.3.42l.2.27-6.21 4.8-1.43-1.76.37-.28c.74.97 1.49.8 2.35.13l1-.77c.66-.5.8-.69.34-1.26l-1.85-2.4-1.57 1.2c-.9.7-.58 1.3-.35 1.76l-.36.27-1.96-2.53.37-.27c.5.65 1.08.81 1.86.21l1.57-1.22-2.07-2.68c-.53-.68-.71-.57-1.36-.07l-1.44 1.1c-.75.58-.91 1.1-.26 2.1l-.37.28-1.3-1.78 5.18-4 5 6.48ZM389.7 132.36c.48-.04 1.79-.2 2.9-.8.77-.42 1.16-1.17.68-2.06-1.13-2.05-5.7.69-7.27-2.17-1.05-1.92.19-3.52 2.18-4.61 1.1-.61 2.36-.93 2.7-1.03l.6 1.08c-.58 0-2.04.07-3.19.7-.9.5-1.62 1.34-.94 2.55 1.18 2.16 5.75-.59 7.3 2.23.8 1.47.04 2.97-1.98 4.08-1 .54-2.03.88-2.44 1.02l-.54-1ZM383.37 134.26c0 .27 0 .84.04.94.2.57.78.39 1.42.26l.12.31-2.92 1.02-7.17-8.35 1.61-.57 2.22 2.58 3.94-1.38.12-3.39.96-.34-.34 8.92Zm-.76-4.42-3.43 1.2 3.24 3.58.19-4.78ZM361.58 133.07a3.11 3.11 0 1 0 0 6.22 3.11 3.11 0 0 0 0-6.22Zm0 5.26a2.15 2.15 0 1 1 0-4.3 2.15 2.15 0 0 1 0 4.3Z"/>
  <path fill="url(#a)" d="M364.19 0a76.87 76.87 0 0 0-49.4 17.7 75.76 75.76 0 0 1 45.05-14.97c41.14-.2 74.65 31.93 74.86 71.76.21 39.84-32.98 72.3-74.1 72.5a76.1 76.1 0 0 1-36.24-8.88c11.8 7.02 25.73 11.53 40.6 10.97 42.05-1.6 75.98-33.69 75.76-74.86C440.52 33.06 405.67.3 364.2 0Z"/>
  <path fill="#193167" d="m360.17 35.53-21.65 10.53h43.35l-21.7-10.53Zm.02 1.08 18 8.62-35.11-.1 17.12-8.52Zm32.13 34.51c-.65-.7-1.37-2.04-2.57-1.71.26-1.22-.62-1.96-1.44-2.14-.79-.18-1.53.22-2.07.75-.42-.6-1.17-.76-1.9-.66.1-.32.56-.94.56-.94.84-.85-.14-1.7.62-2.56.44-.49 0-1.22.12-1.7 0-.54-.44-1.01-.83-1.38-.5-.28-.93-.55-1.48-.7a3.9 3.9 0 0 0-3.73.9 6.04 6.04 0 0 0-1.29 3.85c-.19.14-.27.43-.42.63l-.74-16.88h.02c.52 0 1.19-.46 1.19-.97v-.72l-35.8.03v.7h.02c0 .51.43.92.94.92h.2c-.05.81-.89 14.3-1.13 16.88-.33-.61-1.1-1.25-1.13-1.48-.28-.49-.19-.87-.28-1.51-.02-2.3-3.35-6.84-7.87-1.1-.16.63.66.9.6 1.53.89.43.12 1.55.67 2.14.22.21.5.16.76.21 0 .21.39.26.28.54.38.64.77 1.27 1.64 1.18.44.3.55.79.44 1.22-.44.85-1.1 1.6-1.42 2.5-.94 1.7-.11 2.3.1 3.31-1.37 1.07-2.9 1.38-4.6 1.92-1.6-.11-2.96.8-3.79 2.13-.27.8-.05 1.6.44 2.3.83.16.56 1.06.83 1.6.82.64.82 1.76.98 2.76.17.97.33 1.93.66 2.84.76 5.23 2.09 10.5 3.02 15.78l-2.17 1.5c-.49.9.04 1.93.42 2.9.74 1.42 2.84.19 4.38.14.82.95 2.14.9 3.08.8a9.1 9.1 0 0 1 2.22-.08c.76.17 1.45.02 1.88-.67.28-.5-.42-1.2-.55-2.24-.14-1.16.22-2.49.3-2.92.25-1.5.8-3.76.7-5.18-.07-2-1.06-2.79-1.41-3.66.6-2.61 1.67-5.53 1.23-8.41l1.21-1.8c.24-.51.56-1.69.18-2.93-.4-1.25-1.47-2.57-1.62-3.09-.33-1.14-.03-2.32.04-2.85l.25-2.08h6.33c.07.64.15 1.45.6 1.9 1.1 1.15 1.14 3.37 1.51 4.97-.48.1-1.4-.1-1.84.1-1.16-.1-1.48 1.24-2.42 1.5-.49.37-1.14.59-.99 1.34.17.26.44.48.77.58.66 0 .5.75.55 1.13.66.37.5.84.44 1.49.28.52 1.05.52 1.54.63.33.22 1.37-.31 1.1.6-.66 1.48-.55 3.35-.83 5.01.22 2.29-1.26 4-.98 6.35-1 2.6.27 6.07-2.63 7.94-.6 1.22-2.64.9-2.64 2.46.26.2.44.47.71.63a5.3 5.3 0 0 0 2.74.12c1.2-.91 2.91-.75 3.95-1.87-.05-.86.12-1.71.33-2.57.39-3.3 3.4-5.33 3.02-8.9-.55-.64-.06-1.4.22-2.03.05-.1-.11-.54.1-.65-.26-1.64 1.66-2.56 2.31-3.72.33-.38.6-.96 1-1.12 1.09 2.07 2.56 4 3.5 6.12.1 1.93.5 3.48 1 5.24.04 1.7 1.85 2.5 1.74 4.27.7.8.78 1.96.94 3 .11.67.15 1.3.8 1.73.78.34 1.4.6 2.1.8.67.08 4 .6 4.33-.52l.13.02c.64-.1 2.08-.07 2.57-.04.85.03 3.73.43 4.2-.35.1-.26.1-.7-.28-.86-.82-.58-2.03-1.06-2.63-2.08-.55-1.48-.06-2.72-.12-4.32.23-.48.83-.8 1-1.39a9.1 9.1 0 0 0 2.63-2.93c.16-.48.93-.75.99-1.34.44-.3.22-.9.44-1.32-.22-.7-.12-1.55-.33-2.25-.22-.42-.06-.95-.39-1.33-1.35-2.62-1.86-5.3-1.96-5.78-.16-.66-.4-.99.43-1.15.38.31 1.1.54.98 1.17-.33.32.17.64.12 1.01.32.43.82.6 1.42.5.82-.6 1.32-1.35 2.25-1.78 1.59-.9-.33-1.62-.4-2.47 1.22-.57 2.08-1.79 1.95-2.58-.05-.2-.32-.35-.48-.52.3-.17 1.08-.94 1.56-2 .4-.92.27-2.02.67-2.57a4.8 4.8 0 0 0 .35-2.16c.5.16.86-.25 1.45.05.38.27 1.14.24 1.51.35.67.32.99.58 1.7.15.16-.4-.35-1.41-.8-2.16Zm-5.73-.01c-.21.27-.35.65-.74.65.06-.38-.1-.96.39-1.07.27 0 .35.26.35.42Zm-1.23-2.96c.17.59 1.26 1.42.88 2.17-.33.32-1.07.93-1.57.56-.22-.96-1.01-.59-1.56-1.4-.22 0-1.04-.26-1.04-.52.78-.49 2.37-1.35 3.3-.81Zm-3.2 13.13c-.43.05-1.02-.99-1.24-1.26.05-.26.22-.72.42-.94.33-.05.78.14 1.05.31.05.48-.4 1.14-.22 1.89Zm-.67-3.07c-.1-.58.47-1.78.69-2.37.65-.05 1.07-.2 1.45.28.17.64-.7 2.11-1.13 2.44l-1-.35Zm.8-3.64c.21-.44.6-.85.49-1.43a8.37 8.37 0 0 0-.6-2.88c-.17-.38.21-.38.44-.31.65-.07.54.9 1.2.84.06.65 1.48.7.77 1.55-.66.54-.5 1.97-.6 2.66-.62.37-1.81-.16-1.7-.43Zm-14.74-26c.52 0 1.2-.45 1.2-.96h2.18c0 .51.43.93.95.93h.22l-.17 2.43-.66 13.3-.1 1.55h-2.89l-.04-.5-.03-1.02-.4-9.57-.31-6.15h.05Zm-4.17-.32s.63-.37 1.89-.37c1.25 0 1.77.37 1.77.37l.48 18.27h4.55c.08-1.05.88-18.25.88-18.25s.29-.4 1.82-.38c1.53.02 1.83.4 1.83.4l.65 17.24.03.63c-.2.25-.4.43-.65.4l.06.02c-.96.2-1.21.56-1.8 1.16l-.16.02h-8.19l-.1-.38s-.34-1.59-1.64-2.45a4.79 4.79 0 0 0-2.26-.57l.84-16.1Zm3.63 21.3-.18-.67-.1-.37h7.64c-.2.37-.37.77-.5 1.17v-.12h-6.86Zm6.63.96c-.08.4-.13.78-.14 1.12h-5.9l-.33-1.12h6.37ZM358.1 48.58c.52 0 1.19-.46 1.19-.97h2.02c0 .51.42.93.95.93h.22l-.97 15.8c-.62.03-1.07.08-1.07.08s-.49-.37-.51-.96c-.04-.59.07-1.27 0-1.8a2.95 2.95 0 0 0-1.46-2.04l-.43-11.04h.06Zm-.25 18.69c-.72-.06-1.26 0-1.7-.64-.17-.64-1.04-1.22-.72-1.91.22.2.55.63.99.37.17-.12.28-.2.23-.5-.72-.3-1.93-.42-1.87-1.38-.06-.16 0-.35.38-.33.1 0 .27-.03.33-.14 0-.1-.11-.1-.17-.22-.27.49-.74-.11-1.02.31-.23-.23-.23-.7-.13-.97.32-.64.69-1.26 1.34-1.64 1.1-.48 3.15-.3 3.64.92.17.16-.1.74-.2.96-.33-.06-.5-.58-1-.38-.49.32-.76.8-1.2 1.07.65.33 1.25-.68 1.85-.25.32 1-.92 1.26-1.09 1.9.12.27.39.22.6.22.55-.11.28-.8.71-.92-.37 1.08 1.11 2.1-.04 2.78-.5-.26-.33-1.11-.99-1.11-.54.26-.06.85-.66.95-.06.64 1.32.16.72.9Zm-9.07-18.7c0-.04 0-.03.01 0h.03c.52 0 1.18-.44 1.18-.95h1.86c0 .5.43.92.95.92H352.98l-.66 15.59-.1 1.72h-2.88l-.56-17.24v-.03Zm-4-.3s.69-.32 1.7-.35a3.32 3.32 0 0 1 1.7.39l.4 18.18 4.58.01.71-18.23s.64-.4 1.85-.39c1.21.01 1.88.4 1.88.4l.31 11.12a4.12 4.12 0 0 0-2.04.06c-3.76.93-2.19 3.99-2.19 3.99l1.18 2.46-1.65 1.85h-8.5c-.25-.6-.67-1.1-1.15-1.5.27-2.95 1.22-17.99 1.22-17.99Zm.17 20.24h7.6l-.88 1.05h-6.7a3 3 0 0 0-.02-1.05Zm-16.3 10.1c.06-.81.77-1.34 1.43-1.77 2.03.17 3.4-1.17 5.32-1.27.33-.12.71-.23 1.1-.23.16.7.16 1.45.16 2.25-1.76.53-3.9.05-5.32 1.12-.38.1-.82.36-1.2.05-.06-.31.6-.48.16-.75-.72.06-1.1 1.65-1.65.6Zm5.26 0c-.27.46-.99.63-1.58.63h-.22c.27-.59 1.15-.59 1.8-.64Zm-3.39 4.13c.16-.05.74-.12 1.01.08.33.55.22 1.24.38 1.84.67 3.74 1.19 7 2.06 10.63.05.43.34 1.76.43 2.33.44 2.35.6 3.76 1.22 6.1-.06.17-.81-.14-.98-.2l-4.12-20.78Zm8.39 13.4c.65 1.45 1.8 2.72 1.42 4.49l.33 3.73c-.05.64-.11.96-.44 1.44-.22.06-.38.16-.6.1-.33-.84-.55-1.75-.66-2.71-.55-1.5-.93-3.04-1.7-4.43-.44-1.07-1.04-2.08-1.26-3.14-.55-.53-1.2-1.02-1.1-1.87-.16-1.29.72-2.19.77-3.47.28-1.12.9-2.6 1.66-3.61.11 2.08.84 4.45.78 6.48-1.09 1.32.63 1.94.8 3Zm-1.37 6.73c-.22.21-.58.23-.94.16-.49-.28-.41-.56-.54-1.28-.17-1.7-.66-3.36-.82-5.12.6 1.23 1.02 2.5 1.62 3.77.37.97.95 1.72.68 2.47Zm-2.04-14.24c-.65 1.07-.65 2.44-1.25 3.46-.23-.53-.06-1.16-.38-1.65-.1-1.34-.6-2.3-.6-3.68-.56-1.18-.5-2.56-.72-3.9 1.32-.85 2.96-.85 4.5-1.28 1.09 2.78-1.1 4.7-1.55 7.05Zm-2.21 18.96c-.6-.43-.86-1.3-.8-2.15.21-.7 1.13-1.19 1.78-1.4.45.1 1.07.3 1.6.2.73-.58 2.1-.94 2.76.06.15.7.51 1.48-.26 2-1.7.55-3.16 1.29-5.08 1.29Zm11.43-25.52c-.21 2.31-2.83 2.87-1.74 4.78.06 2.72-.46 4.77-1.16 7.17 2.68 3.25.65 7.62.7 11.57-.38.69.67 1.12.4 1.92-.23.47-.72.22-1.1.22-1.2-.22-2.37.63-3.51 0 1.25-.7 2.68-1.83 2.85-3.43-.06-.69-.2-2.79-.14-3.05-.55-.86-.19-1.83-.46-2.79.05-1.06-.56-1.68-.44-2.74-1.33-1.07-1.05-2.78-1.55-4.22-.1-1.53-.7-3.3-.22-4.96-.15-1.59.12-3.3-.21-4.8-.11-.74.93-.53 1.42-.8 1.54-.47 3.22-1.9 3.38-3.6l.06-.3.05 1.26c.83.9 1.84 2.37 1.67 3.77Zm-1.48-10.88c-.3 1.01-.21 2.2-.34 3.25a9.78 9.78 0 0 1-1.8 4.85c-2.14 1.23-4.71 1.55-7.08 1.97a4.24 4.24 0 0 1-3.56.81c-.05-.54-.11-1.07-.38-1.4-.17-.52.49-.42.7-.63 3.3.17 5.39-1.92 8.35-2.56.38-.21 0-.64.05-1.02-.27-.9.16-1.92.38-2.82-.27-.9 1.38-1.87.12-2.67-.28-.47-.23-1.06-.5-1.54-.5.26-.05.85-.33 1.22-.28.9 1.04 1.6.1 2.46a6.66 6.66 0 0 0-.6 3.9v.15c-.7.32-.6-.58-.81-.96.1-.75-.28-1.66.32-2.24.28.06.18-.13.35-.34-.6-.27-1.2-.56-1.42-1.3-.22-2.04 1.56-2.95 2-4.81a3.89 3.89 0 0 1-.88-1.6c-.32-.12-.7.2-1.04 0-.27-.33-.81-.54-.6-1.07-.44-.53-1.59-.48-1.26-1.44.16-.2.44-.48.33-.75-.05-.2-.39-.2-.66-.2.11-.6.82-.6 1.15-1.13.33-.11.56.64.88.26-.11-.26-.16-.52-.44-.74-.77-.26-1.26.33-1.86.63-.12-1.17 1.42-1.54 2.19-1.91.38-.26.77-.43 1.31-.37.72.47 1.33.85 1.87 1.55.28.9.77 1.76.77 2.82a.5.5 0 0 0-.22.43c.66.74 1.81 1.01 1.65 2.19.27.26.66.37.99.52.98.7 1.1 1.28 1.27 2.35.16.85-.33 1.48-1 2.14Zm7.24.44h-6.27c.2-.53.36-.87.48-1.12h6.32c-.19.37-.4.72-.53 1.12Zm-.1 8.82c.83.16 1.42-.4 2.13.13.33.14.67.45.29.67l-2.85-.06c-.17-.32.16-.64.44-.74Zm-.76 1.38c1.26-.05 2.86-.05 3.9.21.05.11.05.27.05.44l-.22.1-4.12-.1c-.16-.33.16-.55.39-.65Zm0 2.03c-.12-.1-.06-.26-.06-.37l.34-.28c1.53.17 3.22-.1 4.71.28.17.15.33.26.27.47-.6 0-1.2.33-1.7 0l-3.56-.1Zm1.26 1.6c-.17-.05-.22-.17-.32-.27 0-.26.2-.53.49-.7a34.3 34.3 0 0 1 4.6.22c.44.16.72.48.94.8-1.98.38-3.68-.1-5.71-.05Zm5.54 4.8c-1.98.85-.77 3.3-2.13 4.53.04.64.15 1.44.21 2.14.05 2.34-1.92 3.89-2.36 6.08a4.94 4.94 0 0 0-.77 3.52c0 .43-.11.86-.5 1.07-.32-.11-.81-.11-1.25-.11-.88.95-2.15 1.54-3.4 1.23-.33-.11-.33-.48 0-.64 1.65-.8 2.63-2.46 3.4-4 .27-1.6.55-2.72.77-4.33-.06-1.87.93-3.3.93-5.12.44-2.07.44-4.1 1.04-6.19.17-.74.44-1.76 1.1-2.34 1.43.11 2.85.26 4.17.64.6 1.34-.77 2.3-1.21 3.51Zm3.18-3.79c-.28-.91-1.21-1.33-1.97-1.86-1.43-1.23-3.87-2.5-3.93-4.63a12.85 12.85 0 0 1-1.41-4.6c-1.04-1.08-1.68-2.47-.96-3.8.28-.91 1.2-1.68 1.97-2.17.16-.95 1.24-2.07 2.01-2.75.38.15.42.65.8.88.76.43 1.82.57 2.7.04.88-.69 1.2-1.62 1.6-2.62 1.2.22 3.37-.43 4.3.63l.81.93c.66 1.18-.14 3.02.9 4.03.65 1.55.75 2.96.75 4.72.83 1.06.6 2.78.1 3.9-.16.47-.48 1-.93 1.22-.55 0-1.42.22-1.86-.33 0-1.06.44-1.96.88-2.86-.17-1.12-1.2-2.03-1.37-3.26-.71-1.65.71-2.93.21-4.7-.21-.05-.43-.43-.65-.1-.43.59.28 1.23 0 1.97-.17.7-.06 1.87-1.1 2.14.06 1 1.05 2.87-.32 3.57.17.7.92 1.5.76 2.4-.28.43-.26 1.14-.98 1.1-1.86-.29-3.68-.03-4.4-.52-.37-.53.67-1.33-.26-1.27.05-.96.16-1.87-.06-2.78.22-.26.6-.26.88-.53-.17-.27-.55-.05-.77-.21-1.04.2-1.6-2.99-2.08-.55 1.25 1.46.87 3.43 1.04 5.24 1.59 1.28 2.8 2.98 3.89 4.54.93.53 1.92 1.05 2.85 1.49-.16.42-.7.16-.99.58-.32.8.55 1.18 0 1.92-1.04-.37-2.25-.42-2.4-1.76Zm1.43-2.93c2.52.1 5.31.1 7.95.26.27.11.5.27.6.6l-.16.1c-2.03.27-4.06-.2-6.2-.05-.38-.33-1.2 0-1.65-.06-.21-.27-.82-.05-.82-.53l.28-.32Zm-.93-.6c-.34-.1-.23-.41-.17-.63 2.85 0 5.82.05 8.67.22.22.1.32.31.49.48l-.05.2c-1.6.22-2.64-.1-4.29 0-.43-.15-1.2.06-1.63-.2l-3.02-.07Zm9.54 3.16c-1.76.15-3.78.1-5.44-.43-.05-.11-.32-.26-.32-.48.11-.26.44 0 .55-.16 1.87.11 3.9-.1 5.6.43.1.27-.17.52-.39.64Zm.6 1.28c.22.11.22.43.11.58-.65.38-2.47-.31-2.68-.15-1.7-.38-3.35-.43-4.83-1.07v-.22c2.63-.54 4.83.48 7.4.86Zm-.54-5.49c-3.52.1-6.97-.16-10.47-.27-.23-.17-.45-.22-.5-.54l.33-.32c1.53.22 3.45-.1 5.04.27.77-.27 1.53.05 2.36-.05l.17.1c1.09.17 2.46-.36 3.12.43l-.05.38Zm-6.17-6.52c.44 0 .86 1.43.97 1.69-.22.96-.62 1.62-.79 2.58-.16 0-.26-.18-.35-.54-.16-1.12.38-2.72.17-3.73Zm6.77 33.83c-1.27.21-1.73-.95-2.94-.67-.55-.28-.13-1.37-.57-1.63.16-1.01-.45-1.7-.61-2.61.16-1.23-.22-2.24-.43-3.37-.55.17-.07.86-.4 1.07-1.25-2.02-2.68-5.23-2.13-7.84h.05c.13-.5.25-.99-.04-1.28-.28.05-.11.38-.45.32-.6-.7-.93-1.38-1.42-2.08-.39-.8-.71-1.6-.94-2.45.06-.1.12-.27.27-.38.83-.05 1.82.8 2.54-.16 0-.2-.06-.52.26-.63.77.1 1.48.1 1.87.9.32 1.34.39 2.67-.22 3.84.29-.23.7.1.87.4l.05-.01c.16.36.44 1.3.42 1.95.4 1.05 1.05 1.97 1.02 2.68.99 2.61.44 4.84.88 7.68.16.96.82 1.92 1.7 2.4.38.32.07.42.56.68.18-.16.6-.21.88-.05.17.16 1.12.53 1.06.8-.33.37-1.54.65-2.28.44Zm2.68-2c-.05.14-.17.44-.23.78l-.29-.2-.02-.02a6.08 6.08 0 0 1-3.13-2.78c-.06-.8-.44-1.65-.22-2.45-.17-1.55-.22-3.2-.44-4.7-.44-1.23-.93-2.5-1.65-3.62 0-.8-.27-1.5-.54-2.24l-.06-3.9c1.37-.1 1.97.49 3.45.43.28.03.78.16.88.05.34-.43.3-1.11-.06-1.56-.38-.16-.44-.6.06-.84.11-.26.53-.74.11-1.09-.66-.32-.1-1.1-.54-1.57-.44-1.07 1.7-2.83-.28-2.94-.77 0-1.37 0-2.08-.1 0-.86.5-1.77.55-2.68.43-1.7-.66-2.98-.55-4.69l-.07-.36h5.64a22 22 0 0 0-.22 5.86c.55 1.4-.71 2.13-.93 3.31-.71 1.24-1 3.3 0 4.49.32 2.55.32 5.22 1.03 7.63-.2.73-.42 1.43-.7 2.18-.16 2.18-.44 5 .7 6.82.06 1.61.12 2.78-.41 4.2Zm3.98-10.64c.23 2.13-.6 3.84-.6 5.86l-.1.17c-.45 2.07-.16 4.06 1.7 5.29.18.32 1.46.32 1.25.85-.66.22-1.58.04-2.13-.17l-2.8-.05c-.22-.11-.5-.33-.55-.59.06-1.39.66-2.34.66-3.73.17-.85.27-1.5.32-2.4-.7.05-.75-.75-.98-1.23-.27-1-.27-2.67 0-3.68.16-.7.5-1.27.71-1.92.22-.37.44-.54.44-.95-1.1-1.61-.92-3.8-1.2-5.67-.33-.9.1-2.03-.33-2.93-.5-.9-.43-1.68-.28-2.66.17-.55.39-1.34 1-1.71 1.3.85 2.68 1.44 4 2.13.38.22 0 .8.17 1.16.77 1.18.64 2.42.43 3.85.05 2.13-.83 3.63-.83 5.76-.27.16 0 .48-.16.75-.16.64-.5 1.23-.72 1.87Zm2.69-7.26.06-.16a6.33 6.33 0 0 1 1.31 3.58c.33 1.17.61 2.72-.43 3.63-.66 0-.6.74-.88 1.12l-1.81 2.29h-.22c.05-1.07.11-2.45.49-3.46 1.2-1.66.11-4.01 1.2-5.7 0-.29 0-.92.28-1.3Zm2.54-2.86c-.25-.1-.6-.59-.25-.82.36.13.47.13.6.48l-.35.34Zm2.07-4.55c-.8.33-1 .86-1.14 1.56-.06 0-.13-.07-.18-.2.05.14.12.22.18.22a3.32 3.32 0 0 1 .2-.66c.56.47 1.27.79 1.1 1.6-.7-.17-.87.95-1.59.37l-.38.25a5.9 5.9 0 0 0-4.17-2.28c-1.36-.92-3.02-1.39-3.95-2.83-.33-2.45-.42-5.07.12-7.52-.33-1.44.1-3.04.87-4.22.88-.9 1.92-.56 2.69-1.57.22-.6.79-1 1.02-1.81.28-1.44.68-3.12 2.16-3.76 1.2-.64 2.3.21 3.3.75l.26-.11c-.21.05-.16.32-.16.48-.6.48-1.26-1.01-1.6.16.07.21-.1.47.17.63.22-1.17 1.05.06 1.65-.05.05.22.11.64-.06.8-.32 0-.55.06-.77.22-.43.85 1.1.8.56 1.6-.37.66-.81 1.92-1.7 1.92-.4-.17-.82-.17-1.16-.54.88 1.43-2.3 1.92-.66 3.15.39 1.39 1.6 3.36 0 4.53 0 .21.06.38.22.48-.1 1.5-.26 3.16-1.08 4.39a4.1 4.1 0 0 1-1.88-1.19c.77-1.55.72-3.79.56-5.38.65-.8.6-2.14.32-3.1-.05 0-.11-.05-.16-.05 0 1.06-.12 2.4-1.16 2.98-.21.06-.38.22-.54.27.99.6.87 1.77.87 2.88-.27.96-.54 1.93-.98 2.72 1.2 1.02 2.9 1.71 3.95 2.99.56.38 1.1.83 1.71 1.08.03-.39.2-.82.7-1.03.67-.3 1.15-.37 1.2-1.15.03-.18.32-.38.49-.09.2.56-.33 1.3-.98 1.51Zm.6-2.55c-1.01.28-1.33.88-1.6 1.7-.32-.03-.53-1.72.8-2.13.85-.26 1.43-.26 1.61-1.18.06-.21.45-.4.6-.04.15.69-.6 1.5-1.41 1.65Zm1.51-3.57c-1.23.46-1.55 1.21-1.78 2.23-.4 0-.88-2 .71-2.66 1.04-.4 1.76-.48 1.88-1.6.05-.27.5-.55.73-.12.29.8-.54 1.87-1.54 2.15Zm.72-3.25c-.84.53-1.4 1.05-1.3 2.33-.17.2-.51-.07-.67-.3-.29-.32-.2-1.06-.03-1.4.66-1.23 1.93-.96 1.92-2.13l.98-.26a1.8 1.8 0 0 1-.9 1.76Zm.89-2.53a1.1 1.1 0 1 1 0-2.21 1.1 1.1 0 0 1 0 2.21Zm4.1 2.87c-.6-.59-1.46-.28-2.06-.82-.5.06-1.37.28-1.58-.36-.5-1.01.47-1.15.96-1.68.33-.33 1.03.08 1.36.25.5.45 1.13 1.12 1.78 2.25.05.27-.24.47-.46.36Z"/>
  <path fill="url(#b)" d="M365.07 26.3c-27.6-3.01-50.24 16.25-53.3 43.38-3.05 27.13 14.56 50.78 42.16 53.8 9.24 1 18.22.04 26.15-3.45 15.7-6.93 27.37-21.62 29.4-39.67 3.06-27.13-16.8-51.03-44.41-54.05Zm-12.3 95.3c-26.31-2.88-43.06-25.95-40.15-51.83C315.52 43.9 337 26.12 363.32 29c26.33 2.88 45.31 25.08 42.4 50.95-2.91 25.88-26.62 44.52-52.94 41.64Z"/>
  <path fill="#193167" d="M332.49 114.38a43.91 43.91 0 0 1-15.47-18.73c-2.58-5.8-4.16-13.43-4.2-20.26-.08-13.54 4.84-26.13 13.56-34.74l-.29.22.61-.53c.34-.33.67-.66 1.02-.98a29 29 0 0 1 2.4-1.97l3.06-2.63v-.56c-12.77 8.64-21.76 23.46-21.76 40.32 0 12.54 3.63 24.33 11.72 33.26 2.75 3.02 6.52 5.62 10.04 7.88v-.84c-.23-.15-.48-.28-.7-.44ZM354.9 65.9H343.4v.77h11.51v-.78ZM377.6 65.9h-11.9v.77h11.9v-.78Z"/>
  <defs>
    <linearGradient id="a" x1="386.26" x2="373.28" y1="147.32" y2="-1.13" gradientUnits="userSpaceOnUse">
      <stop offset=".21" stop-color="#8A2432"/>
      <stop offset=".33" stop-color="#8C2735"/>
      <stop offset=".43" stop-color="#91313E"/>
      <stop offset=".51" stop-color="#99414D"/>
      <stop offset=".59" stop-color="#A65863"/>
      <stop offset=".66" stop-color="#B6767E"/>
      <stop offset=".73" stop-color="#C99AA1"/>
      <stop offset=".8" stop-color="#E0C5C9"/>
      <stop offset=".86" stop-color="#FAF6F7"/>
      <stop offset=".87" stop-color="#fff"/>
      <stop offset="1" stop-color="#8A2432"/>
    </linearGradient>
    <linearGradient id="b" x1="355.23" x2="366.02" y1="123.63" y2="26.41" gradientUnits="userSpaceOnUse">
      <stop offset=".22" stop-color="#193167"/>
      <stop offset=".23" stop-color="#1B3369"/>
      <stop offset=".31" stop-color="#95A0B9"/>
      <stop offset=".36" stop-color="#E1E4EB"/>
      <stop offset=".39" stop-color="#fff"/>
      <stop offset=".46" stop-color="#AAB3C7"/>
      <stop offset=".58" stop-color="#193167"/>
    </linearGradient>
  </defs>
</svg>
