<svg width="834" height="119" viewBox="0 0 834 119" fill="none" xmlns="http://www.w3.org/2000/svg">
<rect x="151" y="53" width="532" height="8" fill="#D6D6D6"/>
<g filter="url(#filter0_d_1_47)">
<rect x="683.5" y="0.5" width="146" height="110" rx="9.5" fill="white" stroke="#DADADA"/>
<path d="M706.079 69.0909H708.498L711.736 76.9957H711.864L715.103 69.0909H717.521V80H715.625V72.5053H715.524L712.509 79.968H711.092L708.077 72.4893H707.976V80H706.079V69.0909ZM724.803 76.5589V71.8182H726.731V80H724.861V78.5458H724.776C724.591 79.0039 724.288 79.3786 723.865 79.6697C723.446 79.9609 722.93 80.1065 722.315 80.1065C721.779 80.1065 721.305 79.9876 720.893 79.7496C720.485 79.5082 720.165 79.1584 719.934 78.7003C719.703 78.2386 719.588 77.6811 719.588 77.0277V71.8182H721.516V76.7294C721.516 77.2479 721.658 77.6598 721.942 77.9652C722.226 78.2706 722.599 78.4233 723.061 78.4233C723.345 78.4233 723.62 78.354 723.887 78.2156C724.153 78.0771 724.371 77.8711 724.542 77.5977C724.716 77.3207 724.803 76.9744 724.803 76.5589ZM729.912 83.0682C729.65 83.0682 729.406 83.0469 729.183 83.0043C728.962 82.9652 728.787 82.919 728.655 82.8658L729.103 81.3636C729.383 81.4453 729.634 81.4844 729.854 81.4808C730.074 81.4773 730.268 81.408 730.434 81.2731C730.605 81.1417 730.749 80.9215 730.866 80.6126L731.031 80.1705L728.064 71.8182H730.11L731.995 77.9972H732.08L733.971 71.8182H736.022L732.746 80.9908C732.594 81.424 732.391 81.7951 732.139 82.104C731.887 82.4165 731.578 82.6545 731.212 82.8178C730.85 82.9847 730.417 83.0682 729.912 83.0682ZM741.162 80V69.0909H748.258V70.7475H743.139V73.7092H747.89V75.3658H743.139V78.3434H748.3V80H741.162ZM751.765 71.8182L753.417 74.8384L755.094 71.8182H757.135L754.668 75.9091L757.177 80H755.148L753.417 77.0543L751.701 80H749.656L752.149 75.9091L749.72 71.8182H751.765ZM758.626 83.0682V71.8182H760.522V73.1712H760.634C760.734 72.9723 760.874 72.761 761.055 72.5373C761.236 72.31 761.481 72.1165 761.79 71.9567C762.099 71.7933 762.493 71.7116 762.973 71.7116C763.605 71.7116 764.175 71.8732 764.682 72.1964C765.194 72.516 765.599 72.9901 765.897 73.6186C766.199 74.2436 766.35 75.0107 766.35 75.9197C766.35 76.8182 766.202 77.5817 765.908 78.2102C765.613 78.8388 765.212 79.3182 764.704 79.6484C764.196 79.9787 763.621 80.1438 762.978 80.1438C762.509 80.1438 762.12 80.0657 761.811 79.9094C761.502 79.7532 761.254 79.565 761.066 79.3448C760.881 79.1211 760.737 78.9098 760.634 78.7109H760.554V83.0682H758.626ZM760.517 75.9091C760.517 76.4382 760.592 76.9016 760.741 77.2994C760.893 77.6971 761.112 78.0078 761.396 78.2315C761.684 78.4517 762.032 78.5618 762.44 78.5618C762.866 78.5618 763.223 78.4482 763.511 78.2209C763.798 77.9901 764.015 77.6758 764.16 77.2781C764.31 76.8768 764.384 76.4205 764.384 75.9091C764.384 75.4013 764.311 74.9503 764.166 74.5561C764.02 74.1619 763.804 73.853 763.516 73.6293C763.228 73.4055 762.87 73.2937 762.44 73.2937C762.028 73.2937 761.678 73.402 761.391 73.6186C761.103 73.8352 760.885 74.1388 760.735 74.5295C760.59 74.9201 760.517 75.38 760.517 75.9091ZM773.216 76.5589V71.8182H775.144V80H773.274V78.5458H773.189C773.005 79.0039 772.701 79.3786 772.278 79.6697C771.859 79.9609 771.343 80.1065 770.728 80.1065C770.192 80.1065 769.718 79.9876 769.306 79.7496C768.898 79.5082 768.578 79.1584 768.347 78.7003C768.116 78.2386 768.001 77.6811 768.001 77.0277V71.8182H769.929V76.7294C769.929 77.2479 770.071 77.6598 770.355 77.9652C770.64 78.2706 771.012 78.4233 771.474 78.4233C771.758 78.4233 772.033 78.354 772.3 78.2156C772.566 78.0771 772.784 77.8711 772.955 77.5977C773.129 77.3207 773.216 76.9744 773.216 76.5589ZM780.749 80.1598C779.929 80.1598 779.22 79.9893 778.624 79.6484C778.031 79.304 777.574 78.8175 777.255 78.1889C776.935 77.5568 776.775 76.8129 776.775 75.957C776.775 75.1154 776.935 74.3768 777.255 73.7411C777.578 73.1019 778.029 72.6048 778.608 72.2496C779.187 71.891 779.867 71.7116 780.648 71.7116C781.152 71.7116 781.628 71.7933 782.076 71.9567C782.527 72.1165 782.924 72.3651 783.269 72.7024C783.617 73.0398 783.89 73.4695 784.089 73.9915C784.288 74.5099 784.387 75.1278 784.387 75.8452V76.4364H777.681V75.1367H782.539C782.535 74.7674 782.455 74.4389 782.299 74.1513C782.143 73.8601 781.925 73.631 781.644 73.4641C781.367 73.2972 781.044 73.2138 780.675 73.2138C780.28 73.2138 779.934 73.3097 779.636 73.5014C779.338 73.6896 779.105 73.9382 778.938 74.2472C778.775 74.5526 778.691 74.8881 778.688 75.2539V76.3885C778.688 76.8643 778.775 77.2727 778.949 77.6136C779.123 77.951 779.366 78.2102 779.678 78.3913C779.991 78.5689 780.357 78.6577 780.776 78.6577C781.056 78.6577 781.31 78.6186 781.538 78.5405C781.765 78.4588 781.962 78.3398 782.129 78.1836C782.296 78.0273 782.422 77.8338 782.507 77.603L784.307 77.8054C784.194 78.2812 783.977 78.6967 783.658 79.0518C783.341 79.4034 782.937 79.6768 782.443 79.8722C781.949 80.0639 781.385 80.1598 780.749 80.1598ZM792.485 73.9808L790.727 74.1726C790.678 73.995 790.591 73.8281 790.466 73.6719C790.346 73.5156 790.182 73.3896 789.976 73.2937C789.77 73.1978 789.518 73.1499 789.22 73.1499C788.819 73.1499 788.481 73.2369 788.208 73.4109C787.938 73.5849 787.805 73.8104 787.808 74.0874C787.805 74.3253 787.892 74.5188 788.069 74.668C788.25 74.8171 788.549 74.9396 788.964 75.0355L790.36 75.3338C791.134 75.5007 791.709 75.7653 792.086 76.1275C792.466 76.4897 792.657 76.9638 792.661 77.5497C792.657 78.0646 792.507 78.5192 792.208 78.9134C791.913 79.304 791.503 79.6094 790.978 79.8295C790.452 80.0497 789.848 80.1598 789.167 80.1598C788.165 80.1598 787.359 79.9503 786.748 79.5312C786.138 79.1087 785.774 78.521 785.656 77.7681L787.537 77.587C787.622 77.9563 787.803 78.2351 788.08 78.4233C788.357 78.6115 788.717 78.7056 789.161 78.7056C789.619 78.7056 789.987 78.6115 790.264 78.4233C790.545 78.2351 790.685 78.0025 790.685 77.7255C790.685 77.4911 790.594 77.2976 790.413 77.1449C790.236 76.9922 789.959 76.875 789.582 76.7933L788.187 76.5004C787.402 76.337 786.821 76.0618 786.445 75.6747C786.068 75.2841 785.882 74.7905 785.885 74.1939C785.882 73.6896 786.019 73.2528 786.296 72.8835C786.576 72.5107 786.965 72.223 787.462 72.0206C787.963 71.8146 788.54 71.7116 789.193 71.7116C790.152 71.7116 790.907 71.9158 791.457 72.3242C792.011 72.7326 792.354 73.2848 792.485 73.9808ZM798.337 71.8182V73.3097H793.633V71.8182H798.337ZM794.794 69.858H796.723V77.5391C796.723 77.7983 796.762 77.9972 796.84 78.1357C796.921 78.2706 797.028 78.3629 797.159 78.4126C797.291 78.4624 797.436 78.4872 797.596 78.4872C797.717 78.4872 797.827 78.4783 797.926 78.4606C798.029 78.4428 798.108 78.4268 798.161 78.4126L798.486 79.9201C798.383 79.9556 798.235 79.9947 798.044 80.0373C797.855 80.0799 797.625 80.1048 797.351 80.1119C796.868 80.1261 796.433 80.0533 796.046 79.8935C795.659 79.7301 795.352 79.478 795.125 79.1371C794.901 78.7962 794.791 78.37 794.794 77.8587V69.858ZM803.43 80.1598C802.631 80.1598 801.939 79.984 801.353 79.6325C800.767 79.2809 800.312 78.7891 799.989 78.157C799.67 77.5249 799.51 76.7862 799.51 75.9411C799.51 75.0959 799.67 74.3555 799.989 73.7198C800.312 73.0842 800.767 72.5906 801.353 72.239C801.939 71.8874 802.631 71.7116 803.43 71.7116C804.229 71.7116 804.922 71.8874 805.508 72.239C806.094 72.5906 806.546 73.0842 806.866 73.7198C807.189 74.3555 807.351 75.0959 807.351 75.9411C807.351 76.7862 807.189 77.5249 806.866 78.157C806.546 78.7891 806.094 79.2809 805.508 79.6325C804.922 79.984 804.229 80.1598 803.43 80.1598ZM803.441 78.6151C803.874 78.6151 804.236 78.4961 804.528 78.2582C804.819 78.0167 805.035 77.6935 805.177 77.2887C805.323 76.8839 805.396 76.4329 805.396 75.9357C805.396 75.435 805.323 74.9822 805.177 74.5774C805.035 74.169 804.819 73.8441 804.528 73.6026C804.236 73.3612 803.874 73.2404 803.441 73.2404C802.997 73.2404 802.628 73.3612 802.333 73.6026C802.042 73.8441 801.823 74.169 801.678 74.5774C801.536 74.9822 801.465 75.435 801.465 75.9357C801.465 76.4329 801.536 76.8839 801.678 77.2887C801.823 77.6935 802.042 78.0167 802.333 78.2582C802.628 78.4961 802.997 78.6151 803.441 78.6151Z" fill="black"/>
<path d="M766.5 33H751.5V25.5C751.5 24.1739 752.027 22.9021 752.964 21.9645C753.902 21.0268 755.174 20.5 756.5 20.5C757.826 20.5 759.098 21.0268 760.036 21.9645C760.973 22.9021 761.5 24.1739 761.5 25.5H764C764 23.5109 763.21 21.6032 761.803 20.1967C760.397 18.7902 758.489 18 756.5 18C754.511 18 752.603 18.7902 751.197 20.1967C749.79 21.6032 749 23.5109 749 25.5V33H746.5C745.837 33 745.201 33.2634 744.732 33.7322C744.263 34.2011 744 34.837 744 35.5V50.5C744 51.163 744.263 51.7989 744.732 52.2678C745.201 52.7366 745.837 53 746.5 53H766.5C767.163 53 767.799 52.7366 768.268 52.2678C768.737 51.7989 769 51.163 769 50.5V35.5C769 34.837 768.737 34.2011 768.268 33.7322C767.799 33.2634 767.163 33 766.5 33ZM766.5 50.5H746.5V35.5H766.5V50.5Z" fill="#390000"/>
<rect x="760" y="41" width="14" height="14" rx="7" fill="white"/>
<path d="M767 41C763.1 41 760 44.1 760 48C760 51.9 763.1 55 767 55C770.9 55 774 51.9 774 48C774 44.1 770.9 41 767 41ZM769.7 51.5L767 48.8L764.3 51.5L763.5 50.7L766.2 48L763.5 45.3L764.3 44.5L767 47.2L769.7 44.5L770.5 45.3L767.8 48L770.5 50.7L769.7 51.5Z" fill="#CB0000"/>
</g>
<g filter="url(#filter1_d_1_47)">
<rect x="581" y="16" width="80" height="80" rx="6" fill="#CA1B1E"/>
<path d="M608.937 75V37.1818H633.534V42.9247H615.788V53.1918H632.26V58.9347H615.788V69.2571H633.681V75H608.937Z" fill="white"/>
</g>
<g filter="url(#filter2_d_1_47)">
<rect x="479" y="16" width="80" height="80" rx="6" fill="#E9711B"/>
<path d="M516.706 75H503.89V37.1818H516.964C520.719 37.1818 523.944 37.9389 526.64 39.4531C529.349 40.955 531.429 43.1155 532.882 45.9347C534.334 48.7538 535.061 52.1269 535.061 56.054C535.061 59.9934 534.328 63.3788 532.863 66.2102C531.411 69.0417 529.312 71.2145 526.566 72.7287C523.833 74.2429 520.547 75 516.706 75ZM510.741 69.0724H516.373C519.008 69.0724 521.205 68.5923 522.966 67.6321C524.726 66.6596 526.049 65.2131 526.936 63.2926C527.822 61.3598 528.265 58.947 528.265 56.054C528.265 53.161 527.822 50.7604 526.936 48.8523C526.049 46.9318 524.738 45.4976 523.002 44.5497C521.279 43.5895 519.137 43.1094 516.576 43.1094H510.741V69.0724Z" fill="white"/>
</g>
<g filter="url(#filter3_d_1_47)">
<rect x="377" y="16" width="80" height="80" rx="6" fill="#F4DA16"/>
<path d="M433.779 49.9418H426.872C426.675 48.8092 426.312 47.8059 425.783 46.9318C425.253 46.0455 424.595 45.2945 423.807 44.679C423.019 44.0634 422.12 43.6018 421.111 43.294C420.114 42.974 419.037 42.8139 417.879 42.8139C415.824 42.8139 414.002 43.331 412.414 44.3651C410.825 45.3868 409.582 46.8887 408.683 48.8707C407.785 50.8404 407.335 53.2472 407.335 56.0909C407.335 58.9839 407.785 61.4214 408.683 63.4034C409.594 65.3731 410.838 66.8627 412.414 67.8722C414.002 68.8693 415.817 69.3679 417.861 69.3679C418.994 69.3679 420.052 69.2202 421.037 68.9247C422.034 68.617 422.927 68.1676 423.715 67.5767C424.515 66.9858 425.186 66.2595 425.727 65.3977C426.281 64.536 426.663 63.5511 426.872 62.4432L433.779 62.4801C433.52 64.2775 432.96 65.964 432.098 67.5398C431.249 69.1155 430.135 70.5066 428.756 71.7131C427.377 72.9072 425.764 73.8428 423.918 74.5199C422.071 75.1847 420.021 75.517 417.769 75.517C414.445 75.517 411.478 74.7476 408.868 73.2088C406.258 71.67 404.202 69.4479 402.7 66.5426C401.199 63.6373 400.448 60.1534 400.448 56.0909C400.448 52.0161 401.205 48.5322 402.719 45.6392C404.233 42.7339 406.295 40.5118 408.905 38.973C411.515 37.4342 414.469 36.6648 417.769 36.6648C419.874 36.6648 421.831 36.9602 423.641 37.5511C425.45 38.142 427.063 39.0099 428.479 40.1548C429.895 41.2874 431.058 42.6785 431.969 44.3281C432.892 45.9654 433.495 47.8366 433.779 49.9418Z" fill="white"/>
</g>
<g filter="url(#filter4_d_1_47)">
<rect x="275" y="16" width="80" height="80" rx="6" fill="#A9CC49"/>
<path d="M301.642 75V37.1818H316.119C318.852 37.1818 321.124 37.6127 322.933 38.4744C324.755 39.3239 326.116 40.4872 327.014 41.9645C327.925 43.4418 328.381 45.116 328.381 46.9872C328.381 48.526 328.085 49.8433 327.494 50.9389C326.904 52.0223 326.11 52.9025 325.112 53.5795C324.115 54.2566 323.001 54.7429 321.77 55.0384V55.4077C323.112 55.4815 324.398 55.8939 325.629 56.6449C326.873 57.3835 327.888 58.4299 328.676 59.7841C329.464 61.1383 329.858 62.7756 329.858 64.696C329.858 66.6534 329.384 68.4138 328.436 69.9773C327.488 71.5284 326.06 72.7533 324.152 73.652C322.244 74.5507 319.843 75 316.95 75H301.642ZM308.493 69.2756H315.861C318.348 69.2756 320.139 68.8016 321.235 67.8537C322.343 66.8935 322.896 65.6624 322.896 64.1605C322.896 63.0402 322.619 62.0308 322.066 61.1321C321.512 60.2211 320.724 59.5071 319.702 58.9901C318.68 58.4607 317.461 58.196 316.046 58.196H308.493V69.2756ZM308.493 53.2656H315.27C316.452 53.2656 317.517 53.0502 318.465 52.6193C319.413 52.1761 320.157 51.5544 320.699 50.7543C321.253 49.9418 321.53 48.9815 321.53 47.8736C321.53 46.4086 321.013 45.2022 319.979 44.2543C318.957 43.3063 317.437 42.8324 315.418 42.8324H308.493V53.2656Z" fill="white"/>
</g>
<g filter="url(#filter5_d_1_47)">
<rect x="173" y="16" width="80" height="80" rx="6" fill="#37C03C"/>
<path d="M202.772 75H195.46L208.774 37.1818H217.231L230.563 75H223.251L213.15 44.9375H212.855L202.772 75ZM203.012 60.1719H222.955V65.6747H203.012V60.1719Z" fill="white"/>
</g>
<g filter="url(#filter6_d_1_47)">
<rect x="4.5" y="0.5" width="146" height="110" rx="9.5" fill="white" stroke="#DADADA"/>
<path d="M32.8289 69.0909V80H31.0711L25.9308 72.5692H25.8403V80H23.8641V69.0909H25.6325L30.7675 76.527H30.8634V69.0909H32.8289ZM37.2514 80.1651C36.733 80.1651 36.266 80.0728 35.8505 79.8881C35.4386 79.6999 35.1119 79.4229 34.8704 79.0572C34.6325 78.6914 34.5135 78.2404 34.5135 77.7042C34.5135 77.2425 34.5987 76.8608 34.7692 76.5589C34.9396 76.2571 35.1722 76.0156 35.467 75.8345C35.7617 75.6534 36.0938 75.5167 36.4631 75.4244C36.8359 75.3285 37.2212 75.2592 37.619 75.2166C38.0984 75.1669 38.4872 75.1225 38.7855 75.0835C39.0838 75.0408 39.3004 74.9769 39.4354 74.8917C39.5739 74.8029 39.6431 74.6662 39.6431 74.4815V74.4496C39.6431 74.0483 39.5241 73.7376 39.2862 73.5174C39.0483 73.2972 38.7056 73.1871 38.2582 73.1871C37.7859 73.1871 37.4112 73.2901 37.1342 73.4961C36.8608 73.7021 36.6761 73.9453 36.5803 74.2259L34.7798 73.9702C34.9219 73.473 35.1563 73.0575 35.483 72.7237C35.8097 72.3864 36.2092 72.1342 36.6815 71.9673C37.1538 71.7969 37.6758 71.7116 38.2475 71.7116C38.6417 71.7116 39.0341 71.7578 39.4247 71.8501C39.8153 71.9425 40.1722 72.0952 40.4954 72.3082C40.8185 72.5178 41.0778 72.8036 41.2731 73.1658C41.4719 73.5281 41.5714 73.9808 41.5714 74.5241V80H39.7177V78.8761H39.6538C39.5366 79.1033 39.3714 79.3164 39.1584 79.5153C38.9489 79.7106 38.6843 79.8686 38.3647 79.9893C38.0487 80.1065 37.6776 80.1651 37.2514 80.1651ZM37.7521 78.7482C38.1392 78.7482 38.4748 78.6719 38.7589 78.5192C39.043 78.3629 39.2614 78.157 39.4141 77.9013C39.5703 77.6456 39.6484 77.3668 39.6484 77.065V76.1009C39.5881 76.1506 39.4851 76.1967 39.3395 76.2393C39.1974 76.282 39.0376 76.3192 38.8601 76.3512C38.6825 76.3832 38.5067 76.4116 38.3327 76.4364C38.1587 76.4613 38.0078 76.4826 37.88 76.5004C37.5923 76.5394 37.3349 76.6033 37.1076 76.6921C36.8803 76.7809 36.701 76.9052 36.5696 77.065C36.4382 77.2212 36.3725 77.4237 36.3725 77.6722C36.3725 78.0273 36.5021 78.2955 36.7614 78.4766C37.0206 78.6577 37.3509 78.7482 37.7521 78.7482ZM46.5465 80.1438C45.9038 80.1438 45.3285 79.9787 44.8207 79.6484C44.3129 79.3182 43.9116 78.8388 43.6168 78.2102C43.3221 77.5817 43.1747 76.8182 43.1747 75.9197C43.1747 75.0107 43.3239 74.2436 43.6222 73.6186C43.924 72.9901 44.3306 72.516 44.842 72.1964C45.3533 71.8732 45.9233 71.7116 46.5518 71.7116C47.0313 71.7116 47.4254 71.7933 47.7344 71.9567C48.0433 72.1165 48.2884 72.31 48.4695 72.5373C48.6506 72.761 48.7908 72.9723 48.8903 73.1712H48.9702V69.0909H50.9038V80H49.0075V78.7109H48.8903C48.7908 78.9098 48.647 79.1211 48.4588 79.3448C48.2706 79.565 48.022 79.7532 47.7131 79.9094C47.4041 80.0657 47.0153 80.1438 46.5465 80.1438ZM47.0845 78.5618C47.4929 78.5618 47.8409 78.4517 48.1286 78.2315C48.4162 78.0078 48.6346 77.6971 48.7837 77.2994C48.9329 76.9016 49.0075 76.4382 49.0075 75.9091C49.0075 75.38 48.9329 74.9201 48.7837 74.5295C48.6381 74.1388 48.4215 73.8352 48.1339 73.6186C47.8498 73.402 47.5 73.2937 47.0845 73.2937C46.6548 73.2937 46.2962 73.4055 46.0085 73.6293C45.7209 73.853 45.5043 74.1619 45.3587 74.5561C45.2131 74.9503 45.1403 75.4013 45.1403 75.9091C45.1403 76.4205 45.2131 76.8768 45.3587 77.2781C45.5078 77.6758 45.7262 77.9901 46.0138 78.2209C46.305 78.4482 46.6619 78.5618 47.0845 78.5618ZM55.3129 80.1651C54.7945 80.1651 54.3275 80.0728 53.912 79.8881C53.5001 79.6999 53.1734 79.4229 52.9319 79.0572C52.694 78.6914 52.575 78.2404 52.575 77.7042C52.575 77.2425 52.6602 76.8608 52.8307 76.5589C53.0012 76.2571 53.2338 76.0156 53.5285 75.8345C53.8232 75.6534 54.1553 75.5167 54.5246 75.4244C54.8975 75.3285 55.2828 75.2592 55.6805 75.2166C56.1599 75.1669 56.5487 75.1225 56.847 75.0835C57.1453 75.0408 57.3619 74.9769 57.4969 74.8917C57.6354 74.8029 57.7046 74.6662 57.7046 74.4815V74.4496C57.7046 74.0483 57.5857 73.7376 57.3477 73.5174C57.1098 73.2972 56.7671 73.1871 56.3197 73.1871C55.8474 73.1871 55.4727 73.2901 55.1958 73.4961C54.9223 73.7021 54.7377 73.9453 54.6418 74.2259L52.8414 73.9702C52.9834 73.473 53.2178 73.0575 53.5445 72.7237C53.8712 72.3864 54.2707 72.1342 54.743 71.9673C55.2153 71.7969 55.7373 71.7116 56.309 71.7116C56.7032 71.7116 57.0956 71.7578 57.4862 71.8501C57.8769 71.9425 58.2338 72.0952 58.5569 72.3082C58.8801 72.5178 59.1393 72.8036 59.3346 73.1658C59.5335 73.5281 59.6329 73.9808 59.6329 74.5241V80H57.7792V78.8761H57.7153C57.5981 79.1033 57.433 79.3164 57.2199 79.5153C57.0104 79.7106 56.7458 79.8686 56.4262 79.9893C56.1102 80.1065 55.7391 80.1651 55.3129 80.1651ZM55.8137 78.7482C56.2007 78.7482 56.5363 78.6719 56.8204 78.5192C57.1045 78.3629 57.3229 78.157 57.4756 77.9013C57.6318 77.6456 57.71 77.3668 57.71 77.065V76.1009C57.6496 76.1506 57.5466 76.1967 57.401 76.2393C57.259 76.282 57.0992 76.3192 56.9216 76.3512C56.7441 76.3832 56.5683 76.4116 56.3943 76.4364C56.2203 76.4613 56.0693 76.4826 55.9415 76.5004C55.6539 76.5394 55.3964 76.6033 55.1691 76.6921C54.9419 76.7809 54.7625 76.9052 54.6311 77.065C54.4997 77.2212 54.434 77.4237 54.434 77.6722C54.434 78.0273 54.5637 78.2955 54.8229 78.4766C55.0821 78.6577 55.4124 78.7482 55.8137 78.7482ZM65.3778 80V69.0909H72.4729V70.7475H67.354V73.7092H72.1054V75.3658H67.354V78.3434H72.5155V80H65.3778ZM75.9806 71.8182L77.6318 74.8384L79.3097 71.8182H81.3499L78.8836 75.9091L81.3925 80H79.363L77.6318 77.0543L75.9166 80H73.8712L76.3641 75.9091L73.9351 71.8182H75.9806ZM82.8414 83.0682V71.8182H84.7377V73.1712H84.8495C84.949 72.9723 85.0892 72.761 85.2703 72.5373C85.4514 72.31 85.6965 72.1165 86.0054 71.9567C86.3144 71.7933 86.7085 71.7116 87.1879 71.7116C87.82 71.7116 88.39 71.8732 88.8978 72.1964C89.4092 72.516 89.814 72.9901 90.1123 73.6186C90.4142 74.2436 90.5651 75.0107 90.5651 75.9197C90.5651 76.8182 90.4177 77.5817 90.123 78.2102C89.8282 78.8388 89.4269 79.3182 88.9191 79.6484C88.4113 79.9787 87.836 80.1438 87.1933 80.1438C86.7245 80.1438 86.3357 80.0657 86.0267 79.9094C85.7178 79.7532 85.4692 79.565 85.281 79.3448C85.0963 79.1211 84.9525 78.9098 84.8495 78.7109H84.7696V83.0682H82.8414ZM84.7323 75.9091C84.7323 76.4382 84.8069 76.9016 84.9561 77.2994C85.1088 77.6971 85.3271 78.0078 85.6112 78.2315C85.8989 78.4517 86.2469 78.5618 86.6553 78.5618C87.0814 78.5618 87.4383 78.4482 87.7259 78.2209C88.0136 77.9901 88.2302 77.6758 88.3758 77.2781C88.5249 76.8768 88.5995 76.4205 88.5995 75.9091C88.5995 75.4013 88.5267 74.9503 88.3811 74.5561C88.2355 74.1619 88.0189 73.853 87.7313 73.6293C87.4436 73.4055 87.085 73.2937 86.6553 73.2937C86.2433 73.2937 85.8936 73.402 85.6059 73.6186C85.3183 73.8352 85.0999 74.1388 84.9507 74.5295C84.8051 74.9201 84.7323 75.38 84.7323 75.9091ZM97.4312 76.5589V71.8182H99.3595V80H97.4898V78.5458H97.4046C97.2199 79.0039 96.9163 79.3786 96.4937 79.6697C96.0747 79.9609 95.558 80.1065 94.9436 80.1065C94.4074 80.1065 93.9333 79.9876 93.5214 79.7496C93.113 79.5082 92.7934 79.1584 92.5626 78.7003C92.3318 78.2386 92.2164 77.6811 92.2164 77.0277V71.8182H94.1446V76.7294C94.1446 77.2479 94.2867 77.6598 94.5708 77.9652C94.8548 78.2706 95.2277 78.4233 95.6894 78.4233C95.9735 78.4233 96.2487 78.354 96.515 78.2156C96.7813 78.0771 96.9997 77.8711 97.1702 77.5977C97.3442 77.3207 97.4312 76.9744 97.4312 76.5589ZM104.964 80.1598C104.144 80.1598 103.436 79.9893 102.839 79.6484C102.246 79.304 101.79 78.8175 101.47 78.1889C101.151 77.5568 100.991 76.8129 100.991 75.957C100.991 75.1154 101.151 74.3768 101.47 73.7411C101.793 73.1019 102.244 72.6048 102.823 72.2496C103.402 71.891 104.082 71.7116 104.863 71.7116C105.368 71.7116 105.843 71.7933 106.291 71.9567C106.742 72.1165 107.14 72.3651 107.484 72.7024C107.832 73.0398 108.105 73.4695 108.304 73.9915C108.503 74.5099 108.603 75.1278 108.603 75.8452V76.4364H101.896V75.1367H106.754C106.751 74.7674 106.671 74.4389 106.515 74.1513C106.358 73.8601 106.14 73.631 105.859 73.4641C105.582 73.2972 105.259 73.2138 104.89 73.2138C104.496 73.2138 104.15 73.3097 103.851 73.5014C103.553 73.6896 103.32 73.9382 103.153 74.2472C102.99 74.5526 102.907 74.8881 102.903 75.2539V76.3885C102.903 76.8643 102.99 77.2727 103.164 77.6136C103.338 77.951 103.581 78.2102 103.894 78.3913C104.206 78.5689 104.572 78.6577 104.991 78.6577C105.272 78.6577 105.526 78.6186 105.753 78.5405C105.98 78.4588 106.177 78.3398 106.344 78.1836C106.511 78.0273 106.637 77.8338 106.722 77.603L108.523 77.8054C108.409 78.2812 108.192 78.6967 107.873 79.0518C107.557 79.4034 107.152 79.6768 106.658 79.8722C106.165 80.0639 105.6 80.1598 104.964 80.1598ZM116.701 73.9808L114.943 74.1726C114.893 73.995 114.806 73.8281 114.682 73.6719C114.561 73.5156 114.398 73.3896 114.192 73.2937C113.986 73.1978 113.734 73.1499 113.435 73.1499C113.034 73.1499 112.697 73.2369 112.423 73.4109C112.153 73.5849 112.02 73.8104 112.024 74.0874C112.02 74.3253 112.107 74.5188 112.285 74.668C112.466 74.8171 112.764 74.9396 113.18 75.0355L114.575 75.3338C115.349 75.5007 115.925 75.7653 116.301 76.1275C116.681 76.4897 116.873 76.9638 116.876 77.5497C116.873 78.0646 116.722 78.5192 116.424 78.9134C116.129 79.304 115.719 79.6094 115.193 79.8295C114.668 80.0497 114.064 80.1598 113.382 80.1598C112.381 80.1598 111.574 79.9503 110.964 79.5312C110.353 79.1087 109.989 78.521 109.872 77.7681L111.752 77.587C111.837 77.9563 112.018 78.2351 112.295 78.4233C112.572 78.6115 112.933 78.7056 113.377 78.7056C113.835 78.7056 114.202 78.6115 114.479 78.4233C114.76 78.2351 114.9 78.0025 114.9 77.7255C114.9 77.4911 114.81 77.2976 114.628 77.1449C114.451 76.9922 114.174 76.875 113.797 76.7933L112.402 76.5004C111.617 76.337 111.036 76.0618 110.66 75.6747C110.284 75.2841 110.097 74.7905 110.101 74.1939C110.097 73.6896 110.234 73.2528 110.511 72.8835C110.791 72.5107 111.18 72.223 111.677 72.0206C112.178 71.8146 112.755 71.7116 113.409 71.7116C114.367 71.7116 115.122 71.9158 115.672 72.3242C116.226 72.7326 116.569 73.2848 116.701 73.9808ZM122.552 71.8182V73.3097H117.848V71.8182H122.552ZM119.01 69.858H120.938V77.5391C120.938 77.7983 120.977 77.9972 121.055 78.1357C121.137 78.2706 121.243 78.3629 121.375 78.4126C121.506 78.4624 121.652 78.4872 121.812 78.4872C121.932 78.4872 122.042 78.4783 122.142 78.4606C122.245 78.4428 122.323 78.4268 122.376 78.4126L122.701 79.9201C122.598 79.9556 122.451 79.9947 122.259 80.0373C122.071 80.0799 121.84 80.1048 121.566 80.1119C121.084 80.1261 120.649 80.0533 120.261 79.8935C119.874 79.7301 119.567 79.478 119.34 79.1371C119.116 78.7962 119.006 78.37 119.01 77.8587V69.858ZM127.646 80.1598C126.847 80.1598 126.154 79.984 125.568 79.6325C124.982 79.2809 124.528 78.7891 124.205 78.157C123.885 77.5249 123.725 76.7862 123.725 75.9411C123.725 75.0959 123.885 74.3555 124.205 73.7198C124.528 73.0842 124.982 72.5906 125.568 72.239C126.154 71.8874 126.847 71.7116 127.646 71.7116C128.445 71.7116 129.137 71.8874 129.723 72.239C130.309 72.5906 130.762 73.0842 131.081 73.7198C131.404 74.3555 131.566 75.0959 131.566 75.9411C131.566 76.7862 131.404 77.5249 131.081 78.157C130.762 78.7891 130.309 79.2809 129.723 79.6325C129.137 79.984 128.445 80.1598 127.646 80.1598ZM127.656 78.6151C128.089 78.6151 128.452 78.4961 128.743 78.2582C129.034 78.0167 129.251 77.6935 129.393 77.2887C129.538 76.8839 129.611 76.4329 129.611 75.9357C129.611 75.435 129.538 74.9822 129.393 74.5774C129.251 74.169 129.034 73.8441 128.743 73.6026C128.452 73.3612 128.089 73.2404 127.656 73.2404C127.212 73.2404 126.843 73.3612 126.548 73.6026C126.257 73.8441 126.039 74.169 125.893 74.5774C125.751 74.9822 125.68 75.435 125.68 75.9357C125.68 76.4329 125.751 76.8839 125.893 77.2887C126.039 77.6935 126.257 78.0167 126.548 78.2582C126.843 78.4961 127.212 78.6151 127.656 78.6151Z" fill="black"/>
<path d="M87.5 33H85V25.5C85 23.5109 84.2098 21.6032 82.8033 20.1967C81.3968 18.7902 79.4891 18 77.5 18C75.5109 18 73.6032 18.7902 72.1967 20.1967C70.7902 21.6032 70 23.5109 70 25.5V33H67.5C66.837 33 66.2011 33.2634 65.7322 33.7322C65.2634 34.2011 65 34.837 65 35.5V50.5C65 51.163 65.2634 51.7989 65.7322 52.2678C66.2011 52.7366 66.837 53 67.5 53H87.5C88.163 53 88.7989 52.7366 89.2678 52.2678C89.7366 51.7989 90 51.163 90 50.5V35.5C90 34.837 89.7366 34.2011 89.2678 33.7322C88.7989 33.2634 88.163 33 87.5 33ZM72.5 25.5C72.5 24.1739 73.0268 22.9021 73.9645 21.9645C74.9021 21.0268 76.1739 20.5 77.5 20.5C78.8261 20.5 80.0979 21.0268 81.0355 21.9645C81.9732 22.9021 82.5 24.1739 82.5 25.5V33H72.5V25.5ZM87.5 50.5H67.5V35.5H87.5V50.5Z" fill="#002902"/>
<rect x="79" y="41" width="14" height="14" rx="7" fill="white"/>
<path d="M86 41C84.6155 41 83.2622 41.4105 82.111 42.1797C80.9599 42.9489 80.0627 44.0421 79.5328 45.3212C79.003 46.6003 78.8644 48.0078 79.1345 49.3656C79.4046 50.7235 80.0713 51.9708 81.0503 52.9497C82.0292 53.9287 83.2765 54.5954 84.6344 54.8655C85.9922 55.1356 87.3997 54.997 88.6788 54.4672C89.9579 53.9373 91.0511 53.0401 91.8203 51.889C92.5895 50.7378 93 49.3845 93 48C93 46.1435 92.2625 44.363 90.9497 43.0503C89.637 41.7375 87.8565 41 86 41ZM85 50.795L82.5 48.295L83.295 47.5L85 49.205L88.705 45.5L89.503 46.293L85 50.795Z" fill="#37C03C"/>
</g>
<defs>
<filter id="filter0_d_1_47" x="679" y="0" width="155" height="119" filterUnits="userSpaceOnUse" color-interpolation-filters="sRGB">
<feFlood flood-opacity="0" result="BackgroundImageFix"/>
<feColorMatrix in="SourceAlpha" type="matrix" values="0 0 0 0 0 0 0 0 0 0 0 0 0 0 0 0 0 0 127 0" result="hardAlpha"/>
<feOffset dy="4"/>
<feGaussianBlur stdDeviation="2"/>
<feComposite in2="hardAlpha" operator="out"/>
<feColorMatrix type="matrix" values="0 0 0 0 0 0 0 0 0 0 0 0 0 0 0 0 0 0 0.04 0"/>
<feBlend mode="normal" in2="BackgroundImageFix" result="effect1_dropShadow_1_47"/>
<feBlend mode="normal" in="SourceGraphic" in2="effect1_dropShadow_1_47" result="shape"/>
</filter>
<filter id="filter1_d_1_47" x="577" y="16" width="88" height="88" filterUnits="userSpaceOnUse" color-interpolation-filters="sRGB">
<feFlood flood-opacity="0" result="BackgroundImageFix"/>
<feColorMatrix in="SourceAlpha" type="matrix" values="0 0 0 0 0 0 0 0 0 0 0 0 0 0 0 0 0 0 127 0" result="hardAlpha"/>
<feOffset dy="4"/>
<feGaussianBlur stdDeviation="2"/>
<feComposite in2="hardAlpha" operator="out"/>
<feColorMatrix type="matrix" values="0 0 0 0 0 0 0 0 0 0 0 0 0 0 0 0 0 0 0.04 0"/>
<feBlend mode="normal" in2="BackgroundImageFix" result="effect1_dropShadow_1_47"/>
<feBlend mode="normal" in="SourceGraphic" in2="effect1_dropShadow_1_47" result="shape"/>
</filter>
<filter id="filter2_d_1_47" x="475" y="16" width="88" height="88" filterUnits="userSpaceOnUse" color-interpolation-filters="sRGB">
<feFlood flood-opacity="0" result="BackgroundImageFix"/>
<feColorMatrix in="SourceAlpha" type="matrix" values="0 0 0 0 0 0 0 0 0 0 0 0 0 0 0 0 0 0 127 0" result="hardAlpha"/>
<feOffset dy="4"/>
<feGaussianBlur stdDeviation="2"/>
<feComposite in2="hardAlpha" operator="out"/>
<feColorMatrix type="matrix" values="0 0 0 0 0 0 0 0 0 0 0 0 0 0 0 0 0 0 0.04 0"/>
<feBlend mode="normal" in2="BackgroundImageFix" result="effect1_dropShadow_1_47"/>
<feBlend mode="normal" in="SourceGraphic" in2="effect1_dropShadow_1_47" result="shape"/>
</filter>
<filter id="filter3_d_1_47" x="373" y="16" width="88" height="88" filterUnits="userSpaceOnUse" color-interpolation-filters="sRGB">
<feFlood flood-opacity="0" result="BackgroundImageFix"/>
<feColorMatrix in="SourceAlpha" type="matrix" values="0 0 0 0 0 0 0 0 0 0 0 0 0 0 0 0 0 0 127 0" result="hardAlpha"/>
<feOffset dy="4"/>
<feGaussianBlur stdDeviation="2"/>
<feComposite in2="hardAlpha" operator="out"/>
<feColorMatrix type="matrix" values="0 0 0 0 0 0 0 0 0 0 0 0 0 0 0 0 0 0 0.04 0"/>
<feBlend mode="normal" in2="BackgroundImageFix" result="effect1_dropShadow_1_47"/>
<feBlend mode="normal" in="SourceGraphic" in2="effect1_dropShadow_1_47" result="shape"/>
</filter>
<filter id="filter4_d_1_47" x="271" y="16" width="88" height="88" filterUnits="userSpaceOnUse" color-interpolation-filters="sRGB">
<feFlood flood-opacity="0" result="BackgroundImageFix"/>
<feColorMatrix in="SourceAlpha" type="matrix" values="0 0 0 0 0 0 0 0 0 0 0 0 0 0 0 0 0 0 127 0" result="hardAlpha"/>
<feOffset dy="4"/>
<feGaussianBlur stdDeviation="2"/>
<feComposite in2="hardAlpha" operator="out"/>
<feColorMatrix type="matrix" values="0 0 0 0 0 0 0 0 0 0 0 0 0 0 0 0 0 0 0.04 0"/>
<feBlend mode="normal" in2="BackgroundImageFix" result="effect1_dropShadow_1_47"/>
<feBlend mode="normal" in="SourceGraphic" in2="effect1_dropShadow_1_47" result="shape"/>
</filter>
<filter id="filter5_d_1_47" x="169" y="16" width="88" height="88" filterUnits="userSpaceOnUse" color-interpolation-filters="sRGB">
<feFlood flood-opacity="0" result="BackgroundImageFix"/>
<feColorMatrix in="SourceAlpha" type="matrix" values="0 0 0 0 0 0 0 0 0 0 0 0 0 0 0 0 0 0 127 0" result="hardAlpha"/>
<feOffset dy="4"/>
<feGaussianBlur stdDeviation="2"/>
<feComposite in2="hardAlpha" operator="out"/>
<feColorMatrix type="matrix" values="0 0 0 0 0 0 0 0 0 0 0 0 0 0 0 0 0 0 0.04 0"/>
<feBlend mode="normal" in2="BackgroundImageFix" result="effect1_dropShadow_1_47"/>
<feBlend mode="normal" in="SourceGraphic" in2="effect1_dropShadow_1_47" result="shape"/>
</filter>
<filter id="filter6_d_1_47" x="0" y="0" width="155" height="119" filterUnits="userSpaceOnUse" color-interpolation-filters="sRGB">
<feFlood flood-opacity="0" result="BackgroundImageFix"/>
<feColorMatrix in="SourceAlpha" type="matrix" values="0 0 0 0 0 0 0 0 0 0 0 0 0 0 0 0 0 0 127 0" result="hardAlpha"/>
<feOffset dy="4"/>
<feGaussianBlur stdDeviation="2"/>
<feComposite in2="hardAlpha" operator="out"/>
<feColorMatrix type="matrix" values="0 0 0 0 0 0 0 0 0 0 0 0 0 0 0 0 0 0 0.04 0"/>
<feBlend mode="normal" in2="BackgroundImageFix" result="effect1_dropShadow_1_47"/>
<feBlend mode="normal" in="SourceGraphic" in2="effect1_dropShadow_1_47" result="shape"/>
</filter>
</defs>
</svg>
