<svg width="51" height="33" viewBox="0 0 51 33" fill="none" xmlns="http://www.w3.org/2000/svg">
<path d="M25.364 28.6967C25.364 27.377 26.4626 26.3196 27.8332 26.3196C29.2017 26.3196 30.2983 27.377 30.2983 28.6967C30.2994 29.0093 30.2364 29.3189 30.1129 29.6079C29.9895 29.8969 29.808 30.1595 29.5789 30.3807C29.3498 30.6018 29.0776 30.777 28.7781 30.8963C28.4785 31.0156 28.1574 31.0766 27.8332 31.0758C27.5089 31.0771 27.1876 31.0166 26.8876 30.8977C26.5877 30.7788 26.3151 30.6038 26.0856 30.3828C25.8561 30.1619 25.6742 29.8993 25.5503 29.6103C25.4265 29.3213 25.3632 29.0115 25.364 28.6987V28.6967ZM35.4025 28.6987C35.4025 27.377 36.5011 26.3176 37.8696 26.3176C39.2381 26.3176 40.3368 27.377 40.3368 28.6967C40.3368 30.0164 39.2381 31.0758 37.8718 31.0758C37.5474 31.0771 37.2261 31.0166 36.9261 30.8977C36.6262 30.7788 36.3536 30.6038 36.1241 30.3828C35.8946 30.1619 35.7127 29.8993 35.5888 29.6103C35.465 29.3213 35.4017 29.0115 35.4025 28.6987V28.6987ZM12.1338 28.6987C12.1338 27.377 13.2324 26.3176 14.6009 26.3176C15.9694 26.3176 17.0659 27.377 17.0659 28.6967C17.0659 30.0164 15.9694 31.0758 14.6009 31.0758C14.2768 31.0769 13.9556 31.0161 13.6559 30.8971C13.3562 30.778 13.0839 30.603 12.8546 30.3821C12.6253 30.1612 12.4436 29.8987 12.3199 29.6098C12.1962 29.3209 12.1329 29.0113 12.1338 28.6987V28.6987ZM2.09525 28.6987C2.09525 27.377 3.19388 26.3176 4.56238 26.3176C5.93088 26.3176 7.0295 27.377 7.0295 28.6967C7.03062 29.0094 6.96758 29.3193 6.84399 29.6084C6.7204 29.8975 6.53872 30.1602 6.3094 30.3814C6.08008 30.6025 5.80766 30.7777 5.50783 30.8969C5.208 31.0161 4.88668 31.0769 4.56238 31.0758C4.23843 31.0766 3.91751 31.0157 3.61807 30.8965C3.31862 30.7773 3.04655 30.6023 2.81748 30.3814C2.58842 30.1605 2.40688 29.8981 2.2833 29.6094C2.15972 29.3206 2.09653 29.0111 2.09737 28.6987H2.09525ZM22.3911 24.4938H20.2449V32.8196H22.3911V24.4938ZM7.0125 32.8196H9.15875V24.4938H7.0125V25.1619C6.26437 24.6598 5.37397 24.3922 4.4625 24.3955C1.99325 24.3955 0 26.3176 0 28.6987C0 31.0922 1.99325 33 4.4625 33C5.40812 33 6.28575 32.7233 7.0125 32.2336V32.8196V32.8196ZM40.3198 32.8196H42.466V24.4938H40.3198V25.1619C39.5716 24.6598 38.6812 24.3922 37.7698 24.3955C35.3005 24.3955 33.3072 26.3176 33.3072 28.6987C33.3053 29.2643 33.4194 29.8246 33.643 30.3475C33.8666 30.8703 34.1952 31.3453 34.61 31.7451C35.0248 32.1449 35.5176 32.4616 36.0599 32.677C36.6022 32.8924 37.1833 33.0021 37.7698 33C38.7154 33 39.593 32.7233 40.3198 32.2336V32.8196V32.8196ZM43.2607 30.1147C43.3287 31.795 44.8162 32.9836 47.2982 32.9836C49.3276 32.9836 51 32.1352 51 30.2623C51 28.959 50.2393 28.1926 48.4819 27.8647L47.1134 27.6065C46.2336 27.4426 45.6259 27.2787 45.6259 26.7746C45.6259 26.2213 46.2166 25.9754 46.9604 25.9754C48.0441 25.9754 48.4819 26.4979 48.5159 27.1168H50.6791C50.5601 25.4877 49.2086 24.3955 47.0284 24.3955C44.7823 24.3955 43.4456 25.584 43.4456 27.1332C43.4456 29.0225 45.0351 29.3319 46.4036 29.5778L47.5363 29.7725C48.348 29.9201 48.7029 30.1475 48.7029 30.6045C48.7029 31.0123 48.297 31.418 47.3323 31.418C45.9298 31.418 45.475 30.7172 45.458 30.1147H43.2607V30.1147ZM17.051 21.6578V25.1619C16.3029 24.6598 15.4125 24.3922 14.501 24.3955C12.0317 24.3955 10.0385 26.3176 10.0385 28.6987C10.0385 31.0922 12.0317 33 14.501 33C15.4445 33 16.3243 32.7233 17.051 32.2336V32.8196H19.1973V21.6578H17.051V21.6578ZM30.2812 21.6578V25.1619C29.5331 24.6598 28.6427 24.3922 27.7313 24.3955C25.2641 24.3955 23.2687 26.3176 23.2687 28.6987C23.2668 29.2643 23.3809 29.8246 23.6045 30.3475C23.8281 30.8703 24.1567 31.3453 24.5715 31.7451C24.9863 32.1449 25.4791 32.4616 26.0214 32.677C26.5637 32.8924 27.1448 33.0021 27.7313 33C28.6769 33 29.5545 32.7233 30.2812 32.2336V32.8196H32.4275V21.6578H30.2812V21.6578ZM5.576 19.1988L7.0295 21.6578H17.051L13.0794 15.041L5.57812 19.1967L5.576 19.1988ZM22.3911 23.7274V21.6578H30.2812L21.8662 7.61065L14.3459 11.7664L20.2449 21.6578V23.7274H22.3911V23.7274ZM33.4772 21.6578H43.5136L30.5362 0L23.0329 4.17213L33.4772 21.6578V21.6578Z" fill="black" fill-opacity="0.8"/>
</svg>
