<svg width="32" height="33" viewBox="0 0 32 33" fill="none" xmlns="http://www.w3.org/2000/svg">
<g opacity="0.8">
<path fill-rule="evenodd" clip-rule="evenodd" d="M22.2851 24.684C22.6103 24.856 23.0275 24.8375 23.316 24.5797L23.3281 24.592C24.1994 23.8183 25.7825 22.4366 26.6722 21.6937C27.0281 21.3991 26.9667 20.9262 26.6845 20.5332C26.5989 20.4147 26.5128 20.2985 26.4272 20.1831C25.7149 19.2224 25.0401 18.3121 25.0401 16.4867V9.68327C25.0401 9.45081 25.0414 9.21987 25.0427 8.99068C25.0576 6.38054 25.0712 3.99693 23.1195 2.17377C21.4443 0.56496 18.6709 0 16.5478 0C12.3999 0 7.76735 1.54746 6.79174 6.68063C6.69357 7.22721 7.08625 7.51571 7.44206 7.5957L11.676 8.05C12.0686 8.03162 12.3569 7.64475 12.4307 7.25168C12.7927 5.48328 14.2776 4.62982 15.9404 4.62982C16.8363 4.62982 17.8549 4.96142 18.3888 5.76583C18.9339 6.57034 18.9256 7.64193 18.9182 8.60338C18.9173 8.71323 18.9165 8.82164 18.9165 8.92805V9.49301C18.5083 9.5396 18.0797 9.58346 17.6381 9.62867C15.3448 9.86341 12.6986 10.1343 10.7125 11.0097C7.98218 12.1885 6.06149 14.6017 6.06149 18.1446C6.06149 22.6823 8.92092 24.9481 12.5903 24.9481C15.6951 24.9481 17.3886 24.2174 19.7816 21.7735C19.9078 21.9552 20.0205 22.122 20.1264 22.279C20.6906 23.1147 21.0661 23.6709 22.2851 24.684ZM18.9167 14.1703C18.9166 14.0936 18.9165 14.0164 18.9165 13.9385V12.9929C15.7624 12.9929 12.4307 13.6683 12.4307 17.3894C12.4307 19.2744 13.4063 20.5516 15.0815 20.5516C16.3086 20.5516 17.407 19.7964 18.1004 18.5682C18.9201 17.1269 18.9185 15.7694 18.9167 14.1703Z" fill="black"/>
<path d="M0.896625 25.1091C6.31467 28.4147 14.7013 33.5315 28.0684 27.1654H28.0683C28.6443 26.9248 29.047 27.3266 28.477 28.0549C27.9031 28.7894 23.3156 33 15.6043 33C7.89824 33 1.99456 27.7316 0.193121 25.5458C-0.300307 24.9786 0.268397 24.7225 0.602997 24.9301C0.699893 24.9891 0.797765 25.0488 0.896625 25.1091Z" fill="#FF9900"/>
<path d="M28.4997 24.6315C29.6685 24.4878 31.5255 24.5766 31.891 25.0529C32.1688 25.4156 31.8817 27.0456 31.411 28.2141C30.9371 29.3762 30.2309 30.1975 29.8409 30.5146C29.4453 30.8318 29.1543 30.709 29.3649 30.2327C29.5828 29.7564 30.7761 26.803 30.3032 26.1831C29.8652 25.61 27.8779 25.8175 26.9547 25.9139C26.8861 25.921 26.8233 25.9276 26.7675 25.9331C26.5725 25.9507 26.4153 25.9682 26.288 25.9824C25.8906 26.0268 25.7844 26.0387 25.725 25.9167C25.5723 25.4869 27.3292 24.771 28.4997 24.6315Z" fill="#FF9900"/>
</g>
</svg>
