<svg width="86" height="30" viewBox="0 0 86 30" fill="none" xmlns="http://www.w3.org/2000/svg">
<g opacity="0.8">
<path d="M83.4698 18.321L85.8635 20.0149C85.0866 21.2296 83.2285 23.3137 80.016 23.3137C76.0268 23.3137 73.0559 20.0373 73.0559 15.8693C73.0559 11.434 76.0583 8.42505 79.6801 8.42505C83.3229 8.42505 85.1075 11.5007 85.685 13.1612L86 14.0083L76.6147 18.1315C77.3286 19.6249 78.4415 20.3827 80.016 20.3827C81.5908 20.3827 82.6825 19.558 83.4698 18.321ZM76.1109 15.6355L82.3782 12.8716C82.0317 11.9467 81.003 11.2893 79.7745 11.2893C78.2105 11.2893 76.0374 12.7603 76.1109 15.6355Z" fill="#FF302F"/>
<path d="M68.5312 0.835872H71.5545V22.6339H68.5312V0.835693V0.835872Z" fill="#20B15A"/>
<path d="M63.7652 9.00458H66.6836V22.2438C66.6836 27.7378 63.6287 30.0001 60.0173 30.0001C56.616 30.0001 54.569 27.5707 53.8025 25.5982L56.4795 24.4168C56.9623 25.6315 58.1276 27.0693 60.0173 27.0693C62.3373 27.0693 63.7652 25.5424 63.7652 22.6896V21.6199H63.6602C62.9672 22.5113 61.6445 23.3136 59.9648 23.3136C56.4584 23.3136 53.2459 20.0707 53.2459 15.8917C53.2459 11.6903 56.4584 8.41406 59.9648 8.41406C61.634 8.41406 62.9672 9.2053 63.6602 10.0745H63.7652V9.00476V9.00458ZM63.975 15.8917C63.975 13.2617 62.3268 11.3448 60.2272 11.3448C58.1066 11.3448 56.3219 13.2617 56.3219 15.8917C56.3219 18.4882 58.1066 20.3716 60.2272 20.3716C62.327 20.3828 63.9751 18.4882 63.9751 15.8917H63.975Z" fill="#3686F7"/>
<path d="M36.6486 15.8359C36.6486 20.1265 33.4993 23.2802 29.636 23.2802C25.7728 23.2802 22.6233 20.1154 22.6233 15.8359C22.6233 11.5232 25.7728 8.38062 29.636 8.38062C33.4993 8.38062 36.6486 11.5232 36.6486 15.8359ZM33.5832 15.8359C33.5832 13.1615 31.7565 11.3225 29.636 11.3225C27.5155 11.3225 25.6887 13.1615 25.6887 15.8359C25.6887 18.4882 27.5155 20.3494 29.636 20.3494C31.7566 20.3494 33.5832 18.4882 33.5832 15.8359Z" fill="#FF302F"/>
<path d="M51.9653 15.8693C51.9653 20.1598 48.8158 23.3135 44.9527 23.3135C41.0893 23.3135 37.94 20.1596 37.94 15.8693C37.94 11.5566 41.0893 8.42505 44.9527 8.42505C48.8158 8.42505 51.9653 11.5455 51.9653 15.8693ZM48.8893 15.8693C48.8893 13.1948 47.0627 11.3558 44.942 11.3558C42.8215 11.3558 40.9948 13.1948 40.9948 15.8693C40.9948 18.5215 42.8215 20.3827 44.942 20.3827C47.0732 20.3827 48.8893 18.5104 48.8893 15.8693Z" fill="#FFBA40"/>
<path d="M11.0964 20.0484C6.6977 20.0484 3.25448 16.2817 3.25448 11.6122C3.25448 6.94298 6.6977 3.17623 11.0964 3.17623C13.469 3.17623 15.2011 4.168 16.4819 5.43849L18.5921 3.19859C16.8074 1.38212 14.4244 0 11.0964 0C5.07063 0.000178892 0 5.21577 0 11.6122C0 18.0091 5.07063 23.2245 11.0964 23.2245C14.3509 23.2245 16.8074 22.0878 18.7286 19.9704C20.7021 17.8752 21.311 14.9332 21.311 12.5484C21.311 11.8017 21.2271 11.0328 21.1325 10.4645H11.0964V13.5625H18.2456C18.0356 15.5017 17.4583 16.8278 16.6079 17.7303C15.5791 18.8337 13.952 20.0484 11.0964 20.0484Z" fill="#3686F7"/>
</g>
</svg>
