<svg width="30" height="30" viewBox="0 0 30 30" fill="none" xmlns="http://www.w3.org/2000/svg">
<path opacity="0.8" d="M15 29.9988H14.5575L17.6325 21.5675H21.8475C22.5938 21.5675 23.4087 21.0075 23.665 20.3088L26.995 11.1788C27.5312 9.68875 26.6925 8.45375 25.085 8.45375H19.2162L11.5287 29.6038C4.91625 28.0175 0 22.0775 0 14.9987C0 8.1275 4.635 2.3275 10.9475 0.5575L3.3075 21.5675H6.475L10.5275 10.41H12.9275L8.87375 21.5675H12.0425L15.8387 11.155C16.3737 9.665 15.5362 8.43 13.9287 8.43H11.25L14.325 0.02375C14.5575 0.02375 14.7675 0 15 0C23.2925 0 30 6.7075 30 15C30 23.2925 23.2925 30 15 30V29.9988ZM24.0837 10.4112H21.6838L18.3312 19.5863H20.73L24.0837 10.4112Z" fill="#3686F7"/>
</svg>
