<svg width="105" height="29" viewBox="0 0 105 29" fill="none" xmlns="http://www.w3.org/2000/svg">
<path d="M69.8614 0V21.1242C72.3961 21.2454 74.9241 21.3919 77.4451 21.5648V26.0435C73.4468 25.7695 69.4444 25.5615 65.4395 25.4197V0H69.8614ZM105 0.00252977L99.242 13.7253L104.999 28.9962L104.992 28.9989C103.314 28.7535 101.634 28.52 99.9522 28.2984L96.7196 19.7276L93.4562 27.5028C91.9095 27.3272 90.3609 27.1613 88.8087 27.0053L94.4219 13.6333L89.2812 0.00274058H94.0647L96.9429 7.63084L100.143 0.00252977H105ZM50.2633 25.1978V0.00231895H62.607V4.52133H54.6852V10.3777H60.679V14.8565H54.6852V25.1969L50.2633 25.1978ZM33.7519 4.52154V0.00210814H47.4285V4.52133H42.801V25.3202C41.325 25.3603 39.8507 25.4071 38.3795 25.4642V4.52154H33.7519ZM18.6352 26.7662V0.0029514H30.9173V4.52175H23.0565V10.6429C24.8624 10.6191 27.4302 10.5924 29.0277 10.5961V15.0753C27.028 15.05 24.7707 15.1036 23.0565 15.1211V21.9017C25.6748 21.6896 28.2952 21.5055 30.9173 21.3493V25.8285C26.8185 26.0716 22.7239 26.3843 18.6352 26.7666V26.7662ZM9.96104 16.4127L9.96083 0.00210814H14.3827V27.1887C12.7663 27.3594 11.1527 27.5414 9.54227 27.7334L4.42168 12.6117V28.3811C2.94492 28.5788 1.47102 28.7848 0 29V0.00252977H4.20225L9.96083 16.4127H9.96104ZM81.0931 26.3136V0.00252977H85.5152V26.6891C84.0429 26.5541 82.5694 26.4298 81.0931 26.3138V26.3136Z" fill="#DB202C" fill-opacity="0.8"/>
</svg>
