<svg width="39" height="30" viewBox="0 0 39 30" fill="none" xmlns="http://www.w3.org/2000/svg">
<path opacity="0.8" d="M33.436 19.4148L33.4198 19.4567C31.3934 24.8994 25.8066 28.5493 19.5081 28.5493C13.2096 28.5493 7.61313 24.8919 5.59488 19.4507L5.57863 19.4074H1.15375V19.8989L2.99488 20.0976C4.13238 20.2171 4.37125 20.6803 4.68162 21.2629L4.75962 21.4064C7.42137 26.628 13.2161 30 19.5146 30C25.8148 30 31.6095 26.628 34.2713 21.4138L34.3493 21.2719C34.658 20.6892 34.8985 20.2261 36.036 20.1051L37.8787 19.9049V19.4148H33.436ZM5.59488 10.5359C7.62125 5.09313 13.2096 1.43725 19.5081 1.43725C25.8066 1.43725 31.4015 5.09313 33.4214 10.5359L33.4376 10.5777H37.8706V10.0876L36.0279 9.88894C34.8904 9.76793 34.6515 9.30627 34.3411 8.72211L34.2648 8.57868C31.603 3.37201 25.805 0 19.5081 0C13.2015 0 7.41325 3.37201 4.7515 8.59363L4.6735 8.73556C4.36475 9.31823 4.12425 9.78137 2.98675 9.90239L1.14562 10.1011V10.5926H5.57212L5.59488 10.5359ZM28.1206 12.9054L25.2882 17.0812H26.5102L27.014 16.3342H30.3176L30.8214 17.0812H32.0353L29.2029 12.9054H28.1206ZM29.7992 15.5438H27.5324L28.6699 13.8645L29.7992 15.5438ZM34.3655 13.9512L37.7309 17.0812H39V12.9054H38.0023V16.0204L34.6515 12.9054H33.3596V17.0812H34.3655V13.9512ZM0 17.0812H1.00587V13.9512L4.37937 17.0812H5.6485V12.9054H4.64263V16.0204L1.29188 12.9054H0V17.0812ZM7.86987 12.9054H8.87575V17.0812H7.86825L7.86987 12.9054ZM15.1596 16.1982C15.1271 16.2057 15.0036 16.2057 14.9581 16.2057H10.9574V17.0603H15.0199C15.0507 17.0603 15.2912 17.0603 15.3368 17.0528C16.1655 16.9811 16.5441 16.3476 16.5441 15.7933C16.5441 15.2241 16.1493 14.613 15.3985 14.5488C15.2522 14.5339 15.1287 14.5339 15.0735 14.5339H12.4199C12.3213 14.5368 12.2227 14.5298 12.1257 14.5129C11.9161 14.4621 11.8397 14.2918 11.8397 14.1499C11.8397 14.0214 11.9161 13.8511 12.1322 13.7943C12.2241 13.7765 12.318 13.7694 12.4117 13.7734H16.2419V12.9338H12.35C12.1875 12.9338 12.064 12.9397 11.9633 12.9547C11.6462 12.9906 11.3551 13.1335 11.1463 13.3558C10.9376 13.5781 10.8262 13.8638 10.8339 14.1574C10.8339 14.6698 11.1816 15.2674 11.947 15.3675C12.0868 15.381 12.2801 15.381 12.3663 15.381H14.95C14.9971 15.381 15.1125 15.381 15.1353 15.3884C15.4294 15.4228 15.5301 15.623 15.5301 15.8008C15.5326 15.8974 15.4961 15.9914 15.4277 16.0648C15.3593 16.1382 15.2638 16.1857 15.1596 16.1982ZM22.7272 16.1982C22.6947 16.2057 22.5713 16.2057 22.5176 16.2057H18.525V17.0603H22.5875C22.6184 17.0603 22.8589 17.0603 22.9044 17.0528C23.7331 16.9811 24.1117 16.3476 24.1117 15.7933C24.1117 15.2241 23.7169 14.613 22.9661 14.5488C22.8199 14.5339 22.6964 14.5339 22.6411 14.5339H19.9875C19.8889 14.5368 19.7903 14.5298 19.6934 14.5129C19.4838 14.4621 19.4074 14.2918 19.4074 14.1499C19.4074 14.0214 19.4837 13.8511 19.6999 13.7943C19.7917 13.7765 19.8856 13.7694 19.9794 13.7734H23.8095V12.9338H19.9176C19.7551 12.9338 19.6316 12.9397 19.5309 12.9547C19.2139 12.9906 18.9227 13.1335 18.714 13.3558C18.5052 13.5781 18.3939 13.8638 18.4015 14.1574C18.4015 14.6698 18.7493 15.2674 19.5163 15.3675C19.6544 15.381 19.8477 15.381 19.9339 15.381H22.5176C22.5648 15.381 22.6801 15.381 22.7029 15.3884C22.997 15.4228 23.0977 15.623 23.0977 15.8008C23.0985 15.897 23.0614 15.9902 22.9933 16.0632C22.9252 16.1362 22.8307 16.1842 22.7272 16.1982Z" fill="black"/>
</svg>
