<svg width="110" height="25" viewBox="0 0 110 25" fill="none" xmlns="http://www.w3.org/2000/svg">
<g opacity="0.8">
<path d="M23.0716 24.6352H3.49972C2.20598 24.6352 0.978594 23.9556 0.381485 22.7951C-0.298554 21.4688 -0.0497589 19.8774 0.995175 18.8328L14.6126 5.22214H4.85979C2.17281 5.22214 0 3.0504 0 0.364721H18.0293C19.323 0.364721 20.5504 1.04443 21.1475 2.2049C21.8277 3.53116 21.5788 5.12267 20.5339 6.16711L6.9165 19.7778H18.2118C20.8988 19.7778 23.0716 21.9496 23.0716 24.6352ZM100.53 0C97.727 0 95.2054 1.21021 93.4803 3.14986C91.7392 1.21021 89.2179 0 86.4315 0C81.2231 0 76.9772 4.44297 76.9772 9.63193V24.6352C79.6641 24.6352 81.8368 22.4635 81.8368 19.7778V9.58221C81.8368 7.07889 83.7775 4.95689 86.2654 4.85742C88.8862 4.75795 91.059 6.86336 91.059 9.46617V19.7778C91.059 22.4635 93.2317 24.6352 95.9186 24.6352V9.58221C95.9186 7.07889 97.8594 4.95689 100.347 4.85742C102.968 4.75795 105.141 6.86336 105.141 9.46617V19.7778C105.141 22.4635 107.314 24.6352 110 24.6352V9.63193C109.983 4.44297 105.738 0 100.53 0ZM47.5862 12.5C47.5862 19.3966 41.98 25 35.0801 25C28.1802 25 22.574 19.3966 22.574 12.5C22.574 5.60342 28.1967 0 35.0801 0C41.9635 0 47.5862 5.60342 47.5862 12.5ZM42.7264 12.5C42.7264 8.28913 39.293 4.85742 35.0801 4.85742C30.8672 4.85742 27.4337 8.28913 27.4337 12.5C27.4337 16.7109 30.8672 20.1426 35.0801 20.1426C39.293 20.1426 42.7264 16.7109 42.7264 12.5ZM74.5389 12.5C74.5389 19.3966 68.933 25 62.0331 25C55.1327 25 49.5267 19.3966 49.5267 12.5C49.5267 5.60342 55.1498 0 62.0331 0C68.916 0 74.5389 5.60342 74.5389 12.5ZM69.6793 12.5C69.6793 8.28913 66.246 4.85742 62.0331 4.85742C57.8202 4.85742 54.3865 8.28913 54.3865 12.5C54.3865 16.7109 57.8202 20.1426 62.0331 20.1426C66.246 20.1426 69.6793 16.7109 69.6793 12.5Z" fill="#2D8CFF"/>
</g>
</svg>
