<svg width="1560" height="2338" xmlns="http://www.w3.org/2000/svg" xmlns:xlink="http://www.w3.org/1999/xlink" xml:space="preserve" overflow="hidden"><defs><clipPath id="clip0"><rect x="4432" y="687" width="1560" height="2338"/></clipPath></defs><g clip-path="url(#clip0)" transform="translate(-4432 -687)"><path d="M1472.56 2074.64 1499.62 2316.69 1159.34 2316.69C1164.53 2302.42 1171.39 2282.03 1178.25 2261.09 1186.22 2236.99 1194 2212.16 1199.38 2195.48 1203.82 2180.65 1205.68 2165.27 1204.2 2149.89 1204.2 2148.96 1204.2 2147.85 1204.01 2146.73 1201.79 2127.46 1197.15 2102.07 1187.14 2082.05 1168.61 2044.99 926.749 1908.39 926.749 1908.39 914.331 1900.24 904.694 1889.49 898.022 1877.26 890.423 1863.73 886.531 1848.53 886.531 1833.15 886.531 1822.21 888.384 1811.28 892.462 1800.9 894.5 1795.52 897.095 1790.34 900.246 1785.15 926.007 1744 979.569 1730.47 1021.83 1754.57L1103 1800.9 1217.72 1866.51 1316.88 1923.22 1406.95 1974.74C1414.55 1979.01 1421.59 1984.01 1428.08 1989.76 1452.91 2011.25 1468.85 2041.46 1472.56 2074.64Z" fill="#FEC4B9" transform="matrix(1.00086 0 0 1 4432 687.464)"/><path d="M1415.11 1858.35 1428.08 1989.76C1421.59 1984.01 1414.55 1979.01 1406.95 1974.74L1316.88 1923.22 1316.88 1637.25 1383.23 1756.42C1400.65 1787.93 1411.4 1822.58 1415.11 1858.35Z" fill="#F7B6AD" transform="matrix(1.00086 0 0 1 4432 687.464)"/><path d="M1258.13 1587.39 1258.13 1796.64C1258.13 1826.48 1242 1852.61 1217.72 1866.51L1103 1800.9 1106.34 1800.9C1151 1800.9 1187.14 1764.76 1187.14 1720.28L1187.14 1511.04C1187.14 1509.74 1187.14 1508.44 1186.96 1507.14 1226.99 1511.96 1258.13 1545.88 1258.13 1587.39Z" fill="#349370" transform="matrix(1.00086 0 0 1 4432 687.464)"/><path d="M1204.2 2149.89C1205.68 2165.27 1203.82 2180.65 1199.38 2195.48 1194 2212.16 1186.22 2236.99 1178.25 2261.09L590.922 2261.09 353.508 2261.09C291.791 2261.09 241.936 2211.05 241.936 2149.51L1204.2 2149.89Z" fill="#655F68" transform="matrix(1.00086 0 0 1 4432 687.464)"/><path d="M668.207 1019.34 241.936 1019.34 241.936 2149.51 1204.2 2149.89C1204.2 2148.96 1204.2 2147.85 1204.01 2146.73 1201.79 2127.46 1197.15 2102.07 1187.14 2082.05 1168.61 2044.99 926.749 1908.39 926.749 1908.39 914.331 1900.24 904.694 1889.49 898.022 1877.26L445.063 1877.26C400.768 1877.26 364.813 1841.49 364.443 1797.19 331.453 1787.18 307.545 1756.42 307.545 1720.28L307.545 1511.04C307.545 1466.37 343.685 1430.23 388.351 1430.23L594.073 1430.23 964.742 1430.23 1106.34 1430.23C1149.71 1430.23 1185.11 1464.33 1186.96 1507.14 1226.99 1511.96 1258.13 1545.88 1258.13 1587.39L1258.13 1796.64C1258.13 1826.48 1242 1852.61 1217.72 1866.51L1316.88 1923.22 1316.88 1637.25 1316.88 1019.34 668.207 1019.34ZM817.216 1317.73C807.393 1329.96 794.049 1337.56 779.408 1337.56 764.766 1337.56 751.422 1329.96 741.599 1317.73 730.664 1304.2 723.807 1284.93 723.807 1263.43 723.807 1257.13 724.363 1251.2 725.475 1245.45 731.406 1213.2 753.275 1189.29 779.408 1189.29 805.54 1189.29 827.409 1213.2 833.34 1245.45 834.452 1251.2 835.008 1257.13 835.008 1263.43 835.008 1284.93 828.151 1304.2 817.216 1317.73Z" fill="#DDD8D6" transform="matrix(1.00086 0 0 1 4432 687.464)"/><path d="M898.022 1877.26 445.063 1877.26C400.768 1877.26 364.813 1841.49 364.443 1797.19 372.041 1799.6 380.011 1800.9 388.351 1800.9L892.276 1800.9 892.462 1800.9C888.384 1811.28 886.531 1822.21 886.531 1833.15 886.531 1848.53 890.423 1863.73 898.022 1877.26Z" fill="#349370" transform="matrix(1.00086 0 0 1 4432 687.464)"/><path d="M779.408 784.152 268.068 784.337C230.445 784.337 197.085 760.244 185.409 724.66 179.478 706.311 176.513 686.666 177.44 666.094 180.961 586.585 243.79 519.123 322.928 510.412 346.465 507.818 369.261 510.227 390.204 516.714 375.563 488.172 368.705 454.812 373.153 419.413 380.196 362.515 418.56 313.957 470.454 289.493 510.116 270.96 547.183 270.774 580.728 279.485 580.172 273.554 579.802 267.438 579.802 261.322 579.802 154.94 666.168 68.5739 772.735 68.5739 870.222 68.5739 954.549 145.117 964.372 242.233 967.522 272.998 963.074 302.096 953.066 328.784 959.368 328.043 965.854 327.487 972.341 327.487 1058.71 327.487 1128.76 397.543 1128.76 483.91 1128.76 497.81 1126.91 510.968 1123.57 523.757 1130.25 522.83 1137.1 522.089 1144.15 522.089 1223.47 522.089 1287.78 586.4 1287.78 665.908 1287.78 696.118 1278.51 724.104 1262.58 747.27 1246.45 770.623 1219.76 784.152 1191.41 784.152L779.408 784.152Z" fill="#20BAB6" transform="matrix(1.00086 0 0 1 4432 687.464)"/><path d="M833.34 1245.45C834.452 1251.2 835.008 1257.13 835.008 1263.43 835.008 1284.93 828.151 1304.2 817.216 1317.73 807.393 1329.96 794.049 1337.56 779.408 1337.56 764.766 1337.56 751.422 1329.96 741.599 1317.73 730.664 1304.2 723.807 1284.93 723.807 1263.43 723.807 1257.13 724.363 1251.2 725.475 1245.45 731.406 1213.2 753.275 1189.29 779.408 1189.29 805.54 1189.29 827.409 1213.2 833.34 1245.45Z" fill="#D14B62" transform="matrix(1.00086 0 0 1 4432 687.464)"/><path d="M1186.96 1507.14C1185.11 1464.33 1149.71 1430.23 1106.34 1430.23L964.742 1430.23 594.073 1430.23 388.351 1430.23C343.685 1430.23 307.545 1466.37 307.545 1511.04L307.545 1720.28C307.545 1756.42 331.453 1787.18 364.443 1797.19 372.041 1799.6 380.011 1800.9 388.351 1800.9L892.276 1800.9 892.462 1800.9C894.5 1795.52 897.095 1790.34 900.246 1785.15 926.007 1744 979.569 1730.47 1021.83 1754.57L1103 1800.9 1106.34 1800.9C1151 1800.9 1187.14 1764.76 1187.14 1720.28L1187.14 1511.04C1187.14 1509.74 1187.14 1508.44 1186.96 1507.14Z" fill="#6FCEAE" transform="matrix(1.00086 0 0 1 4432 687.464)"/><path d="M779.408 263.917C820.552 263.917 853.912 297.277 853.912 338.422 853.912 379.751 820.552 413.112 779.408 413.112 738.263 413.112 704.903 379.751 704.903 338.422 704.903 297.277 738.263 263.917 779.408 263.917Z" fill="#71CC75" transform="matrix(1.00086 0 0 1 4432 687.464)"/><path d="M1159.34 2316.69 1499.62 2316.69 1472.56 2074.64C1468.85 2041.46 1452.91 2011.25 1428.08 1989.76 1421.59 1984.01 1414.55 1979.01 1406.95 1974.74L1316.88 1923.22C1316.88 1923.22 1398.3 1983.08 1398.3 2149.89 1398.3 2316.69 1159.34 2316.69 1159.34 2316.69Z" fill="#F4BDB5" transform="matrix(1.00086 0 0 1 4432 687.464)"/><path d="M1144.15 522.089C1137.1 522.089 1130.25 522.83 1123.57 523.757 1126.91 510.968 1128.76 497.81 1128.76 483.91 1128.76 397.543 1058.71 327.487 972.341 327.487 965.854 327.487 959.368 328.043 953.066 328.784 963.074 302.096 967.522 272.998 964.372 242.233 954.549 145.117 870.222 68.5739 772.735 68.5739 772.735 68.5739 955.958 168.803 886.531 366.222 886.531 366.222 1078.07 405.624 992.543 554.874 851.688 800.628 177.44 666.094 177.44 666.094 176.513 686.666 179.478 706.311 185.409 724.66 197.085 760.244 230.445 784.337 268.068 784.337L779.408 784.152 1191.41 784.152C1219.76 784.152 1246.45 770.623 1262.58 747.27 1278.51 724.104 1287.78 696.118 1287.78 665.908 1287.78 586.4 1223.47 522.089 1144.15 522.089Z" fill="#21AAA3" transform="matrix(1.00086 0 0 1 4432 687.464)"/><path d="M1205.31 874.41 668.207 874.41 353.508 874.41C291.791 874.41 241.936 924.451 241.936 985.982L241.936 1019.34 668.207 1019.34 1316.88 1019.34 1316.88 985.982C1316.88 924.451 1267.02 874.41 1205.31 874.41Z" fill="#655F68" transform="matrix(1.00086 0 0 1 4432 687.464)"/><path d="M723.807 963.705 835.008 963.705C845.238 963.705 853.542 955.402 853.542 945.171 853.542 934.941 845.238 926.638 835.008 926.638L723.807 926.638C713.577 926.638 705.274 934.941 705.274 945.171 705.274 955.402 713.577 963.705 723.807 963.705Z" fill="#3A322B" transform="matrix(1.00086 0 0 1 4432 687.464)"/><path d="M686.74 945.171C686.74 955.407 678.442 963.705 668.207 963.705 657.971 963.705 649.673 955.407 649.673 945.171 649.673 934.935 657.971 926.638 668.207 926.638 678.442 926.638 686.74 934.935 686.74 945.171Z" fill="#3A322B" transform="matrix(1.00086 0 0 1 4432 687.464)"/><path d="M438.354 1515.89C435.648 1508.64 428.735 1503.86 421.007 1503.84 421.007 1503.84 421.007 1503.84 420.988 1503.84 413.26 1503.84 406.347 1508.63 403.641 1515.85L347.725 1664.77C344.13 1674.35 348.967 1685.05 358.549 1688.64 360.699 1689.44 362.886 1689.83 365.073 1689.83 372.56 1689.83 379.64 1685.23 382.42 1677.8L390.686 1655.78 451.068 1655.78 459.279 1677.76C462.855 1687.34 473.568 1692.26 483.131 1688.62 492.713 1685.05 497.587 1674.37 493.992 1664.77L438.354 1515.89ZM404.623 1618.73 420.97 1575.22 437.242 1618.73 404.623 1618.73Z" fill="#3A322B" transform="matrix(1.00086 0 0 1 4432 687.464)"/><path d="M569.164 1540.91C577.726 1540.91 586.511 1548.51 592.664 1561.22 597.149 1570.45 608.232 1574.31 617.425 1569.84 626.636 1565.38 630.491 1554.29 626.043 1545.08 613.551 1519.26 592.293 1503.84 569.182 1503.84 530.966 1503.84 501.053 1544.69 501.053 1596.85 501.053 1649 530.985 1689.85 569.182 1689.85 591.534 1689.85 612.402 1675.22 624.968 1650.76 629.657 1641.66 626.061 1630.48 616.961 1625.81 607.88 1621.14 596.686 1624.7 592.015 1633.82 585.899 1645.7 577.374 1652.78 569.182 1652.78 554.485 1652.78 538.12 1629.82 538.12 1596.85 538.12 1563.87 554.466 1540.91 569.164 1540.91Z" fill="#3A322B" transform="matrix(1.00086 0 0 1 4432 687.464)"/><path d="M710.852 1540.91C719.415 1540.91 728.199 1548.51 734.334 1561.22 738.782 1570.44 749.884 1574.33 759.076 1569.84 768.306 1565.39 772.161 1554.31 767.694 1545.1 755.221 1519.26 733.963 1503.84 710.834 1503.84 672.618 1503.84 642.704 1544.69 642.704 1596.85 642.704 1649 672.636 1689.85 710.834 1689.85 733.185 1689.85 754.054 1675.22 766.619 1650.76 771.308 1641.66 767.713 1630.48 758.613 1625.81 749.532 1621.14 738.356 1624.7 733.667 1633.82 727.551 1645.7 719.025 1652.78 710.834 1652.78 696.137 1652.78 679.771 1629.82 679.771 1596.85 679.771 1563.87 696.155 1540.91 710.852 1540.91Z" fill="#3A322B" transform="matrix(1.00086 0 0 1 4432 687.464)"/><path d="M779.408 245.439C728.088 245.439 686.332 287.195 686.332 338.514 686.332 389.833 728.088 431.589 779.408 431.589 830.727 431.589 872.483 389.833 872.483 338.514 872.483 287.195 830.727 245.439 779.408 245.439ZM779.408 394.522C748.512 394.522 723.399 369.41 723.399 338.514 723.399 307.619 748.512 282.506 779.408 282.506 810.303 282.506 835.416 307.619 835.416 338.514 835.416 369.41 810.303 394.522 779.408 394.522Z" fill="#3A322B" transform="matrix(1.00086 0 0 1 4432 687.464)"/><path d="M807.208 338.514C807.208 353.868 794.761 366.314 779.408 366.314 764.054 366.314 751.607 353.868 751.607 338.514 751.607 323.161 764.054 310.714 779.408 310.714 794.761 310.714 807.208 323.161 807.208 338.514Z" fill="#3A322B" transform="matrix(1.00086 0 0 1 4432 687.464)"/><path d="M779.408 463.337C769.177 463.337 760.874 471.64 760.874 481.871L760.874 537.471C760.874 547.702 769.177 556.005 779.408 556.005 789.638 556.005 797.941 547.702 797.941 537.471L797.941 481.871C797.941 471.64 789.638 463.337 779.408 463.337Z" fill="#3A322B" transform="matrix(1.00086 0 0 1 4432 687.464)"/><path d="M779.408 593.072C769.177 593.072 760.874 601.375 760.874 611.605L760.874 667.206C760.874 677.436 769.177 685.739 779.408 685.739 789.638 685.739 797.941 677.436 797.941 667.206L797.941 611.605C797.941 601.375 789.638 593.072 779.408 593.072Z" fill="#3A322B" transform="matrix(1.00086 0 0 1 4432 687.464)"/><path d="M18.5335 129.568C28.764 129.568 37.067 121.265 37.067 111.034L37.067 18.5335C37.067 8.30301 28.764 0 18.5335 0 8.30301 0 0 8.30301 0 18.5335L0 111.034C0 121.265 8.30301 129.568 18.5335 129.568Z" fill="#3A322B" transform="matrix(1.00086 0 0 1 4432 687.464)"/><path d="M1540.28 161.816C1530.05 161.816 1521.75 170.119 1521.75 180.349L1521.75 308.49 978.476 308.49C983.702 286.083 985.185 263.25 982.831 240.305 971.952 133.701 879.655 50.1331 772.735 50.0404 772.68 50.0404 772.606 50.0404 772.55 50.0404 716.134 50.0404 663.073 72.0026 623.152 111.887 584.268 150.751 562.38 202.089 561.231 256.874 527.445 252.537 494.344 257.856 462.559 272.776 443.191 281.839 425.974 294.164 410.98 308.49L37.067 308.49 37.067 180.349C37.067 170.119 28.764 161.816 18.5335 161.816 8.30301 161.816 0 170.119 0 180.349L0 327.023C0 337.254 8.30301 345.557 18.5335 345.557L380.771 345.557C367.186 367.371 357.937 391.631 354.713 417.115 351.525 442.413 353.526 467.73 360.495 491.823 347.41 490.452 334.196 490.507 320.87 491.972 232.447 501.665 162.835 576.188 158.925 665.334 157.942 687.593 160.926 709.462 167.784 730.386 181.962 773.699 222.235 802.815 268.013 802.815L760.874 802.76 760.874 855.969 353.434 855.969C281.691 855.969 223.329 914.331 223.329 986.075L223.329 2149.51C223.329 2221.26 281.691 2279.62 353.434 2279.62L572.37 2279.62 572.37 2316.69C572.37 2326.92 580.673 2335.22 590.903 2335.22 601.134 2335.22 609.437 2326.92 609.437 2316.69L609.437 2279.62 1152.62 2279.62C1148.71 2291.24 1145.02 2301.95 1141.94 2310.29 1138.42 2319.91 1143.35 2330.55 1152.95 2334.09 1155.06 2334.87 1157.21 2335.24 1159.34 2335.24 1166.89 2335.24 1173.99 2330.59 1176.75 2323.08 1187.4 2294.06 1204.51 2240.66 1216.96 2200.96 1222.1 2184.6 1223.9 2167.58 1222.69 2150.33 1222.69 2150.18 1222.78 2150.05 1222.78 2149.9 1222.78 2149.63 1222.64 2149.38 1222.62 2149.11 1222.51 2147.62 1222.52 2146.16 1222.36 2144.66 1219.19 2115.93 1212.92 2092.08 1203.79 2073.79 1184.23 2034.7 993.747 1924.98 936.979 1892.99 908.567 1874.03 897.911 1838.87 909.401 1808.16 909.42 1808.11 909.438 1808.03 909.457 1807.96 911.144 1803.51 913.256 1799.18 915.888 1794.99 936.423 1762.11 978.902 1751.4 1012.6 1770.65L1208.59 1882.65C1208.61 1882.67 1208.62 1882.67 1208.64 1882.69L1397.78 1990.78C1429.1 2008.68 1450.19 2040.78 1454.17 2076.64L1481.09 2318.74C1482.22 2328.94 1491.45 2336.29 1501.55 2335.11 1511.72 2333.98 1519.04 2324.82 1517.91 2314.65L1491 2072.54C1487.11 2037.44 1470.8 2005.14 1445.87 1981.03L1433.44 1856.44C1429.6 1817.97 1418.13 1781.31 1399.33 1747.47L1335.45 1632.49 1335.45 986.075C1335.45 914.331 1277.09 855.969 1205.34 855.969L797.941 855.969 797.941 802.76 1191.41 802.723C1226.16 802.723 1258.48 785.931 1277.85 757.797 1296.51 730.701 1306.37 698.917 1306.37 665.89 1306.37 577.077 1234.68 504.723 1146.15 503.592 1146.93 496.994 1147.32 490.433 1147.32 483.947 1147.32 427.642 1120.46 377.601 1079.04 345.576L1540.26 345.576C1550.49 345.576 1558.8 337.272 1558.8 327.042L1558.8 180.349C1558.82 170.119 1550.53 161.816 1540.28 161.816ZM353.434 2242.55C308.49 2242.55 270.886 2210.51 262.267 2168.05L1185.77 2168.42C1185.16 2175.7 1183.83 2182.87 1181.62 2189.86 1177.21 2203.93 1171.15 2223.04 1164.83 2242.55L353.434 2242.55ZM1170.65 2090.36C1175.95 2100.96 1180.16 2114.91 1183.07 2131.33L260.396 2130.98 260.396 1037.84 1298.44 1037.84 1298.44 1891.29 1250.27 1863.77C1266.91 1845.66 1276.72 1821.81 1276.72 1796.6L1276.72 1587.32C1276.72 1542.02 1246.14 1503.46 1203.66 1491.85 1194.72 1446.24 1154.54 1411.7 1106.36 1411.7L977.178 1411.7 943.929 1330.54C941.538 1324.68 936.312 1320.46 930.085 1319.33L845.72 1304.04C850.224 1292.58 852.948 1279.94 853.301 1266.45L972.063 1280.74 1023.01 1365.64C1026.5 1371.44 1032.63 1374.63 1038.91 1374.63 1042.16 1374.63 1045.46 1373.78 1048.44 1371.98 1057.22 1366.72 1060.06 1355.34 1054.8 1346.55L999.178 1253.88C996.231 1248.97 991.19 1245.71 985.5 1245.02L926.767 1237.94 969.858 1225.64C976.882 1223.64 982.071 1217.67 983.109 1210.44L1001.64 1080.71C1003.09 1070.57 996.046 1061.19 985.926 1059.75 975.733 1058.23 966.41 1065.32 964.965 1075.46L948.118 1193.3 845.646 1222.58C841.013 1210.9 834.508 1200.75 826.575 1192.48L863.865 1167.63C869.017 1164.18 872.112 1158.4 872.112 1152.21L872.112 1078.07C872.112 1067.84 863.809 1059.54 853.579 1059.54 843.348 1059.54 835.045 1067.84 835.045 1078.07L835.045 1142.29 790.305 1172.11C786.728 1171.45 783.17 1170.74 779.445 1170.74 775.719 1170.74 772.161 1171.45 768.584 1172.11L723.844 1142.29 723.844 1078.07C723.844 1067.84 715.541 1059.54 705.311 1059.54 695.08 1059.54 686.777 1067.84 686.777 1078.07L686.777 1152.21C686.777 1158.4 689.872 1164.18 695.025 1167.63L732.314 1192.48C724.382 1200.75 717.858 1210.9 713.243 1222.58L610.771 1193.3 593.924 1075.46C592.479 1065.34 583.119 1058.32 572.963 1059.75 562.844 1061.19 555.801 1070.57 557.247 1080.71L575.78 1210.44C576.818 1217.67 582.007 1223.62 589.031 1225.64L632.122 1237.94 573.389 1245.02C567.699 1245.71 562.658 1248.97 559.711 1253.88L504.092 1346.55C498.829 1355.34 501.665 1366.72 510.449 1371.98 513.433 1373.78 516.714 1374.63 519.976 1374.63 526.277 1374.63 532.412 1371.42 535.877 1365.64L586.826 1280.74 705.589 1266.45C705.941 1279.94 708.665 1292.6 713.169 1304.04L628.804 1319.33C622.577 1320.46 617.351 1324.68 614.96 1330.54L581.711 1411.7 388.332 1411.7C333.603 1411.7 289.104 1456.21 289.104 1510.92L289.104 1720.2C289.104 1760.24 313.049 1794.6 347.262 1810.28 354.008 1858.48 395.078 1895.81 445.119 1895.81L887.995 1895.81C895.761 1906.73 905.621 1916.53 917.63 1924.52 1030.85 1988.46 1159.79 2070.04 1170.65 2090.36ZM1152.17 1807.7C1183.75 1791.08 1205.59 1758.31 1205.59 1720.22L1205.59 1531.94C1225.92 1542.26 1239.63 1563.32 1239.63 1587.34L1239.63 1796.6C1239.63 1815.34 1231.03 1832.93 1216.78 1844.64L1152.17 1807.7ZM816.475 1263.45C816.475 1293.58 799.498 1319.05 779.408 1319.05 759.317 1319.05 742.341 1293.58 742.341 1263.45 742.341 1233.31 759.317 1207.85 779.408 1207.85 799.498 1207.85 816.475 1233.31 816.475 1263.45ZM779.408 1356.11C795.902 1356.11 811.026 1349.11 823.35 1337.65L913.479 1354 937.128 1411.71 621.687 1411.71 645.336 1354 735.465 1337.65C747.808 1349.11 762.913 1356.11 779.408 1356.11ZM870.982 1858.76 445.1 1858.76C418.875 1858.76 396.506 1842.38 387.387 1819.36 387.702 1819.36 387.999 1819.45 388.332 1819.45L868.776 1819.45C867.071 1832.67 867.831 1845.95 870.982 1858.76ZM884.474 1775.34C883.028 1777.64 881.786 1780.01 880.545 1782.38L388.332 1782.38C382.809 1782.38 377.546 1781.42 372.431 1780.07 371.319 1779.53 370.114 1779.27 368.891 1778.96 344.167 1770.75 326.152 1747.67 326.152 1720.22L326.152 1510.94C326.152 1476.66 354.045 1448.78 388.314 1448.78L594.017 1448.78C594.035 1448.78 594.054 1448.78 594.054 1448.78 594.073 1448.78 594.091 1448.78 594.11 1448.78L964.668 1448.78C964.687 1448.78 964.705 1448.78 964.724 1448.78 964.742 1448.78 964.761 1448.78 964.761 1448.78L1106.32 1448.78C1140.61 1448.78 1168.48 1476.67 1168.48 1510.94L1168.48 1720.22C1168.48 1754.07 1141.27 1781.55 1107.6 1782.25L1030.96 1738.46C979.958 1709.29 915.61 1725.49 884.474 1775.34ZM1366.97 1765.45C1383.3 1794.84 1393.26 1826.68 1396.59 1860.1L1405.84 1952.65 1335.5 1912.45 1335.5 1708.79 1366.97 1765.45ZM1298.44 986.075 1298.44 1000.77 260.396 1000.77 260.396 986.075C260.396 934.774 302.133 893.036 353.434 893.036L1205.4 893.036C1256.7 893.036 1298.44 934.774 1298.44 986.075ZM1110.29 483.928C1110.29 495.345 1108.71 507.151 1105.6 519.03 1104.02 525.035 1105.56 531.429 1109.69 536.081 1113.83 540.715 1120.03 543.013 1126.17 542.086 1133.05 541.104 1138.73 540.641 1144.09 540.641 1213.15 540.641 1269.32 596.834 1269.32 665.89 1269.32 691.373 1261.72 715.875 1247.32 736.762 1234.87 754.869 1213.96 765.656 1191.41 765.656L797.941 765.693 797.941 741.34C797.941 731.109 789.638 722.806 779.408 722.806 769.177 722.806 760.874 731.109 760.874 741.34L760.874 765.693 268.013 765.748C238.304 765.748 212.19 746.9 202.997 718.84 197.549 702.197 195.176 684.72 195.955 666.946 199.068 595.907 254.502 536.526 324.911 528.816 330.452 528.205 335.994 527.908 341.48 527.908 356.232 527.908 370.725 530.095 384.755 534.469 391.854 536.711 399.638 534.432 404.456 528.705 409.257 522.978 410.165 514.935 406.755 508.3 393.021 481.574 387.739 451.643 391.502 421.748 397.673 372.764 430.941 328.543 478.312 306.34 510.023 291.495 541.975 288.566 576.002 297.444 581.859 298.982 588.068 297.555 592.683 293.626 597.297 289.716 599.688 283.785 599.132 277.78 598.632 272.387 598.298 266.956 598.298 261.433 598.298 214.859 616.443 171.064 649.395 138.149 682.273 105.215 726.031 87.1074 772.55 87.1074 772.606 87.1074 772.661 87.1074 772.698 87.1074 860.881 87.1815 936.979 156.126 945.968 244.068 948.655 270.496 945.19 296.795 935.682 322.26 933.421 328.321 934.496 335.141 938.499 340.219 942.502 345.298 948.859 347.929 955.309 347.151 960.888 346.465 966.54 345.983 972.304 345.983 1048.38 345.965 1110.29 407.867 1110.29 483.928Z" fill="#3A322B" transform="matrix(1.00086 0 0 1 4432 687.464)"/><path d="M1540.28 0C1530.05 0 1521.75 8.30301 1521.75 18.5335L1521.75 111.034C1521.75 121.265 1530.05 129.568 1540.28 129.568 1550.51 129.568 1558.82 121.265 1558.82 111.034L1558.82 18.5335C1558.82 8.30301 1550.53 0 1540.28 0Z" fill="#3A322B" transform="matrix(1.00086 0 0 1 4432 687.464)"/><path d="M864.736 1540.91C874.966 1540.91 883.269 1532.61 883.269 1522.38 883.269 1512.15 874.966 1503.84 864.736 1503.84L811.285 1503.84C801.055 1503.84 792.752 1512.15 792.752 1522.38L792.752 1671.29C792.752 1681.53 801.055 1689.83 811.285 1689.83L864.736 1689.83C874.966 1689.83 883.269 1681.53 883.269 1671.29 883.269 1661.06 874.966 1652.76 864.736 1652.76L829.819 1652.76 829.819 1615.36 864.736 1615.36C874.966 1615.36 883.269 1607.06 883.269 1596.83 883.269 1586.6 874.966 1578.29 864.736 1578.29L829.819 1578.29 829.819 1540.89 864.736 1540.89Z" fill="#3A322B" transform="matrix(1.00086 0 0 1 4432 687.464)"/><path d="M956.143 1578.29C945.838 1578.29 937.461 1569.9 937.461 1559.59 937.461 1549.29 945.838 1540.89 956.143 1540.89 962.352 1540.89 968.171 1543.99 971.674 1549.16 977.401 1557.65 988.947 1559.87 997.398 1554.13 1005.89 1548.4 1008.11 1536.87 1002.37 1528.4 991.968 1513.02 974.676 1503.83 956.143 1503.83 925.396 1503.83 900.394 1528.85 900.394 1559.59 900.394 1590.34 925.414 1615.36 956.143 1615.36 966.448 1615.36 974.843 1623.76 974.843 1634.06 974.843 1644.37 966.448 1652.76 956.143 1652.76 950.49 1652.76 945.19 1650.22 941.594 1645.81 935.144 1637.9 923.468 1636.67 915.517 1643.11 907.567 1649.55 906.362 1661.23 912.812 1669.18 923.468 1682.3 939.259 1689.83 956.124 1689.83 986.871 1689.83 1011.89 1664.81 1011.89 1634.06 1011.89 1603.31 986.89 1578.29 956.143 1578.29Z" fill="#3A322B" transform="matrix(1.00086 0 0 1 4432 687.464)"/><path d="M1136.57 1634.06C1136.57 1603.31 1111.55 1578.29 1080.8 1578.29 1070.49 1578.29 1062.12 1569.9 1062.12 1559.59 1062.12 1549.29 1070.49 1540.89 1080.8 1540.89 1087.01 1540.89 1092.83 1543.99 1096.33 1549.16 1102.06 1557.65 1113.6 1559.87 1122.05 1554.13 1130.54 1548.4 1132.77 1536.87 1127.02 1528.4 1116.62 1513.02 1099.33 1503.83 1080.8 1503.83 1050.05 1503.83 1025.05 1528.85 1025.05 1559.59 1025.05 1590.34 1050.07 1615.36 1080.8 1615.36 1091.1 1615.36 1099.5 1623.76 1099.5 1634.06 1099.5 1644.37 1091.1 1652.76 1080.8 1652.76 1075.15 1652.76 1069.85 1650.22 1066.25 1645.81 1059.8 1637.9 1048.14 1636.67 1040.17 1643.11 1032.22 1649.55 1031.02 1661.23 1037.47 1669.18 1048.12 1682.3 1063.92 1689.83 1080.78 1689.83 1111.56 1689.83 1136.57 1664.81 1136.57 1634.06Z" fill="#3A322B" transform="matrix(1.00086 0 0 1 4432 687.464)"/></g></svg>