<svg width="829" height="829" xmlns="http://www.w3.org/2000/svg" xmlns:xlink="http://www.w3.org/1999/xlink" xml:space="preserve" overflow="hidden"><g transform="translate(-579 -2359)"><path d="M579.169 2730.41C584.47 2925.37 744.183 3081.79 940.431 3081.79 1061.26 3081.79 1168.23 3022.5 1233.85 2931.42L1233.85 2931.42C1237.43 2926.45 1240.89 2921.39 1244.22 2916.23L1244.22 2916.23C1280.67 2859.81 1301.83 2792.57 1301.83 2720.4 1301.83 2642.73 1277.33 2570.78 1235.63 2511.86L1235.63 2511.86C1232.09 2506.86 1228.43 2501.96 1224.65 2497.15L1224.65 2497.15C1160.4 2415.47 1061.7 2362.16 950.439 2359.14L950.439 2359 930.057 2359 930.057 2359.15C738.706 2364.54 584.574 2518.67 579.18 2710.02L579.033 2710.02 579.033 2730.41 579.169 2730.41ZM930.057 2851.11 930.057 3060.66C894.693 3055.53 858.658 3024.28 829.621 2966.76 815.254 2938.3 803.278 2904.56 794.526 2866.98 835.775 2857.46 881.575 2851.81 930.057 2851.11ZM950.439 3060.71 950.439 2851.1C999.053 2851.78 1044.98 2857.44 1086.34 2866.98 1077.58 2904.56 1065.61 2938.3 1051.24 2966.76 1022.1 3024.48 985.92 3055.75 950.439 3060.71ZM950.439 2730.41 950.439 2832.72C1000.19 2833.41 1047.44 2839.17 1090.21 2849.01 1097.52 2812.32 1101.83 2772.38 1102.42 2730.41L950.439 2730.41ZM930.057 2730.41 930.057 2832.73C880.434 2833.44 833.32 2839.19 790.649 2849.02 783.338 2812.32 779.033 2772.38 778.441 2730.41L930.057 2730.41ZM950.439 2710.02 1102.42 2710.02C1101.7 2661.14 1095.95 2615.01 1086.28 2573.56 1044.55 2582.87 998.672 2588.3 950.439 2588.96L950.439 2710.02ZM1122.8 2730.41C1122.21 2773.94 1117.72 2815.57 1110.01 2853.95 1156.05 2866.32 1196.16 2883.57 1227.63 2904.34 1260.01 2853.89 1279.46 2794.35 1281.3 2730.41L1122.8 2730.41ZM1281.29 2710.02 1122.8 2710.02C1122.08 2659.69 1116.17 2611.93 1106.09 2568.78 1149.44 2557.47 1187.68 2541.86 1218.59 2523.07 1256.3 2576.14 1279.21 2640.46 1281.29 2710.02ZM930.057 2710.02 778.446 2710.02C779.161 2661.14 784.914 2615.01 794.585 2573.56 836.209 2582.84 881.957 2588.27 930.057 2588.96L930.057 2710.02ZM758.06 2710.02C758.777 2659.69 764.689 2611.93 774.771 2568.78 731.419 2557.47 693.182 2541.86 662.273 2523.07 624.559 2576.14 601.651 2640.46 599.572 2710.02L758.06 2710.02ZM599.561 2730.41C601.404 2794.35 620.853 2853.89 653.23 2904.34 684.702 2883.57 724.811 2866.32 770.849 2853.95 763.138 2815.57 758.653 2773.94 758.055 2730.41L599.561 2730.41ZM930.057 2380.14 930.057 2570.58C883.347 2569.9 839.125 2564.63 799.063 2555.74 807.249 2525.37 817.597 2497.85 829.621 2474.04 858.658 2416.52 894.693 2385.26 930.057 2380.14ZM950.439 2570.59 950.439 2380.08C985.92 2385.04 1022.1 2416.32 1051.24 2474.04 1063.26 2497.85 1073.61 2525.37 1081.8 2555.74 1041.63 2564.66 997.282 2569.93 950.439 2570.59ZM1106.11 2871.93C1086.96 2953.97 1052.73 3019.38 1010.46 3054.21 1095.22 3036.52 1168.42 2987.36 1217.31 2919.51 1208.34 2913.62 1198.46 2907.93 1187.7 2902.49 1163.88 2890.47 1136.41 2880.12 1106.11 2871.93ZM663.557 2919.52C672.527 2913.62 682.399 2907.93 693.166 2902.49 716.98 2890.47 744.452 2880.12 774.75 2871.93 793.905 2953.97 828.135 3019.38 870.402 3054.21 785.644 3036.52 712.438 2987.37 663.557 2919.52ZM1187.7 2519.19C1194.67 2515.67 1201.27 2512.04 1207.49 2508.32 1158.88 2447.19 1089.72 2403.12 1010.46 2386.58 1049.6 2418.84 1081.85 2477.32 1101.62 2550.95 1133.7 2542.58 1162.71 2531.81 1187.7 2519.19ZM870.402 2386.58C831.26 2418.84 799.009 2477.32 779.241 2550.95 747.163 2542.58 718.15 2531.81 693.165 2519.19 686.19 2515.67 679.59 2512.04 673.368 2508.32 721.979 2447.19 791.14 2403.12 870.402 2386.58Z" fill-rule="evenodd"/><path d="M1375.51 2836.88 940.304 2720.27 1056.92 3155.47 1140.87 3026.5 1302.36 3187.99 1407.98 3082.37 1246.48 2920.87 1375.51 2836.88Z" fill="#E14B4B"/><path d="M1061.07 3129.33 955.552 2735.52 1349.36 2841.04 1240.6 2911.84 1229.45 2919.09 1238.86 2928.5 1392.73 3082.37 1302.36 3172.74 1148.49 3018.88 1139.09 3009.47 1131.83 3020.62 1061.07 3129.33Z" stroke="#000000" stroke-width="21.5635" fill="none"/></g></svg>