<svg width="2146" height="1655" xmlns="http://www.w3.org/2000/svg" xmlns:xlink="http://www.w3.org/1999/xlink" xml:space="preserve" overflow="hidden"><g transform="translate(-4090 -1029)"><path d="M2097.59 403.141C2127.68 548.49 2112.3 715.304 2054.32 873.16 2049.09 887.357 2035.56 896.821 2020.52 896.821 2016.3 896.821 2012.07 895.976 2008.18 894.624 1989.59 887.695 1979.96 866.906 1986.72 848.315 2040.13 702.966 2054.49 550.011 2027.11 417.845 2023.06 398.409 2035.56 379.311 2055 375.254 2057.54 374.747 2059.9 374.409 2062.27 374.409 2079.34 374.409 2094.21 386.578 2097.59 403.141Z" fill="#6FCEAE" transform="matrix(1.00058 0 0 1 4090 1034.26)"/><path d="M2047.56 255.933C2051.79 264.552 2052.47 274.186 2049.42 283.313 2046.38 292.439 2039.96 299.876 2031.34 304.101 2026.44 306.636 2020.86 307.988 2015.28 307.988 2001.59 307.988 1989.26 300.383 1983.17 288.045 1941.59 204.723 1879.57 144.217 1803.68 112.95 1764.98 97.0628 1723.4 88.9503 1680.3 88.9503 1670.33 88.9503 1660.19 89.2883 1650.22 90.1334L1647.18 90.3024C1628.25 90.3024 1612.87 76.1055 1611.35 57.3453 1610.5 47.7117 1613.54 38.4161 1619.63 30.9797 1625.88 23.7122 1634.67 19.1489 1644.14 18.4729 1656.3 17.4588 1668.3 16.9518 1680.14 16.9518 1732.87 16.9518 1783.57 26.7544 1831.06 46.3596 1923.34 84.387 1998.04 156.724 2047.56 255.933Z" fill="#6FCEAE" transform="matrix(1.00058 0 0 1 4090 1034.26)"/><path d="M2010.55 1353.83 2010.55 1559.85C2010.55 1598.22 1979.45 1629.31 1940.92 1629.31L316.219 1629.31C280.051 1629.31 250.136 1601.6 246.925 1566.27 248.784 1566.61 250.474 1566.61 252.333 1566.61L1885.65 1566.61C1921.65 1566.61 1950.89 1537.37 1950.89 1501.37L1950.89 1286.9C1950.89 1286.22 1950.89 1285.71 1950.72 1285.04 1984.52 1289.77 2010.55 1318.67 2010.55 1353.83Z" fill="#89A25B" transform="matrix(1.00058 0 0 1 4090 1034.26)"/><path d="M1994.83 972.876C1997.37 982.172 1996.35 991.805 1991.79 1000.26 1959.85 1058.23 1922.5 1111.97 1880.75 1160.14 1873.82 1168.08 1864.02 1172.48 1853.54 1172.48 1844.92 1172.48 1836.47 1169.44 1829.88 1163.69 1815.01 1150.68 1813.32 1127.86 1826.33 1112.99 1864.69 1068.71 1899.17 1019.02 1928.58 965.609 1935 954.116 1947 946.849 1960.19 946.849 1966.27 946.849 1972.19 948.539 1977.59 951.412 1986.04 955.975 1992.13 963.75 1994.83 972.876Z" fill="#6FCEAE" transform="matrix(1.00058 0 0 1 4090 1034.26)"/><path d="M246.925 1566.27C213.291 1563.74 186.926 1535.51 186.926 1501.37L186.926 1333.21 186.926 1286.9C186.926 1250.9 216.165 1221.66 252.333 1221.66L783.364 1221.66 899.813 1221.66 1099.75 1221.66 1885.65 1221.66C1920.98 1221.66 1949.88 1249.88 1950.72 1285.04 1950.89 1285.71 1950.89 1286.22 1950.89 1286.9L1950.89 1501.37C1950.89 1537.37 1921.65 1566.61 1885.65 1566.61L252.333 1566.61C250.474 1566.61 248.784 1566.61 246.925 1566.27Z" fill="#FFC05A" transform="matrix(1.00058 0 0 1 4090 1034.26)"/><path d="M1689.94 222.131C1916.58 289.904 2007 541.73 1909.31 860.484 1876.69 966.454 1751.46 1095.07 1650.22 1154.06 1644.98 1157.1 1638.9 1158.79 1632.98 1158.79 1620.81 1158.79 1609.32 1152.2 1603.24 1141.72 1593.6 1125.32 1599.18 1104.2 1615.57 1094.73 1705.32 1042.34 1817.54 925.215 1843.23 841.217 1928.92 562.18 1857.26 343.818 1670.33 288.045 1653.6 282.975 1636.02 280.439 1618.11 280.439 1510.45 280.439 1393.49 369.508 1312.54 512.829 1306.45 523.477 1295.13 530.237 1282.62 530.237 1276.71 530.237 1270.96 528.716 1265.72 525.674 1257.78 521.28 1252.03 513.843 1249.5 505.055 1247.13 496.266 1248.31 486.97 1252.71 479.027 1345.83 314.242 1485.94 211.821 1618.45 211.821 1642.95 211.821 1666.95 215.37 1689.94 222.131Z" fill="#6FCEAE" transform="matrix(1.00058 0 0 1 4090 1034.26)"/><path d="M1669.49 369.508C1793.54 409.395 1851 577.729 1797.6 744.374 1783.57 787.979 1763.29 827.696 1737.6 862.85 1731.01 871.808 1720.36 877.216 1709.04 877.216 1701.6 877.216 1694.33 874.85 1688.25 870.287 1680.64 864.709 1675.57 856.428 1674.22 847.132 1672.87 837.837 1675.06 828.372 1680.64 820.767 1701.94 791.866 1718.67 758.909 1730.33 722.74 1750.78 658.854 1752.81 593.616 1736.08 538.688 1720.19 486.125 1688.75 449.957 1647.85 436.774 1636.7 433.225 1625.21 431.366 1613.38 431.366 1545.43 431.366 1474.45 487.816 1432.53 575.025 1426.62 587.194 1414.11 595.137 1400.59 595.137 1395.35 595.137 1390.11 593.954 1385.38 591.588 1376.93 587.532 1370.51 580.264 1367.3 571.307 1364.25 562.518 1364.76 552.885 1368.82 544.265 1422.56 432.887 1518.73 360.719 1613.71 360.719 1632.81 360.719 1651.57 363.593 1669.49 369.508Z" fill="#6FCEAE" transform="matrix(1.00058 0 0 1 4090 1034.26)"/><path d="M1664.92 545.955C1677.26 676.093 1629.43 783.584 1522.62 865.047 1516.87 869.442 1510.11 871.808 1503.18 872.146 1492.03 872.484 1481.38 867.414 1474.62 858.625 1463.13 843.583 1466 822.119 1481.04 810.626 1569.1 743.529 1606.78 659.023 1596.64 552.378 1594.78 533.617 1608.64 516.885 1627.57 515.026L1629.26 514.857C1647.52 514.181 1663.07 527.871 1664.92 545.955Z" fill="#6FCEAE" transform="matrix(1.00058 0 0 1 4090 1034.26)"/><path d="M1633.83 922.173C1647.01 936.708 1645.99 959.355 1631.63 972.707 1629.09 974.904 1569.77 1028.31 1450.45 1011.92 1346.51 997.721 1308.65 900.709 1303.24 851.357 1301.04 831.752 1315.24 813.837 1335.02 811.64 1338.06 811.302 1340.93 811.302 1343.8 811.809 1360.2 814.006 1373.04 827.02 1374.73 843.414 1375.24 846.963 1385.72 930.455 1460.25 940.595 1544.42 952.088 1581.77 920.821 1583.29 919.469 1591.24 912.37 1601.71 909.328 1612.19 910.68 1620.47 911.863 1628.25 915.92 1633.83 922.173Z" fill="#6FCEAE" transform="matrix(1.00058 0 0 1 4090 1034.26)"/><path d="M1519.41 633.841C1525.32 641.277 1528.19 650.573 1527.18 660.206 1526.17 669.671 1521.6 678.291 1514.17 684.375 1463.46 725.445 1405.32 747.923 1341.1 751.134L1339.41 751.134C1320.14 751.134 1304.42 736.092 1303.41 716.825 1302.4 697.051 1317.78 680.15 1337.55 679.136 1386.23 676.769 1430.34 659.699 1468.7 628.601 1475.13 623.362 1483.24 620.489 1491.35 620.489 1502.34 620.489 1512.48 625.39 1519.41 633.841Z" fill="#6FCEAE" transform="matrix(1.00058 0 0 1 4090 1034.26)"/><path d="M1521.27 82.8659C1529.72 100.781 1521.77 122.245 1503.86 130.696 1351.07 201.68 1218.91 350.579 1141.16 539.195 1098.74 642.46 1075.41 752.148 1074.06 856.09 1073.89 875.695 1057.67 891.582 1038.06 891.582L1037.89 891.582C1028.09 891.413 1019.13 887.695 1012.37 880.765 1005.61 873.836 1002.06 864.709 1002.06 855.076 1003.59 742.177 1028.77 623.362 1074.74 511.815 1159.24 306.636 1304.59 143.879 1473.44 65.2888 1478.34 63.0917 1483.41 62.0776 1488.65 62.0776 1502.51 62.0776 1515.35 70.1901 1521.27 82.8659Z" fill="#6FCEAE" transform="matrix(1.00058 0 0 1 4090 1034.26)"/><path d="M1473.94 1111.8C1475.13 1121.44 1472.59 1130.9 1466.67 1138.51 1460.76 1146.11 1452.31 1151.01 1442.84 1152.2 1427.8 1154.06 1413.27 1155.07 1399.58 1155.07 1283.97 1155.07 1207.41 1086.62 1177.84 957.327 1175.81 947.863 1177.33 938.229 1182.57 930.116 1187.64 922.004 1195.58 916.258 1205.05 914.229 1207.58 913.553 1210.29 913.215 1213.16 913.215 1229.72 913.215 1244.43 925.046 1248.14 941.271 1270.12 1037.95 1318.62 1082.9 1400.59 1082.9 1411.07 1082.9 1422.06 1082.23 1433.72 1080.7 1435.24 1080.54 1436.59 1080.54 1437.94 1080.54 1456.2 1080.54 1471.58 1093.89 1473.94 1111.8Z" fill="#6FCEAE" transform="matrix(1.00058 0 0 1 4090 1034.26)"/><path d="M1263.69 608.32C1267.92 616.264 1268.93 625.221 1266.4 633.841 1248.31 695.53 1238.51 757.726 1236.99 818.569 1236.65 836.485 1221.61 851.019 1203.69 851.019L1203.19 851.019C1184.43 850.681 1169.89 835.301 1170.4 816.879 1171.92 750.289 1182.74 682.347 1202.34 615.081 1206.57 600.884 1219.58 591.081 1234.45 591.081 1237.5 591.081 1240.71 591.588 1243.75 592.433 1252.2 594.968 1259.3 600.546 1263.69 608.32Z" fill="#6FCEAE" transform="matrix(1.00058 0 0 1 4090 1034.26)"/><path d="M1163.81 1187.69C1170.91 1197.83 1172.09 1210.51 1167.86 1221.32L1099.75 1221.66C1057.84 1159.29 1028.94 1085.1 1013.73 1000.76 1012.04 991.298 1014.23 981.834 1019.64 973.89 1025.22 965.947 1033.33 960.707 1042.8 959.017 1044.99 958.679 1047.19 958.341 1049.22 958.341 1066.63 958.341 1081.5 970.848 1084.71 988.087 1098.57 1065.33 1125.27 1132.42 1163.81 1187.69Z" fill="#6FCEAE" transform="matrix(1.00058 0 0 1 4090 1034.26)"/><path d="M900.151 192.554 899.813 1221.66 783.364 1221.66C775.083 1121.61 754.633 971.524 706.296 888.54 666.916 821.274 618.748 770.232 570.411 736.261 632.438 694.178 673.17 623.024 673.17 542.575 673.17 413.282 568.383 308.495 439.09 308.495 309.797 308.495 205.01 413.282 205.01 542.575 205.01 623.024 245.742 694.178 307.768 736.261 259.431 770.232 211.263 821.274 171.884 888.54 94.815 1020.71 88.8996 1322.73 88.8996 1322.73 46.4779 1303.97 16.9011 1261.38 16.9011 1212.03L16.9011 192.554C16.9011 125.626 71.1535 71.3732 138.082 71.3732L778.97 71.3732C845.898 71.3732 900.151 125.626 900.151 192.554Z" fill="#86CACF" transform="matrix(1.00058 0 0 1 4090 1034.26)"/><path d="M783.364 1221.66 252.333 1221.66C216.165 1221.66 186.926 1250.9 186.926 1286.9L186.926 1333.21 138.082 1333.21C120.505 1333.21 103.942 1329.49 88.8996 1322.73 88.8996 1322.73 94.815 1020.71 171.884 888.54 211.263 821.274 259.431 770.232 307.768 736.261 245.742 694.178 205.01 623.024 205.01 542.575 205.01 413.282 309.797 308.495 439.09 308.495 568.383 308.495 673.17 413.282 673.17 542.575 673.17 623.024 632.438 694.178 570.411 736.261 618.748 770.232 666.916 821.274 706.296 888.54 754.633 971.524 775.083 1121.61 783.364 1221.66Z" fill="#E15C63" transform="matrix(1.00058 0 0 1 4090 1034.26)"/><path d="M349.176 1221.66 783.364 1221.66C775.083 1121.61 754.633 971.524 706.296 888.54 666.916 821.274 618.748 770.232 570.411 736.261 632.438 694.178 673.17 623.024 673.17 542.575 673.17 413.282 568.383 308.495 439.09 308.495 439.09 308.495 741.365 451.343 536.22 735.298 536.22 735.298 698.183 1120.98 349.176 1221.66Z" fill="#D14B62" transform="matrix(1.00058 0 0 1 4090 1034.26)"/><path d="M1966.25 1271.38C1958.95 1233.47 1925.62 1204.72 1885.6 1204.72L1186.84 1204.72C1186.2 1195.29 1183.28 1186.05 1177.7 1178.04 1140.47 1124.82 1114.78 1059.88 1101.29 985.045 1096.2 956.786 1069.75 937.113 1039.86 942.353 1025.95 944.871 1013.86 952.646 1005.8 964.24 997.738 975.851 994.679 989.879 997.163 1003.82 1010.68 1078.8 1034.92 1146.21 1069.28 1204.74L916.68 1204.74 917.069 192.503C917.069 116.398 855.16 54.489 779.055 54.489L138.014 54.489C61.9086 54.4721 0 116.381 0 192.486L0 1212.09C0 1268.1 33.5993 1316.34 81.666 1337.94 81.8857 1338.04 82.0885 1338.16 82.3082 1338.26 99.3614 1345.82 118.172 1350.09 137.997 1350.09L170.092 1350.09 170.092 1501.34C170.092 1539.82 196.762 1571.95 232.508 1580.88 241.922 1618.9 275.673 1646.27 316.168 1646.27L1940.99 1646.27C1988.65 1646.27 2027.44 1607.48 2027.44 1559.82L2027.44 1353.88C2027.45 1315.58 2001.9 1282.32 1966.25 1271.38ZM1033.55 983.524C1036.46 979.332 1040.85 976.527 1045.8 975.614 1046.97 975.411 1048.14 975.293 1049.3 975.293 1058.51 975.293 1066.39 981.918 1068.03 991.045 1082.38 1070.7 1109.96 1140.13 1149.98 1197.39 1151.49 1199.55 1152.52 1201.97 1153.02 1204.47L1108.88 1204.69C1070.95 1145.86 1044.59 1076.29 1030.44 997.839 1029.55 992.803 1030.64 987.698 1033.55 983.524ZM33.8021 1212.09 33.8021 192.486C33.8021 135.023 80.5505 88.2743 138.014 88.2743L779.055 88.2743C836.518 88.2743 883.267 135.023 883.267 192.486L882.878 1204.72 798.897 1204.72C789.06 1097.79 767.63 960.217 720.831 880.106 687.147 822.423 645.181 773.089 598.602 736.177 656.235 688.702 690.02 617.869 690.02 542.49 690.02 404.121 577.442 291.56 439.073 291.56 300.704 291.56 188.126 404.138 188.126 542.49 188.126 617.886 221.928 688.702 279.544 736.177 232.947 773.089 190.999 822.423 157.315 880.106 92.2291 991.535 76.5956 1213.73 73.0126 1293.42 49.1483 1274.31 33.8021 1244.98 33.8021 1212.09ZM138.014 1316.29C126.91 1316.29 116.229 1314.5 106.189 1311.27 108.251 1254.97 120.876 1009.5 186.52 897.126 222.165 836.096 267.459 785.207 317.487 750.002 322.033 746.807 324.703 741.585 324.653 736.042 324.602 730.498 321.83 725.326 317.25 722.2 257.572 681.671 221.945 614.472 221.945 542.474 221.945 422.746 319.363 325.346 439.09 325.346 558.817 325.346 656.235 422.746 656.235 542.474 656.235 614.472 620.607 681.671 560.93 722.2 556.349 725.326 553.578 730.498 553.527 736.042 553.476 741.585 556.163 746.807 560.693 750.002 610.72 785.207 656.015 836.079 691.676 897.126 725.985 955.891 751.827 1064.73 764.959 1204.71L252.35 1204.71C207.021 1204.71 170.143 1241.59 170.143 1286.91L170.143 1316.27 138.014 1316.27ZM203.894 1501.34 203.894 1286.93C203.894 1260.24 225.612 1238.53 252.299 1238.53L899.745 1238.53 899.745 1238.53 1099.65 1238.53C1099.7 1238.53 1099.74 1238.54 1099.79 1238.54 1099.8 1238.54 1099.84 1238.54 1099.87 1238.54L1103.12 1238.53 1885.6 1238.53C1912.31 1238.53 1934.02 1260.24 1934.02 1286.93L1934.02 1501.36C1934.02 1528.04 1912.31 1549.76 1885.6 1549.76L252.316 1549.76C225.612 1549.76 203.894 1528.04 203.894 1501.34ZM1993.65 1559.8C1993.65 1588.84 1970.04 1612.45 1941 1612.45L316.185 1612.45C295.988 1612.45 278.056 1600.7 269.268 1583.55L1885.62 1583.55C1930.96 1583.55 1967.84 1546.67 1967.84 1501.34L1967.84 1308.73C1983.34 1318.01 1993.67 1334.9 1993.67 1353.88L1993.67 1559.8Z" fill="#3A322B" transform="matrix(1.00058 0 0 1 4090 1034.26)"/><path d="M324.01 1411.05 369.39 1411.05 337.312 1443.13C330.703 1449.74 330.703 1460.42 337.312 1467.03 340.607 1470.33 344.934 1471.98 349.261 1471.98 353.587 1471.98 357.914 1470.33 361.21 1467.03L393.288 1434.93 393.288 1480.31C393.288 1489.66 400.86 1497.21 410.189 1497.21 419.518 1497.21 427.09 1489.66 427.09 1480.31L427.09 1434.93 459.168 1467.03C462.464 1470.33 466.791 1471.98 471.117 1471.98 475.444 1471.98 479.771 1470.33 483.066 1467.03 489.675 1460.42 489.675 1449.74 483.066 1443.13L450.988 1411.05 496.367 1411.05C505.697 1411.05 513.268 1403.5 513.268 1394.15 513.268 1384.81 505.697 1377.25 496.367 1377.25L450.971 1377.25 483.066 1345.16C489.675 1338.55 489.675 1327.87 483.066 1321.26 476.458 1314.65 465.777 1314.65 459.168 1321.26L427.09 1353.35 427.09 1307.97C427.09 1298.63 419.518 1291.07 410.189 1291.07 400.86 1291.07 393.288 1298.63 393.288 1307.97L393.288 1353.35 361.21 1321.26C354.601 1314.65 343.92 1314.65 337.312 1321.26 330.703 1327.87 330.703 1338.55 337.312 1345.16L369.407 1377.25 324.01 1377.25C314.681 1377.25 307.109 1384.81 307.109 1394.15 307.109 1403.5 314.681 1411.05 324.01 1411.05Z" fill="#3A322B" transform="matrix(1.00058 0 0 1 4090 1034.26)"/><path d="M612.089 1411.05 657.468 1411.05 625.39 1443.13C618.782 1449.74 618.782 1460.42 625.39 1467.03 628.686 1470.33 633.013 1471.98 637.339 1471.98 641.666 1471.98 645.993 1470.33 649.288 1467.03L681.367 1434.93 681.367 1480.31C681.367 1489.66 688.938 1497.21 698.268 1497.21 707.597 1497.21 715.169 1489.66 715.169 1480.31L715.169 1434.93 747.247 1467.03C750.543 1470.33 754.869 1471.98 759.196 1471.98 763.523 1471.98 767.849 1470.33 771.145 1467.03 777.753 1460.42 777.753 1449.74 771.145 1443.13L739.067 1411.05 784.446 1411.05C793.776 1411.05 801.347 1403.5 801.347 1394.15 801.347 1384.81 793.776 1377.25 784.446 1377.25L739.05 1377.25 771.145 1345.16C777.753 1338.55 777.753 1327.87 771.145 1321.26 764.537 1314.65 753.855 1314.65 747.247 1321.26L715.169 1353.35 715.169 1307.97C715.169 1298.63 707.597 1291.07 698.268 1291.07 688.938 1291.07 681.367 1298.63 681.367 1307.97L681.367 1353.35 649.288 1321.26C642.68 1314.65 631.999 1314.65 625.39 1321.26 618.782 1327.87 618.782 1338.55 625.39 1345.16L657.485 1377.25 612.089 1377.25C602.76 1377.25 595.188 1384.81 595.188 1394.15 595.188 1403.5 602.76 1411.05 612.089 1411.05Z" fill="#3A322B" transform="matrix(1.00058 0 0 1 4090 1034.26)"/><path d="M900.168 1411.05 945.53 1411.05 913.452 1443.13C906.844 1449.74 906.844 1460.42 913.452 1467.03 916.748 1470.33 921.074 1471.98 925.401 1471.98 929.728 1471.98 934.054 1470.33 937.35 1467.03L969.428 1434.93 969.428 1480.31C969.428 1489.66 977 1497.21 986.329 1497.21 995.659 1497.21 1003.23 1489.66 1003.23 1480.31L1003.23 1434.93 1035.31 1467.03C1038.6 1470.33 1042.93 1471.98 1047.26 1471.98 1051.58 1471.98 1055.91 1470.33 1059.21 1467.03 1065.82 1460.42 1065.82 1449.74 1059.21 1443.13L1027.13 1411.05 1072.51 1411.05C1081.84 1411.05 1089.41 1403.5 1089.41 1394.15 1089.41 1384.81 1081.84 1377.25 1072.51 1377.25L1027.11 1377.25 1059.21 1345.16C1065.82 1338.55 1065.82 1327.87 1059.21 1321.26 1052.6 1314.65 1041.92 1314.65 1035.31 1321.26L1003.23 1353.35 1003.23 1307.97C1003.23 1298.63 995.659 1291.07 986.329 1291.07 977 1291.07 969.428 1298.63 969.428 1307.97L969.428 1353.35 937.35 1321.26C930.742 1314.65 920.06 1314.65 913.452 1321.26 906.844 1327.87 906.844 1338.55 913.452 1345.16L945.547 1377.25 900.168 1377.25C890.838 1377.25 883.267 1384.81 883.267 1394.15 883.267 1403.5 890.821 1411.05 900.168 1411.05Z" fill="#3A322B" transform="matrix(1.00058 0 0 1 4090 1034.26)"/><path d="M1222.1 1411.05 1358.29 1411.05C1367.62 1411.05 1375.19 1403.5 1375.19 1394.15 1375.19 1384.81 1367.62 1377.25 1358.29 1377.25L1222.1 1377.25C1212.77 1377.25 1205.2 1384.81 1205.2 1394.15 1205.2 1403.5 1212.75 1411.05 1222.1 1411.05Z" fill="#3A322B" transform="matrix(1.00058 0 0 1 4090 1034.26)"/><path d="M1467.93 1411.05 1604.11 1411.05C1613.44 1411.05 1621.02 1403.5 1621.02 1394.15 1621.02 1384.81 1613.44 1377.25 1604.11 1377.25L1467.93 1377.25C1458.6 1377.25 1451.02 1384.81 1451.02 1394.15 1451.02 1403.5 1458.6 1411.05 1467.93 1411.05Z" fill="#3A322B" transform="matrix(1.00058 0 0 1 4090 1034.26)"/><path d="M1713.77 1411.05 1849.96 1411.05C1859.29 1411.05 1866.86 1403.5 1866.86 1394.15 1866.86 1384.81 1859.29 1377.25 1849.96 1377.25L1713.77 1377.25C1704.44 1377.25 1696.87 1384.81 1696.87 1394.15 1696.87 1403.5 1704.44 1411.05 1713.77 1411.05Z" fill="#3A322B" transform="matrix(1.00058 0 0 1 4090 1034.26)"/><path d="M1037.67 908.5C1037.74 908.5 1038.06 908.5 1038.15 908.5 1066.91 908.5 1090.64 885.075 1091.03 856.276 1092.35 754.413 1115.12 647.007 1156.86 545.702 1232.98 360.922 1362.04 215.218 1510.96 145.941 1523.75 139.975 1533.47 129.395 1538.3 116.11 1543.14 102.826 1542.53 88.4602 1536.58 75.6661 1527.94 57.0918 1509.11 45.0751 1488.61 45.0751 1480.87 45.0751 1473.38 46.7315 1466.32 50.0103 1293.64 130.358 1145.18 296.343 1059.02 505.41 1012.26 618.934 986.752 739.794 985.231 854.94 985.062 869.07 990.403 882.405 1000.26 892.528 1010.11 902.635 1023.39 908.314 1037.67 908.5ZM1090.29 518.288C1173.22 316.963 1315.49 157.467 1480.57 80.6857 1489.96 76.3083 1501.64 80.6688 1505.94 89.9306 1508.08 94.5446 1508.3 99.7332 1506.54 104.533 1504.79 109.333 1501.29 113.17 1496.69 115.299 1340.17 188.109 1204.91 340.303 1125.59 532.84 1082.24 638.066 1058.6 749.765 1057.23 855.853 1057.09 866.247 1048.53 874.715 1038.15 874.715L1038.03 874.715C1032.74 874.613 1028.06 872.619 1024.46 868.935 1020.91 865.284 1018.97 860.467 1019.03 855.363 1020.49 744.458 1045.13 627.908 1090.29 518.288Z" fill="#3A322B" transform="matrix(1.00058 0 0 1 4090 1034.26)"/><path d="M1913.86 957.395C1884.98 1009.86 1851.24 1058.46 1813.59 1101.88 1794.49 1123.9 1796.87 1157.39 1818.91 1176.53 1828.53 1184.85 1840.81 1189.45 1853.54 1189.45 1868.89 1189.45 1883.47 1182.79 1893.49 1171.21 1936.03 1122.2 1974.06 1067.42 2006.51 1008.47 2013.34 996.098 2014.95 981.8 2011.01 968.195 2007.07 954.606 1998.08 943.367 1985.67 936.556 1977.86 932.28 1969.08 930.015 1960.22 930.015 1940.87 930.015 1923.09 940.527 1913.86 957.395ZM1960.2 963.817C1963.38 963.817 1966.57 964.645 1969.4 966.183 1973.86 968.651 1977.1 972.707 1978.52 977.608 1979.96 982.577 1979.4 987.614 1976.9 992.143 1945.58 1049.03 1908.92 1101.81 1867.94 1149.05 1861.31 1156.73 1848.66 1157.59 1841.03 1151 1833.07 1144.08 1832.21 1131.98 1839.11 1124.02 1878.32 1078.81 1913.42 1028.24 1943.47 973.671 1946.8 967.586 1953.22 963.817 1960.2 963.817Z" fill="#3A322B" transform="matrix(1.00058 0 0 1 4090 1034.26)"/><path d="M2114.15 399.71C2109.07 375.305 2087.26 357.593 2062.32 357.593 2058.89 357.593 2055.39 357.914 2051.64 358.674 2023.11 364.607 2004.69 392.629 2010.55 421.191 2037.31 550.451 2023.23 700.076 1970.92 842.518 1966.05 855.752 1966.64 870.135 1972.56 882.962 1978.49 895.807 1989.05 905.559 2002.34 910.427 2008.24 912.573 2014.35 913.655 2020.56 913.655 2042.65 913.655 2062.59 899.728 2070.19 878.991 2129.23 718.295 2144.85 548.085 2114.15 399.71ZM2038.47 867.346C2034.96 876.946 2023.67 882.219 2013.95 878.687 2009.2 876.929 2005.4 873.413 2003.25 868.782 2001.1 864.152 2000.88 858.963 2002.64 854.18 2057.1 705.907 2071.67 549.707 2043.66 414.363 2041.53 404.054 2048.19 393.93 2058.43 391.801 2059.78 391.53 2061.07 391.412 2062.32 391.412 2071.34 391.412 2079.24 397.8 2081.06 406.606 2110.49 548.845 2095.36 712.481 2038.47 867.346Z" fill="#3A322B" transform="matrix(1.00058 0 0 1 4090 1034.26)"/><path d="M1647.82 107.17C1647.82 107.17 1647.84 107.17 1647.84 107.17L1651.62 107.001C1703.39 102.657 1752.12 109.975 1797.26 128.583 1869.26 158.245 1928.29 215.979 1967.98 295.566 1976.99 313.616 1995.12 324.839 2015.28 324.839L2015.3 324.839C2023.41 324.839 2031.56 322.929 2038.91 319.278 2051.55 312.957 2060.98 302.107 2065.43 288.738 2069.94 275.335 2068.94 260.986 2062.62 248.327 2011.35 145.535 1933.52 70.2915 1837.53 30.743 1776.89 5.76326 1711.71-4.15766 1642.75 1.5549 1628.67 2.73797 1615.89 9.32939 1606.77 20.1292 1597.64 30.929 1593.28 44.6357 1594.46 58.6974 1596.8 86.3307 1619.43 107.17 1647.82 107.17ZM1632.59 41.9654C1635.89 38.0612 1640.5 35.6782 1645.59 35.2556 1709.12 29.9487 1769 39.0922 1824.67 62.01 1913 98.398 1984.83 168.047 2032.4 263.42 2034.67 267.983 2035.04 273.155 2033.4 278.006 2031.8 282.839 2028.38 286.76 2023.85 289.025 2014.62 293.605 2002.79 289.617 1998.23 280.473 1954.85 193.483 1889.81 130.138 1810.16 97.3332 1769.32 80.4998 1725.63 71.9647 1680.3 71.9647 1669.99 71.9647 1659.4 72.4211 1649.54 73.2661L1647.18 73.3675C1637.19 73.3675 1629.03 65.8466 1628.18 55.858 1627.74 50.8046 1629.31 45.8526 1632.59 41.9654Z" fill="#3A322B" transform="matrix(1.00058 0 0 1 4090 1034.26)"/><path d="M1203.68 867.988C1230.75 867.988 1253.28 845.966 1253.91 818.924 1255.33 759.585 1264.99 698.876 1282.62 638.505 1286.39 625.627 1284.9 612.055 1278.45 600.275 1272.01 588.495 1261.36 579.943 1248.53 576.191 1243.95 574.839 1239.2 574.146 1234.39 574.146 1212.2 574.146 1192.35 589.019 1186.12 610.314 1166.04 679.068 1155.04 748.447 1153.43 816.524 1152.75 844.208 1174.91 867.278 1202.85 867.971 1202.98 867.988 1203.53 867.988 1203.68 867.988ZM1187.23 817.336C1188.77 752.199 1199.32 685.727 1218.58 619.796 1221.05 611.329 1230.4 606.039 1239 608.607 1243.21 609.841 1246.69 612.63 1248.8 616.483 1250.95 620.388 1251.42 624.714 1250.17 628.99 1231.72 692.183 1221.61 755.799 1220.12 818.096 1219.92 826.952 1212.53 834.152 1203.68 834.152L1203.51 834.152C1194.3 833.865 1187.01 826.344 1187.23 817.336Z" fill="#3A322B" transform="matrix(1.00058 0 0 1 4090 1034.26)"/><path d="M1694.81 205.973C1670.28 198.621 1644.59 194.903 1618.48 194.903 1479.84 194.903 1334.05 300.552 1238.04 470.644 1231.31 482.576 1229.6 496.401 1233.29 509.584 1236.96 522.784 1245.54 533.753 1257.44 540.462 1265.15 544.806 1273.87 547.121 1282.67 547.121 1301.16 547.121 1318.27 537.133 1327.29 521.06 1405.21 383.08 1516.62 297.374 1618.06 297.374 1634.35 297.374 1650.29 299.673 1665.45 304.185 1732.83 324.332 1786.22 368.156 1819.82 430.927 1873.77 531.691 1876.37 675.637 1827.16 836.214 1802.47 916.798 1690.6 1031.42 1607.09 1080.08 1582.68 1094.29 1574.39 1125.73 1588.63 1150.22 1597.79 1165.89 1614.76 1175.62 1632.91 1175.62 1641.91 1175.62 1650.81 1173.2 1658.7 1168.66 1762.7 1108.03 1890.91 978.031 1925.44 865.385 1982.87 678.071 1977.8 506.356 1911.16 381.863 1864.78 295.228 1789.98 234.418 1694.81 205.973ZM1893.11 855.481C1861.42 958.831 1737.92 1083.34 1641.72 1139.44 1633.56 1144.17 1622.45 1141.14 1617.82 1133.2 1612.97 1124.87 1615.78 1114.14 1624.09 1109.3 1713.18 1057.4 1831.74 936.539 1859.46 846.135 1911.34 676.871 1907.84 523.747 1849.62 414.989 1811.68 344.106 1751.34 294.603 1675.12 271.82 1656.81 266.361 1637.61 263.589 1618.06 263.589 1504.45 263.589 1381.76 355.886 1297.85 504.48 1293.3 512.542 1282.25 515.685 1274.05 511.055 1270.01 508.773 1267.11 505.055 1265.86 500.542 1264.61 496.046 1265.18 491.348 1267.48 487.275 1357.53 327.779 1492.03 228.722 1618.5 228.722 1641.33 228.722 1663.74 231.967 1685.14 238.373 1771.49 264.181 1839.34 319.312 1881.36 397.817 1943.71 514.299 1947.88 676.837 1893.11 855.481Z" fill="#3A322B" transform="matrix(1.00058 0 0 1 4090 1034.26)"/><path d="M1399.49 1171.92C1413.88 1171.92 1429.15 1170.91 1444.92 1168.91 1458.92 1167.12 1471.39 1159.99 1480.06 1148.8 1488.7 1137.61 1492.47 1123.74 1490.66 1109.72 1487.29 1083.39 1464.65 1063.57 1438.01 1063.57 1436.07 1063.57 1434.12 1063.69 1431.5 1063.96 1337.09 1075.94 1287.44 1037.98 1264.57 937.536 1259.15 913.672 1237.5 896.348 1213.07 896.348 1209.02 896.348 1205.01 896.804 1201.28 897.666 1187.52 900.81 1175.77 909.108 1168.25 921.074 1160.7 933.023 1158.28 947.22 1161.42 960.978 1192.83 1098.99 1275.15 1171.92 1399.49 1171.92ZM1196.83 939.108C1199.55 934.781 1203.8 931.773 1208.85 930.623 1210.13 930.319 1211.62 930.167 1213.06 930.167 1221.71 930.167 1229.67 936.556 1231.6 945.04 1258.23 1062.03 1325.62 1111.55 1435.48 1097.54 1436.42 1097.42 1437.22 1097.37 1437.99 1097.37 1447.68 1097.37 1455.91 1104.54 1457.13 1114.03 1457.78 1119.09 1456.42 1124.09 1453.31 1128.11 1450.18 1132.15 1445.67 1134.74 1440.63 1135.38 1426.28 1137.19 1412.44 1138.12 1399.46 1138.12 1291.24 1138.12 1222.23 1075.99 1194.35 953.474 1193.25 948.522 1194.11 943.418 1196.83 939.108Z" fill="#3A322B" transform="matrix(1.00058 0 0 1 4090 1034.26)"/><path d="M1678.12 883.841C1687.17 890.534 1697.88 894.05 1709.12 894.05 1725.65 894.05 1741.38 886.089 1751.19 872.771 1778.06 836.248 1799.07 794.79 1813.6 749.495 1870 573.926 1807.65 396.212 1674.59 353.317 1655.04 347.013 1634.57 343.818 1613.76 343.818 1512.21 343.818 1410.09 419.637 1353.62 536.981 1347.57 549.572 1346.78 563.752 1351.39 576.901 1355.99 590.084 1365.45 600.681 1378.03 606.765 1385.14 610.196 1392.75 611.937 1400.64 611.937 1420.57 611.937 1439.04 600.326 1447.73 582.36 1486.91 500.931 1551.91 448.301 1613.29 448.301 1623.38 448.301 1633.25 449.822 1642.6 452.847 1678.14 464.306 1705.61 496.553 1719.95 543.674 1735.67 595.256 1733.63 656.995 1714.17 717.518 1703.1 751.996 1687.25 783.381 1667.09 810.795 1658.82 822.034 1655.43 835.808 1657.5 849.617 1659.58 863.425 1666.92 875.577 1678.12 883.841ZM1694.32 830.84C1716.64 800.485 1734.15 765.838 1746.35 727.878 1767.89 660.866 1770 591.96 1752.29 533.854 1734.62 475.833 1699.35 435.642 1652.98 420.718 1640.27 416.628 1626.91 414.549 1613.29 414.549 1538.99 414.549 1462.04 474.683 1417.29 567.724 1413 576.614 1401.59 580.636 1392.72 576.377 1388.2 574.197 1384.96 570.563 1383.3 565.814 1381.66 561.166 1381.95 556.163 1384.08 551.718 1434.95 446.002 1525.12 377.705 1613.76 377.705 1631.04 377.705 1648.02 380.342 1664.21 385.564 1779.55 422.746 1832.11 581.397 1781.41 739.236 1767.99 781.032 1748.65 819.245 1723.96 852.811 1718.15 860.687 1706.08 862.546 1698.2 856.715 1694.25 853.791 1691.64 849.498 1690.92 844.631 1690.19 839.696 1691.39 834.794 1694.32 830.84Z" fill="#3A322B" transform="matrix(1.00058 0 0 1 4090 1034.26)"/><path d="M1643.07 985.146C1664.3 965.626 1665.82 932.28 1646.45 910.832 1638.14 901.638 1626.76 895.638 1614.44 893.948 1599.2 891.785 1583.75 896.483 1572.19 906.641 1571.85 906.928 1538.39 934.392 1462.58 923.897 1401.15 915.497 1391.92 844.513 1391.58 841.673 1388.93 817.522 1370.25 798.356 1346.15 795.043 1341.93 794.469 1337.6 794.435 1333.19 794.874 1319.16 796.429 1306.57 803.358 1297.73 814.412 1288.89 825.465 1284.89 839.256 1286.44 853.284 1292.41 907.114 1333.88 1013.05 1448.24 1028.72 1464.61 1030.95 1479.96 1031.93 1494.29 1031.93 1590.91 1031.93 1640.7 987.31 1643.07 985.146ZM1452.8 995.202C1359.1 982.375 1324.98 894.32 1320.02 849.549 1319.47 844.496 1320.92 839.51 1324.11 835.521 1327.31 831.533 1331.85 829.031 1336.86 828.473 1338.46 828.288 1340.04 828.321 1341.56 828.524 1350.26 829.707 1357.02 836.62 1357.98 845.51 1362.45 882.591 1388.51 947.879 1457.97 957.395 1548.58 969.716 1590 935.947 1594.4 932.077 1598.66 928.342 1604.25 926.702 1609.81 927.412 1614.27 928.038 1618.36 930.184 1621.35 933.48 1628.33 941.22 1627.81 953.237 1620.17 960.268 1617.96 962.33 1564.16 1010.5 1452.8 995.202Z" fill="#3A322B" transform="matrix(1.00058 0 0 1 4090 1034.26)"/><path d="M1470.75 797.156C1448.34 814.293 1444.03 846.473 1461.15 868.901 1470.85 881.577 1485.94 888.996 1501.85 888.996 1502.47 888.996 1503.1 888.996 1503.74 888.962 1514.3 888.574 1524.34 884.991 1532.86 878.534 1644.68 793.218 1694.75 680.758 1681.69 544.248 1679.09 517.325 1656.24 497.196 1628.16 498.041L1625.88 498.193C1597.83 500.897 1577.16 525.927 1579.79 554.017 1589.39 654.325 1553.73 733.861 1470.75 797.156ZM1613.44 550.823C1612.55 541.274 1619.56 532.755 1628.54 531.877L1629.85 531.792C1630.07 531.792 1630.29 531.775 1630.53 531.775 1639.56 531.775 1647.19 538.552 1648.06 547.476 1659.92 671.564 1614.27 773.9 1512.43 851.611 1509.52 853.825 1506.09 855.059 1502.51 855.194 1497 855.211 1491.47 852.845 1488.04 848.366 1482.22 840.76 1483.69 829.842 1491.3 824.028 1584.29 753.078 1624.26 663.688 1613.44 550.823Z" fill="#3A322B" transform="matrix(1.00058 0 0 1 4090 1034.26)"/><path d="M1286.51 717.704C1287.91 745.912 1311.12 768.001 1339.33 768.001 1339.46 768.001 1339.6 768.001 1339.71 768.001L1341.91 767.951C1409.82 764.638 1471.32 740.943 1524.73 697.541 1535.7 688.617 1542.54 675.975 1544 661.93 1545.47 647.869 1541.36 634.094 1532.49 623.21 1522.41 610.737 1507.44 603.588 1491.38 603.588 1479.28 603.588 1467.44 607.796 1458.04 615.435 1422.48 644.319 1381.66 660.088 1336.72 662.285 1307.65 663.705 1285.11 688.566 1286.51 717.704ZM1479.37 641.649C1482.76 638.877 1487.04 637.373 1491.4 637.373 1497.18 637.373 1502.57 639.942 1506.24 644.488 1509.43 648.393 1510.9 653.345 1510.38 658.432 1509.86 663.502 1507.39 668.065 1503.42 671.294 1455.72 710.048 1400.83 731.208 1340.69 734.165L1339.16 734.199C1329.05 734.115 1320.77 726.154 1320.26 716.048 1319.75 705.518 1327.88 696.544 1338.4 696.037 1390.69 693.485 1438.11 675.181 1479.37 641.649Z" fill="#3A322B" transform="matrix(1.00058 0 0 1 4090 1034.26)"/></g></svg>