<svg width="765" height="979" xmlns="http://www.w3.org/2000/svg" xmlns:xlink="http://www.w3.org/1999/xlink" xml:space="preserve" overflow="hidden"><defs><clipPath id="clip0"><path d="M463.196 2295.87 1135.4 2363.8 1043.45 3273.72 371.25 3205.79 463.196 2295.87Z" fill-rule="evenodd" clip-rule="evenodd"/></clipPath><clipPath id="clip1"><path d="M463.196 2295.87 1135.4 2363.8 1043.45 3273.72 371.25 3205.79Z" fill-rule="evenodd" clip-rule="evenodd"/></clipPath><clipPath id="clip2"><path d="M463.196 2295.87 1135.4 2363.8 1043.45 3273.72 371.25 3205.79Z" fill-rule="evenodd" clip-rule="evenodd"/></clipPath></defs><g transform="translate(-371 -2295)"><g clip-path="url(#clip0)"><g clip-path="url(#clip1)"><g clip-path="url(#clip2)"><path d="M1199.35 829.39 1116.85 829.39 1116.85 748.128C1116.85 671.817 1054.75 609.713 978.392 609.713L970.417 609.713C894.06 609.713 831.956 671.817 831.956 748.128L831.956 829.39 749.457 829.39 749.457 748.128C749.457 626.305 848.593 527.214 970.417 527.214L978.392 527.214C1100.22 527.214 1199.35 626.305 1199.35 748.128L1199.35 829.39" fill="#A8E1E1" transform="matrix(0.995009 0.100544 -0.100536 0.994933 -118.277 1717.59)"/><path d="M1199.35 829.39 1199.35 820.223 1126.02 820.223 1126.02 748.128C1125.97 666.729 1059.79 600.592 978.392 600.547L970.417 600.547C888.972 600.592 822.835 666.729 822.79 748.128L822.79 820.223 758.624 820.223 758.624 748.128C758.624 689.737 782.365 636.846 820.727 598.484 859.135 560.122 912.026 536.381 970.417 536.381L978.392 536.381C1036.78 536.381 1089.67 560.122 1128.04 598.484 1166.44 636.846 1190.18 689.737 1190.18 748.128L1190.18 829.39 1199.35 829.39 1199.35 820.223 1199.35 829.39 1208.52 829.39 1208.52 748.128C1208.47 621.263 1105.3 518.093 978.392 518.048L970.417 518.048C843.506 518.093 740.336 621.263 740.291 748.128L740.291 838.556 841.123 838.556 841.123 748.128C841.123 712.47 855.606 680.204 879.026 656.783 902.493 633.363 934.759 618.88 970.417 618.88L978.392 618.88C1014.05 618.88 1046.32 633.363 1069.78 656.783 1093.2 680.204 1107.69 712.47 1107.69 748.128L1107.69 838.556 1208.52 838.556 1208.52 829.39 1199.35 829.39" fill="#030F1A" transform="matrix(0.995009 0.100544 -0.100536 0.994933 -118.277 1717.59)"/><path d="M1302.98 1372.19C1302.98 1399.46 1280.84 1421.59 1253.57 1421.59L695.237 1421.59C667.967 1421.59 645.829 1399.46 645.829 1372.19L645.829 878.797C645.829 851.527 667.967 829.39 695.237 829.39L1253.57 829.39C1280.84 829.39 1302.98 851.527 1302.98 878.797L1302.98 1372.19" fill="#3ABDC4" transform="matrix(0.995009 0.100544 -0.100536 0.994933 -118.277 1717.59)"/><path d="M1302.98 1372.19 1293.81 1372.19C1293.81 1383.32 1289.32 1393.32 1281.99 1400.65 1274.7 1407.94 1264.71 1412.43 1253.57 1412.43L695.237 1412.43C684.1 1412.43 674.108 1407.94 666.775 1400.65 659.487 1393.32 654.996 1383.32 654.996 1372.19L654.996 878.797C654.996 867.66 659.487 857.668 666.775 850.335 674.108 843.048 684.1 838.556 695.237 838.556L1253.57 838.556C1264.71 838.556 1274.7 843.048 1281.99 850.335 1289.32 857.668 1293.81 867.66 1293.81 878.797L1293.81 1372.19 1312.15 1372.19 1312.15 878.797C1312.15 846.439 1285.93 820.223 1253.57 820.223L695.237 820.223C662.879 820.223 636.663 846.439 636.663 878.797L636.663 1372.19C636.663 1404.54 662.879 1430.76 695.237 1430.76L1253.57 1430.76C1285.93 1430.76 1312.15 1404.54 1312.15 1372.19L1302.98 1372.19" fill="#030F1A" transform="matrix(0.995009 0.100544 -0.100536 0.994933 -118.277 1717.59)"/><path d="M1253.57 1412.43 695.237 1412.43C684.1 1412.43 674.108 1407.94 666.775 1400.65 659.487 1393.32 654.996 1383.32 654.996 1372.19L654.996 878.797C654.996 867.66 659.487 857.668 666.775 850.335 674.108 843.048 684.1 838.556 695.237 838.556L811.469 838.556C770.265 905.426 754.957 1001.03 750.832 1064.6 746.661 1130.24 749.915 1201.87 775.903 1263.2 808.398 1340.1 897.268 1351.7 971.975 1351.7 976.879 1351.7 981.646 1351.65 986.367 1351.56 1088.94 1349.77 1205.86 1356.56 1286.8 1282.31 1289.18 1280.11 1291.52 1277.86 1293.81 1275.57L1293.81 1372.19C1293.81 1383.32 1289.32 1393.32 1281.99 1400.65 1274.7 1407.94 1264.71 1412.43 1253.57 1412.43" fill="#0DAFBD" transform="matrix(0.995009 0.100544 -0.100536 0.994933 -118.277 1717.59)"/><path d="M1253.57 1421.59 695.237 1421.59C667.967 1421.59 645.829 1399.46 645.829 1372.19L645.829 878.797C645.829 851.527 667.967 829.39 695.237 829.39L817.381 829.39C815.365 832.369 813.394 835.439 811.469 838.556L695.237 838.556C684.1 838.556 674.108 843.048 666.775 850.335 659.487 857.668 654.996 867.66 654.996 878.797L654.996 1372.19C654.996 1383.32 659.487 1393.32 666.775 1400.65 674.108 1407.94 684.1 1412.43 695.237 1412.43L1253.57 1412.43C1264.71 1412.43 1274.7 1407.94 1281.99 1400.65 1289.32 1393.32 1293.81 1383.32 1293.81 1372.19L1293.81 1275.57C1296.98 1272.36 1300 1269.06 1302.98 1265.67L1302.98 1372.19C1302.98 1399.46 1280.84 1421.59 1253.57 1421.59" fill="#030F18" transform="matrix(0.995009 0.100544 -0.100536 0.994933 -118.277 1717.59)"/><path d="M1045.86 1046.55C1045.86 1007.08 1013.87 975.046 974.404 975.046 934.942 975.046 902.951 1007.08 902.951 1046.55 902.951 1071.07 915.326 1092.7 934.163 1105.58L905.655 1275.94 1043.2 1275.94 1014.65 1105.58C1033.48 1092.7 1045.86 1071.07 1045.86 1046.55" fill="#1E4684" transform="matrix(0.995009 0.100544 -0.100536 0.994933 -118.277 1717.59)"/><path d="M1045.86 1046.55 1055.02 1046.55C1055.02 1002 1018.95 965.925 974.404 965.879 929.855 965.925 893.784 1002 893.784 1046.55 893.784 1074.23 907.763 1098.66 928.984 1113.19L934.163 1105.58 925.134 1104.07 894.793 1285.1 1053.97 1285.1 1023.72 1104.07 1014.65 1105.58 1019.82 1113.19C1041.05 1098.66 1055.02 1074.23 1055.02 1046.55L1036.69 1046.55C1036.69 1067.95 1025.92 1086.74 1009.47 1098.02L1004.65 1101.32 1032.34 1266.77 916.472 1266.77 944.155 1101.32 939.342 1098.02C922.888 1086.79 912.118 1067.95 912.118 1046.55 912.118 1029.31 919.038 1013.77 930.359 1002.5 941.634 991.179 957.171 984.258 974.404 984.213 991.637 984.258 1007.17 991.179 1018.45 1002.5 1029.77 1013.77 1036.69 1029.31 1036.69 1046.55L1045.86 1046.55" fill="#030F1A" transform="matrix(0.995009 0.100544 -0.100536 0.994933 -118.277 1717.59)"/></g></g></g></g></svg>