<svg width="2173" height="2173" xmlns="http://www.w3.org/2000/svg" xmlns:xlink="http://www.w3.org/1999/xlink" xml:space="preserve" overflow="hidden"><defs><clipPath id="clip0"><rect x="4090" y="770" width="2173" height="2173"/></clipPath></defs><g clip-path="url(#clip0)" transform="translate(-4090 -770)"><path d="M2155.75 2052.28 2155.75 2086.77C2155.75 2124.88 2124.88 2155.75 2086.77 2155.75L1707.36 2155.75C1669.24 2155.75 1638.37 2124.88 1638.37 2086.77L1638.37 2052.28 2155.75 2052.28Z" fill="#655F68" transform="matrix(1 0 0 1 4090 770)"/><path d="M2155.75 1431.42 2155.75 1465.91 1638.37 1465.91 1638.37 1431.42C1638.37 1393.31 1669.24 1362.44 1707.36 1362.44L2086.77 1362.44C2124.88 1362.44 2155.75 1393.31 2155.75 1431.42Z" fill="#655F68" transform="matrix(1 0 0 1 4090 770)"/><path d="M2155.75 707.087 2155.75 741.579C2155.75 779.693 2124.88 810.563 2086.77 810.563L1707.36 810.563C1669.24 810.563 1638.37 779.693 1638.37 741.579L1638.37 707.087 2155.75 707.087Z" fill="#655F68" transform="matrix(1 0 0 1 4090 770)"/><path d="M2155.75 86.2301 2155.75 120.722 1638.37 120.722 1638.37 86.2301C1638.37 48.1164 1669.24 17.246 1707.36 17.246L2086.77 17.246C2124.88 17.246 2155.75 48.1164 2155.75 86.2301Z" fill="#655F68" transform="matrix(1 0 0 1 4090 770)"/><path d="M534.627 707.087 534.627 741.579C534.627 779.693 503.756 810.563 465.643 810.563L86.2301 810.563C48.1164 810.563 17.246 779.693 17.246 741.579L17.246 707.087 534.627 707.087Z" fill="#655F68" transform="matrix(1 0 0 1 4090 770)"/><path d="M534.627 86.2301 534.627 120.722 17.246 120.722 17.246 86.2301C17.246 48.1164 48.1164 17.246 86.2301 17.246L465.643 17.246C503.756 17.246 534.627 48.1164 534.627 86.2301Z" fill="#655F68" transform="matrix(1 0 0 1 4090 770)"/><path d="M534.627 1431.42 534.627 1465.91 17.246 1465.91 17.246 1431.42C17.246 1393.31 48.1164 1362.44 86.2301 1362.44L465.643 1362.44C503.756 1362.44 534.627 1393.31 534.627 1431.42Z" fill="#655F68" transform="matrix(1 0 0 1 4090 770)"/><path d="M534.627 2052.28 534.627 2086.77C534.627 2124.88 503.756 2155.75 465.643 2155.75L86.2301 2155.75C48.1164 2155.75 17.246 2124.88 17.246 2086.77L17.246 2052.28 534.627 2052.28Z" fill="#655F68" transform="matrix(1 0 0 1 4090 770)"/><path d="M534.627 1759.09 534.627 2052.28 17.246 2052.28 17.246 1465.91 534.627 1465.91 534.627 1759.09Z" fill="#86CBCF" transform="matrix(1 0 0 1 4090 770)"/><path d="M2155.75 1465.91 2155.75 2052.28 1638.37 2052.28 1638.37 1759.09 1638.37 1465.91 2155.75 1465.91Z" fill="#86CBCF" transform="matrix(1 0 0 1 4090 770)"/><path d="M2155.75 120.722 2155.75 707.087 1638.37 707.087 1638.37 413.905 1638.37 120.722 2155.75 120.722Z" fill="#86CBCF" transform="matrix(1 0 0 1 4090 770)"/><path d="M534.627 413.905 534.627 707.087 17.246 707.087 17.246 120.722 534.627 120.722 534.627 413.905Z" fill="#86CBCF" transform="matrix(1 0 0 1 4090 770)"/><path d="M1086.5 620.857C1343.64 620.857 1552.14 829.361 1552.14 1086.5 1552.14 1343.64 1343.64 1552.14 1086.5 1552.14 829.361 1552.14 620.857 1343.64 620.857 1086.5 620.857 829.361 829.361 620.857 1086.5 620.857Z" fill="#FFC05A" transform="matrix(1 0 0 1 4090 770)"/><path d="M1415.73 964.225C1429.18 977.677 1429.18 999.58 1415.73 1013.03 1409.17 1019.41 1400.55 1023.03 1391.41 1023.03 1382.1 1023.03 1373.47 1019.41 1366.92 1013.03 1292.24 938.184 1192.56 896.966 1086.5 896.966 980.437 896.966 880.755 938.184 806.079 1013.03 799.526 1019.41 790.903 1023.03 781.59 1023.03 772.45 1023.03 763.827 1019.41 757.273 1013.03 743.821 999.58 743.821 977.677 757.273 964.225 845.055 876.443 961.983 827.982 1086.5 827.982 1211.02 827.982 1327.94 876.443 1415.73 964.225Z" fill="#1498B7" transform="matrix(1 0 0 1 4090 770)"/><path d="M1318.29 1061.84C1331.57 1075.12 1331.57 1097.02 1318.29 1110.47 1311.73 1117.03 1303.11 1120.65 1293.8 1120.65 1284.66 1120.65 1275.86 1117.03 1269.48 1110.47 1220.5 1061.67 1155.66 1034.76 1086.5 1034.76 1017.34 1034.76 952.498 1061.67 903.519 1110.47 897.138 1117.03 888.343 1120.65 879.202 1120.65 869.89 1120.65 861.267 1117.03 854.713 1110.47 841.434 1097.02 841.434 1075.12 854.713 1061.84 916.626 999.925 998.89 965.778 1086.5 965.778 1174.11 965.778 1256.37 999.925 1318.29 1061.84Z" fill="#1498B7" transform="matrix(1 0 0 1 4090 770)"/><path d="M1220.67 1159.28C1227.23 1165.83 1230.68 1174.45 1230.68 1183.77 1230.68 1192.91 1227.23 1201.53 1220.67 1208.08 1214.12 1214.64 1205.5 1218.26 1196.18 1218.26 1187.04 1218.26 1178.42 1214.64 1171.87 1208.08 1149.1 1185.32 1118.75 1172.73 1086.5 1172.73 1054.25 1172.73 1023.9 1185.32 1001.13 1208.08 994.578 1214.64 985.955 1218.26 976.815 1218.26 967.502 1218.26 958.879 1214.64 952.326 1208.08 945.772 1201.53 942.323 1192.91 942.323 1183.77 942.323 1174.45 945.772 1165.83 952.326 1159.28 988.197 1123.58 1035.8 1103.75 1086.5 1103.75 1137.2 1103.75 1184.8 1123.58 1220.67 1159.28Z" fill="#1498B7" transform="matrix(1 0 0 1 4090 770)"/><path d="M1138.24 1293.45C1138.24 1322.03 1115.07 1345.19 1086.5 1345.19 1057.93 1345.19 1034.76 1322.03 1034.76 1293.45 1034.76 1264.88 1057.93 1241.71 1086.5 1241.71 1115.07 1241.71 1138.24 1264.88 1138.24 1293.45Z" fill="#1498B7" transform="matrix(1 0 0 1 4090 770)"/><path d="M1086.5 1224.47C1048.45 1224.47 1017.52 1255.41 1017.52 1293.45 1017.52 1331.5 1048.45 1362.44 1086.5 1362.44 1124.54 1362.44 1155.48 1331.5 1155.48 1293.45 1155.48 1255.41 1124.54 1224.47 1086.5 1224.47ZM1086.5 1327.94C1067.48 1327.94 1052.01 1312.47 1052.01 1293.45 1052.01 1274.43 1067.48 1258.96 1086.5 1258.96 1105.52 1258.96 1120.99 1274.43 1120.99 1293.45 1120.99 1312.47 1105.52 1327.94 1086.5 1327.94Z" fill="#3A322B" transform="matrix(1 0 0 1 4090 770)"/><path d="M1086.5 1086.59C1031.17 1086.59 979.195 1108.07 940.167 1147.12 930.389 1156.88 925.008 1169.88 925.008 1183.7 925.008 1197.51 930.389 1210.52 940.167 1220.28 959.707 1239.82 993.785 1239.82 1013.32 1220.28 1032.83 1200.79 1058.82 1190.04 1086.5 1190.04 1114.18 1190.04 1140.17 1200.79 1159.67 1220.28 1169.44 1230.04 1182.44 1235.44 1196.25 1235.44 1210.07 1235.44 1223.07 1230.04 1232.83 1220.28 1242.61 1210.52 1247.99 1197.51 1247.99 1183.7 1247.99 1169.88 1242.61 1156.88 1232.83 1147.12 1193.8 1108.07 1141.82 1086.59 1086.5 1086.59ZM1208.45 1195.89C1201.82 1202.5 1190.68 1202.5 1184.06 1195.89 1158.04 1169.87 1123.39 1155.55 1086.5 1155.55 1049.61 1155.55 1014.96 1169.87 988.939 1195.89 982.316 1202.5 971.176 1202.5 964.553 1195.89 961.259 1192.6 959.5 1188.35 959.5 1183.7 959.5 1179.04 961.259 1174.8 964.553 1171.51 997.079 1138.98 1040.37 1121.08 1086.5 1121.08 1132.63 1121.08 1175.92 1138.98 1208.45 1171.51 1211.74 1174.8 1213.5 1179.04 1213.5 1183.7 1213.5 1188.35 1211.74 1192.58 1208.45 1195.89Z" fill="#3A322B" transform="matrix(1 0 0 1 4090 770)"/><path d="M1086.5 948.531C994.371 948.531 907.745 984.403 842.606 1049.56 832.845 1059.3 827.464 1072.31 827.464 1086.14 827.464 1099.97 832.845 1112.97 842.606 1122.72 862.146 1142.26 896.224 1142.26 915.764 1122.72 961.38 1077.12 1022 1052.01 1086.5 1052.01 1151 1052.01 1211.62 1077.12 1257.24 1122.73 1267 1132.49 1280 1137.89 1293.81 1137.89 1307.63 1137.89 1320.63 1132.49 1330.39 1122.73 1340.15 1112.99 1345.53 1099.99 1345.53 1086.15 1345.53 1072.32 1340.15 1059.32 1330.39 1049.58 1265.25 984.403 1178.63 948.531 1086.5 948.531ZM1306.01 1098.35C1299.38 1104.95 1288.24 1104.95 1281.62 1098.35 1229.5 1046.21 1160.21 1017.52 1086.5 1017.52 1012.79 1017.52 943.496 1046.21 891.378 1098.35 884.756 1104.95 873.615 1104.95 866.992 1098.35 863.75 1095.11 861.956 1090.78 861.956 1086.15 861.956 1081.53 863.75 1077.2 866.992 1073.96 925.629 1015.31 1003.58 983.024 1086.5 983.024 1169.42 983.024 1247.37 1015.31 1306.01 1073.94 1309.25 1077.19 1311.04 1081.52 1311.04 1086.14 1311.04 1090.76 1309.27 1095.09 1306.01 1098.35Z" fill="#3A322B" transform="matrix(1 0 0 1 4090 770)"/><path d="M745.046 951.998C735.284 961.742 729.904 974.745 729.904 988.577 729.904 1002.41 735.284 1015.41 745.046 1025.16 764.585 1044.7 798.664 1044.7 818.203 1025.16 889.723 953.636 985.007 914.229 1086.5 914.229 1187.99 914.229 1283.26 953.619 1354.8 1025.16 1364.56 1034.92 1377.56 1040.31 1391.38 1040.31 1405.19 1040.31 1418.19 1034.92 1427.95 1025.16 1437.71 1015.41 1443.1 1002.41 1443.1 988.577 1443.1 974.745 1437.71 961.742 1427.95 951.998 1336.89 860.939 1215.62 810.787 1086.5 810.787 957.379 810.787 836.105 860.939 745.046 951.998ZM1408.6 988.577C1408.6 993.199 1406.81 997.527 1403.57 1000.77 1396.95 1007.37 1385.8 1007.37 1379.18 1000.77 1301.13 922.731 1197.18 879.754 1086.5 879.754 975.815 879.754 871.873 922.731 793.817 1000.79 787.195 1007.39 776.054 1007.39 769.432 1000.79 766.189 997.545 764.396 993.216 764.396 988.594 764.396 983.972 766.189 979.643 769.432 976.401 853.989 891.861 966.588 845.28 1086.5 845.28 1206.41 845.28 1319.01 891.844 1403.57 976.401 1406.81 979.643 1408.6 983.972 1408.6 988.577Z" fill="#3A322B" transform="matrix(1 0 0 1 4090 770)"/><path d="M2086.77 0 1707.36 0C1659.81 0 1621.13 38.6828 1621.13 86.2301L1621.13 396.659 1467.5 396.659C1417.4 396.659 1372.35 424.494 1349.95 469.316L1265.53 638.155C1210.12 615.959 1149.74 603.611 1086.5 603.611 1023.26 603.611 962.88 615.959 907.486 638.155L823.067 469.316C800.647 424.494 755.6 396.659 705.5 396.659L551.873 396.659 551.873 86.2301C551.873 38.6828 513.19 0 465.643 0L86.2301 0C38.6828 0 0 38.6828 0 86.2301L0 741.579C0 789.126 38.6828 827.809 86.2301 827.809L465.643 827.809C513.19 827.809 551.873 789.126 551.873 741.579L551.873 431.151 705.5 431.151C742.459 431.151 775.675 451.673 792.196 484.734L875.857 652.055C714.848 730.438 603.611 895.707 603.611 1086.5 603.611 1277.29 714.848 1442.56 875.857 1520.94L792.196 1688.27C775.692 1721.33 742.459 1741.85 705.5 1741.85L551.873 1741.85 551.873 1431.42C551.873 1383.87 513.19 1345.19 465.643 1345.19L86.2301 1345.19C38.6828 1345.19 0 1383.87 0 1431.42L0 2086.77C0 2134.32 38.6828 2173 86.2301 2173L465.643 2173C513.19 2173 551.873 2134.32 551.873 2086.77L551.873 1776.34 705.5 1776.34C755.6 1776.34 800.647 1748.51 823.049 1703.68L907.469 1534.84C962.88 1557.04 1023.26 1569.39 1086.5 1569.39 1149.74 1569.39 1210.12 1557.04 1265.51 1534.84L1349.93 1703.68C1372.34 1748.51 1417.38 1776.34 1467.48 1776.34L1621.13 1776.34 1621.13 2086.77C1621.13 2134.32 1659.81 2173 1707.36 2173L2086.77 2173C2134.32 2173 2173 2134.32 2173 2086.77L2173 1431.42C2173 1383.87 2134.32 1345.19 2086.77 1345.19L1707.36 1345.19C1659.81 1345.19 1621.13 1383.87 1621.13 1431.42L1621.13 1741.85 1467.5 1741.85C1430.54 1741.85 1397.32 1721.33 1380.8 1688.27L1297.14 1520.94C1458.15 1442.56 1569.39 1277.29 1569.39 1086.5 1569.39 895.707 1458.15 730.438 1297.14 652.055L1380.8 484.734C1397.31 451.673 1430.54 431.151 1467.5 431.151L1621.13 431.151 1621.13 741.579C1621.13 789.126 1659.81 827.809 1707.36 827.809L2086.77 827.809C2134.32 827.809 2173 789.126 2173 741.579L2173 86.2301C2173 38.6828 2134.32 0 2086.77 0ZM34.4921 137.968 517.381 137.968 517.381 689.841 34.4921 689.841 34.4921 137.968ZM86.2301 34.4921 465.643 34.4921C494.168 34.4921 517.381 57.7052 517.381 86.2301L517.381 103.476 34.4921 103.476 34.4921 86.2301C34.4921 57.7052 57.7052 34.4921 86.2301 34.4921ZM465.643 793.317 86.2301 793.317C57.7052 793.317 34.4921 770.104 34.4921 741.579L34.4921 724.333 517.381 724.333 517.381 741.579C517.381 770.104 494.168 793.317 465.643 793.317ZM34.4921 1483.16 517.381 1483.16 517.381 2035.03 34.4921 2035.03 34.4921 1483.16ZM86.2301 1379.68 465.643 1379.68C494.168 1379.68 517.381 1402.9 517.381 1431.42L517.381 1448.67 34.4921 1448.67 34.4921 1431.42C34.4921 1402.9 57.7052 1379.68 86.2301 1379.68ZM465.643 2138.51 86.2301 2138.51C57.7052 2138.51 34.4921 2115.29 34.4921 2086.77L34.4921 2069.52 517.381 2069.52 517.381 2086.77C517.381 2115.29 494.168 2138.51 465.643 2138.51ZM2138.51 2035.03 1655.62 2035.03 1655.62 1483.16 2138.51 1483.16 2138.51 2035.03ZM2086.77 2138.51 1707.36 2138.51C1678.83 2138.51 1655.62 2115.29 1655.62 2086.77L1655.62 2069.52 2138.51 2069.52 2138.51 2086.77C2138.51 2115.29 2115.29 2138.51 2086.77 2138.51ZM1707.36 1379.68 2086.77 1379.68C2115.29 1379.68 2138.51 1402.9 2138.51 1431.42L2138.51 1448.67 1655.62 1448.67 1655.62 1431.42C1655.62 1402.9 1678.83 1379.68 1707.36 1379.68ZM1534.9 1086.5C1534.9 1333.76 1333.74 1534.9 1086.5 1534.9 839.261 1534.9 638.103 1333.76 638.103 1086.5 638.103 839.243 839.261 638.103 1086.5 638.103 1333.74 638.103 1534.9 839.243 1534.9 1086.5ZM1655.62 137.968 2138.51 137.968 2138.51 689.841 1655.62 689.841 1655.62 137.968ZM1707.36 34.4921 2086.77 34.4921C2115.29 34.4921 2138.51 57.7052 2138.51 86.2301L2138.51 103.476 1655.62 103.476 1655.62 86.2301C1655.62 57.7052 1678.83 34.4921 1707.36 34.4921ZM2086.77 793.317 1707.36 793.317C1678.83 793.317 1655.62 770.104 1655.62 741.579L1655.62 724.333 2138.51 724.333 2138.51 741.579C2138.51 770.104 2115.29 793.317 2086.77 793.317Z" fill="#3A322B" transform="matrix(1 0 0 1 4090 770)"/><path d="M1897.06 344.921C1859.02 344.921 1828.08 375.86 1828.08 413.905 1828.08 451.949 1859.02 482.889 1897.06 482.889 1935.11 482.889 1966.05 451.949 1966.05 413.905 1966.05 375.86 1935.11 344.921 1897.06 344.921ZM1897.06 448.397C1878.04 448.397 1862.57 432.927 1862.57 413.905 1862.57 394.882 1878.04 379.413 1897.06 379.413 1916.09 379.413 1931.56 394.882 1931.56 413.905 1931.56 432.927 1916.09 448.397 1897.06 448.397Z" fill="#3A322B" transform="matrix(1 0 0 1 4090 770)"/><path d="M2011.8 490.546C2009.47 494.03 2006.99 497.375 2004.37 500.635 1998.38 508.051 1999.56 518.916 2006.95 524.883 2010.15 527.452 2013.97 528.711 2017.77 528.711 2022.8 528.711 2027.81 526.521 2031.2 522.296 2034.48 518.243 2037.57 514.035 2040.46 509.724 2045.76 501.808 2043.62 491.098 2035.7 485.803 2027.81 480.492 2017.1 482.647 2011.8 490.546Z" fill="#3A322B" transform="matrix(1 0 0 1 4090 770)"/><path d="M1897.06 241.444C1887.54 241.444 1879.82 249.153 1879.82 258.69 1879.82 268.227 1887.54 275.936 1897.06 275.936 1973.14 275.936 2035.03 337.832 2035.03 413.905 2035.03 421.872 2034.34 429.823 2033.01 437.566 2031.39 446.965 2037.69 455.899 2047.07 457.503 2048.07 457.675 2049.05 457.761 2050.02 457.761 2058.26 457.761 2065.54 451.846 2066.99 443.464 2068.68 433.772 2069.52 423.821 2069.52 413.905 2069.52 318.81 1992.16 241.444 1897.06 241.444Z" fill="#3A322B" transform="matrix(1 0 0 1 4090 770)"/><path d="M1767.98 344.921C1773.55 344.921 1779.01 342.23 1782.34 337.263 1784.67 333.78 1787.15 330.434 1789.78 327.174 1795.76 319.759 1794.59 308.894 1787.19 302.926 1779.77 296.942 1768.91 298.115 1762.94 305.513 1759.66 309.566 1756.58 313.774 1753.68 318.086 1748.38 326.002 1750.52 336.711 1758.44 342.006 1761.35 343.972 1764.68 344.921 1767.98 344.921Z" fill="#3A322B" transform="matrix(1 0 0 1 4090 770)"/><path d="M1897.06 551.873C1820.99 551.873 1759.09 489.977 1759.09 413.905 1759.09 405.937 1759.78 397.987 1761.11 390.243 1762.73 380.844 1756.44 371.911 1747.06 370.307 1737.66 368.686 1728.76 374.98 1727.12 384.345 1725.45 394.037 1724.6 403.988 1724.6 413.905 1724.6 508.999 1801.97 586.365 1897.06 586.365 1906.58 586.365 1914.31 578.656 1914.31 569.119 1914.31 559.582 1906.58 551.873 1897.06 551.873Z" fill="#3A322B" transform="matrix(1 0 0 1 4090 770)"/><path d="M1897.06 1828.08C1935.11 1828.08 1966.05 1797.14 1966.05 1759.09 1966.05 1721.05 1935.11 1690.11 1897.06 1690.11 1859.02 1690.11 1828.08 1721.05 1828.08 1759.09 1828.08 1797.14 1859.02 1828.08 1897.06 1828.08ZM1897.06 1724.6C1916.09 1724.6 1931.56 1740.07 1931.56 1759.09 1931.56 1778.12 1916.09 1793.59 1897.06 1793.59 1878.04 1793.59 1862.57 1778.12 1862.57 1759.09 1862.57 1740.07 1878.04 1724.6 1897.06 1724.6Z" fill="#3A322B" transform="matrix(1 0 0 1 4090 770)"/><path d="M2011.8 1835.74C2009.47 1839.22 2006.99 1842.57 2004.37 1845.82 1998.38 1853.24 1999.56 1864.11 2006.95 1870.07 2010.15 1872.64 2013.97 1873.9 2017.77 1873.9 2022.8 1873.9 2027.81 1871.71 2031.2 1867.49 2034.48 1863.43 2037.57 1859.23 2040.46 1854.91 2045.76 1847 2043.62 1836.29 2035.7 1830.99 2027.81 1825.68 2017.1 1827.82 2011.8 1835.74Z" fill="#3A322B" transform="matrix(1 0 0 1 4090 770)"/><path d="M1897.06 1621.13C1973.14 1621.13 2035.03 1683.02 2035.03 1759.09 2035.03 1767.06 2034.34 1775.01 2033.01 1782.76 2031.39 1792.16 2037.69 1801.09 2047.07 1802.69 2048.07 1802.87 2049.05 1802.95 2050.02 1802.95 2058.26 1802.95 2065.54 1797.04 2066.99 1788.65 2068.66 1778.96 2069.51 1769.01 2069.51 1759.09 2069.51 1664 1992.14 1586.63 1897.05 1586.63 1887.53 1586.63 1879.8 1594.34 1879.8 1603.88 1879.8 1613.42 1887.54 1621.13 1897.06 1621.13Z" fill="#3A322B" transform="matrix(1 0 0 1 4090 770)"/><path d="M1767.98 1690.11C1773.55 1690.11 1779.01 1687.42 1782.34 1682.45 1784.67 1678.97 1787.15 1675.62 1789.78 1672.36 1795.76 1664.95 1794.59 1654.08 1787.19 1648.12 1779.77 1642.13 1768.91 1643.3 1762.94 1650.7 1759.66 1654.76 1756.58 1658.96 1753.68 1663.28 1748.38 1671.19 1750.52 1681.9 1758.44 1687.2 1761.35 1689.16 1764.68 1690.11 1767.98 1690.11Z" fill="#3A322B" transform="matrix(1 0 0 1 4090 770)"/><path d="M1897.06 1931.56C1906.58 1931.56 1914.31 1923.85 1914.31 1914.31 1914.31 1904.77 1906.58 1897.06 1897.06 1897.06 1820.99 1897.06 1759.09 1835.17 1759.09 1759.09 1759.09 1751.13 1759.78 1743.18 1761.11 1735.43 1762.73 1726.03 1756.44 1717.1 1747.06 1715.5 1737.66 1713.94 1728.76 1720.17 1727.12 1729.54 1725.45 1739.23 1724.6 1749.18 1724.6 1759.09 1724.6 1854.19 1801.97 1931.56 1897.06 1931.56Z" fill="#3A322B" transform="matrix(1 0 0 1 4090 770)"/><path d="M275.936 344.921C237.892 344.921 206.952 375.86 206.952 413.905 206.952 451.949 237.892 482.889 275.936 482.889 313.981 482.889 344.921 451.949 344.921 413.905 344.921 375.86 313.981 344.921 275.936 344.921ZM275.936 448.397C256.914 448.397 241.444 432.927 241.444 413.905 241.444 394.882 256.914 379.413 275.936 379.413 294.959 379.413 310.428 394.882 310.428 413.905 310.428 432.927 294.959 448.397 275.936 448.397Z" fill="#3A322B" transform="matrix(1 0 0 1 4090 770)"/><path d="M390.674 490.546C388.346 494.03 385.863 497.375 383.241 500.635 377.257 508.051 378.43 518.916 385.828 524.883 389.019 527.452 392.847 528.711 396.641 528.711 401.677 528.711 406.679 526.521 410.076 522.296 413.353 518.243 416.44 514.035 419.337 509.724 424.632 501.808 422.493 491.098 414.577 485.803 406.661 480.492 395.969 482.647 390.674 490.546Z" fill="#3A322B" transform="matrix(1 0 0 1 4090 770)"/><path d="M275.936 241.444C266.417 241.444 258.69 249.153 258.69 258.69 258.69 268.227 266.417 275.936 275.936 275.936 352.009 275.936 413.905 337.832 413.905 413.905 413.905 421.872 413.215 429.823 411.887 437.566 410.266 446.965 416.561 455.899 425.942 457.503 426.943 457.675 427.926 457.761 428.891 457.761 437.135 457.761 444.413 451.846 445.862 443.464 447.552 433.772 448.397 423.821 448.397 413.905 448.397 318.81 371.031 241.444 275.936 241.444Z" fill="#3A322B" transform="matrix(1 0 0 1 4090 770)"/><path d="M146.85 344.921C152.42 344.921 157.887 342.23 161.216 337.263 163.544 333.78 166.027 330.434 168.649 327.174 174.633 319.759 173.461 308.894 166.062 302.926 158.646 296.942 147.781 298.115 141.814 305.513 138.537 309.566 135.45 313.774 132.553 318.086 127.258 326.002 129.397 336.711 137.313 342.006 140.227 343.972 143.556 344.921 146.85 344.921Z" fill="#3A322B" transform="matrix(1 0 0 1 4090 770)"/><path d="M275.936 551.873C199.864 551.873 137.968 489.977 137.968 413.905 137.968 405.937 138.658 397.987 139.986 390.243 141.607 380.844 135.312 371.911 125.93 370.307 116.583 368.686 107.615 374.98 105.994 384.345 104.321 394.037 103.476 403.988 103.476 413.905 103.476 508.999 180.842 586.365 275.936 586.365 285.456 586.365 293.182 578.656 293.182 569.119 293.182 559.582 285.456 551.873 275.936 551.873Z" fill="#3A322B" transform="matrix(1 0 0 1 4090 770)"/><path d="M275.936 1690.11C237.892 1690.11 206.952 1721.05 206.952 1759.09 206.952 1797.14 237.892 1828.08 275.936 1828.08 313.981 1828.08 344.921 1797.14 344.921 1759.09 344.921 1721.05 313.981 1690.11 275.936 1690.11ZM275.936 1793.59C256.914 1793.59 241.444 1778.12 241.444 1759.09 241.444 1740.07 256.914 1724.6 275.936 1724.6 294.959 1724.6 310.428 1740.07 310.428 1759.09 310.428 1778.12 294.959 1793.59 275.936 1793.59Z" fill="#3A322B" transform="matrix(1 0 0 1 4090 770)"/><path d="M390.674 1835.74C388.346 1839.22 385.863 1842.57 383.241 1845.82 377.257 1853.24 378.43 1864.11 385.828 1870.07 389.019 1872.64 392.847 1873.9 396.641 1873.9 401.677 1873.9 406.679 1871.71 410.076 1867.49 413.353 1863.43 416.44 1859.23 419.337 1854.91 424.632 1847 422.493 1836.29 414.577 1830.99 406.661 1825.68 395.969 1827.82 390.674 1835.74Z" fill="#3A322B" transform="matrix(1 0 0 1 4090 770)"/><path d="M275.936 1586.63C266.417 1586.63 258.69 1594.34 258.69 1603.88 258.69 1613.42 266.417 1621.13 275.936 1621.13 352.009 1621.13 413.905 1683.02 413.905 1759.09 413.905 1767.06 413.215 1775.01 411.887 1782.76 410.266 1792.16 416.561 1801.09 425.942 1802.69 426.943 1802.87 427.926 1802.95 428.891 1802.95 437.135 1802.95 444.413 1797.04 445.862 1788.65 447.552 1778.96 448.397 1769.01 448.397 1759.09 448.397 1664 371.031 1586.63 275.936 1586.63Z" fill="#3A322B" transform="matrix(1 0 0 1 4090 770)"/><path d="M146.85 1690.11C152.42 1690.11 157.887 1687.42 161.216 1682.45 163.544 1678.97 166.027 1675.62 168.649 1672.36 174.633 1664.95 173.461 1654.08 166.062 1648.12 158.646 1642.13 147.781 1643.3 141.814 1650.7 138.537 1654.76 135.45 1658.96 132.553 1663.28 127.258 1671.19 129.397 1681.9 137.313 1687.2 140.227 1689.16 143.556 1690.11 146.85 1690.11Z" fill="#3A322B" transform="matrix(1 0 0 1 4090 770)"/><path d="M275.936 1897.06C199.864 1897.06 137.968 1835.17 137.968 1759.09 137.968 1751.13 138.658 1743.18 139.986 1735.43 141.607 1726.03 135.312 1717.1 125.93 1715.5 116.583 1713.94 107.615 1720.17 105.994 1729.54 104.321 1739.23 103.476 1749.18 103.476 1759.09 103.476 1854.19 180.842 1931.56 275.936 1931.56 285.456 1931.56 293.182 1923.85 293.182 1914.31 293.182 1904.77 285.456 1897.06 275.936 1897.06Z" fill="#3A322B" transform="matrix(1 0 0 1 4090 770)"/></g></svg>