<svg width="2040" height="2017" xmlns="http://www.w3.org/2000/svg" xmlns:xlink="http://www.w3.org/1999/xlink" xml:space="preserve" overflow="hidden"><defs><clipPath id="clip0"><path d="M4553.97 460.693 6293.49 765.144 5994.02 2476.2 4254.5 2171.74 4553.97 460.693Z" fill-rule="evenodd" clip-rule="evenodd"/></clipPath><clipPath id="clip1"><path d="M4553.97 460.693 6293.49 765.144 5994.02 2476.2 4254.5 2171.74Z" fill-rule="evenodd" clip-rule="evenodd"/></clipPath><clipPath id="clip2"><path d="M4553.97 460.693 6293.49 765.144 5994.02 2476.2 4254.5 2171.74Z" fill-rule="evenodd" clip-rule="evenodd"/></clipPath></defs><g transform="translate(-4254 -460)"><g clip-path="url(#clip0)"><g clip-path="url(#clip1)"><g clip-path="url(#clip2)"><path d="M1984.27 1135 1118.69 1740.75 1118.69 2827.57 2843.88 2827.57 2843.88 1740.75 1984.27 1135" fill="#257999" transform="matrix(0.985518 0.172486 -0.1724 0.985027 3662.98 -824.92)"/><path d="M1984.27 1135 1973.55 1119.81 1107.97 1725.47C1103.03 1729.01 1100.05 1734.6 1100.05 1740.75L1100.05 2827.57C1100.05 2832.42 1102.01 2837.27 1105.46 2840.71 1109 2844.16 1113.84 2846.21 1118.69 2846.21L2843.88 2846.21C2848.82 2846.21 2853.57 2844.16 2857.02 2840.71 2860.56 2837.27 2862.52 2832.42 2862.52 2827.57L2862.52 1740.75C2862.52 1734.7 2859.54 1729.01 2854.6 1725.47L1994.99 1119.81C1988.56 1115.24 1980.07 1115.24 1973.55 1119.81L1984.27 1135 1973.55 1150.28 2825.24 1750.35 2825.24 2808.93 1137.33 2808.93 1137.33 1750.45 1994.99 1150.28 1984.27 1135 1973.55 1150.28 1984.27 1135" fill="#030F1A" transform="matrix(0.985518 0.172486 -0.1724 0.985027 3662.98 -824.92)"/><path d="M1356.89 2284.16 2605.68 2284.16 2605.68 1223.72 1356.89 1223.72Z" fill="#EC3D4E" transform="matrix(0.985518 0.172486 -0.1724 0.985027 3662.98 -824.92)"/><path d="M2605.68 2284.16 2605.68 2265.53 1375.53 2265.53 1375.53 1242.36 2587.04 1242.36 2587.04 2284.16 2605.68 2284.16 2605.68 2265.53 2605.68 2284.16 2624.32 2284.16 2624.32 1223.72C2624.32 1218.78 2622.36 1214.03 2618.91 1210.49 2615.37 1207.04 2610.62 1205.08 2605.68 1205.08L1356.89 1205.08C1351.95 1205.08 1347.2 1207.04 1343.75 1210.49 1340.21 1214.03 1338.25 1218.78 1338.25 1223.72L1338.25 2284.16C1338.25 2289.01 1340.21 2293.86 1343.75 2297.3 1347.2 2300.75 1351.95 2302.8 1356.89 2302.8L2605.68 2302.8C2610.62 2302.8 2615.37 2300.75 2618.91 2297.3 2622.36 2293.86 2624.32 2289.01 2624.32 2284.16L2605.68 2284.16" fill="#030F1A" transform="matrix(0.985518 0.172486 -0.1724 0.985027 3662.98 -824.92)"/><path d="M2143.63 2154.53 2104.77 2118.65 2201.32 2118.65 2143.63 2154.53M1818.94 2154.53 1761.26 2118.65 1857.81 2118.65 1818.94 2154.53M1500.04 1956.03 1375.53 1878.59 1375.53 1242.36 1500.04 1242.36 1500.04 1956.03" fill="#E72032" transform="matrix(0.985518 0.172486 -0.1724 0.985027 3662.98 -824.92)"/><path d="M1375.53 1878.59 1356.89 1867.03 1356.89 1223.72 1500.04 1223.72 1500.04 1242.36 1375.53 1242.36 1375.53 1878.59" fill="#050709" transform="matrix(0.985518 0.172486 -0.1724 0.985027 3662.98 -824.92)"/><path d="M1118.69 1740.75 1978.3 2275.59 1118.69 2827.57 1118.69 1740.75" fill="#38BDD0" transform="matrix(0.985518 0.172486 -0.1724 0.985027 3662.98 -824.92)"/><path d="M1118.69 1740.75 1108.81 1756.6 1943.36 2275.87 1137.33 2793.46 1137.33 1740.75 1118.69 1740.75 1108.81 1756.6 1118.69 1740.75 1100.05 1740.75 1100.05 2827.57C1100.05 2834.38 1103.78 2840.62 1109.74 2843.88 1115.8 2847.14 1122.98 2846.86 1128.76 2843.23L1988.37 2291.34C1993.77 2287.8 1996.94 2281.93 1996.94 2275.5 1996.85 2269.07 1993.59 2263.2 1988.09 2259.75L1128.57 1724.91C1122.79 1721.37 1115.52 1721.18 1109.65 1724.45 1103.69 1727.71 1100.05 1733.95 1100.05 1740.75L1118.69 1740.75" fill="#030F1A" transform="matrix(0.985518 0.172486 -0.1724 0.985027 3662.98 -824.92)"/><path d="M1137.33 2784.89 1137.33 1774.3 1261.65 1851.65 1261.65 2502.42 1776.35 2171.87 1790.61 2180.81 1137.33 2784.89" fill="#0FA5BE" transform="matrix(0.985518 0.172486 -0.1724 0.985027 3662.98 -824.92)"/><path d="M1118.69 2802.13 1118.69 1740.75 1261.65 1829.66 1261.65 1851.65 1137.33 1774.3 1137.33 2784.89 1118.69 2802.13M1790.61 2180.81 1776.35 2171.87 1793.6 2160.78 1804.78 2167.67 1790.61 2180.81" fill="#030E17" transform="matrix(0.985518 0.172486 -0.1724 0.985027 3662.98 -824.92)"/><path d="M2843.88 1740.75 1984.27 2275.59 2843.88 2827.57 2843.88 1740.75" fill="#38BDD0" transform="matrix(0.985518 0.172486 -0.1724 0.985027 3662.98 -824.92)"/><path d="M2843.88 1740.75 2834 1724.91 1974.39 2259.75C1968.98 2263.2 1965.72 2269.07 1965.63 2275.5 1965.63 2281.93 1968.8 2287.8 1974.2 2291.34L2833.82 2843.23C2839.59 2846.86 2846.86 2847.14 2852.83 2843.88 2858.79 2840.62 2862.52 2834.38 2862.52 2827.57L2862.52 1740.75C2862.52 1733.95 2858.89 1727.71 2852.92 1724.45 2847.05 1721.18 2839.78 1721.37 2834 1724.91L2843.88 1740.75 2825.24 1740.75 2825.24 2793.46 2019.12 2275.87 2853.76 1756.6 2843.88 1740.75 2825.24 1740.75 2843.88 1740.75" fill="#030F1A" transform="matrix(0.985518 0.172486 -0.1724 0.985027 3662.98 -824.92)"/><path d="M1118.69 2827.57 1981.29 2029.84 2843.88 2827.57 1118.69 2827.57" fill="#3F9BBD" transform="matrix(0.985518 0.172486 -0.1724 0.985027 3662.98 -824.92)"/><path d="M1118.69 2827.57 1131.36 2841.27 1981.29 2055.19 2796.26 2808.93 1118.69 2808.93 1118.69 2827.57 1131.36 2841.27 1118.69 2827.57 1118.69 2846.21 2843.88 2846.21C2851.52 2846.21 2858.42 2841.46 2861.22 2834.38 2864.01 2827.2 2862.15 2819.09 2856.56 2813.87L1993.96 2016.14C1986.78 2009.52 1975.79 2009.52 1968.61 2016.14L1106.02 2813.87C1100.42 2819.09 1098.56 2827.2 1101.36 2834.38 1104.15 2841.46 1111.05 2846.21 1118.69 2846.21L1118.69 2827.57" fill="#030F1A" transform="matrix(0.985518 0.172486 -0.1724 0.985027 3662.98 -824.92)"/><path d="M1166.31 2808.93 1981.29 2055.19 2013.72 2085.2 1494.91 2701.58 2680.23 2701.58 2796.26 2808.93 1166.31 2808.93" fill="#198AAF" transform="matrix(0.985518 0.172486 -0.1724 0.985027 3662.98 -824.92)"/><path d="M2843.88 2827.57 1118.69 2827.57 1981.29 2029.84 2025.74 2070.94 2013.72 2085.2 1981.29 2055.19 1166.31 2808.93 2796.26 2808.93 2680.23 2701.58 2707.63 2701.58 2843.88 2827.57" fill="#030E17" transform="matrix(0.985518 0.172486 -0.1724 0.985027 3662.98 -824.92)"/><path d="M2262.92 1406.84C2243.72 1423.06 2215.01 1420.64 2198.8 1401.44 2182.58 1382.24 2185.01 1353.63 2204.2 1337.41 2223.4 1321.2 2252.11 1323.62 2268.23 1342.82 2284.54 1361.92 2282.11 1390.63 2262.92 1406.84" fill="#FFFFFF" transform="matrix(0.985518 0.172486 -0.1724 0.985027 3662.98 -824.92)"/><path d="M2262.92 1406.84 2250.89 1392.59C2245.77 1396.87 2239.8 1398.92 2233.56 1398.92 2225.92 1398.92 2218.37 1395.75 2213.06 1389.42 2208.77 1384.38 2206.72 1378.33 2206.72 1372.08 2206.72 1364.44 2209.89 1356.99 2216.23 1351.67 2221.35 1347.29 2227.41 1345.34 2233.47 1345.34 2241.2 1345.34 2248.66 1348.5 2254.06 1354.84 2258.35 1359.87 2260.4 1365.93 2260.4 1372.08 2260.4 1379.72 2257.14 1387.27 2250.89 1392.59L2262.92 1406.84 2274.94 1421.1C2289.85 1408.43 2297.68 1390.26 2297.68 1372.08 2297.68 1357.54 2292.64 1342.73 2282.58 1330.8 2269.91 1315.79 2251.64 1307.97 2233.47 1308.06 2218.93 1307.97 2204.2 1313 2192.18 1323.16 2177.18 1335.83 2169.44 1354 2169.44 1372.08 2169.44 1386.71 2174.48 1401.53 2184.54 1413.46 2197.21 1428.46 2215.39 1436.2 2233.56 1436.2 2248.1 1436.2 2262.92 1431.26 2274.94 1421.1L2262.92 1406.84" fill="#030F1A" transform="matrix(0.985518 0.172486 -0.1724 0.985027 3662.98 -824.92)"/><path d="M2317.99 1472.08C2298.89 1488.29 2270.19 1485.96 2253.97 1466.77 2237.75 1447.57 2240.18 1418.87 2259.37 1402.65 2278.57 1386.43 2307.18 1388.86 2323.4 1408.06 2339.61 1427.25 2337.28 1455.96 2317.99 1472.08" fill="#FFFFFF" transform="matrix(0.985518 0.172486 -0.1724 0.985027 3662.98 -824.92)"/><path d="M2317.99 1472.08 2306.06 1457.91C2300.94 1462.2 2294.88 1464.16 2288.73 1464.25 2281 1464.16 2273.54 1460.99 2268.23 1454.74 2263.94 1449.62 2261.89 1443.56 2261.89 1437.41 2261.89 1429.68 2265.06 1422.22 2271.4 1416.91 2276.52 1412.62 2282.58 1410.57 2288.73 1410.57 2296.37 1410.57 2303.83 1413.74 2309.23 1420.08 2313.52 1425.2 2315.48 1431.17 2315.48 1437.41 2315.48 1445.05 2312.31 1452.51 2306.06 1457.91L2317.99 1472.08 2330.11 1486.34C2345.02 1473.76 2352.85 1455.49 2352.75 1437.41 2352.85 1422.87 2347.81 1408.06 2337.66 1396.03 2324.98 1381.03 2306.81 1373.29 2288.73 1373.29 2274.1 1373.29 2259.28 1378.23 2247.35 1388.39 2232.35 1401.07 2224.61 1419.24 2224.61 1437.41 2224.61 1451.95 2229.65 1466.77 2239.71 1478.79 2252.39 1493.79 2270.56 1501.53 2288.73 1501.53 2303.27 1501.53 2318.09 1496.5 2330.11 1486.34L2317.99 1472.08" fill="#030F1A" transform="matrix(0.985518 0.172486 -0.1724 0.985027 3662.98 -824.92)"/><path d="M1703.38 1883.06C1684.28 1899.37 1655.58 1897.13 1639.27 1878.03 1622.96 1858.83 1625.2 1830.22 1644.39 1813.91 1663.5 1797.6 1692.11 1799.93 1708.42 1818.94 1724.73 1838.05 1722.49 1866.75 1703.38 1883.06" fill="#FFFFFF" transform="matrix(0.985518 0.172486 -0.1724 0.985027 3662.98 -824.92)"/><path d="M1703.38 1883.06 1691.27 1868.9C1686.14 1873.28 1680.09 1875.33 1673.84 1875.33 1666.2 1875.33 1658.84 1872.16 1653.53 1865.91 1649.15 1860.79 1647 1854.73 1647 1848.49 1647.1 1840.84 1650.17 1833.39 1656.41 1828.08 1661.54 1823.79 1667.69 1821.65 1673.84 1821.65 1681.48 1821.65 1688.94 1824.81 1694.25 1831.06 1698.63 1836.18 1700.68 1842.24 1700.68 1848.49 1700.68 1856.13 1697.51 1863.58 1691.27 1868.9L1703.38 1883.06 1715.5 1897.23C1730.32 1884.64 1737.96 1866.57 1737.96 1848.49 1737.96 1833.76 1732.93 1818.94 1722.58 1806.92 1710 1792.01 1691.92 1784.37 1673.84 1784.37 1659.21 1784.37 1644.3 1789.49 1632.28 1799.75 1617.46 1812.33 1609.73 1830.41 1609.73 1848.49 1609.73 1863.21 1614.85 1878.03 1625.1 1890.05 1637.68 1904.96 1655.86 1912.6 1673.84 1912.6 1688.57 1912.6 1703.48 1907.48 1715.41 1897.32L1715.5 1897.23 1703.38 1883.06" fill="#030F1A" transform="matrix(0.985518 0.172486 -0.1724 0.985027 3662.98 -824.92)"/><path d="M1758.83 1948.11C1739.73 1964.42 1711.03 1962.09 1694.72 1942.98 1678.41 1923.88 1680.74 1895.18 1699.84 1878.87 1718.95 1862.65 1747.65 1864.89 1763.87 1883.99 1780.18 1903.1 1777.94 1931.8 1758.83 1948.11" fill="#FFFFFF" transform="matrix(0.985518 0.172486 -0.1724 0.985027 3662.98 -824.92)"/><path d="M1758.83 1948.11 1746.72 1933.94C1741.69 1938.23 1735.54 1940.28 1729.39 1940.28 1721.65 1940.28 1714.29 1937.11 1708.88 1930.96 1704.6 1925.74 1702.55 1919.69 1702.45 1913.53 1702.55 1905.89 1705.62 1898.44 1711.96 1893.13 1716.99 1888.75 1723.05 1886.7 1729.29 1886.7 1736.93 1886.7 1744.39 1889.86 1749.7 1896.11 1754.08 1901.23 1756.13 1907.29 1756.13 1913.44 1756.13 1921.08 1752.96 1928.54 1746.72 1933.94L1758.83 1948.11 1770.95 1962.27C1785.77 1949.6 1793.5 1931.52 1793.41 1913.44 1793.41 1898.81 1788.38 1883.9 1778.13 1871.88 1765.45 1857.06 1747.37 1849.42 1729.29 1849.42 1714.66 1849.42 1699.75 1854.45 1687.73 1864.7 1672.91 1877.38 1665.17 1895.46 1665.17 1913.53 1665.17 1928.17 1670.3 1943.08 1680.55 1955.1 1693.13 1969.92 1711.31 1977.65 1729.39 1977.56 1744.02 1977.65 1758.93 1972.53 1770.95 1962.27L1758.83 1948.11" fill="#030F1A" transform="matrix(0.985518 0.172486 -0.1724 0.985027 3662.98 -824.92)"/><path d="M1720.9 1903.84 1679.9 1855.29 2230.11 1389.32 2271.12 1437.88 1720.9 1903.84" fill="#FFFFFF" transform="matrix(0.985518 0.172486 -0.1724 0.985027 3662.98 -824.92)"/><path d="M1720.9 1903.84 1735.07 1891.82 1706.09 1857.53 2227.97 1415.6 2244.93 1435.64 1708.79 1889.68 1720.9 1903.84 1735.07 1891.82 1720.9 1903.84 1732.93 1918.1 2283.23 1452.14C2291.06 1445.43 2292.09 1433.68 2285.38 1425.86L2244.37 1377.3C2241.2 1373.48 2236.64 1371.15 2231.7 1370.78 2226.76 1370.31 2221.91 1371.9 2218.09 1375.06L1667.78 1841.03C1659.96 1847.74 1659.02 1859.48 1665.64 1867.31L1706.65 1915.86C1709.91 1919.69 1714.38 1922.02 1719.32 1922.48 1724.26 1922.85 1729.11 1921.27 1732.93 1918.1L1720.9 1903.84" fill="#030F1A" transform="matrix(0.985518 0.172486 -0.1724 0.985027 3662.98 -824.92)"/><path d="M1699.66 1406.84C1718.85 1423.06 1747.56 1420.64 1763.68 1401.44 1779.99 1382.24 1777.47 1353.63 1758.37 1337.41 1739.17 1321.2 1710.47 1323.62 1694.25 1342.82 1678.04 1361.92 1680.46 1390.63 1699.66 1406.84" fill="#FFFFFF" transform="matrix(0.985518 0.172486 -0.1724 0.985027 3662.98 -824.92)"/><path d="M1699.66 1406.84 1687.63 1421.1C1699.66 1431.17 1714.38 1436.2 1728.92 1436.2 1747.09 1436.2 1765.36 1428.46 1777.94 1413.46 1788.1 1401.53 1793.13 1386.71 1793.13 1372.18 1793.13 1354 1785.3 1335.83 1770.39 1323.16 1758.37 1313 1743.64 1307.97 1729.01 1308.06 1710.93 1307.97 1692.67 1315.79 1679.99 1330.8L1680.09 1330.7C1669.93 1342.73 1664.9 1357.54 1664.9 1372.08 1664.9 1390.26 1672.63 1408.43 1687.63 1421.1L1711.77 1392.59C1705.34 1387.27 1702.17 1379.72 1702.17 1372.08 1702.17 1365.93 1704.22 1359.97 1708.51 1354.84 1713.92 1348.5 1721.37 1345.34 1729.01 1345.34 1735.26 1345.34 1741.22 1347.29 1746.35 1351.67 1752.59 1356.99 1755.85 1364.44 1755.85 1372.18 1755.85 1378.33 1753.8 1384.38 1749.51 1389.42 1744.11 1395.75 1736.65 1398.92 1728.92 1398.92 1722.77 1398.92 1716.8 1396.87 1711.68 1392.59L1699.66 1406.84" fill="#030F1A" transform="matrix(0.985518 0.172486 -0.1724 0.985027 3662.98 -824.92)"/><path d="M1644.49 1472.08C1663.68 1488.29 1692.39 1485.96 1708.6 1466.77 1724.82 1447.57 1722.4 1418.87 1703.2 1402.65 1684 1386.43 1655.3 1388.86 1639.17 1408.06 1622.96 1427.25 1625.38 1455.96 1644.49 1472.08" fill="#FFFFFF" transform="matrix(0.985518 0.172486 -0.1724 0.985027 3662.98 -824.92)"/><path d="M1644.49 1472.08 1632.56 1486.34C1644.49 1496.5 1659.3 1501.53 1673.84 1501.53 1692.01 1501.53 1710.19 1493.79 1722.86 1478.79 1732.93 1466.77 1737.96 1451.95 1737.96 1437.41 1737.96 1419.24 1730.22 1401.07 1715.22 1388.39 1703.29 1378.23 1688.47 1373.29 1673.84 1373.29 1655.76 1373.29 1637.5 1381.03 1624.92 1396.03 1614.76 1408.06 1609.73 1422.78 1609.73 1437.41 1609.73 1455.49 1617.55 1473.76 1632.56 1486.34L1656.51 1457.91C1650.26 1452.51 1647.1 1445.05 1647 1437.41 1647 1431.17 1649.05 1425.2 1653.34 1420.08 1658.65 1413.74 1666.2 1410.57 1673.84 1410.57 1680.09 1410.57 1686.05 1412.62 1691.18 1416.91 1697.51 1422.22 1700.68 1429.68 1700.68 1437.41 1700.68 1443.56 1698.63 1449.62 1694.34 1454.74 1689.03 1460.99 1681.58 1464.16 1673.84 1464.25 1667.69 1464.16 1661.63 1462.2 1656.51 1457.91L1644.49 1472.08" fill="#030F1A" transform="matrix(0.985518 0.172486 -0.1724 0.985027 3662.98 -824.92)"/><path d="M2259.19 1883.06C2278.29 1899.37 2307 1897.13 2323.3 1878.03 2339.61 1858.83 2337.28 1830.22 2318.18 1813.91 2299.07 1797.6 2270.37 1799.93 2254.16 1818.94 2237.85 1838.05 2240.08 1866.75 2259.19 1883.06" fill="#FFFFFF" transform="matrix(0.985518 0.172486 -0.1724 0.985027 3662.98 -824.92)"/><path d="M2259.19 1883.06 2247.07 1897.32C2259.09 1907.48 2274.01 1912.6 2288.64 1912.6 2306.72 1912.6 2324.8 1904.96 2337.47 1890.05 2347.72 1878.03 2352.85 1863.21 2352.75 1848.49 2352.85 1830.41 2345.11 1812.33 2330.29 1799.75 2318.27 1789.49 2303.36 1784.37 2288.73 1784.37 2270.65 1784.37 2252.57 1792.01 2239.9 1806.92 2229.65 1818.94 2224.61 1833.76 2224.61 1848.49 2224.52 1866.47 2232.26 1884.64 2247.07 1897.23L2247.07 1897.32 2259.19 1883.06 2271.3 1868.9C2265.06 1863.49 2261.89 1856.13 2261.89 1848.49 2261.89 1842.24 2263.94 1836.18 2268.32 1831.06 2273.63 1824.81 2281.09 1821.65 2288.73 1821.65 2294.88 1821.65 2301.03 1823.79 2306.06 1828.08 2312.31 1833.39 2315.48 1840.84 2315.48 1848.49 2315.48 1854.73 2313.43 1860.79 2309.14 1865.91 2303.73 1872.16 2296.28 1875.33 2288.64 1875.33 2282.49 1875.33 2276.43 1873.28 2271.3 1868.9L2259.19 1883.06" fill="#030F1A" transform="matrix(0.985518 0.172486 -0.1724 0.985027 3662.98 -824.92)"/><path d="M2203.74 1948.11C2222.84 1964.42 2251.55 1962.09 2267.86 1942.98 2284.16 1923.88 2281.93 1895.18 2262.73 1878.87 2243.62 1862.65 2215.01 1864.89 2198.71 1883.99 2182.4 1903.1 2184.63 1931.8 2203.74 1948.11" fill="#FFFFFF" transform="matrix(0.985518 0.172486 -0.1724 0.985027 3662.98 -824.92)"/><path d="M2203.74 1948.11 2191.62 1962.27C2203.65 1972.53 2218.56 1977.65 2233.19 1977.56 2251.27 1977.65 2269.35 1969.92 2282.02 1955.1 2292.27 1943.08 2297.4 1928.17 2297.4 1913.53 2297.4 1895.46 2289.66 1877.38 2274.84 1864.7 2262.82 1854.45 2247.91 1849.42 2233.28 1849.42 2215.2 1849.42 2197.12 1857.06 2184.45 1871.88 2174.2 1883.9 2169.07 1898.81 2169.16 1913.44 2169.07 1931.52 2176.81 1949.6 2191.62 1962.27L2203.74 1948.11 2215.85 1933.94C2209.52 1928.54 2206.44 1921.08 2206.44 1913.44 2206.44 1907.29 2208.49 1901.23 2212.87 1896.11 2218.18 1889.86 2225.64 1886.7 2233.28 1886.7 2239.43 1886.7 2245.58 1888.75 2250.61 1893.13 2256.95 1898.44 2260.03 1905.89 2260.12 1913.53 2260.03 1919.69 2257.98 1925.74 2253.6 1930.87 2248.28 1937.21 2240.83 1940.28 2233.19 1940.28 2227.04 1940.28 2220.98 1938.23 2215.85 1933.94L2203.74 1948.11" fill="#030F1A" transform="matrix(0.985518 0.172486 -0.1724 0.985027 3662.98 -824.92)"/><path d="M2241.67 1903.84 2282.67 1855.29 1732.37 1389.32 1691.36 1437.88 2241.67 1903.84" fill="#FFFFFF" transform="matrix(0.985518 0.172486 -0.1724 0.985027 3662.98 -824.92)"/><path d="M2241.67 1903.84 2255.93 1915.86 2296.93 1867.31C2303.55 1859.48 2302.52 1847.74 2294.69 1841.03L1744.48 1375.06C1740.66 1371.9 1735.82 1370.31 1730.88 1370.78 1725.94 1371.15 1721.37 1373.48 1718.2 1377.3L1677.1 1425.86C1670.49 1433.68 1671.51 1445.43 1679.34 1452.14L2229.65 1918.1C2233.47 1921.27 2238.31 1922.85 2243.25 1922.48 2248.19 1922.02 2252.66 1919.69 2255.93 1915.86L2241.67 1903.84 2253.69 1889.68 1717.64 1435.64 1734.6 1415.6 2256.39 1857.53 2227.41 1891.82 2241.67 1903.84 2253.69 1889.68 2241.67 1903.84" fill="#030F1A" transform="matrix(0.985518 0.172486 -0.1724 0.985027 3662.98 -824.92)"/><path d="M2245.3 1642.81C2245.3 1533.31 2151.64 1444.49 2036.08 1444.49L1926.49 1444.49C1810.93 1444.49 1717.27 1533.31 1717.27 1642.81 1717.27 1720.44 1764.33 1787.54 1832.92 1820.16L1832.92 1851.93C1821.55 1859.39 1815.12 1867.78 1815.12 1876.72 1815.12 1878.4 1815.4 1879.99 1815.78 1881.66L1815.12 1881.66C1824.81 1927.7 1868.52 1930.59 1868.52 1930.59 1882.41 1930.59 1882.41 1965.44 1896.29 1965.44 1910.09 1965.44 1910.09 1930.59 1924.07 1930.59 1937.95 1930.59 1937.95 1965.44 1951.74 1965.44 1964.05 1965.44 1965.54 1938.04 1975.32 1931.89L1981.29 1931.89 1983.9 1931.89C1993.68 1938.23 1995.08 1965.44 2007.29 1965.44 2021.27 1965.44 2021.27 1930.59 2035.15 1930.59 2048.94 1930.59 2048.94 1965.44 2062.92 1965.44 2076.81 1965.44 2077.09 1934.13 2090.69 1930.59 2134.68 1918.85 2147.54 1881.66 2147.54 1881.66L2146.8 1881.66C2147.17 1879.99 2147.54 1878.4 2147.54 1876.72 2147.54 1867.78 2140.93 1859.39 2129.65 1851.93L2129.65 1820.16C2198.24 1787.54 2245.3 1720.44 2245.3 1642.81" fill="#FFFFFF" transform="matrix(0.985518 0.172486 -0.1724 0.985027 3662.98 -824.92)"/><path d="M2245.3 1642.81 2263.94 1642.81C2263.94 1582.61 2238.13 1528.18 2196.84 1489.04 2155.56 1449.99 2098.62 1425.86 2036.08 1425.86L1926.49 1425.86C1863.96 1425.86 1807.01 1449.99 1765.73 1489.04 1724.45 1528.18 1698.63 1582.61 1698.63 1642.81 1698.63 1685.4 1711.59 1725.28 1733.86 1758.65 1756.13 1792.1 1787.63 1819.22 1824.91 1836.93L1832.92 1820.16 1814.28 1820.16 1814.28 1851.93 1832.92 1851.93 1822.58 1836.37C1815.68 1841.03 1809.53 1846.25 1804.69 1852.77 1799.93 1859.2 1796.39 1867.59 1796.48 1876.72 1796.48 1880.73 1797.14 1883.99 1797.79 1886.51L1815.78 1881.66 1815.78 1863.02 1815.12 1863.02C1809.44 1863.02 1804.13 1865.54 1800.58 1869.92 1797.04 1874.21 1795.65 1879.99 1796.86 1885.48 1799.84 1899.74 1805.8 1911.48 1813.07 1920.43 1824.07 1933.94 1837.49 1941.03 1847.93 1944.75 1858.36 1948.48 1866.01 1949.04 1867.22 1949.13L1868.52 1949.23 1868.52 1938.6 1862.37 1947.27C1863.58 1948.2 1866.29 1949.23 1868.52 1949.23L1868.52 1938.6 1862.37 1947.27 1866.57 1941.4 1861.25 1946.43 1862.37 1947.27 1866.57 1941.4 1861.25 1946.43 1863.77 1944.01 1861.16 1946.25 1861.25 1946.43 1863.77 1944.01 1861.16 1946.25 1861.16 1946.06 1861.16 1946.15 1861.16 1946.25 1861.16 1946.06 1861.16 1946.15C1861.35 1946.43 1862.46 1948.39 1863.58 1951.18 1865.35 1955.38 1867.22 1961.25 1870.85 1967.68 1872.72 1970.85 1875.05 1974.48 1879.15 1977.84 1881.2 1979.52 1883.71 1981.19 1886.7 1982.31 1889.68 1983.52 1892.94 1984.18 1896.29 1984.08 1901.98 1984.18 1907.66 1982.03 1911.58 1979.24 1915.12 1976.72 1917.45 1974.02 1919.31 1971.41 1922.48 1966.93 1924.25 1962.74 1925.74 1959.01 1928.07 1953.51 1929.94 1948.58 1931.06 1946.8L1931.43 1946.15 1926.3 1942.15 1929.56 1947.64C1930.96 1946.8 1931.43 1946.15 1931.43 1946.15L1926.3 1942.15 1929.56 1947.64 1924.07 1938.42 1924.07 1949.23C1925.93 1949.23 1928.26 1948.48 1929.56 1947.64L1924.07 1938.42 1924.07 1949.23 1924.07 1938.6 1917.91 1947.27C1919.13 1948.2 1921.83 1949.23 1924.07 1949.23L1924.07 1938.6 1917.91 1947.27 1922.11 1941.4 1916.8 1946.34 1917.91 1947.27 1922.11 1941.4 1916.8 1946.34 1919.31 1944.1 1916.61 1946.15 1916.8 1946.34 1919.31 1944.1 1916.61 1946.15 1916.7 1946.06 1916.61 1946.15 1916.7 1946.06 1916.61 1946.15C1916.8 1946.43 1917.91 1948.39 1919.13 1951.18 1920.9 1955.38 1922.76 1961.25 1926.4 1967.68 1928.26 1970.85 1930.59 1974.48 1934.69 1977.84 1936.74 1979.61 1939.26 1981.19 1942.24 1982.31 1945.22 1983.52 1948.58 1984.18 1951.74 1984.08 1956.78 1984.18 1961.9 1982.5 1965.72 1980.17 1972.34 1975.88 1975.42 1970.85 1977.84 1966.65 1981.19 1960.22 1983.06 1954.45 1984.83 1950.44 1985.67 1948.48 1986.41 1946.99 1986.78 1946.43L1986.97 1946.25 1984.55 1944.38 1986.69 1946.62 1986.97 1946.25 1984.55 1944.38 1986.69 1946.62 1981.01 1940.84 1985.39 1947.55 1986.69 1946.62 1981.01 1940.84 1985.39 1947.55 1975.32 1931.89 1975.23 1950.53 1981.29 1950.53 1983.9 1950.53 1983.9 1931.89 1973.74 1947.55 1977.93 1941.03 1972.43 1946.53 1973.74 1947.55 1977.93 1941.03 1972.43 1946.53 1974.39 1944.57 1972.15 1946.25 1972.43 1946.53 1974.39 1944.57 1972.15 1946.25C1972.25 1946.34 1973.36 1948.2 1974.58 1951 1976.35 1955.19 1978.21 1961.06 1981.85 1967.49 1983.71 1970.76 1986.04 1974.39 1990.14 1977.84 1992.19 1979.52 1994.71 1981.19 1997.69 1982.31 2000.67 1983.52 2004.03 1984.18 2007.29 1984.08 2012.97 1984.18 2018.75 1982.03 2022.66 1979.24 2026.11 1976.72 2028.54 1974.02 2030.31 1971.41 2033.47 1966.93 2035.24 1962.74 2036.83 1959.01 2039.07 1953.51 2040.93 1948.58 2042.05 1946.8L2042.51 1946.15 2037.3 1942.15 2040.65 1947.64C2041.95 1946.8 2042.42 1946.15 2042.51 1946.15L2037.3 1942.15 2040.65 1947.64 2035.15 1938.42 2035.15 1949.23C2037.02 1949.23 2039.35 1948.48 2040.65 1947.64L2035.15 1938.42 2035.15 1949.23 2035.15 1938.6 2029 1947.27C2030.21 1948.2 2032.92 1949.23 2035.15 1949.23L2035.15 1938.6 2029 1947.27 2033.1 1941.4 2027.88 1946.43 2029 1947.27 2033.1 1941.4 2027.88 1946.43 2030.4 1944.01 2027.79 1946.25 2027.88 1946.43 2030.4 1944.01 2027.79 1946.25 2027.79 1946.06 2027.79 1946.25 2027.79 1946.06 2027.79 1946.25C2027.98 1946.43 2029 1948.39 2030.12 1951.18 2031.98 1955.38 2033.85 1961.25 2037.48 1967.68 2039.35 1970.85 2041.68 1974.48 2045.78 1977.84 2047.83 1979.61 2050.34 1981.19 2053.32 1982.31 2056.21 1983.52 2059.66 1984.18 2062.92 1984.08 2068.14 1984.18 2073.55 1982.4 2077.46 1979.89 2081 1977.65 2083.52 1975.04 2085.38 1972.62 2088.74 1968.24 2090.69 1964.23 2092.37 1960.69 2094.7 1955.29 2096.47 1950.53 2097.87 1948.2L2098.71 1946.9 2098.8 1946.71 2095.45 1943.73 2097.96 1947.46 2098.8 1946.71 2095.45 1943.73 2097.96 1947.46 2093.3 1940.56 2095.45 1948.58C2096.47 1948.3 2097.4 1947.83 2097.96 1947.46L2093.3 1940.56 2095.45 1948.58C2121.91 1941.59 2139.62 1926.49 2150.06 1913.44 2160.68 1900.3 2164.6 1889.12 2165.16 1887.63 2167.11 1881.94 2166.18 1875.7 2162.64 1870.76 2159.19 1865.82 2153.6 1863.02 2147.54 1863.02L2146.8 1863.02 2146.8 1881.66 2164.78 1886.32C2165.44 1883.99 2166.09 1880.82 2166.09 1876.72 2166.18 1867.59 2162.64 1859.2 2157.89 1852.77 2153.04 1846.16 2146.89 1840.94 2139.9 1836.37L2129.65 1851.93 2148.29 1851.93 2148.29 1820.16 2129.65 1820.16 2137.66 1836.93C2174.94 1819.22 2206.44 1792.1 2228.71 1758.65 2250.99 1725.28 2263.94 1685.4 2263.94 1642.81L2226.66 1642.81C2226.66 1677.85 2216.13 1710.37 2197.68 1738.05 2179.23 1765.73 2152.95 1788.47 2121.64 1803.29 2115.2 1806.36 2111.01 1812.98 2111.01 1820.16L2111.01 1851.93C2111.01 1858.18 2114.18 1864.05 2119.4 1867.5 2123.78 1870.39 2126.57 1873.09 2127.79 1874.77 2128.44 1875.7 2128.72 1876.26 2128.81 1876.54L2128.9 1876.72 2129 1876.72 2128.9 1876.72 2129 1876.72 2128.9 1876.72 2132.26 1876.72 2128.9 1876.16 2128.9 1876.72 2132.26 1876.72 2128.9 1876.16 2128.72 1877C2127.23 1882.59 2128.44 1888.47 2131.98 1893.03 2135.61 1897.6 2140.93 1900.3 2146.8 1900.3L2147.54 1900.3 2147.54 1881.66 2129.84 1875.61 2140.46 1879.24 2129.93 1875.42 2129.84 1875.61 2140.46 1879.24 2129.93 1875.42 2129.84 1875.7C2129.28 1877.1 2126.02 1884.55 2119.12 1892.29 2112.13 1900.11 2101.88 1908.22 2085.85 1912.51 2080.91 1913.81 2076.72 1916.42 2073.73 1919.22 2068.33 1924.16 2065.72 1929.19 2063.58 1933.57 2061.9 1936.83 2060.69 1939.91 2059.57 1942.42 2057.98 1946.34 2056.49 1949.23 2056.12 1949.51L2061.34 1953.98 2058.08 1948.02C2056.87 1948.76 2056.21 1949.41 2056.12 1949.51L2061.34 1953.98 2058.08 1948.02 2062.92 1956.87 2062.92 1946.8C2061.34 1946.8 2059.38 1947.36 2058.08 1948.02L2062.92 1956.87 2062.92 1946.8 2062.92 1957.43 2068.98 1948.76C2067.77 1947.83 2065.07 1946.8 2062.92 1946.8L2062.92 1957.43 2068.98 1948.76 2064.88 1954.63 2070.1 1949.69 2068.98 1948.76 2064.88 1954.63 2070.1 1949.69 2067.68 1952.02 2070.19 1949.88 2070.1 1949.69 2067.68 1952.02 2070.19 1949.88 2070.1 1949.88 2070.19 1949.88 2070.1 1949.88 2070.19 1949.88C2070.01 1949.6 2068.98 1947.64 2067.86 1944.85 2066 1940.56 2064.14 1934.78 2060.5 1928.35 2058.64 1925.18 2056.31 1921.55 2052.21 1918.1 2050.16 1916.42 2047.64 1914.84 2044.66 1913.72 2041.77 1912.51 2038.41 1911.95 2035.15 1911.95 2029.47 1911.86 2023.69 1914 2019.77 1916.8 2016.33 1919.31 2013.9 1922.02 2012.04 1924.62 2008.87 1929.1 2007.19 1933.29 2005.52 1937.02 2003.28 1942.52 2001.51 1947.36 2000.3 1949.23L1999.92 1949.88 2005.14 1953.89 2001.79 1948.39C2000.48 1949.23 2000.02 1949.88 1999.92 1949.88L2005.14 1953.89 2001.79 1948.39 2007.29 1957.62 2007.29 1946.8C2005.42 1946.8 2003.09 1947.55 2001.79 1948.39L2007.29 1957.62 2007.29 1946.8 2007.29 1957.52 2012.97 1948.39C2011.67 1947.55 2009.24 1946.8 2007.29 1946.8L2007.29 1957.52 2012.97 1948.39 2009.43 1954.07 2014.65 1949.88C2014.65 1949.69 2014.09 1949.13 2012.97 1948.39L2009.43 1954.07 2014.65 1949.88 2014.56 1949.97 2014.65 1949.88 2014.56 1949.97 2014.65 1949.88C2014.56 1949.69 2013.72 1948.3 2012.79 1946.15 2011.39 1942.89 2009.71 1938.23 2007.38 1933.2 2006.17 1930.59 2004.77 1927.89 2002.81 1925 2000.86 1922.11 1998.15 1919.03 1994.05 1916.33 1990.98 1914.28 1987.53 1913.26 1983.9 1913.26L1981.29 1913.26 1975.51 1913.26C1971.87 1913.16 1968.43 1914.19 1965.35 1916.14 1961.62 1918.47 1959.01 1921.36 1957.06 1923.97 1953.7 1928.54 1951.84 1932.73 1950.25 1936.55 1947.92 1942.24 1946.06 1947.27 1944.85 1949.13L1944.38 1949.88 1949.41 1953.7 1946.25 1948.39C1944.85 1949.23 1944.38 1949.88 1944.38 1949.88L1949.41 1953.7 1946.25 1948.39 1951.74 1957.62 1951.74 1946.8C1949.88 1946.8 1947.55 1947.55 1946.25 1948.39L1951.74 1957.62 1951.74 1946.8 1951.74 1957.43 1957.89 1948.76C1956.68 1947.83 1953.98 1946.8 1951.74 1946.8L1951.74 1957.43 1957.89 1948.76 1953.7 1954.63 1959.01 1949.69 1957.89 1948.76 1953.7 1954.63 1959.01 1949.69 1956.59 1952.02 1959.2 1949.88 1959.01 1949.69 1956.59 1952.02 1959.2 1949.88 1959.01 1949.88 1959.2 1949.88 1959.01 1949.88 1959.2 1949.88C1958.92 1949.6 1957.89 1947.64 1956.68 1944.85 1954.91 1940.56 1953.05 1934.78 1949.41 1928.35 1947.55 1925.18 1945.22 1921.64 1941.12 1918.1 1939.07 1916.42 1936.55 1914.84 1933.57 1913.72 1930.59 1912.51 1927.23 1911.95 1924.07 1911.95 1918.38 1911.86 1912.6 1914 1908.69 1916.8 1905.24 1919.31 1902.82 1922.02 1900.95 1924.62 1897.79 1929.1 1896.11 1933.29 1894.52 1937.02 1892.29 1942.52 1890.42 1947.36 1889.3 1949.23L1888.84 1949.88 1894.06 1953.89 1890.7 1948.39C1889.3 1949.23 1888.84 1949.88 1888.84 1949.88L1894.06 1953.89 1890.7 1948.39 1896.29 1957.62 1896.29 1946.8C1894.34 1946.8 1892.01 1947.55 1890.7 1948.39L1896.29 1957.62 1896.29 1946.8 1896.29 1957.43 1902.35 1948.76C1901.23 1947.83 1898.44 1946.8 1896.29 1946.8L1896.29 1957.43 1902.35 1948.76 1898.25 1954.63 1903.47 1949.69 1902.35 1948.76 1898.25 1954.63 1903.47 1949.69 1900.95 1952.02 1903.66 1949.88 1903.47 1949.69 1900.95 1952.02 1903.66 1949.88 1903.56 1949.88 1903.66 1949.88 1903.56 1949.88 1903.66 1949.88C1903.47 1949.6 1902.35 1947.64 1901.23 1944.85 1899.37 1940.56 1897.51 1934.78 1893.87 1928.35 1892.01 1925.18 1889.68 1921.55 1885.58 1918.1 1883.53 1916.42 1881.01 1914.84 1878.03 1913.72 1875.14 1912.51 1871.78 1911.95 1868.52 1911.95L1868.52 1930.59 1869.73 1911.95 1868.99 1922.76 1869.92 1911.95 1869.73 1911.95 1868.99 1922.76 1869.92 1911.95 1869.64 1911.95C1867.96 1911.76 1859.58 1910.37 1851.84 1905.52 1848.02 1903.1 1844.2 1900.02 1841.03 1895.64 1837.77 1891.35 1835.07 1885.76 1833.3 1877.75L1815.12 1881.66 1815.12 1900.3 1815.78 1900.3C1821.55 1900.3 1827.05 1897.51 1830.59 1892.94 1834.13 1888.37 1835.35 1882.32 1833.85 1876.82L1833.67 1876.16 1830.59 1876.72 1833.76 1876.72 1833.67 1876.16 1830.59 1876.72 1833.76 1876.72 1833.58 1876.72 1833.76 1876.72 1833.58 1876.72 1833.76 1876.72C1833.76 1876.72 1833.85 1875.88 1835.35 1874.11 1836.74 1872.34 1839.35 1870.01 1843.17 1867.5 1848.39 1864.05 1851.56 1858.18 1851.56 1851.93L1851.56 1820.16C1851.56 1812.98 1847.37 1806.36 1840.84 1803.29 1809.62 1788.47 1783.34 1765.73 1764.89 1738.05 1746.44 1710.37 1735.91 1677.85 1735.91 1642.81 1735.91 1593.42 1756.88 1548.87 1791.36 1516.16 1825.84 1483.45 1873.55 1463.13 1926.49 1463.13L2036.08 1463.13C2089.02 1463.13 2136.73 1483.45 2171.21 1516.16 2205.6 1548.87 2226.66 1593.42 2226.66 1642.81L2245.3 1642.81" fill="#030F1A" transform="matrix(0.985518 0.172486 -0.1724 0.985027 3662.98 -824.92)"/><path d="M1943.26 1649.05C1943.26 1682.51 1922.39 1709.63 1896.57 1709.63 1870.76 1709.63 1849.79 1682.51 1849.79 1649.05 1849.79 1615.6 1870.76 1588.38 1896.57 1588.38 1922.39 1588.38 1943.26 1615.6 1943.26 1649.05" fill="#EC3D4E" transform="matrix(0.985518 0.172486 -0.1724 0.985027 3662.98 -824.92)"/><path d="M1943.26 1649.05 1924.62 1649.05C1924.72 1661.82 1920.52 1673.19 1914.84 1680.46 1912.04 1684.19 1908.88 1686.89 1905.8 1688.57 1902.63 1690.24 1899.74 1690.99 1896.57 1690.99 1893.41 1690.99 1890.42 1690.24 1887.35 1688.57 1882.69 1686.05 1877.93 1681.2 1874.3 1674.31 1870.76 1667.41 1868.43 1658.65 1868.43 1649.05 1868.43 1636.19 1872.53 1624.92 1878.31 1617.55 1881.1 1613.92 1884.27 1611.22 1887.35 1609.54 1890.42 1607.86 1893.41 1607.12 1896.57 1607.02 1899.74 1607.12 1902.63 1607.86 1905.8 1609.54 1910.37 1612.05 1915.21 1616.81 1918.75 1623.7 1922.39 1630.6 1924.72 1639.36 1924.62 1649.05L1961.9 1649.05C1961.9 1628.36 1955.56 1609.45 1944.38 1594.72 1938.79 1587.45 1931.8 1581.3 1923.69 1576.83 1915.58 1572.35 1906.27 1569.75 1896.57 1569.75 1886.79 1569.75 1877.47 1572.35 1869.36 1576.83 1857.25 1583.54 1847.74 1594.07 1841.22 1606.56 1834.79 1619.04 1831.15 1633.58 1831.15 1649.05 1831.25 1669.65 1837.58 1688.66 1848.77 1703.29 1854.36 1710.56 1861.25 1716.71 1869.36 1721.18 1877.47 1725.66 1886.79 1728.27 1896.57 1728.27 1906.27 1728.27 1915.58 1725.66 1923.69 1721.28 1935.9 1714.47 1945.31 1703.94 1951.84 1691.55 1958.36 1679.06 1961.9 1664.52 1961.9 1649.05L1943.26 1649.05" fill="#030F1A" transform="matrix(0.985518 0.172486 -0.1724 0.985027 3662.98 -824.92)"/><path d="M2124.43 1649.05C2124.43 1682.51 2103.46 1709.63 2077.74 1709.63 2051.93 1709.63 2030.96 1682.51 2030.96 1649.05 2030.96 1615.6 2051.93 1588.38 2077.74 1588.38 2103.46 1588.38 2124.43 1615.6 2124.43 1649.05" fill="#EC3D4E" transform="matrix(0.985518 0.172486 -0.1724 0.985027 3662.98 -824.92)"/><path d="M2124.43 1649.05 2105.79 1649.05C2105.79 1661.82 2101.69 1673.19 2096.01 1680.46 2093.21 1684.19 2090.04 1686.89 2086.87 1688.57 2083.8 1690.24 2080.91 1690.99 2077.74 1690.99 2074.57 1690.99 2071.59 1690.24 2068.42 1688.57 2063.86 1686.05 2059.1 1681.2 2055.47 1674.31 2051.93 1667.41 2049.6 1658.65 2049.6 1649.05 2049.6 1636.19 2053.7 1624.92 2059.38 1617.55 2062.27 1613.92 2065.35 1611.22 2068.42 1609.54 2071.59 1607.86 2074.57 1607.12 2077.74 1607.02 2080.91 1607.12 2083.8 1607.86 2086.97 1609.54 2091.53 1612.05 2096.38 1616.81 2099.92 1623.7 2103.46 1630.6 2105.79 1639.36 2105.79 1649.05L2143.07 1649.05C2143.07 1628.36 2136.73 1609.45 2125.46 1594.72 2119.86 1587.45 2112.97 1581.3 2104.86 1576.83 2096.75 1572.35 2087.43 1569.75 2077.74 1569.75 2067.96 1569.75 2058.64 1572.35 2050.53 1576.83 2038.41 1583.54 2028.91 1594.07 2022.38 1606.56 2015.95 1619.04 2012.32 1633.58 2012.32 1649.05 2012.32 1669.65 2018.66 1688.66 2029.93 1703.29 2035.52 1710.56 2042.42 1716.71 2050.53 1721.18 2058.64 1725.66 2067.96 1728.27 2077.74 1728.27 2087.43 1728.27 2096.75 1725.66 2104.86 1721.18 2116.98 1714.47 2126.48 1703.94 2133 1691.55 2139.44 1679.06 2143.07 1664.52 2143.07 1649.05L2124.43 1649.05" fill="#030F1A" transform="matrix(0.985518 0.172486 -0.1724 0.985027 3662.98 -824.92)"/><path d="M1981.47 1698.44 1981.47 1698.26 1981.38 1698.35 1981.29 1698.26 1981.29 1698.44C1922.76 1738.24 1939.16 1773.19 1939.16 1773.19 1953.7 1802.63 1980.45 1781.29 1981.38 1780.55 1982.22 1781.29 2008.96 1802.63 2023.6 1773.19 2023.6 1773.19 2040 1738.24 1981.47 1698.44" fill="#EC3D4E" transform="matrix(0.985518 0.172486 -0.1724 0.985027 3662.98 -824.92)"/><path d="M1981.47 1698.44 2000.11 1698.44 2000.11 1698.26C2000.11 1690.8 1995.54 1684 1988.56 1681.11 1981.66 1678.22 1973.55 1679.81 1968.24 1685.12L1968.24 1685.21 1981.38 1698.35 1993.03 1683.81 1992.94 1683.81C1987.34 1679.25 1979.7 1678.41 1973.18 1681.48 1966.75 1684.65 1962.65 1691.08 1962.65 1698.26L1962.65 1698.44 1981.29 1698.44 1970.85 1682.97C1950.25 1696.95 1937.11 1711.12 1929.1 1724.73 1920.99 1738.24 1918.38 1751.19 1918.38 1760.98 1918.38 1772.16 1921.46 1779.34 1922.29 1781.11L1922.48 1781.48C1926.49 1789.68 1932.08 1796.48 1938.98 1800.96 1945.87 1805.52 1953.7 1807.39 1960.41 1807.39 1970.2 1807.29 1977.84 1804.13 1983.24 1801.33 1986.04 1799.93 1988.18 1798.53 1989.86 1797.42 1991.54 1796.3 1992.66 1795.37 1993.03 1795.09L1981.38 1780.55 1969.54 1794.99C1970.57 1795.83 1974.02 1798.44 1979.42 1801.33 1984.92 1804.13 1992.47 1807.29 2002.35 1807.39 2009.06 1807.39 2016.89 1805.52 2023.78 1800.96 2030.68 1796.48 2036.27 1789.68 2040.28 1781.48L2040.46 1781.11C2041.3 1779.34 2044.28 1772.16 2044.38 1760.98 2044.38 1751.19 2041.77 1738.24 2033.66 1724.73 2025.65 1711.12 2012.41 1696.95 1991.91 1682.97L1981.47 1698.44 2000.11 1698.44 1981.47 1698.44 1970.94 1713.92C1988 1725.38 1996.94 1735.72 2001.6 1743.74 2006.26 1751.66 2007.01 1757.34 2007.1 1760.98 2007.1 1763.12 2006.82 1764.61 2006.54 1765.36L2006.45 1765.92 2014.37 1768.9 2006.73 1765.26 2006.45 1765.92 2014.37 1768.9 2006.73 1765.26 2023.6 1773.19 2006.91 1764.89C2005.05 1768.62 2003.65 1769.55 2003.28 1769.83L2002.35 1770.02C2001.51 1770.2 1998.81 1769.46 1996.57 1768.25 1995.45 1767.69 1994.52 1767.04 1993.87 1766.66L1993.21 1766.1 1993.03 1766.01 1989.58 1770.48 1993.12 1766.1 1993.03 1766.01 1989.58 1770.48 1993.12 1766.1C1986.32 1760.51 1976.63 1760.51 1969.73 1766.01L1968.89 1766.57C1967.87 1767.31 1966.19 1768.34 1964.42 1768.99 1962.74 1769.83 1961.06 1770.11 1960.41 1770.02L1959.39 1769.83C1959.01 1769.55 1957.71 1768.62 1955.84 1764.89L1939.16 1773.19 1956.03 1765.26 1948.39 1768.81 1956.31 1765.92 1956.03 1765.26 1948.39 1768.81 1956.31 1765.92C1956.31 1765.92 1955.66 1764.15 1955.66 1760.98 1955.75 1757.34 1956.5 1751.66 1961.16 1743.74 1965.82 1735.72 1974.76 1725.38 1991.72 1713.92 1996.85 1710.37 1999.92 1704.6 1999.92 1698.44L1999.92 1698.26 1981.29 1698.26 1969.64 1712.89 1969.73 1712.89C1977.19 1718.85 1987.81 1718.3 1994.52 1711.59L1994.61 1711.49 1981.47 1698.26 1962.83 1698.26 1962.83 1698.44C1962.83 1704.6 1965.91 1710.37 1970.94 1713.92L1981.47 1698.44" fill="#030F1A" transform="matrix(0.985518 0.172486 -0.1724 0.985027 3662.98 -824.92)"/></g></g></g></g></svg>