<svg width="1457" height="1101" xmlns="http://www.w3.org/2000/svg" xmlns:xlink="http://www.w3.org/1999/xlink" xml:space="preserve" overflow="hidden"><defs><clipPath id="clip0"><path d="M3740 2421.51 5094.35 2276.22 5196.85 3231.65 3842.5 3376.94 3740 2421.51Z" fill-rule="evenodd" clip-rule="evenodd"/></clipPath><clipPath id="clip1"><path d="M3740 2421.51 5094.35 2276.22 5196.85 3231.65 3842.5 3376.94Z" fill-rule="evenodd" clip-rule="evenodd"/></clipPath><clipPath id="clip2"><path d="M3740 2421.51 5094.35 2276.22 5196.85 3231.65 3842.5 3376.94Z" fill-rule="evenodd" clip-rule="evenodd"/></clipPath></defs><g transform="translate(-3740 -2276)"><g clip-path="url(#clip0)"><g clip-path="url(#clip1)"><g clip-path="url(#clip2)"><path d="M585.169 1298.06 1609.15 1298.06 1609.15 627.125 585.169 627.125Z" fill="#1E4684" transform="matrix(0.99679 -0.106931 0.106664 0.994295 3257.76 1853)"/><path d="M1609.15 1298.06 1609.15 1287.74 595.49 1287.74 595.49 637.446 1598.83 637.446 1598.83 1298.06 1609.15 1298.06 1609.15 1287.74 1609.15 1298.06 1619.47 1298.06 1619.47 616.804 574.847 616.804 574.847 1308.39 1619.47 1308.39 1619.47 1298.06 1609.15 1298.06" fill="#030F1A" transform="matrix(0.99679 -0.106931 0.106664 0.994295 3257.76 1853)"/><path d="M639.459 1249.71 1554.86 1249.71 1554.86 675.48 639.459 675.48Z" fill="#91DBEF" transform="matrix(0.99679 -0.106931 0.106664 0.994295 3257.76 1853)"/><path d="M1554.86 1249.71 1554.86 1239.39 649.78 1239.39 649.78 685.802 1544.54 685.802 1544.54 1249.71 1554.86 1249.71 1554.86 1239.39 1554.86 1249.71 1565.18 1249.71 1565.18 665.159 629.138 665.159 629.138 1260.03 1565.18 1260.03 1565.18 1249.71 1554.86 1249.71" fill="#030F1A" transform="matrix(0.99679 -0.106931 0.106664 0.994295 3257.76 1853)"/><path d="M1544.54 1239.39 649.78 1239.39 649.78 685.802 799.956 685.802 799.956 1099.17 823.385 1099.17 796.808 1140.25C793.35 1145.62 791.234 1151.35 791.183 1157.33 791.183 1160.64 791.905 1163.99 793.402 1167.03 795.569 1171.63 799.491 1175.24 803.93 1177.36 808.419 1179.52 813.374 1180.4 818.689 1180.4L818.689 1170.08 818.689 1180.4 1375.63 1180.4C1382.7 1180.4 1389.25 1178.8 1394.57 1174.78 1397.25 1172.76 1399.47 1170.08 1400.92 1167.03 1402.41 1163.99 1403.14 1160.64 1403.14 1157.33 1403.08 1151.35 1400.97 1145.62 1397.51 1140.25L1370.93 1099.17 1544.54 1099.17 1544.54 1239.39" fill="#52C6E5" transform="matrix(0.99679 -0.106931 0.106664 0.994295 3257.76 1853)"/><path d="M1554.86 1249.71 639.459 1249.71 639.459 675.48 799.956 675.48 799.956 685.802 649.78 685.802 649.78 1239.39 1544.54 1239.39 1544.54 1099.17 1554.86 1099.17 1554.86 1249.71 1554.86 1239.39 1554.86 1249.71" fill="#030F19" transform="matrix(0.99679 -0.106931 0.106664 0.994295 3257.76 1853)"/><path d="M438.456 1517.7 585.169 1298.06 1609.15 1298.06 1755.87 1517.7 438.451 1517.7" fill="#1A3E75" transform="matrix(0.99679 -0.106931 0.106664 0.994295 3257.76 1853)"/><path d="M438.456 1517.7 447.023 1523.43 590.691 1308.39 1603.63 1308.39 1736.57 1507.38 438.451 1507.38 438.456 1517.7 447.023 1523.43 438.456 1517.7 438.456 1528.02 1775.17 1528.02 1614.68 1287.74 579.652 1287.74 419.15 1528.02 438.461 1528.02 438.461 1517.7" fill="#030F1A" transform="matrix(0.99679 -0.106931 0.106664 0.994295 3257.76 1853)"/><path d="M1609.87 1434.31 1539.58 1329.03 654.734 1329.03 584.446 1434.31 1609.87 1434.31" fill="#155C92" transform="matrix(0.99679 -0.106931 0.106664 0.994295 3257.76 1853)"/><path d="M1609.87 1434.31 1618.49 1428.53 1545.11 1318.71 649.213 1318.71 565.094 1444.63 1629.22 1444.63 1618.49 1428.53 1609.87 1434.31 1609.87 1423.98 603.747 1423.98 660.256 1339.35 1534.06 1339.35 1601.31 1440.03 1609.87 1434.31 1609.87 1423.98 1609.87 1434.31" fill="#030F1A" transform="matrix(0.99679 -0.106931 0.106664 0.994295 3257.76 1853)"/><path d="M1238.66 1501.55 1205.79 1452.37 988.527 1452.37 955.705 1501.55 1238.66 1501.55" fill="#155C92" transform="matrix(0.99679 -0.106931 0.106664 0.994295 3257.76 1853)"/><path d="M1238.66 1501.55 1247.23 1495.82 1211.31 1442.05 983.005 1442.05 936.404 1511.87 1257.91 1511.87 1247.23 1495.82 1238.66 1501.55 1238.66 1491.23 975.006 1491.23 994.049 1462.69 1200.27 1462.69 1230.05 1507.28 1238.66 1501.55 1238.66 1491.23 1238.66 1501.55" fill="#030F1A" transform="matrix(0.99679 -0.106931 0.106664 0.994295 3257.76 1853)"/><path d="M1755.87 1567.19 438.451 1567.19 438.456 1517.7 1755.87 1517.7 1755.87 1567.19" fill="#0F2649" transform="matrix(0.99679 -0.106931 0.106664 0.994295 3257.76 1853)"/><path d="M1755.87 1567.19 1755.87 1556.87 448.772 1556.87 448.757 1528.02 1745.53 1528.02 1745.53 1567.19 1755.85 1567.19 1755.85 1556.87 1755.85 1567.19 1766.17 1567.19 1766.17 1507.38 428.114 1507.38 428.119 1577.51 1766.18 1577.51 1766.18 1567.19 1755.86 1567.19" fill="#030F1A" transform="matrix(0.99679 -0.106931 0.106664 0.994295 3257.76 1853)"/><path d="M818.689 1170.08C802.794 1170.08 796.859 1159.19 805.478 1145.82L1081.47 718.985C1090.09 705.67 1104.23 705.67 1112.85 718.985L1388.84 1145.82C1397.46 1159.19 1391.52 1170.08 1375.63 1170.08L818.689 1170.08" fill="#EC3D4E" transform="matrix(0.99679 -0.106931 0.106664 0.994295 3257.76 1853)"/><path d="M818.689 1170.08 818.689 1159.76C814.819 1159.81 812.806 1158.83 812.29 1158.36L811.98 1158C811.929 1157.95 811.877 1157.85 811.825 1157.33 811.825 1156.51 812.238 1154.34 814.148 1151.45L1090.14 724.61C1091.59 722.339 1093.08 720.998 1094.27 720.275 1095.46 719.552 1096.33 719.346 1097.16 719.346 1097.98 719.346 1098.86 719.552 1100.05 720.275 1101.24 720.998 1102.73 722.339 1104.18 724.61L1380.17 1151.45C1382.08 1154.34 1382.49 1156.51 1382.49 1157.33 1382.49 1157.85 1382.39 1157.95 1382.39 1158 1382.34 1158.11 1382.34 1158.31 1381.36 1158.78 1380.43 1159.24 1378.52 1159.81 1375.63 1159.76L818.689 1159.76 818.689 1180.4 1375.63 1180.4C1382.7 1180.4 1389.25 1178.8 1394.57 1174.78 1397.25 1172.76 1399.47 1170.08 1400.92 1167.03 1402.41 1163.99 1403.14 1160.64 1403.14 1157.33 1403.08 1151.35 1400.97 1145.62 1397.51 1140.25L1121.52 713.411C1118.68 709.025 1115.17 705.361 1110.99 702.78 1106.86 700.148 1102.06 698.652 1097.16 698.703 1092.31 698.652 1087.46 700.148 1083.33 702.78 1079.15 705.361 1075.64 709.025 1072.8 713.411L796.808 1140.25C793.35 1145.62 791.234 1151.35 791.183 1157.33 791.183 1160.64 791.905 1163.99 793.402 1167.03 795.569 1171.63 799.491 1175.24 803.93 1177.36 808.419 1179.52 813.374 1180.4 818.689 1180.4L818.689 1170.08" fill="#030F1A" transform="matrix(0.99679 -0.106931 0.106664 0.994295 3257.76 1853)"/><path d="M915.71 1112.54C905.337 1112.54 901.466 1105.42 907.091 1096.75L1086.94 818.534C1092.57 809.864 1101.75 809.864 1107.38 818.534L1287.23 1096.75C1292.85 1105.42 1288.98 1112.54 1278.66 1112.54L915.71 1112.54" fill="#FFFFFF" transform="matrix(0.99679 -0.106931 0.106664 0.994295 3257.76 1853)"/><path d="M915.71 1112.54 915.71 1102.22C914.729 1102.22 914.058 1102.11 913.749 1102.01L913.542 1101.96 913.542 1101.91 912.51 1103.92 914.368 1102.78C914.007 1102.22 913.542 1101.91 913.542 1101.91L912.51 1103.92 914.368 1102.78 912.046 1104.23 914.832 1104.23C914.832 1104.02 914.678 1103.3 914.368 1102.78L912.046 1104.23 914.832 1104.23 914.007 1104.23 914.832 1104.28 914.832 1104.23 914.007 1104.23 914.832 1104.28 914.832 1104.18C914.884 1103.97 915.09 1103.3 915.761 1102.32L1095.61 824.159C1096.28 823.024 1096.9 822.56 1097.16 822.405L1097.31 822.302 1097.16 821.734 1097.16 822.353 1097.31 822.302 1097.16 821.734 1097.16 822.353 1097.16 821.734 1097 822.302 1097.16 822.353 1097.16 821.734 1097 822.302 1097.06 822.353C1097.26 822.456 1097.93 822.921 1098.71 824.159L1278.56 1102.32C1279.07 1103.04 1279.28 1103.66 1279.43 1103.97L1279.49 1104.28 1280.31 1104.23 1279.49 1104.23 1279.49 1104.28 1280.31 1104.23 1279.49 1104.23 1282.12 1104.23 1279.8 1103.09C1279.59 1103.56 1279.49 1104.02 1279.49 1104.23L1282.12 1104.23 1279.8 1103.09 1282.58 1104.44 1280.41 1102.22 1279.8 1103.09 1282.58 1104.44 1280.41 1102.22 1281.7 1103.51 1280.78 1101.96 1280.41 1102.22 1281.7 1103.51 1280.78 1101.96 1280.93 1102.22 1280.78 1101.91 1280.78 1101.96 1280.93 1102.22 1280.78 1101.91C1280.78 1101.96 1280.05 1102.22 1278.66 1102.22L915.71 1102.22 915.71 1122.86 1278.66 1122.86C1283.82 1122.86 1288.88 1121.72 1293.21 1118.42 1295.33 1116.82 1297.19 1114.6 1298.37 1112.12 1299.56 1109.65 1300.13 1106.86 1300.13 1104.23 1300.13 1099.43 1298.43 1095.04 1295.9 1091.12L1116.05 812.961C1113.98 809.709 1111.3 806.923 1108.05 804.91 1104.85 802.897 1101.03 801.71 1097.16 801.71 1093.29 801.71 1089.47 802.897 1086.22 804.91 1083.02 806.923 1080.34 809.709 1078.27 812.961L898.421 1091.12C895.841 1095.04 894.19 1099.43 894.19 1104.23 894.19 1106.86 894.757 1109.65 895.944 1112.12 897.751 1115.89 901.002 1118.83 904.511 1120.49 908.02 1122.19 911.788 1122.86 915.71 1122.86L915.71 1112.54" fill="#030F1A" transform="matrix(0.99679 -0.106931 0.106664 0.994295 3257.76 1853)"/><path d="M1076.52 1010.72 1117.8 1010.72 1117.8 871.792 1076.52 871.792Z" fill="#030F1A" transform="matrix(0.99679 -0.106931 0.106664 0.994295 3257.76 1853)"/><path d="M1076.52 1083.9 1117.8 1083.9 1117.8 1041.22 1076.52 1041.22Z" fill="#030F1A" transform="matrix(0.99679 -0.106931 0.106664 0.994295 3257.76 1853)"/><path d="M818.689 1170.08 818.689 1159.76 818.637 1159.76C814.767 1159.76 812.806 1158.83 812.29 1158.36L811.98 1158C811.929 1157.95 811.877 1157.85 811.825 1157.33 811.825 1156.51 812.238 1154.34 814.148 1151.45L1084 734.106 1084 806.51C1081.73 808.316 1079.87 810.484 1078.27 812.961L898.421 1091.12C895.841 1095.04 894.19 1099.43 894.19 1104.23 894.19 1106.86 894.757 1109.65 895.944 1112.12 897.751 1115.89 901.002 1118.83 904.511 1120.49 908.02 1122.19 911.788 1122.86 915.71 1122.86L915.71 1112.54 915.71 1122.86 1084 1122.86 1084 1159.76 818.689 1159.76 818.689 1170.08" fill="#B02C37" transform="matrix(0.99679 -0.106931 0.106664 0.994295 3257.76 1853)"/><path d="M1084 1170.08 818.689 1170.08 818.689 1159.76 1084 1159.76 1084 1170.08M818.689 1170.08 818.121 1170.08C802.743 1170.08 797.014 1159.19 805.375 1145.82L1072.03 718.985C1075.38 713.618 1079.61 710.47 1084 709.386L1084 734.106 814.148 1151.45C812.238 1154.34 811.825 1156.51 811.825 1157.33 811.877 1157.85 811.929 1157.95 811.98 1158L812.29 1158.36C812.806 1158.83 814.767 1159.76 818.637 1159.76L818.689 1159.76 818.689 1170.08" fill="#020C16" transform="matrix(0.99679 -0.106931 0.106664 0.994295 3257.76 1853)"/><path d="M1084 1102.22 915.813 1102.22 1084 842.118 1084 871.792 1076.52 871.792 1076.52 1010.72 1084 1010.72 1084 1041.22 1076.52 1041.22 1076.52 1083.9 1084 1083.9 1084 1102.22" fill="#BDBCBC" transform="matrix(0.99679 -0.106931 0.106664 0.994295 3257.76 1853)"/><path d="M1084 1122.86 915.71 1122.86 915.71 1102.37 915.71 1122.86C911.788 1122.86 908.02 1122.19 904.511 1120.49 901.002 1118.83 897.751 1115.89 895.944 1112.12 894.757 1109.65 894.19 1106.86 894.19 1104.23 894.19 1099.43 895.841 1095.04 898.421 1091.12L1078.27 812.961C1079.87 810.484 1081.73 808.316 1084 806.51L1084 842.118 915.813 1102.22 1084 1102.22 1084 1122.86" fill="#020C16" transform="matrix(0.99679 -0.106931 0.106664 0.994295 3257.76 1853)"/><path d="M1076.52 1010.72 1084 1010.72 1084 871.792 1076.52 871.792Z" fill="#020C16" transform="matrix(0.99679 -0.106931 0.106664 0.994295 3257.76 1853)"/><path d="M1076.52 1083.9 1084 1083.9 1084 1041.22 1076.52 1041.22Z" fill="#020C16" transform="matrix(0.99679 -0.106931 0.106664 0.994295 3257.76 1853)"/></g></g></g></g></svg>