<svg width="2174" height="1743" xmlns="http://www.w3.org/2000/svg" xmlns:xlink="http://www.w3.org/1999/xlink" xml:space="preserve" overflow="hidden"><defs><clipPath id="clip0"><rect x="4189" y="985" width="2174" height="1743"/></clipPath></defs><g clip-path="url(#clip0)" transform="translate(-4189 -985)"><path d="M2150.36 176.932 2150.36 1202.57C2150.36 1290.82 2078.79 1362.38 1990.54 1362.38L1336.15 1362.38 831.415 1362.38 177.018 1362.38C88.7668 1362.38 17.2029 1290.82 17.2029 1202.57L17.2029 176.932C17.2029 88.6808 88.7668 17.1169 177.018 17.1169L1990.54 17.1169C2078.79 17.1169 2150.36 88.6808 2150.36 176.932Z" fill="#604533" transform="matrix(1 0 0 1.0002 4192.22 985)"/><path d="M766.904 619.905 766.904 619.733C766.904 619.733 764.668 606.487 763.635 585.5 761.399 532.343 767.764 428.437 841.048 356.702 877.862 320.747 917.257 298.384 953.727 284.621L954.071 284.621 954.071 284.449C979.703 274.816 1003.79 269.311 1024.43 266.214 1051.78 262.086 1072.94 262.086 1083.78 262.086 1100.98 262.086 1145.2 262.086 1198.01 279.117 1216.59 285.138 1236.37 293.223 1256.33 304.405 1279.89 317.307 1303.63 334.338 1326.51 356.702 1327.03 357.218 1327.72 357.906 1328.23 358.422 1357.31 387.495 1375.71 421.556 1386.9 455.446 1414.76 538.536 1400.66 619.733 1400.66 619.733L1400.66 619.905C1407.19 621.454 1413.39 623.862 1419.41 626.959 1454.16 644.161 1477.9 680.115 1477.9 721.402 1477.9 767.162 1448.83 806.04 1408.05 820.663 1396.87 824.792 1384.83 827.028 1372.27 827.028 1344.58 827.028 1319.29 816.362 1300.54 798.987 1298.3 801.052 1296.06 803.116 1294 805.352 1268.88 829.092 1174.27 912.354 1083.78 912.354 993.294 912.354 898.678 829.092 873.562 805.352 871.497 803.116 869.261 801.052 867.025 798.987 848.273 816.362 822.985 827.028 795.289 827.028 782.731 827.028 770.689 824.792 759.507 820.663 718.736 806.04 689.663 767.162 689.663 721.402 689.663 672.89 722.349 632.119 766.904 619.905Z" fill="#655F68" transform="matrix(1 0 0 1.0002 4192.22 985)"/><path d="M1482.72 1537.16 1570.62 1638.14 596.94 1638.14 684.846 1537.16 831.415 1537.16 1336.15 1537.16Z" fill="#604533" transform="matrix(1 0 0 1.0002 4192.22 985)"/><path d="M596.94 1638.14 1570.62 1638.14 1570.62 1724.67 596.94 1724.67Z" fill="#60676B" transform="matrix(1 0 0 1.0002 4192.22 985)"/><path d="M831.415 1362.38 1336.15 1362.38 1336.15 1537.16 831.415 1537.16Z" fill="#60676B" transform="matrix(1 0 0 1.0002 4192.22 985)"/><path d="M2069.33 1182.61 2069.33 1193.79C2069.33 1245.57 2027.36 1287.55 1975.58 1287.55L1834.34 1287.55 1834.34 1182.61 2069.33 1182.61Z" fill="#DDD8D6" transform="matrix(1 0 0 1.0002 4192.22 985)"/><path d="M2069.33 429.986 2069.33 1182.61 1834.34 1182.61 1776.02 1182.61 1679.69 1182.61 1621.37 1182.61 1445.21 1182.61 1386.9 1182.61 1259.59 1182.61 1259.59 1127.22 1972.31 1127.22 1972.31 455.446 1972.31 429.986Z" fill="#ACCCC6" transform="matrix(1 0 0 1.0002 4192.22 985)"/><path d="M2069.33 187.769 2069.33 429.986 1972.31 429.986 1972.31 358.422 1834.34 358.422 1834.34 94.1857 1975.58 94.1857C2027.36 94.1857 2069.33 135.989 2069.33 187.769Z" fill="#DDD8D6" transform="matrix(1 0 0 1.0002 4192.22 985)"/><path d="M1972.31 455.446 1972.31 1127.22 1259.59 1127.22 1259.59 1071.82C1316.88 981.338 1339.93 859.369 1402.55 823.759 1435.06 909.946 1518.33 971.188 1616.04 971.188 1741.96 971.188 1844.32 869.003 1844.32 742.906 1844.32 616.809 1741.96 514.624 1616.04 514.624 1532.26 514.624 1459.15 559.695 1419.41 626.787L1419.41 626.959C1413.39 623.862 1407.19 621.454 1400.66 619.905L1400.66 619.733C1400.66 619.733 1414.76 538.536 1386.9 455.446L1972.31 455.446Z" fill="#D6EAE8" transform="matrix(1 0 0 1.0002 4192.22 985)"/><path d="M1972.31 429.986 1972.31 455.446 1386.9 455.446C1375.71 421.556 1357.31 387.495 1328.23 358.422L1386.9 358.422 1445.21 358.422 1621.37 358.422 1679.69 358.422 1776.02 358.422 1834.34 358.422 1972.31 358.422 1972.31 429.986Z" fill="#20BAB6" transform="matrix(1 0 0 1.0002 4192.22 985)"/><path d="M1776.02 1182.61 1834.34 1182.61 1834.34 1287.55 1776.02 1287.55Z" fill="#6FCEAE" transform="matrix(1 0 0 1.0002 4192.22 985)"/><path d="M1776.02 94.1857 1834.34 94.1857 1834.34 358.422 1776.02 358.422Z" fill="#6FCEAE" transform="matrix(1 0 0 1.0002 4192.22 985)"/><path d="M1616.04 514.624C1741.96 514.624 1844.32 616.809 1844.32 742.906 1844.32 869.003 1741.96 971.188 1616.04 971.188 1518.33 971.188 1435.06 909.946 1402.55 823.759 1404.27 822.727 1406.16 821.695 1408.05 820.835L1408.05 820.663C1448.83 806.04 1477.9 767.162 1477.9 721.402 1477.9 680.115 1454.16 644.161 1419.41 626.959L1419.41 626.787C1459.15 559.695 1532.26 514.624 1616.04 514.624ZM1643.73 772.151 1661.28 589.284 1570.62 589.284 1588.34 772.151 1643.73 772.151ZM1651.13 861.262C1651.13 841.994 1635.3 826.168 1616.04 826.168 1596.6 826.168 1580.77 841.994 1580.77 861.262 1580.77 880.701 1596.6 896.356 1616.04 896.356 1635.3 896.356 1651.13 880.701 1651.13 861.262Z" fill="#D14B62" transform="matrix(1 0 0 1.0002 4192.22 985)"/><path d="M1679.69 1182.61 1776.02 1182.61 1776.02 1287.55 1679.69 1287.55Z" fill="#DDD8D6" transform="matrix(1 0 0 1.0002 4192.22 985)"/><path d="M1679.69 94.1857 1776.02 94.1857 1776.02 358.422 1679.69 358.422Z" fill="#DDD8D6" transform="matrix(1 0 0 1.0002 4192.22 985)"/><path d="M1621.37 1182.61 1679.69 1182.61 1679.69 1287.55 1621.37 1287.55Z" fill="#6FCEAE" transform="matrix(1 0 0 1.0002 4192.22 985)"/><path d="M1621.37 94.1857 1679.69 94.1857 1679.69 358.422 1621.37 358.422Z" fill="#6FCEAE" transform="matrix(1 0 0 1.0002 4192.22 985)"/><path d="M1661.28 589.284 1643.73 772.151 1588.34 772.151 1570.62 589.284Z" fill="#FFC05A" transform="matrix(1 0 0 1.0002 4192.22 985)"/><path d="M1616.04 826.168C1635.3 826.168 1651.13 841.994 1651.13 861.262 1651.13 880.701 1635.3 896.356 1616.04 896.356 1596.6 896.356 1580.77 880.701 1580.77 861.262 1580.77 841.994 1596.6 826.168 1616.04 826.168Z" fill="#FFC05A" transform="matrix(1 0 0 1.0002 4192.22 985)"/><path d="M1445.21 1182.61 1621.37 1182.61 1621.37 1287.55 1445.21 1287.55Z" fill="#DDD8D6" transform="matrix(1 0 0 1.0002 4192.22 985)"/><path d="M1621.37 94.1857 1621.37 358.422 1445.21 358.422 1445.21 279.633 1386.9 279.633 1386.9 358.422 1328.23 358.422C1327.72 357.906 1327.03 357.218 1326.51 356.702 1303.63 334.338 1279.89 317.307 1256.33 304.405L1256.33 94.1857 1621.37 94.1857ZM1445.21 221.831 1445.21 157.32 1380.7 157.32 1380.7 221.831 1445.21 221.831Z" fill="#DDD8D6" transform="matrix(1 0 0 1.0002 4192.22 985)"/><path d="M1386.9 1182.61 1445.21 1182.61 1445.21 1287.55 1386.9 1287.55Z" fill="#6FCEAE" transform="matrix(1 0 0 1.0002 4192.22 985)"/><path d="M1386.9 279.633 1445.21 279.633 1445.21 358.422 1386.9 358.422Z" fill="#6FCEAE" transform="matrix(1 0 0 1.0002 4192.22 985)"/><path d="M1380.7 157.32 1445.21 157.32 1445.21 221.831 1380.7 221.831Z" fill="#6FCEAE" transform="matrix(1 0 0 1.0002 4192.22 985)"/><path d="M1402.55 823.759C1339.93 859.369 1316.88 981.338 1259.59 1071.82 1222.26 1130.83 1170.48 1176.59 1083.78 1176.59 1001.72 1176.59 950.803 1135.65 913.988 1081.11 901.086 1061.85 889.732 1041.03 879.583 1019.7 858.595 976.349 841.736 930.933 822.641 893.947L822.469 893.947C805.094 860.057 785.655 833.221 759.507 820.835L759.507 820.663C770.689 824.792 782.731 827.028 795.289 827.028 822.985 827.028 848.273 816.362 867.025 798.987 869.261 801.052 871.497 803.116 873.562 805.352 938.072 872.788 906.591 1008 1083.78 1008 1260.97 1008 1229.49 872.788 1294 805.352 1296.06 803.116 1298.3 801.052 1300.54 798.987 1319.29 816.362 1344.58 827.028 1372.27 827.028 1384.83 827.028 1396.87 824.792 1408.05 820.663L1408.05 820.835C1406.16 821.695 1404.27 822.727 1402.55 823.759Z" fill="#5D5560" transform="matrix(1 0 0 1.0002 4192.22 985)"/><path d="M1386.9 1182.61 1386.9 1287.55 904.871 1287.55 904.871 1081.11 913.988 1081.11C950.803 1135.65 1001.72 1176.59 1083.78 1176.59 1170.48 1176.59 1222.26 1130.83 1259.59 1071.82L1259.59 1127.22 1259.59 1182.61 1386.9 1182.61Z" fill="#DDD8D6" transform="matrix(1 0 0 1.0002 4192.22 985)"/><path d="M1242.05 561.932C1295.03 561.932 1298.99 640.033 1299.16 645.022 1290.22 653.451 1282.82 663.601 1277.31 674.783 1277.31 674.783 1264.58 654.139 1243.42 654.139 1232.24 654.139 1220.03 664.805 1210.91 674.955 1204.2 682.352 1194.91 686.308 1185.28 686.308 1181.32 686.308 1177.36 685.62 1173.41 684.244 1154.66 677.363 1145.54 655.859 1153.97 637.624 1168.76 605.283 1197.15 561.932 1242.05 561.932Z" fill="#71CC75" transform="matrix(1 0 0 1.0002 4192.22 985)"/><path d="M1256.33 94.1857 1256.33 304.405C1236.37 293.223 1216.59 285.138 1198.01 279.117L1198.01 94.1857 1256.33 94.1857Z" fill="#6FCEAE" transform="matrix(1 0 0 1.0002 4192.22 985)"/><path d="M1083.78 912.354C1174.27 912.354 1268.88 829.092 1294 805.352 1229.49 872.788 1260.97 1008 1083.78 1008 906.591 1008 938.072 872.788 873.562 805.352 898.678 829.092 993.294 912.354 1083.78 912.354Z" fill="#71CC75" transform="matrix(1 0 0 1.0002 4192.22 985)"/><path d="M1198.01 94.1857 1198.01 279.117C1145.2 262.086 1100.98 262.086 1083.78 262.086 1072.94 262.086 1051.78 262.086 1024.43 266.214L1024.43 210.133 954.071 210.133 954.071 189.49 904.871 189.49 904.871 94.1857 1198.01 94.1857Z" fill="#DDD8D6" transform="matrix(1 0 0 1.0002 4192.22 985)"/><path d="M1132.64 792.794C1136.94 814.986 1115.26 833.221 1094.1 825.136 1090.66 823.759 1087.22 823.243 1083.78 823.243 1080.34 823.243 1076.9 823.759 1073.46 825.136 1052.3 833.221 1030.62 814.986 1034.92 792.794 1044.39 744.282 1061.42 678.567 1083.78 678.567 1106.14 678.567 1123.18 744.282 1132.64 792.794Z" fill="#504256" transform="matrix(1 0 0 1.0002 4192.22 985)"/><path d="M1024.43 210.133 1024.43 266.214C1003.79 269.311 979.703 274.816 954.071 284.449L954.071 210.133 1024.43 210.133Z" fill="#6FCEAE" transform="matrix(1 0 0 1.0002 4192.22 985)"/><path d="M1013.59 637.624C1022.02 655.859 1012.9 677.363 994.154 684.244 990.197 685.62 986.241 686.308 982.284 686.308 972.65 686.308 963.361 682.352 956.652 674.955 947.534 664.805 935.32 654.139 924.138 654.139 902.979 654.139 890.248 674.783 890.248 674.783 884.744 663.601 877.346 653.451 868.401 645.022 868.573 640.721 872.357 561.932 925.514 561.932 970.414 561.932 998.799 605.283 1013.59 637.624Z" fill="#71CC75" transform="matrix(1 0 0 1.0002 4192.22 985)"/><path d="M954.071 210.133 954.071 284.449 954.071 284.621 953.727 284.621 195.597 284.621 195.597 189.49 410.288 189.49 468.606 189.49 534.837 189.49 593.155 189.49 846.553 189.49 904.871 189.49 954.071 189.49Z" fill="#20BAB6" transform="matrix(1 0 0 1.0002 4192.22 985)"/><path d="M195.597 284.621 953.727 284.621C917.257 298.384 877.862 320.747 841.048 356.702 767.764 428.437 761.399 532.343 763.635 585.5L647.516 380.441C631.001 351.197 587.306 351.197 570.791 380.441L335.8 795.719C310.684 840.102 344.057 893.947 396.526 893.947L609.154 893.947 822.469 893.947 822.641 893.947C841.736 930.933 858.595 976.349 879.583 1019.7L300.19 1019.7 195.597 1019.7 195.597 284.621Z" fill="#D6EAE8" transform="matrix(1 0 0 1.0002 4192.22 985)"/><path d="M913.988 1081.11 904.871 1081.11 846.553 1081.11 593.155 1081.11 534.837 1081.11 468.606 1081.11 410.288 1081.11 300.19 1081.11 300.19 1019.7 879.583 1019.7C889.732 1041.03 901.086 1061.85 913.988 1081.11Z" fill="#ACCCC6" transform="matrix(1 0 0 1.0002 4192.22 985)"/><path d="M846.553 1081.11 904.871 1081.11 904.871 1287.55 846.553 1287.55Z" fill="#6FCEAE" transform="matrix(1 0 0 1.0002 4192.22 985)"/><path d="M846.553 94.1857 904.871 94.1857 904.871 189.49 846.553 189.49Z" fill="#6FCEAE" transform="matrix(1 0 0 1.0002 4192.22 985)"/><path d="M593.155 1081.11 846.553 1081.11 846.553 1287.55 593.155 1287.55Z" fill="#DDD8D6" transform="matrix(1 0 0 1.0002 4192.22 985)"/><path d="M593.155 94.1857 846.553 94.1857 846.553 189.49 593.155 189.49Z" fill="#DDD8D6" transform="matrix(1 0 0 1.0002 4192.22 985)"/><path d="M822.469 893.947 609.154 893.947 396.526 893.947C344.057 893.947 310.684 840.102 335.8 795.719L570.791 380.441C587.306 351.197 631.001 351.197 647.516 380.441L763.635 585.5C764.668 606.487 766.904 619.733 766.904 619.733L766.904 619.905C722.349 632.119 689.663 672.89 689.663 721.402 689.663 767.162 718.736 806.04 759.507 820.663L759.507 820.835C785.655 833.221 805.094 860.057 822.469 893.947ZM636.85 708.5 654.569 525.806 563.91 525.806 581.457 708.5 636.85 708.5ZM644.247 797.783C644.247 778.344 628.593 762.689 609.154 762.689 589.886 762.689 574.06 778.344 574.06 797.783 574.06 817.222 589.886 832.877 609.154 832.877 628.593 832.877 644.247 817.222 644.247 797.783Z" fill="#D14B62" transform="matrix(1 0 0 1.0002 4192.22 985)"/><path d="M654.569 525.806 636.85 708.5 581.457 708.5 563.91 525.806Z" fill="#FFC05A" transform="matrix(1 0 0 1.0002 4192.22 985)"/><path d="M644.247 797.783C644.247 817.165 628.535 832.877 609.154 832.877 589.772 832.877 574.06 817.165 574.06 797.783 574.06 778.401 589.772 762.689 609.154 762.689 628.535 762.689 644.247 778.401 644.247 797.783Z" fill="#FFC05A" transform="matrix(1 0 0 1.0002 4192.22 985)"/><path d="M534.837 1081.11 593.155 1081.11 593.155 1287.55 534.837 1287.55Z" fill="#6FCEAE" transform="matrix(1 0 0 1.0002 4192.22 985)"/><path d="M534.837 94.1857 593.155 94.1857 593.155 189.49 534.837 189.49Z" fill="#6FCEAE" transform="matrix(1 0 0 1.0002 4192.22 985)"/><path d="M468.606 1081.11 534.837 1081.11 534.837 1287.55 468.606 1287.55Z" fill="#DDD8D6" transform="matrix(1 0 0 1.0002 4192.22 985)"/><path d="M468.606 94.1857 534.837 94.1857 534.837 189.49 468.606 189.49Z" fill="#DDD8D6" transform="matrix(1 0 0 1.0002 4192.22 985)"/><path d="M410.288 1081.11 468.606 1081.11 468.606 1287.55 410.288 1287.55Z" fill="#6FCEAE" transform="matrix(1 0 0 1.0002 4192.22 985)"/><path d="M410.288 94.1857 468.606 94.1857 468.606 189.49 410.288 189.49Z" fill="#6FCEAE" transform="matrix(1 0 0 1.0002 4192.22 985)"/><path d="M410.288 1081.11 410.288 1287.55 191.984 1287.55C140.203 1287.55 98.2284 1245.57 98.2284 1193.79L98.2284 187.769C98.2284 135.989 140.203 94.1857 191.984 94.1857L410.288 94.1857 410.288 189.49 195.597 189.49 195.597 284.621 195.597 1019.7 300.19 1019.7 300.19 1081.11 410.288 1081.11Z" fill="#DDD8D6" transform="matrix(1 0 0 1.0002 4192.22 985)"/><path d="M1386.9 455.446C1375.71 421.556 1357.31 387.495 1328.23 358.422 1327.72 357.906 1327.03 357.218 1326.51 356.702 1303.63 334.338 1279.89 317.307 1256.33 304.405 1236.37 293.223 1216.59 285.138 1198.01 279.117 1145.2 262.086 1100.98 262.086 1083.78 262.086 1072.94 262.086 1051.78 262.086 1024.43 266.214 1003.79 269.311 979.703 274.816 954.071 284.449 954.071 284.449 1360.01 279.805 1299.16 645.022 1318.26 626.959 1344.06 615.777 1372.27 615.777 1382.08 615.777 1391.54 617.153 1400.66 619.905L1400.66 619.733C1400.66 619.733 1414.76 538.536 1386.9 455.446Z" fill="#5D5560" transform="matrix(1 0 0 1.0002 4192.22 985)"/><path d="M1018.08 789.474C1014.83 806.109 1020.63 822.555 1033.6 833.462 1042.1 840.618 1052.42 844.317 1062.98 844.317 1068.54 844.317 1074.16 843.285 1079.62 841.203 1082.28 840.171 1085.23 840.171 1087.89 841.203 1103.75 847.276 1120.94 844.351 1133.93 833.462 1146.9 822.555 1152.7 806.109 1149.44 789.457 1127.37 676.537 1103.86 661.313 1083.75 661.313 1063.64 661.313 1040.15 676.537 1018.08 789.474ZM1115.71 796.046C1116.88 802.101 1113.39 805.8 1111.8 807.124 1110.24 808.449 1105.94 811.27 1100.21 809.068 1100.21 809.068 1100.21 809.068 1100.21 809.068 1094.91 807.038 1089.35 806.04 1083.78 806.04 1078.22 806.04 1072.65 807.055 1067.35 809.068 1061.59 811.253 1057.32 808.449 1055.76 807.124 1054.19 805.817 1050.68 802.101 1051.85 796.063 1065.82 724.619 1078.84 703.219 1083.78 697.336 1088.72 703.219 1101.74 724.619 1115.71 796.046Z" fill="#3A322B" transform="matrix(1 0 0 1.0002 4192.22 985)"/><path d="M1990.61 0 176.949 0C79.374 0 0 79.374 0 176.949L0 1202.58C0 1300.16 79.374 1379.53 176.949 1379.53L814.281 1379.53 814.281 1519.91 684.812 1519.91C679.84 1519.91 675.109 1522.06 671.841 1525.81L583.9 1626.77C582.73 1628.11 581.835 1629.61 581.13 1631.19 581.01 1631.49 580.975 1631.8 580.872 1632.09 580.253 1633.74 579.926 1635.46 579.84 1637.21 579.823 1637.51 579.668 1637.76 579.668 1638.07L579.668 1724.6C579.668 1734.1 587.375 1741.81 596.871 1741.81L1570.67 1741.81C1580.17 1741.81 1587.88 1734.1 1587.88 1724.6L1587.88 1638.07C1587.88 1637.76 1587.72 1637.52 1587.7 1637.21 1587.62 1635.46 1587.29 1633.74 1586.67 1632.09 1586.57 1631.8 1586.53 1631.49 1586.41 1631.19 1585.73 1629.61 1584.83 1628.11 1583.64 1626.77L1495.7 1525.81C1492.43 1522.06 1487.7 1519.91 1482.73 1519.91L1353.26 1519.91 1353.26 1379.53 1990.6 1379.53C2088.15 1379.53 2167.54 1300.16 2167.54 1202.58L2167.54 176.949C2167.56 79.374 2088.19 0 1990.61 0ZM1553.49 1707.4 614.074 1707.4 614.074 1655.28 1553.47 1655.28 1553.47 1707.4ZM1532.88 1620.87 634.683 1620.87 692.656 1554.31 831.501 1554.31 1336.1 1554.31 1474.94 1554.31 1532.88 1620.87ZM1318.88 1519.91 848.686 1519.91 848.686 1379.53 1318.88 1379.53 1318.88 1519.91ZM2133.16 1202.58C2133.16 1281.18 2069.21 1345.13 1990.61 1345.13L1336.08 1345.13 831.483 1345.13 176.949 1345.13C98.3488 1345.13 34.4057 1281.18 34.4057 1202.58L34.4057 176.949C34.4057 98.3488 98.3488 34.4057 176.949 34.4057L1990.63 34.4057C2069.21 34.4057 2133.16 98.3488 2133.16 176.949L2133.16 1202.58Z" fill="#3A322B" transform="matrix(1 0 0 1.0002 4192.22 985)"/><path d="M1975.63 76.9312 1834.34 76.9312 1776.02 76.9312 1679.62 76.9312 1621.3 76.9312 1256.39 76.9312 1198.08 76.9312 904.888 76.9312 846.57 76.9312 593.086 76.9312 534.768 76.9312 468.641 76.9312 410.323 76.9312 191.932 76.9312C130.811 76.9312 81.0771 126.665 81.0771 187.769L81.0771 1193.83C81.0771 1254.95 130.811 1304.68 191.932 1304.68L410.323 1304.68 468.641 1304.68 534.768 1304.68 593.086 1304.68 846.57 1304.68 904.888 1304.68 1386.9 1304.68 1445.21 1304.68 1621.32 1304.68 1679.64 1304.68 1776.04 1304.68 1834.36 1304.68 1975.65 1304.68C2036.77 1304.68 2086.5 1254.95 2086.5 1193.83L2086.5 1182.54 2086.5 430.003 2086.5 187.769C2086.48 126.648 2036.75 76.9312 1975.63 76.9312ZM2052.08 187.769 2052.08 412.8 1989.56 412.8 1989.56 358.473C1989.56 348.977 1981.86 341.271 1972.36 341.271L1851.54 341.271 1851.54 111.337 1975.63 111.337C2017.78 111.337 2052.08 145.622 2052.08 187.769ZM2052.08 1165.34 1276.78 1165.34 1276.78 1144.47 1972.34 1144.47C1981.84 1144.47 1989.55 1136.77 1989.55 1127.27L1989.55 447.206 2052.06 447.206 2052.06 1165.34ZM1758.82 1199.75 1758.82 1270.28 1696.82 1270.28 1696.82 1199.75 1758.82 1199.75ZM1604.12 1199.75 1604.12 1270.28 1462.42 1270.28 1462.42 1199.75 1604.12 1199.75ZM829.367 1098.32 829.367 1270.28 610.289 1270.28 610.289 1098.32 829.367 1098.32ZM317.445 1063.91 317.445 1036.83 868.951 1036.83C873.527 1045.95 878.258 1055.02 883.333 1063.91L317.445 1063.91ZM517.566 1098.32 517.566 1270.28 485.843 1270.28 485.843 1098.32 517.566 1098.32ZM936.903 206.779 936.903 267.367 212.851 267.367 212.851 206.779 936.903 206.779ZM485.843 172.373 485.843 111.337 517.566 111.337 517.566 172.373 485.843 172.373ZM610.289 172.373 610.289 111.337 829.367 111.337 829.367 172.373 610.289 172.373ZM1696.82 341.271 1696.82 111.337 1758.82 111.337 1758.82 341.271 1696.82 341.271ZM1955.14 375.676 1955.14 438.226 1398.95 438.226C1390.78 416.894 1379.69 395.718 1365.05 375.676L1955.14 375.676ZM895.358 1012.96C895.358 1012.94 895.341 1012.94 895.341 1012.92 886.034 993.569 877.381 973.545 868.814 953.624 858.888 930.555 849.116 908.019 838.537 887.444 838.451 887.238 838.347 887.066 838.244 886.86 829.918 870.74 821.041 855.946 811.15 843.13 830.83 840.549 849.288 833.118 865.287 822.005 880.839 840.532 890.145 864.668 899.813 890.059 923.949 953.417 951.319 1025.22 1083.78 1025.22 1216.24 1025.22 1243.61 953.417 1267.73 890.059 1277.4 864.668 1286.71 840.532 1302.26 822.005 1318.26 833.118 1336.73 840.549 1356.39 843.13 1333.81 872.426 1316.55 912.217 1298.73 953.624 1255.21 1054.76 1210.19 1159.35 1083.78 1159.35 982.284 1159.35 933.29 1091.88 895.358 1012.96ZM746.656 590.42C747.052 597.404 747.568 603.115 748.084 608.018 703.718 626.58 672.46 670.396 672.46 721.42 672.46 773.905 705.61 818.685 752.023 836.249 752.109 836.283 752.161 836.369 752.23 836.404 767.609 843.663 780.701 858.182 792.691 876.71L396.457 876.71C377.311 876.71 360.349 867.214 351.059 851.284 342.372 836.386 342.268 819.235 350.749 804.234L585.792 388.854C590.471 380.596 599.21 375.659 609.188 375.659 619.148 375.659 627.888 380.596 632.567 388.854L746.656 590.42ZM929.97 872.598C972.633 901.482 1028.39 929.643 1083.78 929.643 1139.17 929.643 1194.93 901.499 1237.59 872.598 1236.92 874.336 1236.25 876.091 1235.6 877.811 1212.49 938.451 1192.55 990.816 1083.8 990.816 975.041 990.816 955.103 938.451 932 877.811 931.312 876.073 930.641 874.336 929.97 872.598ZM1495.1 721.42C1495.1 680.322 1474.75 643.972 1443.66 621.643 1482.97 566.009 1547.33 531.775 1615.95 531.775 1732.35 531.775 1827.05 626.46 1827.05 742.871 1827.05 859.266 1732.36 953.951 1615.95 953.951 1534 953.951 1459.16 905.714 1424.72 832.326 1466.25 812.595 1495.1 770.362 1495.1 721.42ZM1276.78 1076.26C1298.35 1041.2 1315.06 1002.72 1330.33 967.214 1350.6 920.113 1370.07 875.488 1395.62 850.854 1436.49 933.927 1522.14 988.339 1615.95 988.339 1751.32 988.339 1861.45 878.224 1861.45 742.854 1861.45 607.485 1751.32 497.352 1615.95 497.352 1539.19 497.352 1466.73 533.925 1420.63 594.29 1422.51 566.37 1422.38 521.161 1409.95 472.614L1955.14 472.614 1955.14 1110.05 1276.78 1110.05 1276.78 1076.26ZM1427.99 341.271 1404.08 341.271 1404.08 296.87 1427.99 296.87 1427.99 341.271ZM1462.4 341.271 1462.4 279.667C1462.4 270.171 1454.69 262.464 1445.2 262.464L1386.88 262.464C1377.38 262.464 1369.68 270.171 1369.68 279.667L1369.68 341.271 1334.87 341.271C1315.85 323.173 1295.36 307.794 1273.6 294.771L1273.6 111.337 1604.1 111.337 1604.1 341.271 1462.4 341.271ZM1314.44 369.07C1390.18 443.043 1389.17 556.358 1385.64 599.314 1381.24 598.832 1376.76 598.539 1372.24 598.539 1350.61 598.539 1330.16 604.285 1312.2 614.349 1304.39 581.423 1284.37 544.746 1242.1 544.746 1199.95 544.746 1164.07 574.387 1138.37 630.468 1132.4 643.49 1132.14 658.56 1137.64 671.789 1143.17 685.035 1154.09 695.478 1167.58 700.415 1173.41 702.565 1179.43 703.597 1185.38 703.597 1199.71 703.597 1213.68 697.576 1223.73 686.412 1234.86 674.043 1241.72 671.342 1243.42 671.342 1254.36 671.342 1262.74 683.883 1262.74 683.883 1262.98 684.261 1263.36 684.468 1263.64 684.829 1264.32 685.792 1265.15 686.584 1266.05 687.392 1266.91 688.166 1267.73 688.872 1268.71 689.457 1269.11 689.697 1269.37 690.076 1269.8 690.282 1270.38 690.575 1271 690.54 1271.6 690.764 1272.72 691.177 1273.8 691.487 1274.97 691.659 1276.06 691.813 1277.09 691.848 1278.17 691.796 1279.29 691.745 1280.34 691.624 1281.44 691.349 1282.56 691.074 1283.57 690.678 1284.62 690.179 1285.21 689.904 1285.86 689.87 1286.43 689.508 1286.84 689.25 1287.08 688.837 1287.46 688.545 1288.36 687.891 1289.1 687.134 1289.85 686.308 1290.7 685.397 1291.44 684.502 1292.06 683.453 1292.28 683.074 1292.64 682.833 1292.83 682.438 1307.85 651.903 1338.3 632.945 1372.27 632.945 1421.04 632.945 1460.75 672.632 1460.75 721.42 1460.75 770.207 1421.06 809.877 1372.27 809.877 1338.06 809.877 1306.58 789.835 1292.07 758.819 1288.05 750.217 1277.79 746.519 1269.21 750.527 1260.61 754.552 1256.89 764.788 1260.92 773.389 1265.12 782.352 1270.54 790.489 1276.59 798.024 1246.31 825.6 1162.11 895.237 1083.83 895.237 1005.73 895.237 921.403 825.583 891.074 798.024 897.13 790.489 902.549 782.369 906.746 773.407 910.772 764.805 907.056 754.569 898.454 750.544 889.87 746.519 879.617 750.217 875.592 758.836 861.09 789.853 829.608 809.894 795.392 809.894 746.622 809.894 706.917 770.207 706.917 721.437 706.917 672.667 746.605 632.962 795.392 632.962 829.385 632.962 859.817 651.937 874.835 682.455 875.024 682.851 875.385 683.092 875.609 683.47 876.211 684.502 876.968 685.397 877.794 686.308 878.551 687.134 879.307 687.908 880.219 688.562 880.598 688.837 880.821 689.267 881.234 689.525 881.802 689.87 882.438 689.904 883.023 690.179 884.073 690.678 885.105 691.091 886.24 691.366 887.324 691.624 888.373 691.762 889.474 691.813 890.558 691.865 891.607 691.831 892.709 691.676 893.878 691.504 894.962 691.194 896.063 690.781 896.665 690.558 897.284 690.592 897.887 690.299 898.317 690.093 898.575 689.697 898.97 689.457 899.934 688.889 900.777 688.184 901.62 687.409 902.514 686.601 903.34 685.792 904.045 684.829 904.303 684.468 904.699 684.261 904.923 683.883 904.991 683.762 913.335 671.342 924.241 671.342 925.944 671.342 932.791 674.06 943.939 686.429 953.985 697.576 967.937 703.597 982.284 703.597 988.236 703.597 994.257 702.565 1000.09 700.415 1013.59 695.478 1024.5 685.035 1030.02 671.789 1035.54 658.56 1035.29 643.49 1029.3 630.468 1003.58 574.404 967.713 544.763 925.566 544.763 883.299 544.763 863.274 581.44 855.464 614.366 837.504 604.302 817.033 598.557 795.426 598.557 790.885 598.557 786.429 598.849 782.025 599.331 778.499 556.375 777.466 443.06 853.228 369.088 914.229 309.531 991.831 279.323 1083.88 279.323 1175.94 279.323 1253.44 309.514 1314.44 369.07ZM1243.41 636.936C1228.99 636.936 1214.18 645.589 1198.15 663.394 1193.38 668.676 1185.98 670.499 1179.39 668.108 1174.8 666.422 1171.26 663.033 1169.38 658.543 1167.52 654.087 1167.61 649.202 1169.62 644.815 1183.35 614.865 1207.07 579.169 1242.08 579.169 1271.95 579.169 1279.5 621.505 1281.34 638.622 1278.84 641.375 1276.66 644.437 1274.41 647.43 1266.11 641.512 1255.59 636.936 1243.41 636.936ZM893.156 647.43C890.902 644.437 888.735 641.392 886.257 638.639 888.167 621.574 895.874 579.169 925.497 579.169 960.505 579.169 984.228 614.865 997.956 644.815 999.968 649.219 1000.05 654.105 998.197 658.56 996.321 663.05 992.778 666.439 988.184 668.125 981.561 670.533 974.198 668.693 969.433 663.411 953.4 645.606 938.589 636.936 924.173 636.936 911.976 636.936 901.448 641.512 893.156 647.43ZM1007.21 251.97C994.945 254.293 982.989 257.252 971.308 260.709L971.308 227.405 1007.21 227.405 1007.21 251.97ZM1083.78 244.9C1069.38 244.9 1055.38 245.76 1041.62 247.119L1041.62 210.219C1041.62 200.723 1033.91 193.016 1024.41 193.016L971.308 193.016 971.308 189.576C971.308 180.08 963.602 172.373 954.106 172.373L922.091 172.373 922.091 111.337 1180.87 111.337 1180.87 256.667C1150.3 249.046 1118.01 244.9 1083.78 244.9ZM212.851 301.773 882.146 301.773C863.412 314.056 845.693 328.248 829.092 344.453 774.164 398.092 754.466 467.505 748.411 523.655L662.551 371.909C651.696 352.71 631.758 341.253 609.222 341.253 586.687 341.253 566.749 352.71 555.893 371.909L320.833 787.307C306.366 812.87 306.555 843.285 321.35 868.642 336.867 895.255 364.959 911.133 396.475 911.133L609.205 911.133 811.907 911.133C820.508 928.645 828.8 947.689 837.212 967.231 842.149 978.723 847.276 990.541 852.609 1002.45L212.834 1002.45 212.834 301.773ZM1083.78 1193.76C1155.6 1193.76 1205.23 1164.46 1242.37 1122.97L1242.37 1127.27 1242.37 1182.54C1242.37 1192.04 1250.08 1199.75 1259.58 1199.75L1369.68 1199.75 1369.68 1270.28 922.091 1270.28 922.091 1119.63C959.559 1162.95 1010.01 1193.76 1083.78 1193.76ZM1817.12 111.337 1817.12 341.271 1793.21 341.271 1793.21 111.337 1817.12 111.337ZM1662.42 111.337 1662.42 341.271 1638.5 341.271 1638.5 111.337 1662.42 111.337ZM1239.19 111.337 1239.19 276.863C1231.36 273.336 1223.42 270.016 1215.28 267.075L1215.28 111.337 1239.19 111.337ZM887.685 111.337 887.685 172.373 863.773 172.373 863.773 111.337 887.685 111.337ZM575.883 111.337 575.883 172.373 551.971 172.373 551.971 111.337 575.883 111.337ZM451.438 111.337 451.438 172.373 427.526 172.373 427.526 111.337 451.438 111.337ZM115.483 1193.83 115.483 187.769C115.483 145.622 149.785 111.337 191.932 111.337L393.12 111.337 393.12 172.373 195.631 172.373C186.135 172.373 178.428 180.08 178.428 189.576L178.428 1019.63C178.428 1029.13 186.135 1036.83 195.631 1036.83L283.022 1036.83 283.022 1081.11C283.022 1090.61 290.728 1098.32 300.224 1098.32L393.12 1098.32 393.12 1270.28 191.932 1270.28C149.785 1270.28 115.483 1235.97 115.483 1193.83ZM427.543 1270.28 427.543 1098.32 451.455 1098.32 451.455 1270.28 427.543 1270.28ZM551.971 1270.28 551.971 1098.32 575.883 1098.32 575.883 1270.28 551.971 1270.28ZM863.773 1270.28 863.773 1098.32 887.685 1098.32 887.685 1270.28 863.773 1270.28ZM1404.1 1270.28 1404.1 1199.75 1428.01 1199.75 1428.01 1270.28 1404.1 1270.28ZM1638.52 1270.28 1638.52 1199.75 1662.43 1199.75 1662.43 1270.28 1638.52 1270.28ZM1793.23 1270.28 1793.23 1199.75 1817.14 1199.75 1817.14 1270.28 1793.23 1270.28ZM1975.63 1270.28 1851.54 1270.28 1851.54 1199.75 2051.48 1199.75C2048.4 1239.09 2015.75 1270.28 1975.63 1270.28Z" fill="#3A322B" transform="matrix(1 0 0 1.0002 4192.22 985)"/><path d="M609.205 745.452C580.356 745.452 556.891 768.917 556.891 797.766 556.891 826.615 580.356 850.08 609.205 850.08 638.054 850.08 661.536 826.615 661.536 797.766 661.536 768.917 638.054 745.452 609.205 745.452ZM609.205 815.674C599.331 815.674 591.297 807.64 591.297 797.766 591.297 787.891 599.331 779.858 609.205 779.858 619.08 779.858 627.131 787.891 627.131 797.766 627.131 807.64 619.08 815.674 609.205 815.674Z" fill="#3A322B" transform="matrix(1 0 0 1.0002 4192.22 985)"/><path d="M551.197 514.159C547.946 517.738 546.346 522.537 546.81 527.371L564.392 710.22C565.235 719.046 572.649 725.772 581.526 725.772L636.902 725.772C645.761 725.772 653.176 719.028 654.036 710.22L671.617 527.371C672.082 522.537 670.482 517.738 667.23 514.159 663.979 510.581 659.352 508.517 654.5 508.517L563.945 508.517C559.093 508.534 554.448 510.581 551.197 514.159ZM635.56 542.94 621.282 691.383 597.146 691.383 582.868 542.94 635.56 542.94Z" fill="#3A322B" transform="matrix(1 0 0 1.0002 4192.22 985)"/><path d="M1615.97 809.017C1587.12 809.017 1563.65 832.481 1563.65 861.33 1563.65 890.18 1587.12 913.644 1615.97 913.644 1644.82 913.644 1668.3 890.18 1668.3 861.33 1668.3 832.481 1644.82 809.017 1615.97 809.017ZM1615.97 879.239C1606.09 879.239 1598.06 871.205 1598.06 861.33 1598.06 851.456 1606.09 843.422 1615.97 843.422 1625.84 843.422 1633.89 851.456 1633.89 861.33 1633.89 871.205 1625.84 879.239 1615.97 879.239Z" fill="#3A322B" transform="matrix(1 0 0 1.0002 4192.22 985)"/><path d="M1588.27 789.354 1643.67 789.354C1652.52 789.354 1659.94 782.61 1660.8 773.802L1678.38 590.953C1678.85 586.119 1677.25 581.319 1673.99 577.741 1670.74 574.163 1666.12 572.099 1661.26 572.099L1570.71 572.099C1565.86 572.099 1561.23 574.146 1557.98 577.741 1554.73 581.337 1553.13 586.119 1553.59 590.953L1571.17 773.802C1571.98 782.627 1579.41 789.354 1588.27 789.354ZM1642.31 606.504 1628.03 754.948 1603.89 754.948 1589.61 606.504 1642.31 606.504Z" fill="#3A322B" transform="matrix(1 0 0 1.0002 4192.22 985)"/><path d="M1445.2 140.203 1380.77 140.203C1371.28 140.203 1363.57 147.91 1363.57 157.406L1363.57 221.831C1363.57 231.327 1371.28 239.034 1380.77 239.034L1445.2 239.034C1454.69 239.034 1462.4 231.327 1462.4 221.831L1462.4 157.406C1462.4 147.91 1454.71 140.203 1445.2 140.203ZM1427.99 204.628 1397.97 204.628 1397.97 174.609 1427.99 174.609 1427.99 204.628Z" fill="#3A322B" transform="matrix(1 0 0 1.0002 4192.22 985)"/></g></svg>