<svg width="2080" height="1644" xmlns="http://www.w3.org/2000/svg" xmlns:xlink="http://www.w3.org/1999/xlink" xml:space="preserve" overflow="hidden"><defs><clipPath id="clip0"><path d="M4054.05 1239.55 5981.01 1034.95 6133.69 2472.95 4206.73 2677.55 4054.05 1239.55Z" fill-rule="evenodd" clip-rule="evenodd"/></clipPath><clipPath id="clip1"><path d="M4054.05 1239.55 5981.01 1034.95 6133.69 2472.95 4206.73 2677.55Z" fill-rule="evenodd" clip-rule="evenodd"/></clipPath><clipPath id="clip2"><path d="M4054.05 1239.55 5981.01 1034.95 6133.69 2472.95 4206.73 2677.55Z" fill-rule="evenodd" clip-rule="evenodd"/></clipPath></defs><g transform="translate(-4054 -1034)"><g clip-path="url(#clip0)"><g clip-path="url(#clip1)"><g clip-path="url(#clip2)"><path d="M1792.69 141.204 1724.05 141.204 1724.05 99.8991C1724.05 53.2202 1686.28 15.2935 1639.45 15.2935L1388.85 15.2935C1342.02 15.2935 1304.25 53.2202 1304.25 99.8991L1304.25 141.204 347.943 141.204C291.129 141.204 242.915 178.67 226.792 230.262L115.93 230.262C52.9745 230.262 6.29552 288.765 20.2685 350.184L85.5269 636.247C77.0817 653.291 72.3217 672.638 72.3217 693.06L72.3217 752.023 15.3549 752.023 15.3549 1060.96C15.3549 1107.95 53.4351 1146.03 100.575 1146.03L221.111 1146.03 221.111 1294.97C221.111 1364.99 277.924 1421.8 347.943 1421.8L1792.69 1421.8C1862.55 1421.8 1919.37 1364.99 1919.37 1294.97L1919.37 1205.15 1919.37 1189.64 1919.37 364.004 1919.37 270.185 1919.37 267.882C1919.37 198.017 1862.55 141.204 1792.69 141.204Z" fill="#FFC05A" transform="matrix(0.994411 -0.105582 0.105613 0.994702 4057.55 1243.42)"/><path d="M1919.37 1189.64 1919.37 1205.15C1919.37 1205.76 1919.21 1206.38 1919.06 1206.99L1917.37 1214.21C1912 1236.93 1889.27 1251.21 1866.39 1245.84L1754.45 1219.89C1731.57 1214.51 1717.45 1191.79 1722.67 1168.91L1724.36 1161.69C1729.73 1138.97 1752.46 1124.69 1775.34 1130.06L1887.27 1156.01C1904.32 1160 1916.45 1173.52 1919.37 1189.64Z" fill="#ABA9A0" transform="matrix(0.994411 -0.105582 0.105613 0.994702 4057.55 1243.42)"/><path d="M1692.57 1110.71C1715.45 1116.09 1729.73 1138.97 1724.36 1161.69L1722.67 1168.91C1717.45 1191.79 1694.57 1205.91 1671.69 1200.69L1559.75 1174.59C1536.87 1169.22 1522.75 1146.49 1528.12 1123.61L1529.66 1116.4C1535.03 1093.67 1557.76 1079.39 1580.64 1084.76L1692.57 1110.71Z" fill="#ABA9A0" transform="matrix(0.994411 -0.105582 0.105613 0.994702 4057.55 1243.42)"/><path d="M1498.03 1065.57C1520.75 1070.79 1535.03 1093.67 1529.66 1116.4L1528.12 1123.61C1522.75 1146.49 1499.87 1160.62 1477.14 1155.4L1365.05 1129.29C1342.33 1123.92 1328.05 1101.19 1333.42 1078.31L1335.11 1071.25C1340.33 1048.37 1363.21 1034.09 1386.09 1039.47L1498.03 1065.57Z" fill="#ABA9A0" transform="matrix(0.994411 -0.105582 0.105613 0.994702 4057.55 1243.42)"/><path d="M1108.78 974.976C1131.5 980.197 1145.78 1003.08 1140.41 1025.95L1138.72 1033.02C1133.5 1055.9 1110.62 1070.18 1087.74 1064.8L975.805 1038.7C953.08 1033.48 938.8 1010.6 944.174 987.874L945.863 980.658C951.084 957.779 973.963 943.652 996.688 948.873L1108.78 974.976Z" fill="#ABA9A0" transform="matrix(0.994411 -0.105582 0.105613 0.994702 4057.55 1243.42)"/><path d="M1333.42 1078.31C1328.05 1101.19 1305.32 1115.32 1282.44 1110.1L1170.51 1084C1147.63 1078.78 1133.5 1055.9 1138.72 1033.02L1140.41 1025.95C1145.78 1003.08 1168.51 988.949 1191.39 994.17L1303.33 1020.27C1326.2 1025.49 1340.33 1048.37 1335.11 1071.25L1333.42 1078.31Z" fill="#ABA9A0" transform="matrix(0.994411 -0.105582 0.105613 0.994702 4057.55 1243.42)"/><path d="M914.079 929.679C936.957 935.053 951.084 957.779 945.863 980.658L944.174 987.874C938.8 1010.6 916.075 1024.88 893.196 1019.51L781.259 993.402C758.38 988.182 744.253 965.303 749.474 942.577L751.163 935.361C756.537 912.482 779.262 898.355 802.141 903.576L914.079 929.679Z" fill="#ABA9A0" transform="matrix(0.994411 -0.105582 0.105613 0.994702 4057.55 1243.42)"/><path d="M749.474 942.577C744.253 965.303 721.374 979.583 698.496 974.208L586.558 948.259C563.679 942.884 549.553 920.006 554.927 897.28L555.695 893.595 556.462 890.064C561.837 867.185 584.716 853.058 607.441 858.432L719.378 884.382C742.257 889.756 756.537 912.482 751.163 935.361L749.474 942.577Z" fill="#ABA9A0" transform="matrix(0.994411 -0.105582 0.105613 0.994702 4057.55 1243.42)"/><path d="M521.146 838.317C546.021 843.999 561.53 868.874 555.695 893.595 550.628 914.938 531.741 929.372 510.858 929.372 507.327 929.372 503.795 928.911 500.263 928.144L409.516 906.954 409.516 812.521 521.146 838.317Z" fill="#ABA9A0" transform="matrix(0.994411 -0.105582 0.105613 0.994702 4057.55 1243.42)"/><path d="M1919.37 270.185 1919.37 364.004 1879.9 371.374C1855.03 375.981 1830.92 359.551 1826.16 334.676 1826.16 334.522 1826.16 334.522 1826.16 334.369L1825.55 330.684C1825.55 329.148 1825.39 327.459 1825.39 325.924 1825.39 304.12 1840.9 284.772 1863.17 280.627L1919.37 270.185Z" fill="#ABA9A0" transform="matrix(0.994411 -0.105582 0.105613 0.994702 4057.55 1243.42)"/><path d="M1826.16 334.676 1826.78 337.9C1831.07 361.086 1815.87 383.197 1792.84 387.343L1679.68 408.226C1656.64 412.525 1634.53 397.324 1630.23 374.292L1629 367.075C1624.7 343.889 1639.91 321.778 1662.94 317.632L1776.1 296.749C1799.14 292.45 1821.25 307.651 1825.55 330.684L1826.16 334.369C1826.16 334.522 1826.16 334.522 1826.16 334.676Z" fill="#ABA9A0" transform="matrix(0.994411 -0.105582 0.105613 0.994702 4057.55 1243.42)"/><path d="M1630.23 374.292C1634.53 397.324 1619.33 419.435 1596.3 423.734L1483.29 444.617C1460.1 448.763 1437.99 433.562 1433.84 410.529L1432.46 403.312C1428.16 380.28 1443.36 358.169 1466.55 353.87L1579.56 332.987C1602.59 328.688 1624.7 343.889 1629 367.075L1630.23 374.292Z" fill="#ABA9A0" transform="matrix(0.994411 -0.105582 0.105613 0.994702 4057.55 1243.42)"/><path d="M1433.84 410.529C1437.99 433.562 1422.79 455.673 1399.76 459.972L1286.74 480.855C1263.71 485.001 1241.6 469.799 1237.3 446.767L1235.92 439.55C1231.62 416.518 1246.97 394.407 1270.01 390.107L1383.02 369.224C1406.05 364.925 1428.16 380.28 1432.46 403.312L1433.84 410.529Z" fill="#ABA9A0" transform="matrix(0.994411 -0.105582 0.105613 0.994702 4057.55 1243.42)"/><path d="M1237.3 446.767C1241.6 469.799 1226.24 491.91 1203.21 496.21L1090.2 517.092C1067.17 521.392 1045.06 506.037 1040.76 483.004L1039.37 475.788C1035.23 452.755 1050.43 430.644 1073.46 426.345L1186.47 405.462C1209.51 401.316 1231.62 416.518 1235.92 439.55L1237.3 446.767Z" fill="#ABA9A0" transform="matrix(0.994411 -0.105582 0.105613 0.994702 4057.55 1243.42)"/><path d="M1040.76 483.004C1045.06 506.037 1029.7 528.302 1006.67 532.447L893.657 553.33C870.624 557.629 848.513 542.428 844.214 519.396L842.832 512.025C838.686 488.993 853.887 466.882 876.92 462.582L989.932 441.853C1012.96 437.554 1035.23 452.755 1039.37 475.788L1040.76 483.004Z" fill="#ABA9A0" transform="matrix(0.994411 -0.105582 0.105613 0.994702 4057.55 1243.42)"/><path d="M844.214 519.396C848.513 542.428 833.312 564.539 810.279 568.685L697.114 589.568C674.081 593.867 651.97 578.666 647.671 555.633L646.442 548.416C642.143 525.384 657.344 503.119 680.377 498.974L793.542 478.091C816.575 473.792 838.686 488.993 842.832 512.025L844.214 519.396Z" fill="#ABA9A0" transform="matrix(0.994411 -0.105582 0.105613 0.994702 4057.55 1243.42)"/><path d="M647.671 555.633C651.97 578.666 636.769 600.777 613.736 605.076L500.57 625.959C477.538 630.105 455.427 614.903 451.281 591.871L449.899 584.654C445.6 561.622 460.801 539.511 483.834 535.211L596.999 514.328C620.032 510.029 642.143 525.384 646.442 548.416L647.671 555.633Z" fill="#ABA9A0" transform="matrix(0.994411 -0.105582 0.105613 0.994702 4057.55 1243.42)"/><path d="M451.281 591.871C455.427 614.903 440.226 637.014 417.193 641.314L346.561 654.365 304.181 662.196C295.429 663.885 286.676 662.657 278.999 659.125 270.093 655.133 262.723 648.07 258.423 639.011 258.423 639.011 258.27 639.011 258.27 638.857 256.581 635.632 255.506 631.947 254.738 628.109L253.356 620.892C249.978 602.466 259.038 584.654 274.7 576.055 278.538 573.906 282.838 572.37 287.444 571.449L400.456 550.566C423.489 546.42 445.6 561.622 449.899 584.654L451.281 591.871Z" fill="#ABA9A0" transform="matrix(0.994411 -0.105582 0.105613 0.994702 4057.55 1243.42)"/><path d="M352.549 693.06 352.549 752.023 291.283 752.023 291.283 699.662C291.283 684.615 286.676 670.795 278.999 659.125 286.676 662.657 295.429 663.885 304.181 662.196L346.561 654.365C350.399 666.496 352.549 679.548 352.549 693.06Z" fill="#604533" transform="matrix(0.994411 -0.105582 0.105613 0.994702 4057.55 1243.42)"/><path d="M218.654 627.034 206.063 627.034C165.987 627.034 133.434 659.586 133.434 699.662L133.434 752.023 72.3217 752.023 72.3217 693.06C72.3217 672.638 77.0817 653.291 85.5269 636.247 106.563 593.406 150.478 564.078 201.15 564.078L221.111 564.078 223.568 564.078C241.379 564.078 258.27 567.764 273.778 574.213L274.7 576.055C259.038 584.654 249.978 602.466 253.356 620.892L254.738 628.109C255.506 631.947 256.581 635.632 258.27 638.857 247.521 631.794 234.777 627.494 221.111 627.034 220.343 627.034 219.422 627.034 218.654 627.034Z" fill="#604533" transform="matrix(0.994411 -0.105582 0.105613 0.994702 4057.55 1243.42)"/><path d="M409.516 906.954 409.516 1060.96C409.516 1107.95 371.282 1146.03 324.296 1146.03L221.111 1146.03 100.575 1146.03C53.4351 1146.03 15.3549 1107.95 15.3549 1060.96L15.3549 752.023 72.3217 752.023 133.434 752.023 221.111 752.023 291.283 752.023 352.549 752.023 409.516 752.023 409.516 812.521 409.516 906.954Z" fill="#7F5D46" transform="matrix(0.994411 -0.105582 0.105613 0.994702 4057.55 1243.42)"/><path d="M221.111 627.494 221.111 752.023 133.434 752.023 133.434 699.662C133.434 659.586 165.987 627.034 206.063 627.034L218.654 627.034C219.422 627.034 220.343 627.034 221.111 627.034L221.111 627.494Z" fill="#EF9D26" transform="matrix(0.994411 -0.105582 0.105613 0.994702 4057.55 1243.42)"/><path d="M115.93 230.262 226.792 230.262C223.107 242.239 221.111 254.83 221.111 267.882L221.111 564.078 201.15 564.078C150.478 564.078 106.563 593.406 85.5269 636.247L20.2685 350.184C6.29552 288.765 52.9745 230.262 115.93 230.262Z" fill="#EF9D26" transform="matrix(0.994411 -0.105582 0.105613 0.994702 4057.55 1243.42)"/><path d="M241.226 927.376C252.742 956.397 260.266 994.784 260.266 1010.45 260.266 1036.86 238.769 1058.35 212.359 1058.35 185.948 1058.35 164.605 1036.86 164.605 1010.45 164.605 994.784 171.975 956.397 183.491 927.376 169.825 918.009 160.766 902.347 160.766 884.536 160.766 856.129 183.952 832.943 212.359 832.943 240.919 832.943 263.951 856.129 263.951 884.536 263.951 902.347 254.892 918.009 241.226 927.376Z" fill="#524956" transform="matrix(0.994411 -0.105582 0.105613 0.994702 4057.55 1243.42)"/><path d="M1934.72 1189.13 1934.72 267.959C1934.72 189.603 1870.98 125.849 1792.61 125.849L1739.47 125.849 1739.47 99.9606C1739.47 44.8364 1694.62 0 1639.49 0L1388.82 0C1333.7 0 1288.85 44.8364 1288.85 99.9606L1288.85 125.849 347.927 125.849C288.304 125.849 237.249 162.793 216.182 214.938L115.945 214.938C81.2429 214.938 48.9361 230.493 27.3011 257.61 5.66597 284.742-2.33395 319.69 5.37422 353.532L69.4043 634.665C61.4658 652.538 56.9514 672.254 56.9514 693.029L56.9514 736.606 15.3549 736.606C6.86365 736.606 0 743.485 0 751.961L0 1060.89C0 1116.3 45.0974 1161.4 100.513 1161.4L205.817 1161.4 205.817 1295C205.817 1373.36 269.556 1437.1 347.927 1437.1L1792.61 1437.1C1870.98 1437.1 1934.72 1373.36 1934.72 1295L1934.72 1204.44C1935.37 1199.25 1935.44 1194.12 1934.72 1189.13ZM1707.74 1165.42C1704.34 1179.96 1689.73 1189.07 1675.22 1185.66L1563.25 1159.62C1548.71 1156.24 1539.62 1141.65 1543 1127.13L1544.67 1119.94C1546.32 1112.91 1550.6 1106.91 1556.74 1103.1 1561.09 1100.38 1566 1099 1571.01 1099 1573.07 1099 1575.14 1099.23 1577.18 1099.7L1689.15 1125.75C1696.2 1127.37 1702.2 1131.67 1706.02 1137.82 1709.85 1143.96 1711.05 1151.22 1709.42 1158.27L1707.74 1165.42ZM1513.09 1120.16C1511.45 1127.21 1507.16 1133.19 1501.02 1137.02 1494.89 1140.84 1487.63 1142.05 1480.58 1140.41L1368.6 1114.37C1354.06 1110.99 1344.98 1096.4 1348.36 1081.85L1350.02 1074.69C1351.66 1067.64 1355.95 1061.65 1362.09 1057.83 1368.22 1053.99 1375.48 1052.8 1382.54 1054.44L1494.51 1080.48C1501.56 1082.11 1507.56 1086.41 1511.39 1092.55 1515.21 1098.69 1516.41 1105.95 1514.78 1112.97L1513.09 1120.16ZM1318.45 1074.88C1315.06 1089.42 1300.5 1098.52 1285.93 1095.11L1173.96 1069.07C1166.91 1067.44 1160.92 1063.14 1157.1 1057 1153.28 1050.86 1152.08 1043.6 1153.71 1036.55L1155.37 1029.39C1158.76 1014.85 1173.38 1005.76 1187.89 1009.16L1299.86 1035.2C1314.4 1038.58 1323.47 1053.16 1320.09 1067.72L1318.45 1074.88ZM1123.81 1029.61C1122.17 1036.66 1117.88 1042.65 1111.74 1046.47 1105.62 1050.29 1098.35 1051.51 1091.29 1049.85L979.322 1023.8C964.781 1020.43 955.706 1005.84 959.084 991.283L960.742 984.128C962.385 977.08 966.669 971.091 972.811 967.268 977.157 964.566 982.07 963.168 987.076 963.168 989.133 963.168 991.222 963.414 993.264 963.89L1105.23 989.932C1119.77 993.31 1128.85 1007.9 1125.47 1022.45L1123.81 1029.61ZM929.188 984.327C927.545 991.375 923.261 997.364 917.119 1001.19 910.992 1005.03 903.729 1006.24 896.666 1004.58L784.698 978.539C777.65 976.896 771.662 972.612 767.838 966.47 764.015 960.328 762.817 953.065 764.445 946.017L766.103 938.862C767.746 931.814 772.03 925.825 778.172 922.002 784.299 918.163 791.531 916.95 798.61 918.608L910.593 944.65C917.641 946.278 923.629 950.577 927.453 956.719 931.276 962.861 932.474 970.124 930.846 977.172L929.188 984.327ZM734.549 939.046C731.14 953.602 716.584 962.708 702.027 959.299L590.059 933.257C583.011 931.629 577.007 927.33 573.184 921.188 569.361 915.046 568.163 907.783 569.791 900.766L571.464 893.58C573.107 886.532 577.391 880.544 583.533 876.72 589.66 872.897 596.892 871.684 603.971 873.327L715.939 899.369C722.987 900.996 728.99 905.296 732.814 911.438 736.637 917.58 737.835 924.842 736.207 931.89L734.549 939.046ZM424.794 831.807 517.737 853.258C525.737 855.116 532.555 859.983 536.885 866.97 541.23 873.926 542.582 882.156 540.739 890.156L540.724 890.232C536.839 906.724 520.394 917.057 503.81 913.173L424.794 894.793 424.794 831.807ZM1737.64 1172.38 1739.3 1165.22C1740.94 1158.18 1745.23 1152.19 1751.37 1148.36 1757.49 1144.54 1764.76 1143.33 1771.8 1144.99L1883.79 1171.03C1894.26 1173.47 1901.8 1181.73 1904 1191.59L1904 1203.67 1902.37 1210.71C1898.97 1225.28 1884.31 1234.31 1869.85 1230.94L1757.88 1204.9C1750.83 1203.27 1744.83 1198.97 1741.02 1192.85 1737.21 1186.71 1736.01 1179.44 1737.64 1172.38ZM1890.76 1141.1 1778.78 1115.06C1763.77 1111.57 1748.25 1114.12 1735.14 1122.29 1734.43 1122.74 1733.86 1123.32 1733.17 1123.8 1732.76 1123.07 1732.51 1122.29 1732.07 1121.57 1723.91 1108.47 1711.14 1099.32 1696.09 1095.83L1584.12 1069.79C1569.1 1066.31 1553.6 1068.87 1540.48 1077.03 1539.78 1077.47 1539.21 1078.07 1538.52 1078.53 1538.1 1077.81 1537.86 1077.03 1537.43 1076.32 1529.27 1063.21 1516.5 1054.07 1501.45 1050.57L1389.48 1024.53C1374.48 1021.04 1358.96 1023.62 1345.84 1031.76 1345.12 1032.2 1344.55 1032.8 1343.86 1033.28 1336.17 1019.67 1323.21 1009.11 1306.81 1005.3L1194.84 979.26C1178.41 975.452 1162.11 979.199 1149.22 988.013 1141.53 974.408 1128.57 963.844 1112.17 960.036L1000.2 933.994C985.172 930.493 969.679 933.057 956.55 941.226 955.844 941.671 955.276 942.27 954.585 942.731 954.17 942.009 953.925 941.226 953.495 940.52 945.341 927.407 932.581 918.271 917.534 914.77L805.55 888.728C790.548 885.227 775.024 887.791 761.911 895.96 761.205 896.405 760.637 896.989 759.946 897.465 759.531 896.743 759.286 895.96 758.84 895.238 750.687 882.125 737.912 872.989 722.864 869.488L610.896 843.446C595.879 839.96 580.37 842.525 567.257 850.678 566.105 851.4 565.169 852.336 564.078 853.12 563.649 852.352 563.388 851.523 562.911 850.77 554.236 836.828 540.647 827.108 524.616 823.377L424.748 800.329 424.748 752.007C424.748 743.531 417.884 736.652 409.393 736.652L367.812 736.652 367.812 693.075C367.812 684.123 366.722 675.294 365.094 666.573L419.911 656.454C435.082 653.644 448.272 645.106 457.024 632.393 457.5 631.702 457.776 630.934 458.222 630.227 468.049 637.613 480.087 642.02 492.862 642.02 496.333 642.02 499.849 641.698 503.38 641.053L616.423 620.185C632.961 617.13 646.412 607.18 654.719 593.944 655.394 594.451 655.932 595.08 656.623 595.556 666.388 602.266 677.69 605.752 689.267 605.752 692.799 605.752 696.361 605.429 699.893 604.784L812.936 583.917C828.106 581.107 841.296 572.57 850.049 559.856 850.525 559.165 850.801 558.397 851.246 557.691 861.073 565.077 873.112 569.483 885.887 569.483 889.357 569.483 892.873 569.161 896.405 568.516L1009.45 547.649C1025.99 544.593 1039.44 534.643 1047.74 521.407 1048.42 521.914 1048.96 522.543 1049.66 523.019 1059.41 529.745 1070.71 533.23 1082.31 533.23 1085.82 533.23 1089.39 532.908 1092.92 532.263L1205.96 511.396C1221.15 508.601 1234.34 500.048 1243.09 487.335 1243.56 486.644 1243.84 485.876 1244.29 485.17 1254.11 492.555 1266.15 496.962 1278.93 496.962 1282.4 496.962 1285.91 496.64 1289.45 495.995L1402.49 475.127C1417.66 472.317 1430.85 463.78 1439.6 451.066 1440.08 450.375 1440.35 449.608 1440.8 448.901 1450.63 456.287 1462.66 460.694 1475.44 460.694 1478.91 460.694 1482.43 460.371 1485.96 459.726L1599 438.859C1615.54 435.803 1628.99 425.853 1637.3 412.618 1637.97 413.124 1638.51 413.754 1639.2 414.23 1648.95 420.955 1660.25 424.441 1671.84 424.441 1675.36 424.441 1678.92 424.118 1682.45 423.473L1795.51 402.606C1810.68 399.812 1823.87 391.259 1832.63 378.545 1833.39 377.424 1833.88 376.18 1834.58 375.029 1835.28 375.566 1835.85 376.226 1836.59 376.718 1846.95 383.858 1858.97 387.574 1871.32 387.574 1875.05 387.574 1878.83 387.236 1882.59 386.545L1904.01 382.507 1904.01 1146.18C1899.86 1144.03 1895.5 1142.21 1890.76 1141.1ZM236.527 736.622 236.527 645.383C240.074 646.565 243.483 648.147 246.769 650.005 251.944 658.665 259.268 665.743 267.867 670.642 273.072 679.425 275.928 689.329 275.928 699.632L275.928 736.606 236.527 736.606ZM148.866 736.622 148.866 699.647C148.866 668.185 174.386 642.588 205.817 642.435L205.817 736.622 148.866 736.622ZM434.759 587.418C434.759 587.418 434.759 587.418 434.759 587.418L436.095 594.666C437.416 601.775 435.865 608.976 431.78 614.934 427.665 620.892 421.493 624.899 414.383 626.205L301.34 647.072C286.692 649.82 272.504 640.039 269.786 625.36L268.45 618.112C267.13 611.003 268.68 603.802 272.765 597.844 276.88 591.886 283.053 587.879 290.162 586.573L403.22 565.706C404.863 565.399 406.537 565.245 408.18 565.245 413.616 565.245 418.913 566.873 423.489 570.036 429.462 574.136 433.454 580.293 434.759 587.418ZM486.69 550.305 599.733 529.438C601.376 529.131 603.034 528.977 604.662 528.977 617.452 528.977 628.861 538.129 631.272 551.15 631.272 551.15 631.272 551.15 631.272 551.165L632.608 558.397C635.31 573.092 625.56 587.234 610.88 589.952L497.837 610.819C483.158 613.567 469.001 603.771 466.283 589.107 466.283 589.107 466.283 589.107 466.283 589.092L464.947 581.859C462.26 567.165 472.01 553.008 486.69 550.305ZM665.805 525.307C669.92 519.35 676.093 515.342 683.202 514.037L796.245 493.169C797.888 492.862 799.546 492.724 801.159 492.724 813.964 492.724 825.373 501.86 827.784 514.881 827.784 514.881 827.784 514.881 827.784 514.897L829.12 522.129C830.44 529.238 828.889 536.44 824.805 542.397 820.69 548.355 814.533 552.363 807.408 553.668L694.365 574.535C687.21 575.856 680.039 574.305 674.081 570.221 668.123 566.121 664.131 559.948 662.826 552.839 662.826 552.839 662.826 552.839 662.826 552.823L661.49 545.591C660.17 538.466 661.72 531.265 665.805 525.307ZM862.317 489.039C866.432 483.081 872.605 479.074 879.73 477.768L992.773 456.901C994.431 456.594 996.105 456.44 997.748 456.44 1003.18 456.44 1008.47 458.068 1013.04 461.216 1019 465.316 1022.99 471.488 1024.3 478.644L1025.65 485.845C1028.35 500.54 1018.6 514.682 1003.92 517.4L890.877 538.267C876.183 541.031 862.041 531.234 859.323 516.555 859.323 516.555 859.323 516.555 859.323 516.54L857.987 509.307C856.682 502.198 858.233 494.997 862.317 489.039ZM1076.24 441.485 1189.29 420.617C1190.93 420.31 1192.59 420.172 1194.2 420.172 1207 420.172 1218.41 429.308 1220.82 442.329 1220.82 442.329 1220.82 442.329 1220.82 442.345L1222.16 449.577C1223.48 456.686 1221.93 463.888 1217.85 469.845 1213.73 475.803 1207.56 479.811 1200.43 481.116L1087.39 501.983C1080.23 503.273 1073.06 501.768 1067.14 497.653 1061.16 493.553 1057.17 487.381 1055.87 480.225L1054.51 473.024C1051.81 458.36 1061.56 444.203 1076.24 441.485ZM1255.36 416.502C1259.47 410.545 1265.65 406.537 1272.75 405.232L1385.81 384.364C1387.46 384.057 1389.13 383.904 1390.77 383.904 1396.21 383.904 1401.51 385.531 1406.08 388.695 1412.04 392.794 1416.03 398.967 1417.34 406.076 1417.34 406.076 1417.34 406.076 1417.34 406.092L1418.67 413.324C1419.99 420.433 1418.44 427.635 1414.36 433.592 1410.24 439.55 1404.07 443.558 1396.96 444.863L1283.92 465.73C1269.21 468.509 1255.08 458.698 1252.36 444.018 1252.36 444.018 1252.36 444.018 1252.36 444.003L1251.03 436.771C1249.72 429.646 1251.26 422.46 1255.36 416.502ZM1469.28 368.948 1582.32 348.081C1583.98 347.774 1585.66 347.62 1587.3 347.62 1592.74 347.62 1598.02 349.248 1602.59 352.396 1608.55 356.495 1612.54 362.683 1613.86 369.793L1615.2 377.009C1617.9 391.704 1608.15 405.861 1593.47 408.564L1480.43 429.431C1465.75 432.149 1451.61 422.399 1448.88 407.719 1448.88 407.719 1448.88 407.719 1448.88 407.704L1447.54 400.472C1444.85 385.808 1454.59 371.666 1469.28 368.948ZM1648.4 343.95C1652.51 337.993 1658.67 333.985 1665.79 332.68L1778.84 311.812C1780.48 311.505 1782.14 311.367 1783.75 311.367 1796.56 311.367 1807.97 320.503 1810.38 333.524L1811.71 340.772C1813.03 347.881 1811.48 355.083 1807.4 361.04 1803.28 366.998 1797.12 371.006 1790 372.311L1676.94 393.178C1669.77 394.468 1662.63 392.948 1656.67 388.863 1650.72 384.764 1646.72 378.591 1645.42 371.466L1644.08 364.234C1642.75 357.109 1644.3 349.908 1648.4 343.95ZM1904.01 351.275 1877.08 356.25C1869.05 357.739 1860.82 355.989 1854.06 351.336 1847.3 346.668 1842.74 339.651 1841.26 331.559 1839.75 323.482 1841.5 315.313 1846.15 308.542 1850.82 301.77 1857.84 297.225 1865.92 295.736L1904 288.703 1904 351.275ZM303.644 677.582C304.734 677.444 305.824 677.49 306.914 677.275L334.983 672.1C336.273 678.995 337.133 685.966 337.133 693.044L337.133 736.622 306.638 736.622 306.638 699.647C306.653 692.108 305.502 684.737 303.644 677.582ZM347.927 156.559 1304.2 156.559C1312.69 156.559 1319.56 149.68 1319.56 141.204L1319.56 99.9606C1319.56 61.7729 1350.62 30.7098 1388.82 30.7098L1639.49 30.7098C1677.68 30.7098 1708.76 61.7729 1708.76 99.9606L1708.76 141.204C1708.76 149.68 1715.62 156.559 1724.11 156.559L1792.61 156.559C1850.53 156.559 1898.22 201.011 1903.49 257.579L1860.34 265.533C1844.19 268.512 1830.17 277.602 1820.86 291.129 1820.36 291.866 1820.05 292.696 1819.59 293.448 1806.95 283.375 1790.34 278.431 1773.26 281.609L1660.22 302.477C1645.05 305.271 1631.86 313.824 1623.11 326.538 1622.63 327.229 1622.36 327.997 1621.91 328.703 1621.25 328.196 1620.71 327.582 1620.02 327.106 1607.31 318.354 1591.95 315.083 1576.77 317.878L1463.72 338.745C1447.19 341.801 1433.74 351.751 1425.43 364.987 1424.75 364.48 1424.22 363.85 1423.52 363.374 1410.81 354.622 1395.42 351.351 1380.27 354.146L1267.21 375.013C1252.04 377.823 1238.85 386.361 1230.1 399.074 1229.62 399.765 1229.33 400.549 1228.89 401.255 1216.39 391.842 1200.26 387.328 1183.74 390.414L1070.7 411.282C1054.16 414.337 1040.71 424.287 1032.4 437.523 1031.73 437.017 1031.19 436.387 1030.48 435.911 1017.79 427.159 1002.4 423.903 987.229 426.683L874.187 447.55C859.016 450.345 845.811 458.897 837.058 471.611 836.582 472.302 836.291 473.085 835.845 473.792 823.362 464.379 807.239 459.88 790.702 462.951L677.659 483.818C662.488 486.628 649.298 495.166 640.546 507.879 640.07 508.57 639.794 509.338 639.348 510.044 638.688 509.538 638.151 508.924 637.46 508.448 624.746 499.695 609.391 496.409 594.205 499.219L481.162 520.087C464.625 523.142 451.174 533.092 442.867 546.328 442.191 545.822 441.654 545.192 440.963 544.716 428.264 535.964 412.879 532.693 397.708 535.488L284.65 556.355C281.732 556.892 278.968 557.829 276.22 558.781 263.475 553.791 250.224 550.597 236.589 549.384L236.589 267.959C236.527 206.524 286.508 156.559 347.927 156.559ZM35.301 346.714C29.6964 322.039 35.5159 296.55 51.3008 276.772 67.0703 256.995 90.6555 245.648 115.945 245.648L207.752 245.648C206.601 252.926 205.817 260.343 205.817 267.959L205.817 548.77 201.226 548.77C157.895 548.77 119.077 568.055 92.6056 598.381L35.301 346.714ZM87.6613 693.029C87.6613 630.412 138.609 579.464 201.226 579.464L223.568 579.464C231.414 579.464 239.138 580.278 246.692 581.829 240.412 591.518 237.234 602.589 237.418 613.936 231.276 612.585 225.042 611.663 218.685 611.663L206.109 611.663C157.618 611.663 118.156 651.11 118.156 699.616L118.156 736.591 87.6613 736.591 87.6613 693.029ZM30.7098 1060.9 30.7098 767.332 72.3063 767.332 352.503 767.332 394.084 767.332 394.084 1060.9C394.084 1099.4 362.775 1130.71 324.281 1130.71L100.513 1130.71C62.0185 1130.71 30.7098 1099.4 30.7098 1060.9ZM1792.61 1406.4 347.927 1406.4C286.508 1406.4 236.527 1356.44 236.527 1295.02L236.527 1161.42 324.281 1161.42C379.697 1161.42 424.794 1116.32 424.794 1060.9L424.794 926.347 496.839 943.099C501.507 944.19 506.206 944.712 510.889 944.712 522.221 944.712 533.384 941.549 543.242 935.407 543.994 934.931 544.593 934.301 545.33 933.81 545.96 935.007 546.39 936.266 547.111 937.418 555.265 950.531 568.04 959.667 583.088 963.168L695.056 989.21C699.432 990.224 703.824 990.715 708.154 990.715 719.977 990.715 731.201 986.907 740.645 980.443 741.059 981.18 741.305 981.963 741.75 982.684 749.904 995.782 762.679 1004.93 777.727 1008.43L889.695 1034.48C894.071 1035.49 898.493 1036 902.885 1036 913.557 1036 924.044 1033.02 933.318 1027.24 934.04 1026.8 934.608 1026.2 935.299 1025.72 942.992 1039.33 955.952 1049.89 972.351 1053.7L1084.32 1079.74C1088.71 1080.76 1093.13 1081.26 1097.52 1081.26 1108.18 1081.26 1118.68 1078.3 1127.96 1072.51 1128.66 1072.07 1129.23 1071.47 1129.92 1071.01 1130.34 1071.73 1130.58 1072.51 1131.01 1073.22 1139.17 1086.33 1151.93 1095.47 1166.97 1098.97L1278.94 1125.01C1283.33 1126.02 1287.71 1126.51 1292.04 1126.51 1303.88 1126.51 1315.1 1122.69 1324.56 1116.23 1332.24 1129.85 1345.23 1140.43 1361.61 1144.23L1473.6 1170.28C1477.97 1171.29 1482.4 1171.8 1486.79 1171.8 1497.46 1171.8 1507.95 1168.82 1517.22 1163.04 1517.94 1162.6 1518.51 1162 1519.2 1161.52 1526.89 1175.13 1539.87 1185.69 1556.25 1189.5L1668.22 1215.54C1672.61 1216.56 1676.99 1217.05 1681.33 1217.05 1693.14 1217.05 1704.37 1213.24 1713.81 1206.77 1714.22 1207.51 1714.47 1208.29 1714.91 1209.02 1723.07 1222.13 1735.84 1231.27 1750.89 1234.77L1862.86 1260.81C1867.24 1261.82 1871.66 1262.33 1876.05 1262.33 1885.78 1262.33 1895.32 1259.73 1903.96 1254.91L1903.96 1294.96C1904.01 1356.42 1854.03 1406.4 1792.61 1406.4Z" fill="#3A322B" transform="matrix(0.994411 -0.105582 0.105613 0.994702 4057.55 1243.42)"/><path d="M212.405 817.65C175.507 817.65 145.488 847.669 145.488 884.567 145.488 902.655 152.766 919.745 165.403 932.213 155.684 960.481 149.188 994.431 149.188 1010.46 149.188 1045.32 177.549 1073.68 212.405 1073.68 247.26 1073.68 275.606 1045.32 275.606 1010.46 275.606 994.462 269.126 960.497 259.391 932.213 272.028 919.745 279.306 902.67 279.306 884.582 279.306 847.669 249.287 817.65 212.405 817.65ZM226.961 932.981C237.909 960.543 244.896 997.272 244.896 1010.45 244.896 1028.37 230.324 1042.95 212.405 1042.95 194.485 1042.95 179.898 1028.37 179.898 1010.45 179.898 997.272 186.885 960.543 197.848 932.996 200.505 926.286 198.155 918.624 192.167 914.601 182.171 907.845 176.198 896.62 176.198 884.567 176.198 864.605 192.443 848.36 212.405 848.36 232.366 848.36 248.596 864.605 248.596 884.567 248.596 896.62 242.623 907.845 232.627 914.601 226.669 918.624 224.305 926.27 226.961 932.981Z" fill="#3A322B" transform="matrix(0.994411 -0.105582 0.105613 0.994702 4057.55 1243.42)"/></g></g></g></g></svg>