<svg width="1806" height="1576" xmlns="http://www.w3.org/2000/svg" xmlns:xlink="http://www.w3.org/1999/xlink" xml:space="preserve" overflow="hidden"><defs><clipPath id="clip0"><rect x="4423" y="1051" width="1806" height="1576"/></clipPath></defs><g clip-path="url(#clip0)" transform="translate(-4423 -1051)"><path d="M902.618 77.2813C1110.94 77.2813 1279.71 246.2 1279.71 454.518 1279.71 662.694 1110.94 831.612 902.618 831.612 694.3 831.612 525.524 662.694 525.524 454.518 525.524 246.2 694.3 77.2813 902.618 77.2813ZM1075.26 670.001 1075.26 457.097C1075.26 432.168 1055.06 411.966 1030.13 411.966L811.497 411.966 811.497 326.003C811.497 275.714 852.33 234.881 902.618 234.881 952.907 234.881 993.74 275.714 993.74 326.003 993.74 341.763 1006.49 354.657 1022.39 354.657 1038.15 354.657 1051.05 341.763 1051.05 326.003 1051.05 244.194 984.427 177.572 902.618 177.572 820.81 177.572 754.188 244.194 754.188 326.003L754.188 417.124C739.717 424.718 729.975 439.761 729.975 457.097L729.975 670.001C729.975 694.93 750.176 715.132 775.105 715.132L1030.13 715.132C1055.06 715.132 1075.26 694.93 1075.26 670.001Z" fill="#4AAF8F" transform="matrix(1.00042 0 0 1 4423 1054.58)"/><path d="M1790.91 1159.42 1790.91 1423.9C1790.91 1496.4 1732.17 1555.14 1659.53 1555.14L145.708 1555.14C73.0691 1555.14 14.3273 1496.4 14.3273 1423.9L14.3273 1159.42C14.3273 1086.92 73.0691 1028.04 145.708 1028.04L1659.53 1028.04C1732.17 1028.04 1790.91 1086.92 1790.91 1159.42Z" fill="#6FCEAE" transform="matrix(1.00042 0 0 1 4423 1054.58)"/><path d="M902.618 14.3846C1145.75 14.3846 1342.75 211.385 1342.75 454.518 1342.75 697.509 1145.75 894.652 902.618 894.652 659.484 894.652 462.484 697.509 462.484 454.518 462.484 211.385 659.484 14.3846 902.618 14.3846ZM1279.71 454.518C1279.71 246.2 1110.94 77.2813 902.618 77.2813 694.3 77.2813 525.524 246.2 525.524 454.518 525.524 662.694 694.3 831.612 902.618 831.612 1110.94 831.612 1279.71 662.694 1279.71 454.518Z" fill="#E15C63" transform="matrix(1.00042 0 0 1 4423 1054.58)"/><path d="M1075.26 457.097 1075.26 670.001C1075.26 694.93 1055.06 715.132 1030.13 715.132L775.105 715.132C750.176 715.132 729.975 694.93 729.975 670.001L729.975 457.097C729.975 439.761 739.717 424.718 754.188 417.124 760.348 413.829 767.512 411.966 775.105 411.966L811.497 411.966 1030.13 411.966C1055.06 411.966 1075.26 432.168 1075.26 457.097Z" fill="#FFC05A" transform="matrix(1.00042 0 0 1 4423 1054.58)"/><path d="M1051.05 326.003C1051.05 341.763 1038.15 354.657 1022.39 354.657 1006.49 354.657 993.74 341.763 993.74 326.003 993.74 275.714 952.907 234.881 902.618 234.881 852.33 234.881 811.497 275.714 811.497 326.003L811.497 411.966 775.105 411.966C767.512 411.966 760.348 413.829 754.188 417.124L754.188 326.003C754.188 244.194 820.81 177.572 902.618 177.572 984.427 177.572 1051.05 244.194 1051.05 326.003Z" fill="#EF9D26" transform="matrix(1.00042 0 0 1 4423 1054.58)"/><path d="M1659.53 1028.04C1659.53 1479.58 14.3273 1423.9 14.3273 1423.9 14.3273 1496.4 73.0691 1555.14 145.708 1555.14L1659.53 1555.14C1732.17 1555.14 1790.91 1496.4 1790.91 1423.9L1790.91 1159.42C1790.91 1086.92 1732.17 1028.04 1659.53 1028.04Z" fill="#53B79A" transform="matrix(1.00042 0 0 1 4423 1054.58)"/><path d="M902.618 908.922C1153.2 908.922 1357.08 705.059 1357.08 454.461 1357.08 203.863 1153.2 0 902.618 0 652.034 0 448.157 203.863 448.157 454.461 448.157 705.045 652.034 908.922 902.618 908.922ZM902.618 28.6545C1137.41 28.6545 1328.42 219.68 1328.42 454.461 1328.42 689.242 1137.41 880.268 902.618 880.268 667.823 880.268 476.812 689.256 476.812 454.461 476.812 219.666 667.823 28.6545 902.618 28.6545Z" fill="#3A322B" transform="matrix(1.00042 0 0 1 4423 1054.58)"/><path d="M902.618 845.911C1118.46 845.911 1294.05 670.316 1294.05 454.475 1294.05 238.621 1118.46 63.0113 902.618 63.0113 686.778 63.0113 511.183 238.621 511.183 454.461 511.183 670.301 686.778 845.911 902.618 845.911ZM902.618 91.6659C1102.66 91.6659 1265.4 254.409 1265.4 454.461 1265.4 654.513 1102.66 817.256 902.618 817.256 702.581 817.256 539.837 654.513 539.837 454.461 539.837 254.409 702.581 91.6659 902.618 91.6659Z" fill="#3A322B" transform="matrix(1.00042 0 0 1 4423 1054.58)"/><path d="M775.12 729.487 1030.13 729.487C1062.95 729.487 1089.65 702.781 1089.65 669.972L1089.65 457.126C1089.65 424.302 1062.95 397.611 1030.13 397.611L825.867 397.611 825.867 325.988C825.867 283.666 860.295 249.237 902.618 249.237 944.941 249.237 979.369 283.666 979.369 325.988 979.369 349.686 998.654 368.97 1022.35 368.97 1046.05 368.97 1065.33 349.686 1065.33 325.988 1065.33 236.271 992.336 163.274 902.618 163.274 812.901 163.274 739.903 236.271 739.903 325.988L739.903 409.402C725.247 420.248 715.604 437.526 715.604 457.126L715.604 669.958C715.59 702.781 742.296 729.487 775.12 729.487ZM1060.99 457.126 1060.99 669.958C1060.99 686.978 1047.14 700.819 1030.13 700.819L775.12 700.819C758.099 700.819 744.259 686.978 744.259 669.958L744.259 457.126C744.259 440.105 758.113 426.265 775.12 426.265L1030.13 426.265C1047.14 426.265 1060.99 440.105 1060.99 457.126ZM768.558 325.988C768.558 252.06 828.69 191.928 902.618 191.928 976.547 191.928 1036.68 252.06 1036.68 325.988 1036.68 333.883 1030.26 340.316 1022.35 340.316 1014.44 340.316 1008.02 333.883 1008.02 325.988 1008.02 267.863 960.73 220.583 902.618 220.583 844.507 220.583 797.213 267.863 797.213 325.988L797.213 397.611 775.12 397.611C772.87 397.611 770.736 398.026 768.558 398.27L768.558 325.988Z" fill="#3A322B" transform="matrix(1.00042 0 0 1 4423 1054.58)"/><path d="M1659.56 1013.77 145.68 1013.77C65.361 1013.77 0 1079.13 0 1159.45L0 1423.83C0 1504.15 65.361 1569.51 145.68 1569.51L1659.56 1569.51C1739.88 1569.51 1805.24 1504.15 1805.24 1423.83L1805.24 1159.45C1805.24 1079.13 1739.88 1013.77 1659.56 1013.77ZM1776.58 1423.83C1776.58 1488.36 1724.09 1540.86 1659.56 1540.86L145.68 1540.86C81.1497 1540.86 28.6545 1488.36 28.6545 1423.83L28.6545 1159.45C28.6545 1094.92 81.1497 1042.42 145.68 1042.42L1659.56 1042.42C1724.09 1042.42 1776.58 1094.92 1776.58 1159.45L1776.58 1423.83Z" fill="#3A322B" transform="matrix(1.00042 0 0 1 4423 1054.58)"/><path d="M835.466 1277.31 732.854 1277.31 805.422 1204.75C811.024 1199.15 811.024 1190.09 805.422 1184.49 799.82 1178.89 790.765 1178.89 785.163 1184.49L712.61 1257.05 712.61 1154.42C712.61 1146.5 706.206 1140.09 698.283 1140.09 690.36 1140.09 683.955 1146.5 683.955 1154.42L683.955 1257.06 611.388 1184.49C605.786 1178.89 596.731 1178.89 591.129 1184.49 585.527 1190.09 585.527 1199.15 591.129 1204.75L663.697 1277.31 561.056 1277.31C553.133 1277.31 546.729 1283.71 546.729 1291.63 546.729 1299.56 553.133 1305.96 561.056 1305.96L663.668 1305.96 591.1 1378.51C585.498 1384.11 585.498 1393.17 591.1 1398.77 593.894 1401.57 597.562 1402.97 601.23 1402.97 604.898 1402.97 608.565 1401.57 611.359 1398.77L683.927 1326.2 683.927 1428.83C683.927 1436.75 690.331 1443.16 698.254 1443.16 706.177 1443.16 712.581 1436.75 712.581 1428.83L712.581 1326.22 785.135 1398.77C787.928 1401.57 791.596 1402.97 795.264 1402.97 798.932 1402.97 802.6 1401.57 805.393 1398.77 810.995 1393.17 810.995 1384.11 805.393 1378.51L732.826 1305.96 835.438 1305.96C843.361 1305.96 849.765 1299.56 849.765 1291.63 849.765 1283.71 843.389 1277.31 835.466 1277.31Z" fill="#3A322B" transform="matrix(1.00042 0 0 1 4423 1054.58)"/><path d="M429.847 1277.31 327.235 1277.31 399.803 1204.75C405.405 1199.15 405.405 1190.09 399.803 1184.49 394.201 1178.89 385.146 1178.89 379.544 1184.49L306.976 1257.06 306.976 1154.42C306.976 1146.5 300.572 1140.09 292.649 1140.09 284.726 1140.09 278.322 1146.5 278.322 1154.42L278.322 1257.05 205.768 1184.49C200.166 1178.89 191.111 1178.89 185.51 1184.49 179.908 1190.09 179.908 1199.15 185.51 1204.75L258.077 1277.31 155.465 1277.31C147.542 1277.31 141.138 1283.71 141.138 1291.63 141.138 1299.56 147.542 1305.96 155.465 1305.96L258.077 1305.96 185.51 1378.51C179.908 1384.11 179.908 1393.17 185.51 1398.77 188.303 1401.57 191.971 1402.97 195.639 1402.97 199.307 1402.97 202.974 1401.57 205.768 1398.77L278.322 1326.22 278.322 1428.83C278.322 1436.75 284.726 1443.16 292.649 1443.16 300.572 1443.16 306.976 1436.75 306.976 1428.83L306.976 1326.2 379.544 1398.77C382.338 1401.57 386.005 1402.97 389.673 1402.97 393.341 1402.97 397.009 1401.57 399.803 1398.77 405.405 1393.17 405.405 1384.11 399.803 1378.51L327.235 1305.96 429.847 1305.96C437.77 1305.96 444.174 1299.56 444.174 1291.63 444.174 1283.71 437.77 1277.31 429.847 1277.31Z" fill="#3A322B" transform="matrix(1.00042 0 0 1 4423 1054.58)"/><path d="M1244.18 1277.31 1141.57 1277.31 1214.14 1204.75C1219.74 1199.15 1219.74 1190.09 1214.14 1184.49 1208.53 1178.89 1199.48 1178.89 1193.88 1184.49L1121.31 1257.06 1121.31 1154.42C1121.31 1146.5 1114.91 1140.09 1106.98 1140.09 1099.06 1140.09 1092.66 1146.5 1092.66 1154.42L1092.66 1257.05 1020.1 1184.49C1014.5 1178.89 1005.45 1178.89 999.843 1184.49 994.241 1190.09 994.241 1199.15 999.843 1204.75L1072.41 1277.31 969.799 1277.31C961.876 1277.31 955.472 1283.71 955.472 1291.63 955.472 1299.56 961.876 1305.96 969.799 1305.96L1072.41 1305.96 999.843 1378.51C994.241 1384.11 994.241 1393.17 999.843 1398.77 1002.64 1401.57 1006.3 1402.97 1009.97 1402.97 1013.64 1402.97 1017.31 1401.57 1020.1 1398.77L1092.66 1326.22 1092.66 1428.83C1092.66 1436.75 1099.06 1443.16 1106.98 1443.16 1114.91 1443.16 1121.31 1436.75 1121.31 1428.83L1121.31 1326.2 1193.88 1398.77C1196.67 1401.57 1200.34 1402.97 1204.01 1402.97 1207.67 1402.97 1211.34 1401.57 1214.14 1398.77 1219.74 1393.17 1219.74 1384.11 1214.14 1378.51L1141.57 1305.96 1244.18 1305.96C1252.1 1305.96 1258.51 1299.56 1258.51 1291.63 1258.51 1283.71 1252.1 1277.31 1244.18 1277.31Z" fill="#3A322B" transform="matrix(1.00042 0 0 1 4423 1054.58)"/><path d="M1649.8 1277.31 1547.19 1277.31 1619.76 1204.75C1625.36 1199.15 1625.36 1190.09 1619.76 1184.49 1614.15 1178.89 1605.1 1178.89 1599.5 1184.49L1526.94 1257.05 1526.94 1154.42C1526.94 1146.5 1520.54 1140.09 1512.62 1140.09 1504.69 1140.09 1498.29 1146.5 1498.29 1154.42L1498.29 1257.06 1425.72 1184.49C1420.12 1178.89 1411.06 1178.89 1405.46 1184.49 1399.86 1190.09 1399.86 1199.15 1405.46 1204.75L1478.03 1277.31 1375.42 1277.31C1367.5 1277.31 1361.09 1283.71 1361.09 1291.63 1361.09 1299.56 1367.5 1305.96 1375.42 1305.96L1478.03 1305.96 1405.46 1378.51C1399.86 1384.11 1399.86 1393.17 1405.46 1398.77 1408.26 1401.57 1411.92 1402.97 1415.59 1402.97 1419.26 1402.97 1422.93 1401.57 1425.72 1398.77L1498.29 1326.2 1498.29 1428.83C1498.29 1436.75 1504.69 1443.16 1512.62 1443.16 1520.54 1443.16 1526.94 1436.75 1526.94 1428.83L1526.94 1326.22 1599.5 1398.77C1602.29 1401.57 1605.96 1402.97 1609.63 1402.97 1613.29 1402.97 1616.96 1401.57 1619.76 1398.77 1625.36 1393.17 1625.36 1384.11 1619.76 1378.51L1547.19 1305.96 1649.8 1305.96C1657.72 1305.96 1664.13 1299.56 1664.13 1291.63 1664.13 1283.71 1657.72 1277.31 1649.8 1277.31Z" fill="#3A322B" transform="matrix(1.00042 0 0 1 4423 1054.58)"/></g></svg>