<svg xmlns="http://www.w3.org/2000/svg" xml:space="preserve" width="3699" height="4149" overflow="hidden"><defs><linearGradient id="a" x1="2498.9" x2="2498.9" y1="581.9" y2="4415.9" gradientUnits="userSpaceOnUse" spreadMethod="pad"><stop offset="0" stop-color="#A6A6A6"/><stop offset=".5" stop-color="#A6A6A6"/><stop offset="1" stop-color="#D9D9D9"/></linearGradient><linearGradient id="b" x1="2498.9" x2="2498.9" y1="669" y2="4328.8" gradientUnits="userSpaceOnUse" spreadMethod="pad"><stop offset="0" stop-color="#A6A6A6"/><stop offset=".5" stop-color="#A6A6A6"/><stop offset="1" stop-color="#D9D9D9"/></linearGradient><linearGradient id="c" x1="2498.9" x2="2498.9" y1="756.1" y2="4241.7" gradientUnits="userSpaceOnUse" spreadMethod="pad"><stop offset="0" stop-color="#A6A6A6"/><stop offset=".5" stop-color="#A6A6A6"/><stop offset="1" stop-color="#D9D9D9"/></linearGradient><linearGradient id="d" x1="2498.9" x2="2498.9" y1="843.3" y2="4154.5" gradientUnits="userSpaceOnUse" spreadMethod="pad"><stop offset="0" stop-color="#A6A6A6"/><stop offset=".5" stop-color="#A6A6A6"/><stop offset="1" stop-color="#D9D9D9"/></linearGradient><linearGradient id="e" x1="2498.9" x2="2498.9" y1="930.4" y2="4067.4" gradientUnits="userSpaceOnUse" spreadMethod="pad"><stop offset="0" stop-color="#A6A6A6"/><stop offset=".5" stop-color="#A6A6A6"/><stop offset="1" stop-color="#D9D9D9"/></linearGradient><linearGradient id="f" x1="2498.9" x2="2498.9" y1="1017.6" y2="3980.3" gradientUnits="userSpaceOnUse" spreadMethod="pad"><stop offset="0" stop-color="#A6A6A6"/><stop offset=".5" stop-color="#A6A6A6"/><stop offset="1" stop-color="#D9D9D9"/></linearGradient><linearGradient id="g" x1="2498.9" x2="2498.9" y1="1104.7" y2="3893.1" gradientUnits="userSpaceOnUse" spreadMethod="pad"><stop offset="0" stop-color="#A6A6A6"/><stop offset=".5" stop-color="#A6A6A6"/><stop offset="1" stop-color="#D9D9D9"/></linearGradient><linearGradient id="h" x1="2498.9" x2="2498.9" y1="1191.8" y2="3806" gradientUnits="userSpaceOnUse" spreadMethod="pad"><stop offset="0" stop-color="#A6A6A6"/><stop offset=".5" stop-color="#A6A6A6"/><stop offset="1" stop-color="#D9D9D9"/></linearGradient><linearGradient id="i" x1="2498.9" x2="2498.9" y1="1279" y2="3718.8" gradientUnits="userSpaceOnUse" spreadMethod="pad"><stop offset="0" stop-color="#A6A6A6"/><stop offset=".5" stop-color="#A6A6A6"/><stop offset="1" stop-color="#D9D9D9"/></linearGradient><linearGradient id="j" x1="2498.9" x2="2498.9" y1="1366.1" y2="3631.7" gradientUnits="userSpaceOnUse" spreadMethod="pad"><stop offset="0" stop-color="#A6A6A6"/><stop offset=".5" stop-color="#A6A6A6"/><stop offset="1" stop-color="#D9D9D9"/></linearGradient><linearGradient id="k" x1="2498.9" x2="2498.9" y1="1453.3" y2="3544.6" gradientUnits="userSpaceOnUse" spreadMethod="pad"><stop offset="0" stop-color="#A6A6A6"/><stop offset=".5" stop-color="#A6A6A6"/><stop offset="1" stop-color="#D9D9D9"/></linearGradient><linearGradient id="l" x1="2498.9" x2="2498.9" y1="1540.4" y2="3457.4" gradientUnits="userSpaceOnUse" spreadMethod="pad"><stop offset="0" stop-color="#A6A6A6"/><stop offset=".5" stop-color="#A6A6A6"/><stop offset="1" stop-color="#D9D9D9"/></linearGradient><linearGradient id="m" x1="2498.9" x2="2498.9" y1="1627.5" y2="3370.3" gradientUnits="userSpaceOnUse" spreadMethod="pad"><stop offset="0" stop-color="#A6A6A6"/><stop offset=".5" stop-color="#A6A6A6"/><stop offset="1" stop-color="#D9D9D9"/></linearGradient><linearGradient id="n" x1="2498.9" x2="2498.9" y1="1714.7" y2="3283.1" gradientUnits="userSpaceOnUse" spreadMethod="pad"><stop offset="0" stop-color="#A6A6A6"/><stop offset=".5" stop-color="#A6A6A6"/><stop offset="1" stop-color="#D9D9D9"/></linearGradient><linearGradient id="o" x1="2498.9" x2="2498.9" y1="1801.8" y2="3196" gradientUnits="userSpaceOnUse" spreadMethod="pad"><stop offset="0" stop-color="#A6A6A6"/><stop offset=".5" stop-color="#A6A6A6"/><stop offset="1" stop-color="#D9D9D9"/></linearGradient><linearGradient id="p" x1="2498.9" x2="2498.9" y1="1888.9" y2="3108.9" gradientUnits="userSpaceOnUse" spreadMethod="pad"><stop offset="0" stop-color="#A6A6A6"/><stop offset=".5" stop-color="#A6A6A6"/><stop offset="1" stop-color="#D9D9D9"/></linearGradient><linearGradient id="q" x1="2498.9" x2="2498.9" y1="1976.1" y2="3021.7" gradientUnits="userSpaceOnUse" spreadMethod="pad"><stop offset="0" stop-color="#A6A6A6"/><stop offset=".5" stop-color="#A6A6A6"/><stop offset="1" stop-color="#D9D9D9"/></linearGradient><linearGradient id="r" x1="2498.9" x2="2498.9" y1="2063.2" y2="2934.6" gradientUnits="userSpaceOnUse" spreadMethod="pad"><stop offset="0" stop-color="#A6A6A6"/><stop offset=".5" stop-color="#A6A6A6"/><stop offset="1" stop-color="#D9D9D9"/></linearGradient><linearGradient id="s" x1="2498.9" x2="2498.9" y1="2150.3" y2="2847.4" gradientUnits="userSpaceOnUse" spreadMethod="pad"><stop offset="0" stop-color="#A6A6A6"/><stop offset=".5" stop-color="#A6A6A6"/><stop offset="1" stop-color="#D9D9D9"/></linearGradient><linearGradient id="t" x1="2498.9" x2="2498.9" y1="2237.5" y2="2760.3" gradientUnits="userSpaceOnUse" spreadMethod="pad"><stop offset="0" stop-color="#A6A6A6"/><stop offset=".5" stop-color="#A6A6A6"/><stop offset="1" stop-color="#D9D9D9"/></linearGradient><linearGradient id="u" x1="2498.9" x2="2498.9" y1="2324.6" y2="2673.2" gradientUnits="userSpaceOnUse" spreadMethod="pad"><stop offset="0" stop-color="#A6A6A6"/><stop offset=".5" stop-color="#A6A6A6"/><stop offset="1" stop-color="#D9D9D9"/></linearGradient><linearGradient id="v" x1="2498.9" x2="2498.9" y1="2411.8" y2="2586" gradientUnits="userSpaceOnUse" spreadMethod="pad"><stop offset="0" stop-color="#A6A6A6"/><stop offset=".5" stop-color="#A6A6A6"/><stop offset="1" stop-color="#D9D9D9"/></linearGradient></defs><g fill="none" stroke-width="12.5"><path stroke="url(#a)" d="M4204.3 1707.8C4333 2356.7 3450 3174.3 2757 3717.8c-693 543.6-1577.7 874.8-1878.9 598.8-301.1-276 170.5-1150.2 433.4-1923.8C1574.2 1619 1537 745.8 2139.7 603c602.7-142.7 1936 455.8 2064.6 1104.7C4333 2356.7 3450 3174.3 2757 3717.8" transform="matrix(-1 0 0 1 4340 -454.2)"/><path stroke="url(#b)" d="M4126.8 1743.8c122.7 619.4-720.1 1399.9-1381.6 1918.6-661.5 518.8-1506 835-1793.5 571.6-287.5-263.6 162.8-1098 413.7-1836.4 250.9-738.5 215.3-1572 790.6-1708.3 575.3-136.2 1848 435 1970.8 1054.5 122.7 619.4-720.1 1399.9-1381.6 1918.6" transform="matrix(-1 0 0 1 4340 -454.2)"/><path stroke="url(#c)" d="M4049.3 1779.7c116.9 590-685.8 1333.2-1315.8 1827.3-630 494.1-1434.4 795.3-1708.1 544.3-273.8-251 155-1045.6 394-1748.9 239-703.3 205-1497.2 753-1627 547.8-129.7 1760 414.4 1876.9 1004.3 116.9 590-685.8 1333.2-1315.8 1827.3" transform="matrix(-1 0 0 1 4340 -454.2)"/><path stroke="url(#d)" d="M3971.8 1815.7c111 560.4-651.6 1266.5-1250 1736C2123.3 4021 1359 4307 1099 4068.6c-260-238.4 147.3-993.3 374.3-1661.4 227-668.2 194.9-1422.4 715.4-1545.6 520.5-123.3 1672 393.6 1783 954 111.1 560.4-651.5 1266.5-1250 1736" transform="matrix(-1 0 0 1 4340 -454.2)"/><path stroke="url(#e)" d="M3894.2 1851.6c105.3 531-617.2 1200-1184.2 1644.6-567 444.7-1290.9 715.8-1537.3 489.9-246.4-225.9 139.5-941 354.6-1574 215-633 184.6-1347.5 677.7-1464.3 493.1-116.7 1584 373 1689.2 903.8 105.3 531-617.2 1200-1184.2 1644.6" transform="matrix(-1 0 0 1 4340 -454.2)"/><path stroke="url(#f)" d="M3816.7 1887.6c99.4 501.4-583 1133.2-1118.4 1553.2-535.5 420-1219.2 676-1452 462.7-232.6-213.3 131.9-888.8 335-1486.6s174.3-1272.6 640-1383c465.7-110.2 1496 352.3 1595.4 853.7 99.4 501.4-583 1133.2-1118.4 1553.2" transform="matrix(-1 0 0 1 4340 -454.2)"/><path stroke="url(#g)" d="M3739.2 1923.5c93.5 472-548.6 1066.6-1052.6 1462-504 395.2-1147.5 636.1-1366.5 435.3-219-200.7 124-836.4 315.2-1399 191.1-562.7 164-1197.9 602.4-1301.6 438.3-103.8 1408 331.4 1501.5 803.3 93.5 472-548.6 1066.6-1052.6 1462" transform="matrix(-1 0 0 1 4340 -454.2)"/><path stroke="url(#h)" d="M3661.7 1959.5c87.7 442.4-514.4 1000-986.9 1370.5-472.5 370.6-1075.7 596.4-1281 408.2C1188.3 3550 1510 2954 1689.1 2426.6c179.3-527.5 153.8-1123 564.8-1220.3 410.9-97.3 1320 310.8 1407.7 753.2 87.7 442.4-514.4 1000-986.9 1370.5" transform="matrix(-1 0 0 1 4340 -454.2)"/><path stroke="url(#i)" d="M3584.2 1995.5c81.8 413-480.1 933.2-921.1 1279.1-441 345.9-1004 556.7-1195.7 381-191.6-175.7 108.5-732 275.8-1224.2 167.3-492.3 143.6-1048 527.1-1138.9 383.5-90.8 1232 290 1313.9 703 81.8 413-480.1 933.2-921.1 1279.1" transform="matrix(-1 0 0 1 4340 -454.2)"/><path stroke="url(#j)" d="M3506.6 2031.4c76 383.5-445.7 866.6-855.2 1187.8-409.5 321.2-932.4 517-1110.3 353.8-178-163.1 100.8-679.7 256.1-1136.8 155.3-457.1 133.3-973.2 489.4-1057.5 356.2-84.4 1144 269.3 1220 652.7 76 383.5-445.7 866.6-855.2 1187.8" transform="matrix(-1 0 0 1 4340 -454.2)"/><path stroke="url(#k)" d="M3429.1 2067.4c70.2 354-411.5 800-789.4 1096.4-378 296.4-860.7 477.1-1025 326.6-164.2-150.6 93.1-627.4 236.5-1049.4 143.3-422 123-898.3 451.8-976.2 328.7-77.8 1056 248.6 1126.1 602.6 70.2 354-411.5 800-789.4 1096.4" transform="matrix(-1 0 0 1 4340 -454.2)"/><path stroke="url(#l)" d="M3351.6 2103.3c64.3 324.5-377.2 733.3-723.7 1005-346.5 271.8-788.9 437.5-939.5 299.4-150.5-138 85.3-575 216.8-961.9 131.4-386.8 112.8-823.4 414-894.8 301.4-71.3 968.1 227.9 1032.4 552.3 64.3 324.5-377.2 733.3-723.7 1005" transform="matrix(-1 0 0 1 4340 -454.2)"/><path stroke="url(#m)" d="M3274 2139.3c58.5 295-342.8 666.6-657.8 913.7-315 247-717.2 397.6-854 272.1-137-125.5 77.5-522.8 197-874.4 119.4-351.7 102.5-748.6 376.4-813.5 274-64.9 880 207.1 938.5 502.1 58.4 295-343 666.6-658 913.7" transform="matrix(-1 0 0 1 4340 -454.2)"/><path stroke="url(#n)" d="M3196.6 2175.3c52.6 265.4-308.7 600-592.1 822.3-283.5 222.3-645.5 357.8-768.7 244.9-123.2-113 69.8-470.5 177.3-787 107.5-316.5 92.3-673.8 338.8-732.1 246.6-58.4 792 186.4 844.7 451.9 52.6 265.4-308.7 600-592.1 822.3" transform="matrix(-1 0 0 1 4340 -454.2)"/><path stroke="url(#o)" d="M3119 2211.2c46.8 236-274.3 533.3-526.3 731-252 197.6-573.7 318-683.2 217.7-109.5-100.4 62-418.3 157.6-699.6s82-598.9 301.2-650.8c219.1-51.9 704 165.8 750.8 401.7 46.7 236-274.4 533.3-526.4 731" transform="matrix(-1 0 0 1 4340 -454.2)"/><path stroke="url(#p)" d="M3041.5 2247.2c41 206.5-240 466.6-460.5 639.6-220.5 172.9-502 278.3-597.8 190.5-95.9-87.9 54.2-366 137.9-612.2 83.6-246.1 71.7-524 263.5-569.4 191.8-45.4 616 145 657 351.5 40.8 206.5-240.1 466.6-460.6 639.6" transform="matrix(-1 0 0 1 4340 -454.2)"/><path stroke="url(#q)" d="M2964 2283.2c35 177-205.7 400-394.7 548.1-189 148.3-430.3 238.6-512.5 163.3-82-75.3 46.5-313.7 118.2-524.6 71.7-211 61.6-449.2 226-488.1 164.3-39 528 124.3 563 301.3s-205.7 400-394.7 548.1" transform="matrix(-1 0 0 1 4340 -454.2)"/><path stroke="url(#r)" d="M2886.5 2319.1c29.2 147.5-171.5 333.3-329 456.8-157.4 123.6-358.5 198.8-427 136.1-68.4-62.7 38.8-261.4 98.5-437.2 59.8-175.8 51.3-374.3 188.3-406.8 137-32.4 440 103.6 469.2 251.1 29.2 147.5-171.5 333.3-329 456.8" transform="matrix(-1 0 0 1 4340 -454.2)"/><path stroke="url(#s)" d="M2809 2355c23.4 118-137.2 266.7-263.2 365.5-126 98.8-286.9 159-341.6 108.9-54.8-50.2 31-209.1 78.8-349.8 47.8-140.7 41-299.4 150.6-325.4s352 82.9 375.4 200.9c23.4 118-137.2 266.6-263.2 365.4" transform="matrix(-1 0 0 1 4340 -454.2)"/><path stroke="url(#t)" d="M2731.5 2391c17.5 88.5-103 200-197.4 274.1-94.5 74.1-215.2 119.3-256.2 81.7-41.1-37.7 23.2-156.9 59-262.4 36-105.5 30.8-224.6 113-244 82.2-19.5 264 62.1 281.6 150.6 17.5 88.5-103 200-197.4 274.1" transform="matrix(-1 0 0 1 4340 -454.2)"/><path stroke="url(#u)" d="M2654 2427c11.6 59-68.6 133.3-131.6 182.7-63 49.4-143.5 79.5-170.8 54.5-27.4-25.1 15.5-104.6 39.3-175 24-70.3 20.6-149.7 75.3-162.6 54.8-13 176 41.4 187.7 100.4 11.7 59-68.5 133.3-131.5 182.7" transform="matrix(-1 0 0 1 4340 -454.2)"/><path stroke="url(#v)" d="M2576.4 2463c5.9 29.4-34.3 66.6-65.8 91.3-31.5 24.7-71.7 39.8-85.4 27.2-13.7-12.5 7.8-52.3 19.7-87.4 12-35.2 10.3-74.9 37.7-81.4 27.4-6.5 88 20.8 93.8 50.2 5.9 29.5-34.3 66.7-65.8 91.4" transform="matrix(-1 0 0 1 4340 -454.2)"/></g></svg>