<svg width="1685" height="2210" xmlns="http://www.w3.org/2000/svg" xmlns:xlink="http://www.w3.org/1999/xlink" xml:space="preserve" overflow="hidden"><defs><clipPath id="clip0"><rect x="776" y="767" width="1685" height="2210"/></clipPath></defs><g clip-path="url(#clip0)" transform="translate(-776 -767)"><path d="M886.436 21.399C855.766 16.3165 824.22 16.3165 793.549 21.399 522.426 65.5639 263.745 176.152 17.5082 352.987L17.5082 1295.35C17.5082 1472.18 74.8175 1645.16 184.178 1784.32 341.034 1984.29 564.663 2114.5 839.993 2190.74 1124.96 2111.87 1354.37 1975.17 1511.93 1763.29 1612 1628.86 1662.48 1463.77 1662.48 1296.05L1662.48 352.987C1416.24 176.152 1157.56 65.5639 886.436 21.399Z" fill="#20BAB6" transform="matrix(1.00071 0 0 1 777.545 768.753)"/><path d="M424.106 1370.53C449.519 1449.22 484.57 1527.74 529.261 1606.43 430.24 1550.52 347.694 1468.85 290.91 1370.53L424.106 1370.53Z" fill="#E15C63" transform="matrix(1.00071 0 0 1 777.545 768.753)"/><path d="M636.168 1370.53 424.106 1370.53C389.756 1265.03 372.58 1159.52 372.58 1054.02L602.343 1054.02C602.694 1159.17 613.91 1264.68 636.168 1370.53Z" fill="#E15C63" transform="matrix(1.00071 0 0 1 777.545 768.753)"/><path d="M839.993 1370.53 839.993 1687.75C803.013 1687.75 766.56 1684.59 731.333 1678.29 689.271 1575.41 657.549 1472.71 636.168 1370.53L839.993 1370.53Z" fill="#E15C63" transform="matrix(1.00071 0 0 1 777.545 768.753)"/><path d="M839.993 1054.02 1077.64 1054.02C1077.29 1159.17 1066.08 1264.68 1043.82 1370.53L839.993 1370.53 839.993 1054.02Z" fill="#E15C63" transform="matrix(1.00071 0 0 1 777.545 768.753)"/><path d="M1043.82 1370.53 1255.88 1370.53C1230.47 1449.22 1195.42 1527.74 1150.72 1606.43 1089.03 1641.13 1020.86 1666.02 948.653 1678.29 990.714 1575.41 1022.44 1472.71 1043.82 1370.53Z" fill="#E15C63" transform="matrix(1.00071 0 0 1 777.545 768.753)"/><path d="M1307.41 1054.02 1473.72 1054.02C1473.72 1169.34 1442.88 1277.47 1389.08 1370.53L1255.88 1370.53C1290.23 1265.03 1307.41 1159.52 1307.41 1054.02Z" fill="#E15C63" transform="matrix(1.00071 0 0 1 777.545 768.753)"/><path d="M1389.08 737.502 1255.88 737.502C1230.47 658.987 1195.24 580.296 1150.72 501.605 1249.75 557.512 1332.29 639.182 1389.08 737.502Z" fill="#E15C63" transform="matrix(1.00071 0 0 1 777.545 768.753)"/><path d="M1307.41 1054.02 1077.64 1054.02C1077.99 948.162 1067.13 842.657 1045.04 737.502L1255.88 737.502C1290.23 843.007 1307.41 948.512 1307.41 1054.02Z" fill="#E15C63" transform="matrix(1.00071 0 0 1 777.545 768.753)"/><path d="M1045.04 737.502 839.993 737.502 839.993 420.286C876.972 420.286 913.426 423.44 948.653 429.749 991.591 532.1 1023.66 634.626 1045.04 737.502Z" fill="#E15C63" transform="matrix(1.00071 0 0 1 777.545 768.753)"/><path d="M839.993 737.502 839.993 1054.02 602.343 1054.02C601.993 948.162 612.859 842.657 634.941 737.502L839.993 737.502Z" fill="#E15C63" transform="matrix(1.00071 0 0 1 777.545 768.753)"/><path d="M731.333 429.749C688.395 532.1 656.323 634.626 634.941 737.502L424.106 737.502C449.519 658.987 484.745 580.296 529.261 501.605 529.436 501.605 529.436 501.43 529.436 501.43 591.127 466.729 659.127 442.018 731.333 429.749Z" fill="#E15C63" transform="matrix(1.00071 0 0 1 777.545 768.753)"/><path d="M290.91 737.502 424.106 737.502C389.756 843.007 372.58 948.512 372.58 1054.02L206.261 1054.02C206.261 938.873 237.106 830.739 290.91 737.502Z" fill="#E15C63" transform="matrix(1.00071 0 0 1 777.545 768.753)"/><path d="M636.168 1370.53C657.549 1472.71 689.271 1575.41 731.333 1678.29 659.127 1666.02 590.952 1641.13 529.261 1606.43 484.57 1527.74 449.519 1449.22 424.106 1370.53L636.168 1370.53Z" fill="#1EA6BC" transform="matrix(1.00071 0 0 1 777.545 768.753)"/><path d="M839.993 1370.53 1043.82 1370.53C1022.44 1472.71 990.714 1575.41 948.653 1678.29 913.426 1684.59 876.972 1687.75 839.993 1687.75L839.993 1370.53Z" fill="#1EA6BC" transform="matrix(1.00071 0 0 1 777.545 768.753)"/><path d="M1255.88 1370.53 1389.08 1370.53C1332.29 1468.85 1249.75 1550.52 1150.72 1606.43 1195.42 1527.74 1230.47 1449.22 1255.88 1370.53Z" fill="#1EA6BC" transform="matrix(1.00071 0 0 1 777.545 768.753)"/><path d="M1077.64 1054.02 1307.41 1054.02C1307.41 1159.52 1290.23 1265.03 1255.88 1370.53L1043.82 1370.53C1066.08 1264.68 1077.29 1159.17 1077.64 1054.02Z" fill="#1EA6BC" transform="matrix(1.00071 0 0 1 777.545 768.753)"/><path d="M839.993 1054.02 839.993 1370.53 636.168 1370.53C613.91 1264.68 602.694 1159.17 602.343 1054.02L839.993 1054.02Z" fill="#1EA6BC" transform="matrix(1.00071 0 0 1 777.545 768.753)"/><path d="M424.106 1370.53 290.91 1370.53C237.106 1277.3 206.261 1169.16 206.261 1054.02L372.58 1054.02C372.58 1159.52 389.756 1265.03 424.106 1370.53Z" fill="#1EA6BC" transform="matrix(1.00071 0 0 1 777.545 768.753)"/><path d="M424.106 737.502 634.941 737.502C612.859 842.657 601.993 948.162 602.343 1054.02L372.58 1054.02C372.58 948.512 389.756 843.007 424.106 737.502Z" fill="#1EA6BC" transform="matrix(1.00071 0 0 1 777.545 768.753)"/><path d="M1045.04 737.502C1067.13 842.657 1077.99 948.162 1077.64 1054.02L839.993 1054.02 839.993 737.502 1045.04 737.502Z" fill="#1EA6BC" transform="matrix(1.00071 0 0 1 777.545 768.753)"/><path d="M1473.72 1054.02 1307.41 1054.02C1307.41 948.512 1290.23 843.007 1255.88 737.502L1389.08 737.502C1442.88 830.739 1473.72 938.873 1473.72 1054.02Z" fill="#1EA6BC" transform="matrix(1.00071 0 0 1 777.545 768.753)"/><path d="M1255.88 737.502 1045.04 737.502C1023.66 634.626 991.591 532.1 948.653 429.749 1020.86 442.018 1088.86 466.729 1150.55 501.43 1150.55 501.43 1150.55 501.605 1150.72 501.605 1195.24 580.296 1230.47 658.987 1255.88 737.502Z" fill="#1EA6BC" transform="matrix(1.00071 0 0 1 777.545 768.753)"/><path d="M839.993 420.286 839.993 737.502 634.941 737.502C656.323 634.626 688.395 532.1 731.333 429.749 766.56 423.44 803.013 420.286 839.993 420.286Z" fill="#1EA6BC" transform="matrix(1.00071 0 0 1 777.545 768.753)"/><path d="M529.261 501.605C484.745 580.296 449.519 658.987 424.106 737.502L290.91 737.502C347.694 639.182 430.24 557.512 529.261 501.605Z" fill="#1EA6BC" transform="matrix(1.00071 0 0 1 777.545 768.753)"/><path d="M948.653 1678.29C1020.86 1666.02 1089.03 1641.13 1150.72 1606.43 1249.75 1550.52 1332.29 1468.85 1389.08 1370.53 1442.88 1277.47 1473.72 1169.34 1473.72 1054.02 1473.72 938.873 1442.88 830.739 1389.08 737.502 1332.29 639.182 1249.75 557.512 1150.72 501.605 1150.55 501.605 1150.55 501.43 1150.55 501.43 1088.86 466.729 1020.86 442.018 948.653 429.749 913.426 423.44 876.972 420.286 839.993 420.286 803.013 420.286 766.56 423.44 731.333 429.749 659.127 442.018 591.127 466.729 529.436 501.43 529.436 501.43 529.436 501.605 529.261 501.605 430.24 557.512 347.694 639.182 290.91 737.502 237.106 830.739 206.261 938.873 206.261 1054.02 206.261 1169.16 237.106 1277.3 290.91 1370.53 347.694 1468.85 430.24 1550.52 529.261 1606.43 590.952 1641.13 659.127 1666.02 731.333 1678.29 766.56 1684.59 803.013 1687.75 839.993 1687.75 876.972 1687.75 913.426 1684.59 948.653 1678.29ZM1558.02 399.079 1558.02 1341.62C1558.02 1455.18 1524.72 1566.65 1460.58 1660.41 1316.17 1871.24 1106.38 2006.02 839.993 2108.72 573.601 2006.02 363.818 1871.24 219.405 1660.41 155.261 1566.65 121.962 1455.18 121.962 1341.62L121.962 399.079C321.405 263.079 539.075 168.265 774.972 114.811 817.735 105.172 862.25 105.172 905.013 114.811 1140.91 168.265 1358.58 263.079 1558.02 399.079Z" fill="#6FCEAE" transform="matrix(1.00071 0 0 1 777.545 768.753)"/><path d="M839.993 2108.72C1106.38 2006.02 1316.17 1871.24 1460.58 1660.41 1524.72 1566.65 1558.02 1455.18 1558.02 1341.62L1558.02 399.079C1534.75 383.201 1511.16 368.006 1487.39 353.267L1490.09 1398.78C1490.09 1398.78 1453.41 1892.26 840.01 1892.26 555.269 1892.26 368.234 1804.68 245.536 1696.67 388.652 1886.88 589.216 2012.03 839.993 2108.72Z" fill="#53B79A" transform="matrix(1.00071 0 0 1 777.545 768.753)"/><path d="M1617.52 321.563C1612.55 318.163 1607.53 314.938 1602.54 311.608 1592.48 304.878 1582.42 298.131 1572.32 291.611 1566.31 287.738 1560.27 284.023 1554.24 280.22 1545.11 274.454 1535.98 268.67 1526.81 263.097 1520.38 259.189 1513.91 255.421 1507.48 251.582 1500.7 247.552 1493.91 243.556 1487.11 239.612L1487.41 353.249C1511.19 368.006 1534.77 383.201 1558.04 399.062L1558.04 1341.6C1558.04 1455.16 1524.74 1566.63 1460.6 1660.39 1316.19 1871.23 1106.4 2006 840.01 2108.7 589.234 2012.01 388.669 1886.86 245.536 1696.65 47.7577 1522.59 17.5082 1295.35 17.5082 1295.35 17.5082 1472.18 74.8175 1645.16 184.178 1784.32 341.034 1984.29 564.663 2114.5 839.993 2190.74 1124.96 2111.87 1354.37 1975.17 1511.93 1763.29 1612 1628.86 1662.48 1463.77 1662.48 1296.05L1662.48 352.987C1647.53 342.261 1632.54 331.798 1617.52 321.563Z" fill="#21AAA3" transform="matrix(1.00071 0 0 1 777.545 768.753)"/><path d="M518.307 488.11C418.323 545.174 334.882 627.896 276.96 727.337 275.978 728.669 275.085 730.018 274.506 731.596 220.036 826.743 188.718 936.77 188.718 1054.03 188.718 1171.3 220.036 1281.34 274.506 1376.49 275.067 1378 275.926 1379.3 276.855 1380.58 334.567 1479.7 417.622 1562.23 517.15 1619.29 519.289 1621.4 521.9 1622.87 524.722 1623.66 586.395 1657.92 654.185 1682.37 726.005 1695.11 727.039 1695.44 728.143 1695.55 729.23 1695.69 765.245 1701.89 802.207 1705.29 839.975 1705.29 877.743 1705.29 914.688 1701.88 950.721 1695.69 951.807 1695.55 952.911 1695.44 953.945 1695.11 1025.77 1682.37 1093.56 1657.92 1155.23 1623.66 1158.05 1622.87 1160.66 1621.41 1162.8 1619.29 1262.33 1562.23 1345.4 1479.7 1403.1 1380.58 1404.02 1379.3 1404.9 1378 1405.44 1376.49 1459.91 1281.34 1491.23 1171.32 1491.23 1054.03 1491.23 936.77 1459.91 826.743 1405.46 731.596 1404.88 730.018 1403.99 728.669 1403.01 727.337 1345.09 627.896 1261.65 545.174 1161.66 488.11 1160.5 487.146 1159.19 486.55 1157.84 485.92 1063.74 433.062 955.365 402.777 839.975 402.777 724.603 402.777 616.224 433.062 522.128 485.92 520.796 486.533 519.464 487.146 518.307 488.11ZM702.836 453.392C667.662 541.809 640.427 630.717 621.043 719.994L448.888 719.994C472.653 651.468 503.708 583.047 542.107 514.82 591.898 487.216 645.877 466.396 702.836 453.392ZM822.467 438.267 822.467 720.011 657.269 720.011C677.687 628.001 706.464 536.394 744.039 445.347 769.679 441.299 795.88 439.003 822.467 438.267ZM935.946 445.33C973.504 536.376 1002.3 627.983 1022.72 719.994L857.518 719.994 857.518 438.267C884.088 439.003 910.289 441.299 935.946 445.33ZM1137.86 514.82C1176.26 583.047 1207.32 651.468 1231.08 719.994L1058.92 719.994C1039.54 630.717 1012.31 541.809 977.132 453.392 1034.09 466.396 1088.07 487.216 1137.86 514.82ZM1455.74 1036.51 1324.04 1036.51C1322.37 942.624 1307.48 848.756 1279.31 755.045L1378.54 755.045C1425.27 838.854 1452.89 934.614 1455.74 1036.51ZM1378.56 1352.99 1279.4 1352.99C1307.53 1259.3 1322.41 1165.45 1324.05 1071.56L1455.74 1071.56C1452.89 1173.44 1425.27 1269.18 1378.56 1352.99ZM976.816 1654.73C1011.41 1565.82 1038.35 1476.88 1057.7 1388.04L1231.15 1388.04C1207.42 1456.53 1176.4 1524.92 1138.04 1593.11 1088.14 1620.84 1033.97 1641.73 976.816 1654.73ZM857.518 1669.8 857.518 1388.04 1021.45 1388.04C1001.09 1479.56 972.715 1571.17 935.841 1662.74 910.219 1666.77 884.053 1669.05 857.518 1669.8ZM744.144 1662.74C707.27 1571.15 678.896 1479.54 658.531 1388.04L822.467 1388.04 822.467 1669.8C795.915 1669.05 769.749 1666.77 744.144 1662.74ZM541.914 1593.11C503.55 1524.92 472.53 1456.53 448.8 1388.04L622.253 1388.04C641.601 1476.9 668.538 1565.82 703.134 1654.73 646 1641.73 591.845 1620.84 541.914 1593.11ZM224.225 1071.56 355.913 1071.56C357.543 1165.45 372.44 1259.3 400.569 1352.99L301.408 1352.99C254.702 1269.18 227.099 1173.44 224.225 1071.56ZM301.426 755.045 400.657 755.045C372.493 848.756 357.596 942.624 355.931 1036.51L224.225 1036.51C227.099 934.614 254.72 838.854 301.426 755.045ZM857.518 1071.56 1059.03 1071.56C1057.7 1165.17 1047.88 1259.02 1029.13 1352.99L857.518 1352.99 857.518 1071.56ZM822.467 1352.99 650.855 1352.99C632.102 1259.02 622.288 1165.17 620.956 1071.56L822.467 1071.56 822.467 1352.99ZM857.518 1036.51 857.518 755.045 1030.18 755.045C1048.69 848.493 1058.36 942.361 1059.21 1036.51L857.518 1036.51ZM822.467 1036.51 620.763 1036.51C621.622 942.378 631.296 848.51 649.786 755.045L822.449 755.045 822.449 1036.51ZM585.448 1036.51 391.298 1036.51C393.015 942.624 408.35 848.756 437.408 755.045L613.858 755.045C595.754 848.51 586.272 942.378 585.448 1036.51ZM391.298 1071.56 585.536 1071.56C586.833 1165.17 596.647 1259.02 615.014 1352.99L437.321 1352.99C408.28 1259.31 392.98 1165.45 391.298 1071.56ZM1064.97 1352.99C1083.32 1259.02 1093.14 1165.17 1094.45 1071.56L1288.71 1071.56C1287.02 1165.45 1271.7 1259.31 1242.68 1352.99L1064.97 1352.99ZM1288.67 1036.51 1094.54 1036.51C1093.7 942.378 1084.21 848.528 1066.11 755.045L1242.56 755.045C1271.62 848.738 1286.95 942.624 1288.67 1036.51ZM482.099 552.886C453.953 608.495 430.556 664.227 411.803 720.011L322.579 720.011C364.816 654.78 419.024 598.049 482.099 552.886ZM322.562 1388.04 411.715 1388.04C430.433 1443.79 453.812 1499.49 481.924 1555.06 418.919 1509.9 364.781 1453.2 322.562 1388.04ZM1198.04 1555.06C1226.16 1499.49 1249.53 1443.79 1268.25 1388.04L1357.41 1388.04C1315.2 1453.2 1261.05 1509.9 1198.04 1555.06ZM1357.41 719.994 1268.16 719.994C1249.43 664.209 1226.02 608.495 1197.87 552.868 1260.96 598.049 1315.15 654.78 1357.41 719.994Z" fill="#3A322B" transform="matrix(1.00071 0 0 1 777.545 768.753)"/><path d="M1672.66 338.826C1425.37 161.185 1161.82 48.5464 889.293 4.0134 856.572-1.34948 823.396-1.34948 790.675 4.0134 518.149 48.5464 254.597 161.185 7.30825 338.826 2.71649 342.103 0 347.413 0 353.057L0 1295.28C0 1477.7 60.5165 1655.24 170.403 1795.18 322.439 1988.84 546.138 2127.61 835.313 2207.63 836.838 2208.05 838.415 2208.26 839.993 2208.26 841.57 2208.26 843.147 2208.05 844.672 2207.63 1144.24 2124.74 1373.46 1978.76 1525.95 1773.82 1625.29 1640.29 1679.99 1470.59 1679.99 1295.98L1679.99 353.057C1679.97 347.413 1677.25 342.103 1672.66 338.826ZM1644.92 1295.98C1644.92 1463.1 1592.67 1625.36 1497.79 1752.89 1348.78 1953.18 1133.58 2090.47 839.975 2172.55 556.548 2093.33 346.537 1962.78 197.936 1773.52 92.9041 1639.73 35.0515 1469.89 35.0515 1295.26L35.0515 362.065C275.786 190.628 531.89 81.8103 796.336 38.6093 825.324 33.8598 854.697 33.8598 883.649 38.6093 1148.1 81.8103 1404.18 190.628 1644.93 362.065L1644.93 1295.98Z" fill="#3A322B" transform="matrix(1.00071 0 0 1 777.545 768.753)"/><path d="M771.151 97.7763C534.098 151.458 312.362 247.972 112.112 384.638 107.328 387.915 104.454 393.331 104.454 399.114L104.454 1341.6C104.454 1460.62 139.207 1574.31 204.981 1670.35 339.649 1866.99 539.408 2011.49 833.648 2125.14 835.681 2125.93 837.82 2126.31 839.958 2126.31 842.096 2126.31 844.234 2125.93 846.267 2125.14 1140.51 2011.5 1340.28 1866.99 1474.93 1670.35 1540.71 1574.31 1575.46 1460.62 1575.46 1341.6L1575.46 399.114C1575.46 393.313 1572.61 387.898 1567.8 384.638 1367.61 247.972 1145.89 151.458 908.816 97.7763 863.775 87.5588 816.158 87.5588 771.151 97.7763ZM901.088 131.969C1130.8 183.986 1345.87 276.977 1540.45 408.403L1540.45 1341.6C1540.45 1453.52 1507.81 1560.35 1446.03 1650.54 1316.52 1839.66 1123.84 1979.4 839.975 2089.98 556.11 1979.4 363.432 1839.65 233.916 1650.54 172.156 1560.35 139.523 1453.52 139.523 1341.6L139.523 408.403C334.111 276.96 549.17 183.986 778.88 131.969 818.874 122.908 861.111 122.908 901.088 131.969Z" fill="#3A322B" transform="matrix(1.00071 0 0 1 777.545 768.753)"/></g></svg>