<svg width="1841" height="2187" xmlns="http://www.w3.org/2000/svg" xmlns:xlink="http://www.w3.org/1999/xlink" xml:space="preserve" overflow="hidden"><g transform="translate(-4388 -763)"><path d="M431.606 1501.97C467.054 1501.97 495.758 1530.68 495.758 1566.13 495.758 1601.4 467.054 1630.11 431.606 1630.11 396.157 1630.11 367.453 1601.4 367.453 1566.13 367.453 1530.68 396.157 1501.97 431.606 1501.97Z" fill="#FFC05A" transform="matrix(1.00062 0 0 1 4388 767.111)"/><path d="M1174.12 1718.64 1227.55 1772.59 1206.46 1813.4 1226.51 1855.59 1084.2 1998.77Z" fill="#B8D3CF" transform="matrix(1.00062 0 0 1 4388 767.111)"/><path d="M1084.2 1998.94 922.695 2161.49 922.695 1967.64Z" fill="#B8D3CF" transform="matrix(1.00062 0 0 1 4388 767.111)"/><path d="M1226.51 1855.59 1371.94 2161.49 922.695 2161.49 1084.2 1998.94 1084.2 1998.77Z" fill="#D6EAE8" transform="matrix(1.00062 0 0 1 4388 767.111)"/><path d="M1321.96 1493.33 1282.19 1589.3C1273.55 1610.05 1277.87 1632.87 1291.36 1649.13L1227.55 1772.59 1174.12 1718.64 1246.23 1493.33 1321.96 1493.33Z" fill="#D6EAE8" transform="matrix(1.00062 0 0 1 4388 767.111)"/><path d="M1371.94 1689.94 1371.94 2161.49 1226.51 1855.59 1206.46 1813.4 1227.55 1772.59 1291.36 1649.13C1297.06 1656.04 1304.5 1661.75 1313.49 1665.55L1371.94 1689.76 1371.94 1689.94Z" fill="#E7F2F1" transform="matrix(1.00062 0 0 1 4388 767.111)"/><path d="M1291.36 1649.13C1277.87 1632.87 1273.55 1610.05 1282.19 1589.3L1321.96 1493.33 1326.29 1482.95C1338.74 1453.21 1372.8 1439.2 1402.55 1451.48L1490.73 1488.14 1784.18 1610.22C1813.92 1622.67 1828.1 1656.74 1815.65 1686.48L1771.55 1792.82C1759.1 1822.57 1725.04 1836.57 1695.3 1824.29L1371.94 1689.94 1371.94 1689.76 1313.49 1665.55C1304.5 1661.75 1297.06 1656.04 1291.36 1649.13Z" fill="#6FCEAE" transform="matrix(1.00062 0 0 1 4388 767.111)"/><path d="M1297.06 1334.76 802.344 1253.83 790.758 1251.93C760.497 1247.09 729.718 1253.14 703.78 1269.4L640.837 1308.65C619.05 1322.31 592.593 1326.11 567.866 1319.03L442.845 1284.1C410.509 1275.1 385.955 1248.99 378.692 1216.66 377.828 1213.37 377.136 1209.74 376.79 1206.28L373.678 1178.27C371.257 1156.48 374.542 1134.52 383.361 1114.46L555.588 716.23C568.039 687.18 598.299 669.888 629.598 673.692L636.687 674.557C636.514 711.042 637.898 756.174 643.431 798.021 663.144 945.002 775.887 1040.11 907.997 1020.05 922.349 1017.8 936.01 1014.34 949.152 1009.67 960.91 980.969 954.685 958.144 930.477 941.37 917.162 946.558 902.81 950.016 887.593 951.4 818.944 957.625 769.662 919.929 740.785 868.226 726.778 843.325 747.528 812.892 775.714 816.523 797.848 819.29 822.575 829.492 848.686 843.325 812.892 770.181 749.603 729.199 699.803 682.338L1023.33 722.282 1097.69 731.447 1466.35 776.925C1517.54 783.323 1551.95 832.777 1539.84 883.097L1448.54 1263.86C1436.26 1315.74 1385.77 1349.11 1333.2 1340.64L1297.06 1334.76Z" fill="#E7C27D" transform="matrix(1.00062 0 0 1 4388 767.111)"/><path d="M1539.84 883.097 1490.73 1488.14 1402.55 1451.48C1372.8 1439.2 1338.74 1453.21 1326.29 1482.95L1321.96 1493.33 1246.23 1493.33 1297.06 1334.76 1333.2 1340.64C1385.77 1349.11 1436.26 1315.74 1448.54 1263.86L1539.84 883.097Z" fill="#B29576" transform="matrix(1.00062 0 0 1 4388 767.111)"/><path d="M1174.12 1718.64 1084.2 1998.77 1084.2 1998.94 922.695 1967.64 498.525 1885.33 595.533 1582.73 743.724 1445.95 791.796 1401.68C833.988 1362.6 838.138 1297.76 802.344 1253.83L1297.06 1334.76 1246.23 1493.33 1174.12 1718.64Z" fill="#BC8354" transform="matrix(1.00062 0 0 1 4388 767.111)"/><path d="M1097.69 731.447 1023.33 722.282C1005.52 661.069 965.06 623.891 922.695 585.158 874.278 540.89 824.304 495.067 824.304 416.562L824.304 311.946C825.515 312.119 826.898 312.119 828.109 312.119L891.224 312.119C892.434 312.119 893.818 312.119 895.028 311.946L895.028 416.562C895.028 463.941 926.672 492.992 970.421 533.109 1017.45 576.166 1079.19 632.71 1097.69 731.447Z" fill="#888C8D" transform="matrix(1.00062 0 0 1 4388 767.111)"/><path d="M930.477 941.37C954.685 958.144 960.91 980.969 949.152 1009.67 936.01 1014.34 922.349 1017.8 907.997 1020.05 775.887 1040.11 663.144 945.002 643.431 798.021 637.898 756.174 636.514 711.042 636.687 674.557 636.86 631.673 639.281 600.72 639.281 600.72 652.25 632.883 674.211 658.302 699.803 682.338 749.603 729.199 812.892 770.181 848.686 843.325 822.575 829.492 797.848 819.29 775.714 816.523 747.528 812.892 726.778 843.325 740.785 868.226 769.662 919.929 818.944 957.625 887.593 951.4 902.81 950.016 917.162 946.558 930.477 941.37Z" fill="#ABA9A0" transform="matrix(1.00062 0 0 1 4388 767.111)"/><path d="M824.304 311.946C807.531 310.044 794.562 295.864 794.562 278.572L794.562 17.2919 924.77 17.2919 924.77 278.572C924.77 295.864 911.801 310.044 895.028 311.946 893.818 312.119 892.434 312.119 891.224 312.119L828.109 312.119C826.898 312.119 825.515 312.119 824.304 311.946Z" fill="#604533" transform="matrix(1.00062 0 0 1 4388 767.111)"/><path d="M802.344 1253.83C838.138 1297.76 833.988 1362.6 791.796 1401.68L743.724 1445.95 595.533 1582.73 503.194 1667.98C459.273 1708.44 390.797 1705.67 350.161 1661.75L214.765 1515.12C174.302 1471.19 177.069 1402.72 220.99 1362.08L378.519 1216.66 378.692 1216.66C385.955 1248.99 410.509 1275.1 442.845 1284.1L567.866 1319.03C592.593 1326.11 619.05 1322.31 640.837 1308.65L703.78 1269.4C729.718 1253.14 760.497 1247.09 790.758 1251.93L802.344 1253.83ZM495.758 1566.13C495.758 1530.68 467.054 1501.97 431.606 1501.97 396.157 1501.97 367.453 1530.68 367.453 1566.13 367.453 1601.4 396.157 1630.11 431.606 1630.11 467.054 1630.11 495.758 1601.4 495.758 1566.13Z" fill="#F48CA7" transform="matrix(1.00062 0 0 1 4388 767.111)"/><path d="M208.194 1764.98 208.194 1735.59 209.059 1683.88C314.021 1684.4 398.924 1769.65 398.924 1874.79 398.924 1980.09 313.502 2065.52 208.194 2065.52 207.849 2065.52 207.676 2065.52 207.33 2065.52L208.194 2013.81 208.194 1984.42C238.455 1984.42 263.01 1959.86 263.01 1929.6 263.01 1899.34 238.455 1874.79 208.194 1874.79L208.194 1764.98Z" fill="#89A25B" transform="matrix(1.00062 0 0 1 4388 767.111)"/><path d="M208.194 1874.79C238.455 1874.79 263.01 1899.34 263.01 1929.6 263.01 1959.86 238.455 1984.42 208.194 1984.42L208.194 1874.79Z" fill="#89A25B" transform="matrix(1.00062 0 0 1 4388 767.111)"/><path d="M208.194 1984.42 208.194 2013.81 207.33 2065.52C102.195 2065 17.2919 1979.75 17.2919 1874.79 17.2919 1769.31 102.714 1683.88 208.194 1683.88 208.54 1683.88 208.713 1683.88 209.059 1683.88L208.194 1735.59 208.194 1764.98C177.761 1764.98 153.206 1789.54 153.206 1819.8 153.206 1850.23 177.761 1874.79 208.194 1874.79L208.194 1984.42Z" fill="#89A25B" transform="matrix(1.00062 0 0 1 4388 767.111)"/><path d="M208.194 1764.98 208.194 1874.79C177.761 1874.79 153.206 1850.23 153.206 1819.8 153.206 1789.54 177.761 1764.98 208.194 1764.98Z" fill="#89A25B" transform="matrix(1.00062 0 0 1 4388 767.111)"/><path d="M1466.35 776.925 1298.5 756.226C1298.5 756.226 1289.2 1291.1 383.361 1114.46 374.542 1134.52 371.257 1156.48 373.678 1178.27L376.79 1206.28C377.136 1209.74 377.828 1213.37 378.692 1216.66 385.955 1248.99 410.509 1275.1 442.845 1284.1L567.866 1319.03C592.593 1326.11 619.05 1322.31 640.837 1308.65L703.78 1269.4C729.718 1253.14 760.497 1247.09 790.758 1251.93L802.344 1253.83 1297.06 1334.76 1333.2 1340.64C1385.77 1349.11 1436.26 1315.74 1448.54 1263.86L1539.84 883.097C1551.95 832.777 1517.54 783.323 1466.35 776.925Z" fill="#D6B278" transform="matrix(1.00062 0 0 1 4388 767.111)"/><path d="M479.072 1343.89C472.829 1336.65 461.901 1335.85 454.69 1342.09L320.574 1457.86C313.346 1464.09 312.551 1475.02 318.776 1482.24 322.2 1486.2 327.024 1488.24 331.866 1488.24 335.86 1488.24 339.889 1486.86 343.158 1484.04L477.273 1368.27C484.519 1362.05 485.314 1351.12 479.072 1343.89Z" fill="#3A322B" transform="matrix(1.00062 0 0 1 4388 767.111)"/><path d="M698.886 1583.07 1086.36 1652.21C1087.4 1652.4 1088.42 1652.48 1089.42 1652.48 1097.65 1652.48 1104.93 1646.6 1106.42 1638.23 1108.1 1628.83 1101.84 1619.85 1092.43 1618.18L704.956 1549.04C695.463 1547.28 686.574 1553.62 684.897 1563.03 683.237 1572.42 689.497 1581.4 698.886 1583.07Z" fill="#3A322B" transform="matrix(1.00062 0 0 1 4388 767.111)"/><path d="M1081.87 1753.02C1083.65 1743.64 1077.49 1734.6 1068.12 1732.8L661.501 1655.47C652.06 1653.71 643.068 1659.85 641.287 1669.24 639.506 1678.61 645.662 1687.65 655.034 1689.45L1061.65 1766.78C1062.74 1766.99 1063.83 1767.09 1064.9 1767.09 1073.05 1767.08 1080.29 1761.3 1081.87 1753.02Z" fill="#3A322B" transform="matrix(1.00062 0 0 1 4388 767.111)"/><path d="M996.929 1834.83 667.64 1758.41C658.32 1756.11 649.051 1762.04 646.89 1771.35 644.728 1780.63 650.521 1789.94 659.824 1792.08L989.113 1868.49C990.428 1868.82 991.742 1868.94 993.039 1868.94 1000.91 1868.94 1008.01 1863.53 1009.86 1855.56 1012.03 1846.27 1006.23 1836.97 996.929 1834.83Z" fill="#3A322B" transform="matrix(1.00062 0 0 1 4388 767.111)"/><path d="M370.704 1326.56C364.461 1319.35 353.533 1318.54 346.322 1324.78L277.327 1384.42C270.099 1390.67 269.304 1401.59 275.546 1408.82 278.97 1412.78 283.794 1414.81 288.636 1414.81 292.631 1414.81 296.66 1413.42 299.928 1410.6L368.922 1350.96C376.168 1344.72 376.963 1333.79 370.704 1326.56Z" fill="#3A322B" transform="matrix(1.00062 0 0 1 4388 767.111)"/><path d="M245.7 1819.85C245.7 1829.41 253.447 1837.14 262.992 1837.14 272.537 1837.14 280.284 1829.41 280.284 1819.85 280.284 1786.04 256.836 1757.81 225.4 1750.01L225.4 1735.62C225.4 1726.06 217.653 1718.33 208.108 1718.33 198.563 1718.33 190.816 1726.06 190.816 1735.62L190.816 1750.01C159.397 1757.81 135.932 1786.04 135.932 1819.85 135.932 1853.66 159.379 1881.89 190.816 1889.69L190.816 1962.79C178.815 1956.49 170.515 1944.06 170.515 1929.6 170.515 1920.04 162.769 1912.31 153.223 1912.31 143.678 1912.31 135.932 1920.04 135.932 1929.6 135.932 1963.41 159.379 1991.65 190.816 1999.44L190.816 2013.83C190.816 2023.39 198.563 2031.12 208.108 2031.12 217.653 2031.12 225.4 2023.39 225.4 2013.83L225.4 1999.44C256.819 1991.65 280.284 1963.41 280.284 1929.6 280.284 1895.8 256.836 1867.56 225.4 1859.76L225.4 1786.67C237.4 1792.96 245.7 1805.39 245.7 1819.85ZM170.515 1819.85C170.515 1805.39 178.815 1792.96 190.816 1786.67L190.816 1853.02C178.815 1846.74 170.515 1834.31 170.515 1819.85ZM245.7 1929.62C245.7 1944.08 237.4 1956.51 225.4 1962.8L225.4 1896.45C237.4 1902.73 245.7 1915.16 245.7 1929.62Z" fill="#3A322B" transform="matrix(1.00062 0 0 1 4388 767.111)"/><path d="M208.108 1666.63C93.3589 1666.63 0 1759.99 0 1874.73 0 1989.48 93.3589 2082.84 208.108 2082.84 322.857 2082.84 416.216 1989.48 416.216 1874.73 416.216 1759.99 322.857 1666.63 208.108 1666.63ZM208.108 2048.26C112.432 2048.26 34.5838 1970.41 34.5838 1874.73 34.5838 1779.06 112.432 1701.21 208.108 1701.21 303.784 1701.21 381.632 1779.06 381.632 1874.73 381.632 1970.41 303.784 2048.26 208.108 2048.26Z" fill="#3A322B" transform="matrix(1.00062 0 0 1 4388 767.111)"/><path d="M1831.73 1635.24C1824.03 1616.58 1809.53 1602.02 1790.87 1594.28L1508.99 1477.06 1557.08 885.172C1563.27 857.003 1557.53 827.417 1541.07 803.675 1524.23 779.38 1497.74 763.368 1468.39 759.754L1111.94 715.798C1089.68 619.102 1027.85 562.228 982.006 520.209 940.022 481.717 912.285 456.298 912.285 416.51L912.285 324.655C929.785 316.614 942.045 299.011 942.045 278.52L942.045 17.2919C942.045 7.72947 934.298 0 924.753 0L794.58 0C785.034 0 777.288 7.72947 777.288 17.2919L777.288 278.52C777.288 299.011 789.53 316.614 807.047 324.655L807.047 416.51C807.047 502.641 862.295 553.271 911.04 597.919 945.278 629.286 977.753 659.374 996.998 701.618L707.653 665.945C685.312 644.451 666.36 621.73 655.345 594.27 652.354 586.8 644.659 582.391 636.653 583.619 628.716 584.829 622.646 591.383 622.041 599.406 621.885 601.395 620.26 623.805 619.62 656.123 585.348 656.729 553.513 677.22 539.645 709.279L367.383 1107.53C357.51 1130.34 353.757 1155.46 356.507 1180.15L359.619 1208.15C359.706 1208.86 359.913 1209.52 360 1210.21L209.197 1349.39C158.342 1396.34 155.143 1475.9 202.073 1526.77L337.503 1673.53C362.213 1700.29 395.967 1713.85 429.807 1713.85 460.258 1713.85 490.796 1702.85 514.883 1680.63L558.926 1639.98 481.96 1880.03C480.455 1884.73 481.026 1889.87 483.55 1894.12 486.075 1898.37 490.277 1901.35 495.136 1902.28L905.369 1981.84 905.369 2161.49C905.369 2161.5 905.369 2161.5 905.369 2161.52 905.369 2163.77 905.818 2166.02 906.7 2168.14 907.582 2170.25 908.844 2172.16 910.453 2173.75 910.47 2173.76 910.47 2173.76 910.47 2173.78 910.833 2174.14 911.3 2174.26 911.698 2174.59 913.029 2175.72 914.43 2176.79 916.055 2177.46 918.165 2178.33 920.413 2178.8 922.661 2178.8L1371.97 2178.8C1371.97 2178.8 1371.97 2178.8 1371.97 2178.8 1371.97 2178.8 1371.97 2178.8 1371.97 2178.8 1371.99 2178.8 1372.03 2178.78 1372.04 2178.78 1374.55 2178.76 1376.88 2178.17 1379.05 2177.2 1379.17 2177.15 1379.29 2177.19 1379.39 2177.12 1380.2 2176.74 1380.74 2176.05 1381.47 2175.56 1382.52 2174.85 1383.61 2174.23 1384.48 2173.31 1385.25 2172.5 1385.74 2171.52 1386.33 2170.56 1386.91 2169.63 1387.59 2168.77 1388 2167.73 1388.47 2166.54 1388.56 2165.27 1388.75 2164.01 1388.88 2163.16 1389.25 2162.39 1389.25 2161.5L1389.25 1715.7 1688.6 1840.19C1698.06 1844.11 1707.87 1845.98 1717.52 1845.98 1747.16 1845.98 1775.34 1828.43 1787.41 1799.41L1831.61 1693.12C1839.41 1674.46 1839.44 1653.92 1831.73 1635.24ZM1409.17 1435.56C1370.76 1419.66 1326.63 1437.77 1310.52 1476.04L1269.92 1476.04 1309 1354.16 1330.44 1357.67C1336.82 1358.71 1343.18 1359.21 1349.49 1359.21 1403.57 1359.21 1452.5 1321.95 1465.45 1267.91L1504.58 1104.73 1475.47 1463.14 1409.17 1435.56ZM1266.15 1582.62C1258.4 1601.26 1258.37 1621.81 1266.06 1640.48 1267.5 1643.97 1269.4 1647.16 1271.3 1650.34L1223.11 1743.51 1193.66 1713.85 1258.81 1510.62 1296.1 1510.62 1266.15 1582.62ZM1181.78 1750.92 1206.44 1775.76 1191.03 1805.53C1188.54 1810.32 1188.45 1816.01 1190.77 1820.91L1205.59 1852.03 1122.55 1935.65 1181.78 1750.92ZM1221.38 1885.2 1344.62 2144.19 964.196 2144.19 1221.38 1885.2ZM811.872 34.5838 907.461 34.5838 907.461 278.52C907.461 287.512 900.164 294.792 891.189 294.792L828.143 294.792C819.169 294.792 811.872 287.495 811.872 278.52L811.872 34.5838ZM934.402 572.431C886.693 528.734 841.631 487.441 841.631 416.51L841.631 329.376 877.702 329.376 877.702 416.51C877.702 471.515 913.409 504.249 958.766 545.836 1001.2 584.708 1052.71 632.624 1074.78 711.215L1035.99 706.426C1015.41 647.218 974.398 609.089 934.402 572.431ZM654.221 659.253C674.453 684.448 699.613 705.993 725.654 728.283 753.027 751.713 781.04 775.697 804.228 805.214 794.874 802.309 786.141 800.355 777.824 799.283 758.267 796.828 739.194 805.456 728.04 821.97 716.904 838.449 715.953 859.39 725.585 876.612 761.673 941.128 821.261 974.727 889.149 968.605 902.101 967.447 914.672 964.455 926.88 960.495 937.151 970.006 939.953 981.073 935.768 995.719 925.877 998.797 915.727 1001.36 905.351 1002.95 849.966 1011.37 797.554 998.451 753.788 965.648 703.33 927.814 670.216 867.465 660.602 795.755 654.342 748.929 653.564 697.382 654.221 659.253ZM399.149 1121.28 571.41 723.008C579.762 703.711 598.87 691.209 619.447 690.586 619.707 724.375 621.384 763.385 626.347 800.355 637.206 881.35 675.11 949.878 733.055 993.333 773.847 1023.92 822.714 1039.95 873.552 1039.95 885.794 1039.95 898.158 1039.02 910.539 1037.13 925.445 1034.89 940.074 1031.2 954.08 1026.29 954.149 1026.27 954.201 1026.26 954.27 1026.24 954.495 1026.15 954.754 1026.1 954.979 1026.03 955.325 1025.91 955.55 1025.63 955.896 1025.48 957.365 1024.86 958.732 1024.04 959.994 1023.02 960.513 1022.59 960.997 1022.18 961.464 1021.71 962.467 1020.69 963.279 1019.53 964.023 1018.25 964.334 1017.71 964.697 1017.26 964.957 1016.69 965.026 1016.52 965.164 1016.4 965.233 1016.23 979.931 980.07 971.112 948.426 940.402 927.105 939.935 926.776 939.382 926.724 938.898 926.448 937.86 925.877 936.84 925.427 935.699 925.064 934.627 924.718 933.572 924.476 932.465 924.355 931.41 924.234 930.39 924.234 929.318 924.303 928.108 924.39 926.966 924.58 925.79 924.926 925.254 925.081 924.718 924.995 924.182 925.203 912.078 929.958 899.265 932.967 886.071 934.16 812.684 940.852 772.896 890.342 755.777 859.718 752.508 853.891 752.872 847.009 756.71 841.32 760.566 835.631 766.809 832.777 773.449 833.607 791.069 835.855 813.03 844.017 840.576 858.56 847.199 862.07 855.326 860.911 860.686 855.689 866.064 850.484 867.482 842.409 864.197 835.682 836.53 779.103 792.833 740.352 753.252 706.408L1464.16 794.061C1483.73 796.482 1501.4 807.168 1512.64 823.371 1523.86 839.573 1527.69 859.857 1523.09 879.033L1431.79 1259.8C1421.53 1302.63 1379.44 1330.63 1335.99 1323.5L793.473 1234.88C759.2 1229.33 724.081 1236.32 694.598 1254.7L631.673 1293.97C614.07 1304.95 592.524 1308.06 572.534 1302.44L447.549 1267.41C418.36 1259.21 397.333 1234.47 393.996 1204.35L390.883 1176.35C388.791 1157.61 391.644 1138.57 399.149 1121.28ZM491.435 1655.23C454.586 1689.19 396.918 1686.89 362.922 1650.08L227.492 1503.34C193.479 1466.47 195.796 1408.82 232.645 1374.81L371.603 1246.57C385.177 1272.51 408.728 1292.45 438.194 1300.71L563.18 1335.75C592.472 1343.99 624.133 1339.43 649.985 1323.31L712.91 1284.04C735.268 1270.09 761.898 1264.76 787.888 1269.02L792.176 1269.71C818.373 1306.59 813.722 1357.79 779.968 1388.92L491.435 1655.23ZM610.525 1592.39 749.292 1464.35 1125.89 1523.16C1126.79 1523.29 1127.69 1523.36 1128.59 1523.36 1136.96 1523.36 1144.33 1517.26 1145.64 1508.73 1147.11 1499.29 1140.66 1490.46 1131.24 1488.97L781.749 1434.4 803.45 1414.37C842.201 1378.61 853.389 1323.59 835.285 1276.76L1274.48 1348.51 1072.34 1979 520.866 1872.04 610.525 1592.39ZM1049.03 2009.7 939.97 2119.54 939.97 1988.55 1049.03 2009.7ZM1354.7 2084.92 1225.68 1813.8 1296.91 1676.09C1300.14 1678.04 1303.38 1679.98 1306.92 1681.45L1354.7 1701.31 1354.7 2084.92ZM1799.72 1679.84 1755.52 1786.13C1746.83 1806.99 1722.76 1816.93 1701.9 1808.23L1320.18 1649.49C1314.48 1647.12 1309.58 1643.46 1305.57 1638.99 1305.05 1638.23 1304.48 1637.54 1303.84 1636.87 1301.54 1633.95 1299.49 1630.8 1298.03 1627.25 1293.85 1617.14 1293.87 1606 1298.07 1595.89L1337.91 1500.05C1337.91 1500.04 1337.93 1500.02 1337.93 1500.02L1342.27 1489.59C1350.95 1468.72 1375 1458.76 1395.89 1467.49L1777.59 1626.23C1787.7 1630.43 1795.57 1638.32 1799.76 1648.45 1803.94 1658.57 1803.92 1669.72 1799.72 1679.84Z" fill="#3A322B" transform="matrix(1.00062 0 0 1 4388 767.111)"/><path d="M1439.76 1539.76 1427.19 1544.39 1431.53 1533.93C1435.19 1525.11 1431.02 1514.99 1422.19 1511.31 1413.37 1507.7 1403.25 1511.81 1399.59 1520.65L1395.25 1531.09 1389.66 1518.9C1385.67 1510.2 1375.38 1506.42 1366.73 1510.39 1358.05 1514.37 1354.23 1524.63 1358.21 1533.32L1372.49 1564.5 1340.29 1576.36C1331.34 1579.67 1326.74 1589.61 1330.04 1598.57 1332.62 1605.55 1339.24 1609.87 1346.26 1609.87 1348.25 1609.87 1350.25 1609.53 1352.24 1608.8L1364.81 1604.17 1360.47 1614.63C1356.81 1623.45 1360.98 1633.56 1369.81 1637.25 1371.97 1638.15 1374.22 1638.56 1376.43 1638.56 1383.21 1638.56 1389.65 1634.57 1392.41 1627.91L1396.75 1617.45 1402.34 1629.62C1405.24 1635.97 1411.52 1639.7 1418.07 1639.7 1420.49 1639.7 1422.93 1639.2 1425.27 1638.13 1433.95 1634.15 1437.77 1623.9 1433.79 1615.2L1419.51 1584.02 1451.69 1572.16C1460.65 1568.86 1465.25 1558.92 1461.94 1549.96 1458.66 1541.05 1448.75 1536.45 1439.76 1539.76Z" fill="#3A322B" transform="matrix(1.00062 0 0 1 4388 767.111)"/><path d="M1592.63 1603.34 1580.06 1607.97 1584.42 1597.49C1588.09 1588.68 1583.92 1578.56 1575.08 1574.88 1566.28 1571.26 1556.15 1575.38 1552.48 1584.21L1548.14 1594.68 1542.56 1582.5C1538.58 1573.82 1528.29 1570.03 1519.63 1573.99 1510.95 1577.97 1507.13 1588.23 1511.1 1596.92L1525.39 1628.1 1493.21 1639.95C1484.25 1643.23 1479.65 1653.19 1482.95 1662.15 1485.53 1669.13 1492.13 1673.46 1499.17 1673.46 1501.16 1673.46 1503.17 1673.11 1505.16 1672.39L1517.73 1667.75 1513.37 1678.23C1509.7 1687.05 1513.87 1697.16 1522.71 1700.85 1524.87 1701.75 1527.12 1702.16 1529.33 1702.16 1536.11 1702.16 1542.54 1698.17 1545.31 1691.51L1549.65 1681.05 1555.23 1693.22C1558.14 1699.57 1564.41 1703.3 1570.97 1703.3 1573.39 1703.3 1575.83 1702.8 1578.16 1701.73 1586.84 1697.75 1590.66 1687.5 1586.69 1678.8L1572.4 1647.62 1604.58 1635.78C1613.54 1632.49 1618.14 1622.53 1614.84 1613.58 1611.55 1604.62 1601.63 1600.04 1592.63 1603.34Z" fill="#3A322B" transform="matrix(1.00062 0 0 1 4388 767.111)"/><path d="M1745.53 1666.89 1732.96 1671.52 1737.3 1661.06C1740.96 1652.24 1736.8 1642.12 1727.96 1638.44 1719.14 1634.81 1709.03 1638.96 1705.36 1647.78L1701.02 1658.24 1695.44 1646.07C1691.44 1637.39 1681.15 1633.6 1672.51 1637.56 1663.83 1641.54 1660 1651.79 1663.98 1660.49L1678.26 1691.67 1646.08 1703.53C1637.13 1706.83 1632.53 1716.77 1635.83 1725.73 1638.41 1732.72 1645.03 1737.04 1652.05 1737.04 1654.04 1737.04 1656.04 1736.69 1658.03 1735.97L1670.6 1731.33 1666.26 1741.79C1662.6 1750.61 1666.77 1760.73 1675.6 1764.41 1677.76 1765.31 1680.01 1765.73 1682.22 1765.73 1689 1765.73 1695.44 1761.73 1698.2 1755.07L1702.54 1744.63 1708.13 1756.82C1711.03 1763.17 1717.31 1766.9 1723.86 1766.9 1726.28 1766.9 1728.72 1766.4 1731.06 1765.33 1739.74 1761.35 1743.56 1751.1 1739.58 1742.4L1725.3 1711.22 1757.5 1699.36C1766.45 1696.06 1771.05 1686.11 1767.75 1677.16 1764.43 1668.2 1754.54 1663.62 1745.53 1666.89Z" fill="#3A322B" transform="matrix(1.00062 0 0 1 4388 767.111)"/><path d="M431.571 1484.63C386.681 1484.63 350.161 1521.15 350.161 1566.04 350.161 1610.93 386.681 1647.43 431.571 1647.43 476.461 1647.43 512.981 1610.93 512.981 1566.04 512.981 1521.15 476.461 1484.63 431.571 1484.63ZM431.571 1612.85C405.754 1612.85 384.745 1591.84 384.745 1566.04 384.745 1540.22 405.754 1519.21 431.571 1519.21 457.388 1519.21 478.397 1540.22 478.397 1566.04 478.397 1591.86 457.405 1612.85 431.571 1612.85Z" fill="#3A322B" transform="matrix(1.00062 0 0 1 4388 767.111)"/></g></svg>