<svg width="1997" height="1855" xmlns="http://www.w3.org/2000/svg" xmlns:xlink="http://www.w3.org/1999/xlink" xml:space="preserve" overflow="hidden"><defs><clipPath id="clip0"><rect x="4232" y="929" width="1997" height="1855"/></clipPath></defs><g clip-path="url(#clip0)" transform="translate(-4232 -929)"><path d="M1897.56 650.544C1890.39 610.326 1918.44 583.826 1914.39 533.164 1910.49 482.503 1759.13 177.129 1519.85 165.906 1459.53 163.1 1406.06 176.038 1359.61 197.861 1221.81 262.553 1144.33 405.185 1124.54 447.117 1124.54 447.117 1324.22 439.635 1440.51 499.65 1556.8 559.664 1735.75 973.22 1746.19 1019.67 1749.94 1036.35 1747.44 1055.99 1742.61 1074.23L1742.76 1074.23C1742.76 1074.23 1796.7 1041.34 1826.32 1058.33 1855.78 1075.17 1866.69 1137.83 1855.78 1162.31 1844.71 1186.78 1777.84 1171.5 1758.98 1199.56 1740.11 1227.46 1786.88 1239.16 1777.99 1274.7 1769.11 1310.39 1549.63 1439.93 1529.21 1475.32 1508.79 1510.86 1540.12 1534.4 1533.57 1561.68 1527.02 1588.96 1476.99 1605.79 1466.54 1641.96 1456.1 1678.12 1474.02 1706.96 1464.67 1726.44 1455.16 1745.93 1428.97 1742.19 1414.16 1764.95 1400.14 1786.46 1399.51 1835.09 1399.51 1839.61L1948.53 1839.61 1948.53 1209.38 1948.53 725.991C1948.53 725.991 1904.73 690.606 1897.56 650.544Z" fill="#47394F" transform="matrix(1.00086 0 0 1 4235.9 929)"/><path d="M1826.32 1058.33C1796.7 1041.34 1742.76 1074.23 1742.76 1074.23L1742.61 1074.23C1747.44 1055.99 1749.94 1036.35 1746.19 1019.67 1735.75 973.22 1556.8 559.664 1440.51 499.65 1324.22 439.635 1124.54 447.117 1124.54 447.117 1098.04 503.391 1049.71 607.676 1049.71 683.279 1049.71 729.888 1063.9 806.894 1075.74 863.011 1085.41 908.997 1115.49 954.358 1157.58 975.714 1180.34 987.094 1208.24 997.538 1240.82 1002.21 1249.4 1003.62 1258.44 1004.4 1267.64 1004.86 1380.81 1009.7 1433.96 962.308 1514.24 1022.48 1551.65 1050.54 1568.8 1092.94 1576.44 1130.35 1585.32 1173.53 1581.58 1209.85 1581.58 1209.85 1554.46 1234.48 1532.64 1261.29 1519.85 1282.8 1494.6 1325.36 1473.87 1441.8 1465.76 1492.15 1463.11 1508.36 1458.28 1524.11 1451.58 1539.23L1356.64 1750.92 1316.89 1839.61 1399.51 1839.61C1399.51 1835.09 1400.14 1786.46 1414.16 1764.95 1428.97 1742.19 1455.16 1745.93 1464.67 1726.44 1474.02 1706.96 1456.1 1678.12 1466.54 1641.96 1476.99 1605.79 1527.02 1588.96 1533.57 1561.68 1540.12 1534.4 1508.79 1510.86 1529.21 1475.32 1549.63 1439.93 1769.11 1310.39 1777.99 1274.7 1786.88 1239.16 1740.11 1227.46 1758.98 1199.56 1777.84 1171.5 1844.71 1186.78 1855.78 1162.31 1866.69 1137.83 1855.78 1075.17 1826.32 1058.33Z" fill="#F7B346" transform="matrix(1.00086 0 0 1 4235.9 929)"/><path d="M1576.44 1130.35C1576.44 1130.35 1520.32 1214.84 1435.21 1231.05 1413.07 1235.26 1389.38 1221.85 1366.15 1199.56 1366.15 1199.56 1447.37 1183.51 1470.13 1138.14 1492.73 1092.94 1443 1048.51 1443 1048.51 1422.58 1103.38 1377.69 1127.08 1310.97 1130.04 1270.44 1068.78 1240.82 1002.37 1240.82 1002.37L1240.82 1002.21C1249.4 1003.62 1258.44 1004.4 1267.64 1004.86 1380.81 1009.7 1433.96 962.308 1514.24 1022.48 1551.65 1050.54 1568.8 1092.94 1576.44 1130.35Z" fill="#FEC4B9" transform="matrix(1.00086 0 0 1 4235.9 929)"/><path d="M1443 1048.51C1443 1048.51 1492.73 1092.94 1470.13 1138.14 1447.37 1183.51 1366.15 1199.56 1366.15 1199.56 1346.82 1180.86 1327.96 1155.91 1310.97 1130.04 1377.69 1127.08 1422.58 1103.38 1443 1048.51Z" fill="#F48CA7" transform="matrix(1.00086 0 0 1 4235.9 929)"/><path d="M1356.64 1750.92 1316.89 1839.61 1316.27 1839.61C1310.97 1834.94 1262.18 1793.47 1206.37 1772.58 1147.29 1750.45 1007.94 1722.86 1007.94 1722.86 996.868 1707.74 982.215 1691.99 963.976 1682.64 943.556 1672.04 920.329 1668.61 901.156 1667.99 922.044 1644.45 931.241 1620.91 928.747 1597.37 928.747 1597.37 1000.92 1595.97 1047.06 1612.34 1093.36 1628.71 1122.2 1659.73 1162.26 1672.66 1202.48 1685.6 1248.15 1672.51 1284 1682.64 1319.7 1692.77 1356.64 1750.92 1356.64 1750.92Z" fill="#524956" transform="matrix(1.00086 0 0 1 4235.9 929)"/><path d="M1007.94 1722.86C1007.94 1722.86 1147.29 1750.45 1206.37 1772.58 1262.18 1793.47 1310.97 1834.94 1316.27 1839.61L864.212 1839.61C849.247 1834.94 834.594 1830.11 820.253 1824.81 860.782 1775.39 875.903 1723.95 862.029 1670.33 862.029 1670.33 878.709 1667.21 901.156 1667.99 920.329 1668.61 943.556 1672.04 963.976 1682.64 982.215 1691.99 996.868 1707.74 1007.94 1722.86Z" fill="#5D5560" transform="matrix(1.00086 0 0 1 4235.9 929)"/><path d="M928.747 1597.37C931.241 1620.91 922.044 1644.45 901.156 1667.99 878.709 1667.21 862.029 1670.33 862.029 1670.33 862.029 1670.33 699.6 1561.21 659.382 1558.09 657.044 1557.93 654.394 1557.93 651.588 1558.09 651.588 1558.09 695.703 1506.49 743.715 1506.49 791.57 1506.49 928.747 1597.37 928.747 1597.37Z" fill="#F7B6AD" transform="matrix(1.00086 0 0 1 4235.9 929)"/><path d="M512.073 1609.69C512.073 1609.69 607.006 1561.21 651.588 1558.09 654.394 1557.93 657.044 1557.93 659.382 1558.09 699.6 1561.21 862.029 1670.33 862.029 1670.33 875.903 1723.95 860.782 1775.39 820.253 1824.81 788.141 1813.74 757.588 1801.58 728.594 1788.33 697.106 1774.3 667.176 1759.02 638.962 1742.81 624.621 1734.55 607.629 1733.15 593.132 1740.78L514.724 1785.06C510.047 1787.55 505.059 1788.8 500.071 1788.8 490.562 1788.8 481.209 1784.28 475.441 1775.86 465.621 1761.52 470.141 1741.72 485.418 1732.99L574.582 1682.64 458.45 1680.46C449.097 1680.3 440.679 1676.25 434.444 1670.17 428.365 1663.93 424.312 1655.52 424.156 1646.16 423.844 1626.68 439.276 1610.78 458.606 1610.47L512.073 1609.69Z" fill="#FEC4B9" transform="matrix(1.00086 0 0 1 4235.9 929)"/><path d="M728.282 1788.8 728.282 1839.93 192.982 1839.93C218.235 1839.93 238.656 1819.51 238.656 1794.25 238.656 1792.38 238.5 1790.51 238.188 1788.8L238.344 1788.8 500.071 1788.8 728.282 1788.8Z" fill="#60676B" transform="matrix(1.00086 0 0 1 4235.9 929)"/><path d="M1228.98 15.635 204.985 15.635C132.812 15.635 74.3559 74.0909 74.3559 146.109L74.3559 732.382C74.3559 804.555 132.812 863.011 204.985 863.011L474.973 863.011 187.215 1343.28 854.079 863.011 1075.74 863.011C1063.9 806.894 1049.71 729.888 1049.71 683.279 1049.71 607.676 1098.04 503.391 1124.54 447.117 1144.33 405.185 1221.81 262.553 1359.61 197.861L1359.61 146.109C1359.61 74.0909 1300.99 15.635 1228.98 15.635Z" fill="#6FCEAE" transform="matrix(1.00086 0 0 1 4235.9 929)"/><path d="M238.188 1788.8C238.5 1790.51 238.656 1792.38 238.656 1794.25 238.656 1819.51 218.235 1839.93 192.982 1839.93 167.729 1839.93 147.309 1819.51 147.309 1794.25 147.309 1784.12 150.582 1774.77 156.194 1767.13 164.612 1755.91 177.862 1748.58 192.982 1748.58 199.529 1748.58 205.921 1749.98 211.532 1752.48 225.874 1758.87 236.474 1772.58 238.188 1788.8Z" fill="#604533" transform="matrix(1.00086 0 0 1 4235.9 929)"/><path d="M71.55 1118.97 211.532 1752.48C205.921 1749.98 199.529 1748.58 192.982 1748.58 177.862 1748.58 164.612 1755.91 156.194 1767.13L15.5882 1131.44 71.55 1118.97Z" fill="#60676B" transform="matrix(1.00086 0 0 1 4235.9 929)"/><path d="M488.847 227.167C488.847 286.091 448.941 335.661 394.694 350.626L394.694 758.726C394.694 770.417 386.744 781.173 375.209 783.2 366.479 784.758 357.75 784.914 349.021 783.667 336.394 781.797 326.729 771.353 326.729 758.57L326.729 719.132 249.724 719.132 249.724 664.885 326.729 664.885 326.729 603 249.724 603 249.724 548.753 326.729 548.753 326.729 350.626C272.482 335.661 232.576 286.091 232.576 227.167 232.576 156.241 289.941 98.8762 360.712 98.8762 431.482 98.8762 488.847 156.241 488.847 227.167ZM425.715 227.167C425.715 191.159 396.565 162.009 360.712 162.009 324.859 162.009 295.709 191.159 295.709 227.167 295.709 263.02 324.859 292.17 360.712 292.17 396.565 292.17 425.715 263.02 425.715 227.167Z" fill="#FFC05A" transform="matrix(1.00086 0 0 1 4235.9 929)"/><path d="M1605.39 1069.98C1589.92 935.201 1402.1 926.362 1342.44 937.398 1282.79 948.451 1267.32 944.023 1180.34 927.625 1093.36 911.21 1049.71 683.279 1049.71 683.279 1049.71 729.888 1063.9 806.894 1075.74 863.011 1085.41 908.997 1115.49 954.358 1157.58 975.714 1180.34 987.094 1208.24 997.538 1240.82 1002.21 1249.4 1003.62 1258.44 1004.4 1267.64 1004.86 1380.81 1009.7 1433.96 962.308 1514.24 1022.48 1551.65 1050.54 1568.8 1092.94 1576.44 1130.35 1585.32 1173.53 1581.58 1209.85 1581.58 1209.85 1554.46 1234.48 1532.64 1261.29 1519.85 1282.8 1494.6 1325.36 1473.87 1441.8 1465.76 1492.15 1463.11 1508.36 1458.28 1524.11 1451.58 1539.23L1356.64 1750.92 1316.89 1839.61 1316.74 1839.93 1356.64 1839.93C1356.64 1839.93 1441.88 1628.99 1476.02 1575.97 1510.16 1522.95 1508.16 1463.28 1508.16 1463.28 1508.16 1463.28 1519.21 1328.51 1582.05 1279.89 1644.89 1231.28 1620.85 1204.77 1605.39 1069.98Z" fill="#FFE36E" transform="matrix(1.00086 0 0 1 4235.9 929)"/><path d="M1897.56 650.544C1890.39 610.326 1918.44 583.826 1914.39 533.164 1910.49 482.503 1759.13 177.129 1519.85 165.906 1459.53 163.1 1406.06 176.038 1359.61 197.861 1359.61 197.861 1674.83 222.943 1765.23 491.372 1765.23 491.372 1778.93 537.934 1767.97 584.512 1757.01 631.074 1789.89 691.338 1836.45 751.602 1883.01 811.866 1987.16 1839.61 1536.53 1839.61L1948.53 1839.61 1948.53 1209.38 1948.53 725.991C1948.53 725.991 1904.73 690.606 1897.56 650.544Z" fill="#342A3A" transform="matrix(1.00086 0 0 1 4235.9 929)"/><path d="M1956.92 1196.32C1954.25 1194.62 1919.91 1173 1874.22 1153.17 1879.72 1118.3 1866.18 1063.18 1833.99 1044.74 1812.57 1032.42 1784.18 1038.91 1763.12 1047.08 1763.95 1036.48 1763.57 1026 1761.39 1016.26 1750.96 969.51 1570.12 549.096 1447.62 485.854 1353.06 437.032 1208.84 431.389 1150.05 431.264 1178.84 377.5 1249.1 266.949 1363.75 212.624 1365.12 212.234 1366.36 211.688 1367.54 210.956 1411.61 190.706 1462.07 178.766 1519.18 181.525 1754.39 192.577 1895.95 496.953 1898.91 534.411 1900.69 556.765 1895.45 573.46 1889.92 591.168 1884.04 609.983 1877.95 629.437 1882.25 653.256 1890.42 698.633 1936.78 736.575 1938.74 738.15 1945.46 743.606 1955.26 742.514 1960.66 735.843 1966.08 729.14 1965.04 719.319 1958.35 713.926 1947.44 705.118 1918.02 676.031 1912.94 647.738 1910.01 631.433 1914.27 617.777 1919.69 600.474 1925.58 581.644 1932.27 560.319 1930.01 531.948 1925.3 472.76 1768.73 162.055 1520.65 150.38 1466.63 147.932 1418.23 157.379 1375.15 174.121L1375.15 146.186C1375.13 65.5797 1309.55 0 1228.95 0L204.97 0C124.363 0 58.7832 65.5797 58.7832 146.186L58.7832 732.366C58.7832 812.973 124.363 878.537 204.97 878.537L447.523 878.537 173.793 1335.3C169.99 1341.63 171.159 1349.79 176.615 1354.79 179.576 1357.52 183.364 1358.9 187.168 1358.9 190.348 1358.9 193.544 1357.92 196.271 1355.97L859.114 878.553 1063.73 878.553C1077.38 927.048 1109.66 968.949 1150.49 989.619 1176.07 1002.56 1202.73 1011.22 1229.97 1016.09 1238.92 1035.23 1264.63 1088.2 1297.86 1138.67 1318.23 1169.59 1337.5 1193.42 1355.93 1211.1 1356.16 1211.3 1356.36 1211.55 1356.6 1211.74 1381.44 1235.38 1404.73 1247.48 1426.68 1247.48 1430.53 1247.48 1434.35 1247.12 1438.12 1246.4 1495.88 1235.41 1540.46 1196.23 1565.84 1168.34 1566.98 1183.58 1566.73 1195.9 1566.4 1202.63 1540.71 1226.75 1519.81 1252.58 1506.51 1274.95 1480.71 1318.33 1460.2 1428.12 1450.28 1489.71 1447.91 1504.48 1443.56 1518.98 1437.38 1532.82L1353.51 1719.88C1338.09 1700.47 1313.79 1674.86 1288.16 1667.61 1269.07 1662.19 1248.21 1662.63 1228.09 1663.02 1207.37 1663.44 1185.87 1663.86 1167.06 1657.82 1148.99 1652.03 1132.8 1641.75 1115.67 1630.87 1096.77 1618.87 1077.22 1606.49 1052.3 1597.64 1011.18 1583.05 952.659 1581.82 934.125 1581.82 933.829 1581.82 933.548 1581.82 933.268 1581.82 907.079 1564.68 791.539 1490.98 743.621 1490.98 697.683 1490.98 656.904 1529.75 644.028 1543.34 599.352 1549.56 526.477 1584.96 508.13 1594.16L458.372 1594.88C444.81 1595.08 432.153 1600.54 422.737 1610.28 413.322 1620.04 408.271 1632.87 408.536 1646.44 409.082 1673.71 430.89 1695.47 458.154 1695.98L517.373 1697.11 477.686 1719.49C466.618 1725.74 458.621 1736.42 455.769 1748.81 453.883 1757 454.537 1765.43 457.125 1773.26L250.285 1773.26C245.561 1760.39 236.754 1749.61 225.312 1742.44L86.7018 1115.65C84.8312 1107.23 76.4447 1101.98 68.1206 1103.79L12.2212 1116.15C8.18382 1117.05 4.67647 1119.5 2.44735 1122.99 0.218235 1126.48-0.514412 1130.71 0.358529 1134.75L139.639 1764.59C134.714 1773.41 131.658 1783.42 131.658 1794.22 131.658 1828.02 159.156 1855.51 192.936 1855.51L728.282 1855.51C736.903 1855.51 743.871 1848.55 743.871 1839.93L743.871 1812.04C766.333 1821.59 789.606 1830.43 813.347 1838.83 814.594 1839.44 815.841 1839.88 817.166 1840.13 831.165 1845.04 845.101 1850.01 859.504 1854.52 861.047 1855 862.606 1855.23 864.149 1855.23 870.79 1855.23 876.947 1850.96 879.021 1844.29 881.593 1836.09 877.01 1827.33 868.795 1824.77 860.938 1822.31 853.44 1819.51 845.708 1816.92 875.778 1773.68 887.376 1729.08 880.455 1683.86 886.238 1683.47 893.268 1683.25 901.047 1683.51 901.078 1683.51 901.109 1683.53 901.14 1683.53 901.156 1683.53 901.187 1683.51 901.203 1683.51 918.396 1684.12 938.942 1687.18 956.743 1696.39 995.106 1716.26 1017.18 1770.15 1017.41 1770.7 1019.86 1776.79 1025.71 1780.49 1031.88 1780.49 1033.81 1780.49 1035.78 1780.13 1037.68 1779.37 1045.67 1776.15 1049.56 1767.1 1046.36 1759.12 1046.06 1758.38 1043.88 1753.08 1039.95 1745.37 1084.93 1755.02 1161.79 1772.49 1200.96 1787.14 1256.49 1807.92 1306.01 1851.17 1306.51 1851.6 1307.24 1852.26 1308.13 1852.57 1308.94 1853.05 1309.47 1853.38 1309.86 1853.86 1310.44 1854.13 1310.58 1854.19 1310.74 1854.16 1310.89 1854.22 1312.79 1855.02 1314.79 1855.5 1316.8 1855.5 1318.75 1855.5 1320.62 1855.02 1322.41 1854.31 1322.86 1854.14 1323.29 1853.94 1323.72 1853.72 1325.48 1852.85 1327.12 1851.76 1328.46 1850.25 1328.48 1850.23 1328.49 1850.23 1328.51 1850.21 1328.51 1850.21 1328.51 1850.21 1328.51 1850.2 1329.52 1849.06 1330.38 1847.75 1331.03 1846.29L1465.86 1545.53C1473.18 1529.19 1478.31 1512.07 1481.12 1494.6 1497.16 1395.02 1516.69 1318.84 1533.37 1290.81 1565.81 1236.29 1652.59 1154.15 1735.87 1151.08 1760.04 1150.24 1786.66 1155.59 1812.52 1163.55 1811.57 1163.68 1810.59 1163.82 1809.81 1163.93 1786.29 1167.08 1759.65 1170.65 1746.07 1190.75 1730.15 1214.35 1744.46 1233.26 1753.02 1244.55 1760.94 1254.99 1765.31 1261.35 1763 1270.67 1757.07 1286.29 1683.3 1338.2 1634.46 1372.56 1567.69 1419.54 1526.24 1449.25 1515.69 1467.57 1500.1 1494.62 1508.13 1517.33 1513.98 1533.93 1517.39 1543.62 1520.1 1551.28 1518.47 1558.06 1516.59 1565.84 1505.18 1575.27 1494.15 1584.37 1477.41 1598.2 1458.42 1613.87 1451.56 1637.62 1445.09 1660.04 1447.9 1679.54 1450.16 1695.22 1451.67 1705.7 1452.98 1714.75 1450.59 1719.63 1448.47 1724.01 1443.89 1726.26 1435.32 1730.15 1424.56 1735.03 1411.14 1741.13 1401.21 1756.4 1384.42 1782.2 1383.94 1834.08 1383.94 1839.91 1383.94 1848.52 1390.91 1855.48 1399.51 1855.5 1399.53 1855.5 1399.53 1855.5 1399.53 1855.5 1408.13 1855.5 1415.1 1848.53 1415.12 1839.93 1415.13 1821.44 1418.47 1787.04 1427.34 1773.41 1432.32 1765.76 1439.7 1762.41 1448.22 1758.54 1458.62 1753.82 1471.56 1747.94 1478.68 1733.21 1485.2 1719.74 1483.08 1704.99 1481.02 1690.75 1479 1676.73 1476.91 1662.24 1481.52 1646.26 1485.71 1631.75 1500.09 1619.9 1514.01 1608.41 1528.99 1596.03 1544.48 1583.25 1548.78 1565.32 1552.54 1549.6 1547.68 1535.77 1543.36 1523.55 1537.56 1507.07 1534.65 1497.08 1542.69 1483.11 1550.34 1469.85 1606.93 1430.03 1652.4 1398.05 1743.86 1333.7 1787.55 1300.93 1793.16 1278.48 1799.29 1253.95 1786.38 1236.96 1777.88 1225.7 1768.47 1213.28 1769.06 1212.41 1771.91 1208.18 1777.65 1199.67 1796.92 1197.08 1813.94 1194.81 1830.98 1192.53 1848.41 1190.13 1859.99 1181.17 1905.02 1200.54 1939.53 1222.15 1940.16 1222.55 1947.45 1227.21 1957.07 1225.05 1961.69 1217.8 1966.28 1210.58 1964.18 1200.95 1956.92 1196.32ZM913.517 1606.15C913.268 1621.22 906.752 1636.42 893.938 1652.26 881.842 1652.26 871.741 1653.18 865.63 1653.96 834.485 1633.19 736.809 1569.35 683.825 1548.89 699.195 1536.27 721.361 1522.14 743.652 1522.14 773.831 1522.14 861.001 1571.95 913.517 1606.15ZM59.625 1137.61 191.33 1733.13C182.242 1733.38 173.715 1735.67 166.03 1739.48L34.1694 1143.24 59.625 1137.61ZM162.835 1794.24C162.835 1777.65 176.334 1764.14 192.936 1764.14 209.537 1764.14 223.052 1777.64 223.052 1794.24 223.052 1810.84 209.553 1824.35 192.936 1824.35 176.334 1824.34 162.835 1810.84 162.835 1794.24ZM712.694 1824.34 245.982 1824.34C249.459 1818.24 251.968 1811.59 253.184 1804.43L497.701 1804.43C497.935 1804.45 498.153 1804.43 498.387 1804.43L712.694 1804.43 712.694 1824.34ZM567.24 1773.26 600.35 1754.58C609.375 1749.78 620.895 1750.4 631.136 1756.31 641.362 1762.19 652.165 1767.66 662.781 1773.26L567.24 1773.26ZM814.719 1806.4C754.128 1784.4 697.714 1758.63 646.662 1729.27 627.099 1718.03 604.356 1717.2 585.401 1727.19L507.023 1771.42C500.569 1775.02 492.495 1773.19 488.301 1767.07 486.026 1763.75 485.262 1759.76 486.166 1755.81 487.086 1751.88 489.517 1748.61 493.025 1746.63L586.881 1693.69C596.546 1688.61 607.77 1687.01 618.463 1689.19L651.588 1695.97C659.99 1697.68 668.252 1692.26 669.982 1683.83 671.713 1675.39 666.272 1667.16 657.839 1665.43L624.73 1658.65C606.928 1655 588.362 1657.67 571.948 1666.32L570.904 1666.91 458.762 1664.81C448.302 1664.61 439.962 1656.27 439.744 1645.82 439.635 1640.61 441.568 1635.7 445.2 1631.95 448.801 1628.22 453.649 1626.12 458.855 1626.04L605.338 1623.92C617.98 1623.73 631.511 1626.79 643.171 1632.79L679.273 1651.36C686.927 1655.3 696.326 1652.27 700.27 1644.61 704.198 1636.95 701.19 1627.55 693.521 1623.61L657.434 1605.06C641.253 1596.73 623.186 1592.63 604.886 1592.73L586.648 1592.99C612.399 1582.74 637.356 1574.6 652.57 1573.57 652.742 1573.55 652.913 1573.55 653.1 1573.54 654.971 1573.43 656.701 1573.41 658.244 1573.55 683.731 1575.55 785.787 1638.2 847.953 1679.63 857.384 1722.7 846.457 1764.32 814.719 1806.4ZM1016.73 1708.69C1004.96 1693.55 989.728 1678.42 971.069 1668.75 957.741 1661.83 943.493 1657.81 929.729 1655.38 938.069 1641.44 942.901 1627.33 944.211 1613.13 967.11 1613.65 1011.15 1616.09 1041.92 1627.01 1063.54 1634.68 1081.56 1646.12 1098.99 1657.19 1117.04 1668.63 1135.68 1680.47 1157.57 1687.49 1181.31 1695.1 1205.38 1694.6 1228.74 1694.18 1247.43 1693.82 1265.08 1693.46 1279.7 1697.59 1301.13 1703.67 1326.53 1734.74 1338.94 1752.41L1310.86 1815.05C1290.5 1799.38 1253.29 1773.46 1211.88 1757.96 1158.33 1737.95 1043.6 1714.13 1016.73 1708.69ZM1818.49 1071.78C1835.44 1081.5 1845.13 1117.66 1844.23 1141.15 1811.77 1129.31 1776.33 1120.39 1743.34 1120.08 1747.52 1110.26 1752.15 1098.02 1755.97 1084.68 1772.96 1075.48 1803.85 1063.41 1818.49 1071.78ZM854.095 847.361C850.821 847.361 847.641 848.39 844.991 850.291L239.389 1286.47 488.395 870.946C491.294 866.129 491.357 860.143 488.598 855.248 485.838 850.354 480.648 847.345 475.036 847.345L204.97 847.345C141.557 847.345 89.9597 795.748 89.9597 732.351L89.9597 146.186C89.9597 82.7735 141.557 31.1765 204.97 31.1765L1228.93 31.1765C1292.34 31.1765 1343.94 82.7735 1343.94 146.186L1343.94 187.947C1203.77 257.861 1127.93 403.361 1110.43 440.539 1085.64 493.118 1034.08 602.501 1034.08 683.341 1034.08 718.321 1041.71 773.613 1056.6 847.361L854.095 847.361ZM1090.93 859.753C1074.12 779.599 1065.25 718.602 1065.25 683.341 1065.25 613.475 1109.57 515.69 1134.53 462.565 1174.95 462.066 1336.11 463.376 1433.32 513.554 1542.78 570.077 1721.46 980.375 1731 1023.06 1737.92 1054.08 1718.12 1102.38 1707.5 1123.4 1689.81 1126.87 1672.37 1132.89 1655.47 1140.82 1676.56 1106.67 1689.5 1073.44 1694.02 1040.61 1695.2 1032.07 1689.23 1024.21 1680.71 1023.04 1671.93 1021.79 1664.29 1027.83 1663.14 1036.35 1657.34 1078.36 1635.53 1121.84 1597.26 1168.4 1594.33 1122.99 1580.15 1052.47 1523.63 1010.09 1466.51 967.25 1420.29 974.093 1366.79 982.028 1338.69 986.205 1306.86 990.897 1268.24 989.292 1232.51 987.764 1197.64 978.52 1164.58 961.778 1129.06 943.821 1100.16 903.775 1090.93 859.753ZM1338.75 1143.02C1389.78 1135.62 1425.58 1113.89 1446.88 1076.91 1456.56 1090.85 1465.98 1111.52 1456.11 1131.25 1442.1 1159.28 1395.52 1176.18 1371.06 1182.38 1360.77 1171.69 1349.96 1158.52 1338.75 1143.02ZM1432.34 1215.76C1422.78 1217.58 1411.62 1214.32 1399.26 1206.4 1427.49 1196.74 1467.66 1177.85 1484 1145.19 1511.65 1089.82 1455.74 1039.02 1453.32 1036.9 1449.5 1033.47 1444.23 1032.17 1439.2 1033.39 1434.2 1034.64 1430.13 1038.27 1428.35 1043.1 1412.17 1086.76 1377.08 1109.2 1318.89 1113.75 1296.64 1078.96 1277.99 1043.26 1266.7 1020.41 1266.76 1020.41 1266.82 1020.42 1266.9 1020.42 1308.48 1022.26 1341.9 1017.26 1371.37 1012.86 1423.64 1005.1 1458.17 999.97 1504.92 1035.01 1536.31 1058.57 1551.96 1094.15 1559.65 1126.97 1546.4 1144.72 1498.42 1203.21 1432.34 1215.76Z" fill="#3A322B" transform="matrix(1.00086 0 0 1 4235.9 929)"/><path d="M360.712 146.483C316.254 146.483 280.089 182.647 280.089 227.105 280.089 271.563 316.254 307.727 360.712 307.727 405.169 307.727 441.334 271.563 441.334 227.105 441.334 182.647 405.169 146.483 360.712 146.483ZM360.712 276.551C333.448 276.551 311.266 254.369 311.266 227.105 311.266 199.841 333.448 177.659 360.712 177.659 387.976 177.659 410.158 199.841 410.158 227.105 410.158 254.369 387.976 276.551 360.712 276.551Z" fill="#3A322B" transform="matrix(1.00086 0 0 1 4235.9 929)"/><path d="M360.712 83.3503C281.446 83.3503 216.941 147.854 216.941 227.121 216.941 287.572 255.133 341.414 311.188 361.974L311.188 533.149 249.661 533.149C241.041 533.149 234.073 540.117 234.073 548.737L234.073 602.968C234.073 611.589 241.041 618.557 249.661 618.557L311.188 618.557 311.188 649.359 249.661 649.359C241.041 649.359 234.073 656.327 234.073 664.947L234.073 719.179C234.073 727.799 241.041 734.767 249.661 734.767L311.188 734.767 311.188 758.601C311.188 778.788 326.464 796.2 346.76 799.1 351.374 799.754 356.02 800.082 360.665 800.082 366.448 800.066 372.247 799.567 377.983 798.538 396.658 795.249 410.22 778.523 410.22 758.757L410.22 361.974C466.275 341.414 504.466 287.572 504.466 227.121 504.482 147.839 439.978 83.3503 360.712 83.3503ZM390.532 335.552C383.751 337.407 379.075 343.58 379.075 350.595L379.075 758.757C379.075 763.2 376.222 767.19 372.59 767.845 365.466 769.123 358.311 769.264 351.172 768.204 346.09 767.487 342.396 763.434 342.396 758.586L342.396 719.163C342.396 710.543 335.428 703.575 326.807 703.575L265.281 703.575 265.281 680.52 326.807 680.52C335.428 680.52 342.396 673.552 342.396 664.932L342.396 602.953C342.396 594.333 335.428 587.365 326.807 587.365L265.281 587.365 265.281 564.31 326.807 564.31C335.428 564.31 342.396 557.342 342.396 548.721L342.396 350.595C342.396 343.58 337.703 337.407 330.938 335.552 282.194 322.209 248.149 277.595 248.149 227.105 248.149 165.033 298.655 114.511 360.743 114.511 422.831 114.511 473.337 165.017 473.337 227.105 473.306 277.611 439.261 322.193 390.532 335.552Z" fill="#3A322B" transform="matrix(1.00086 0 0 1 4235.9 929)"/><path d="M598.884 254.462C601.924 257.502 605.915 259.03 609.905 259.03 613.896 259.03 617.886 257.502 620.926 254.462L634.597 240.791 634.597 260.121C634.597 268.741 641.565 275.709 650.185 275.709 658.806 275.709 665.773 268.741 665.773 260.121L665.773 240.791 679.444 254.462C682.484 257.502 686.475 259.03 690.465 259.03 694.456 259.03 698.446 257.502 701.486 254.462 707.581 248.367 707.581 238.516 701.486 232.421L672.227 203.161 701.486 173.902C707.581 167.807 707.581 157.956 701.486 151.861 695.391 145.766 685.539 145.766 679.444 151.861L665.773 165.531 665.773 146.202C665.773 137.582 658.806 130.614 650.185 130.614 641.565 130.614 634.597 137.582 634.597 146.202L634.597 165.531 620.926 151.861C614.831 145.766 604.979 145.766 598.884 151.861 592.789 157.956 592.789 167.807 598.884 173.902L628.143 203.161 598.884 232.421C592.789 238.516 592.789 248.383 598.884 254.462Z" fill="#3A322B" transform="matrix(1.00086 0 0 1 4235.9 929)"/><path d="M768.859 254.462C771.898 257.502 775.889 259.03 779.879 259.03 783.87 259.03 787.861 257.502 790.9 254.462L804.571 240.791 804.571 260.121C804.571 268.741 811.539 275.709 820.159 275.709 828.78 275.709 835.748 268.741 835.748 260.121L835.748 240.791 849.418 254.462C852.458 257.502 856.449 259.03 860.439 259.03 864.43 259.03 868.42 257.502 871.46 254.462 877.555 248.367 877.555 238.516 871.46 232.421L842.201 203.161 871.46 173.902C877.555 167.807 877.555 157.956 871.46 151.861 865.365 145.766 855.513 145.766 849.418 151.861L835.748 165.531 835.748 146.202C835.748 137.582 828.78 130.614 820.159 130.614 811.539 130.614 804.571 137.582 804.571 146.202L804.571 165.531 790.9 151.861C784.805 145.766 774.953 145.766 768.859 151.861 762.763 157.956 762.763 167.807 768.859 173.902L798.118 203.161 768.859 232.421C762.763 238.516 762.763 248.383 768.859 254.462Z" fill="#3A322B" transform="matrix(1.00086 0 0 1 4235.9 929)"/><path d="M938.833 254.462C941.872 257.502 945.863 259.03 949.853 259.03 953.844 259.03 957.835 257.502 960.874 254.462L974.561 240.776 974.561 260.121C974.561 268.741 981.529 275.709 990.149 275.709 998.769 275.709 1005.74 268.741 1005.74 260.121L1005.74 240.791 1019.41 254.462C1022.45 257.502 1026.44 259.03 1030.43 259.03 1034.42 259.03 1038.41 257.502 1041.45 254.462 1047.54 248.367 1047.54 238.516 1041.45 232.421L1012.19 203.161 1041.45 173.902C1047.54 167.807 1047.54 157.956 1041.45 151.861 1035.35 145.766 1025.5 145.766 1019.41 151.861L1005.74 165.531 1005.74 146.202C1005.74 137.582 998.769 130.614 990.149 130.614 981.529 130.614 974.561 137.582 974.561 146.202L974.561 165.547 960.874 151.861C954.779 145.766 944.928 145.766 938.833 151.861 932.738 157.956 932.738 167.807 938.833 173.902L968.092 203.161 938.833 232.421C932.753 238.516 932.753 248.383 938.833 254.462Z" fill="#3A322B" transform="matrix(1.00086 0 0 1 4235.9 929)"/><path d="M1108.84 254.462C1111.88 257.502 1115.87 259.03 1119.86 259.03 1123.85 259.03 1127.84 257.502 1130.88 254.462L1144.55 240.791 1144.55 260.121C1144.55 268.741 1151.52 275.709 1160.14 275.709 1168.76 275.709 1175.73 268.741 1175.73 260.121L1175.73 240.791 1189.4 254.462C1192.44 257.502 1196.43 259.03 1200.42 259.03 1204.41 259.03 1208.4 257.502 1211.44 254.462 1217.53 248.367 1217.53 238.516 1211.44 232.421L1182.18 203.161 1211.44 173.902C1217.53 167.807 1217.53 157.956 1211.44 151.861 1205.34 145.766 1195.49 145.766 1189.4 151.861L1175.73 165.531 1175.73 146.202C1175.73 137.582 1168.76 130.614 1160.14 130.614 1151.52 130.614 1144.55 137.582 1144.55 146.202L1144.55 165.531 1130.88 151.861C1124.78 145.766 1114.93 145.766 1108.84 151.861 1102.74 157.956 1102.74 167.807 1108.84 173.902L1138.1 203.161 1108.84 232.421C1102.74 238.516 1102.74 248.383 1108.84 254.462Z" fill="#3A322B" transform="matrix(1.00086 0 0 1 4235.9 929)"/><path d="M609.905 435.036 799.302 435.036C807.923 435.036 814.891 428.069 814.891 419.448 814.891 410.828 807.923 403.86 799.302 403.86L609.905 403.86C601.285 403.86 594.317 410.828 594.317 419.448 594.317 428.069 601.285 435.036 609.905 435.036Z" fill="#3A322B" transform="matrix(1.00086 0 0 1 4235.9 929)"/><path d="M905.817 435.036 1062.37 435.036C1070.99 435.036 1077.96 428.069 1077.96 419.448 1077.96 410.828 1070.99 403.86 1062.37 403.86L905.817 403.86C897.196 403.86 890.228 410.828 890.228 419.448 890.228 428.069 897.196 435.036 905.817 435.036Z" fill="#3A322B" transform="matrix(1.00086 0 0 1 4235.9 929)"/><path d="M1039.05 532.447C1039.05 523.827 1032.08 516.859 1023.46 516.859L609.905 516.859C601.285 516.859 594.317 523.827 594.317 532.447 594.317 541.068 601.285 548.036 609.905 548.036L1023.46 548.036C1032.08 548.036 1039.05 541.068 1039.05 532.447Z" fill="#3A322B" transform="matrix(1.00086 0 0 1 4235.9 929)"/><path d="M1001.23 605.79 609.905 605.79C601.285 605.79 594.317 612.758 594.317 621.378 594.317 629.998 601.285 636.966 609.905 636.966L1001.23 636.966C1009.85 636.966 1016.82 629.998 1016.82 621.378 1016.82 612.758 1009.85 605.79 1001.23 605.79Z" fill="#3A322B" transform="matrix(1.00086 0 0 1 4235.9 929)"/></g></svg>