<svg width="1766" height="2373" xmlns="http://www.w3.org/2000/svg" xmlns:xlink="http://www.w3.org/1999/xlink" xml:space="preserve" overflow="hidden"><g transform="translate(-4463 -670)"><path d="M1629.18 1517.11 1442.96 1517.11C1442.96 1517.11 1405.03 1327.47 1348.14 1251.62 1291.25 1175.76 1101.61 1099.91 1101.61 1099.91 1158.51 1024.05 1253.32 834.418 1253.32 701.672 1253.32 650.281 1227.72 595.855 1196.24 548.826L1196.43 548.826C1196.43 548.826 1215.4 455.146 1177.47 360.327 1139.73 265.509 930.942 18.9826 798.197 18.9826 665.452 18.9826 437.889 227.582 380.998 379.291 338.899 491.556 380.998 568.927 380.998 568.927L381.756 569.306C350.656 637.196 324.107 713.999 324.107 777.527 324.107 853.381 437.889 1043.02 475.816 1099.91 475.816 1099.91 324.107 1137.84 229.289 1270.58 134.471 1403.33 1.72569 2086.02 20.6893 2180.83 39.6529 2275.65 134.471 2351.51 134.471 2351.51L532.707 2351.51 619.75 2351.51 798.197 2351.51 1310.02 2351.51 1310.02 2285.51C1320.27 2288.74 1331.45 2289.31 1342.07 2286.65L1398.77 2271.48C1420.01 2277.36 1443.34 2275.46 1464.01 2265.22L1632.6 2180.83 1632.6 2180.64C1685.31 2178.94 1727.41 2135.7 1727.41 2082.6L1727.41 1615.34C1727.41 1561.1 1683.42 1517.11 1629.18 1517.11Z" fill="#655F68" transform="matrix(1.00028 0 0 1 4481.97 671.274)"/><path d="M1727.41 1615.34 1727.41 2082.6C1727.41 2135.7 1685.31 2178.94 1632.6 2180.64 1631.46 2180.83 1630.32 2180.83 1629.18 2180.83L1449.79 2180.83C1422.86 2180.83 1398.4 2164.34 1388.34 2139.3L1344.35 2029.12C1336.76 2010.16 1318.37 1998.21 1298.65 1998.21 1295.42 1998.21 1292.2 1998.59 1288.98 1999.16 1260.15 2005.04 1242.89 2034.62 1251.81 2062.5L1245.74 2044.11C1239.29 2024.95 1219.19 2013.95 1199.66 2018.88L1196.05 2019.83C1175.38 2024.95 1162.68 2046 1167.8 2066.67 1162.68 2046 1141.63 2033.3 1120.96 2038.42L1120.2 2038.8C1099.53 2043.92 1086.82 2064.97 1091.94 2085.64 1086.82 2064.97 1065.77 2052.26 1045.1 2057.38 1027.47 2061.74 1015.9 2077.67 1015.9 2094.93 1015.9 2098.34 1016.28 2101.76 1017.23 2105.17L1037.71 2180.83 896.429 2180.83C842.193 2180.83 798.197 2136.84 798.197 2082.6L798.197 1615.34C798.197 1561.1 842.193 1517.11 896.429 1517.11L1253.32 1517.11 1442.96 1517.11 1629.18 1517.11C1683.42 1517.11 1727.41 1561.1 1727.41 1615.34Z" fill="#888C8D" transform="matrix(1.00028 0 0 1 4481.97 671.274)"/><path d="M1632.6 2180.64 1632.6 2180.83 1464.01 2265.22C1443.34 2275.46 1420.01 2277.36 1398.77 2271.48 1383.79 2267.31 1369.95 2259.53 1358.38 2247.96L1317.04 2206.62C1300.16 2189.75 1287.27 2168.89 1279.68 2146.13L1272.29 2123.94 1251.81 2062.5C1242.89 2034.62 1260.15 2005.04 1288.98 1999.16 1292.2 1998.59 1295.42 1998.21 1298.65 1998.21 1318.37 1998.21 1336.76 2010.16 1344.35 2029.12L1388.34 2139.3C1398.4 2164.34 1422.86 2180.83 1449.79 2180.83L1629.18 2180.83C1630.32 2180.83 1631.46 2180.83 1632.6 2180.64Z" fill="#FEC4B9" transform="matrix(1.00028 0 0 1 4481.97 671.274)"/><path d="M1398.77 2271.48 1342.07 2286.65C1331.45 2289.31 1320.27 2288.74 1310.02 2285.51 1303.39 2283.24 1296.94 2279.82 1291.44 2275.46 1289.73 2274.13 1288.41 2272.81 1286.89 2271.29L1218.62 2203.02C1204.02 2188.42 1193.78 2170.4 1188.85 2150.49L1167.8 2066.67C1162.68 2046 1175.38 2024.95 1196.05 2019.83L1199.66 2018.88C1219.19 2013.95 1239.29 2024.95 1245.74 2044.11L1251.81 2062.5 1272.29 2123.94 1279.68 2146.13C1287.27 2168.89 1300.16 2189.75 1317.04 2206.62L1358.38 2247.96C1369.95 2259.53 1383.79 2267.31 1398.77 2271.48Z" fill="#F7B6AD" transform="matrix(1.00028 0 0 1 4481.97 671.274)"/><path d="M1291.44 2275.46 1291.25 2275.65 1249.72 2286.08C1228.48 2291.39 1205.91 2285.13 1190.36 2269.58L1177.47 2256.69 1142.77 2221.98C1128.35 2207.57 1117.92 2189.18 1112.99 2169.27L1091.94 2085.64C1086.82 2064.97 1099.53 2043.92 1120.2 2038.8L1120.96 2038.42C1141.63 2033.3 1162.68 2046 1167.8 2066.67L1188.85 2150.49C1193.78 2170.4 1204.02 2188.42 1218.62 2203.02L1286.89 2271.29C1288.41 2272.81 1289.73 2274.13 1291.44 2275.46Z" fill="#FEC4B9" transform="matrix(1.00028 0 0 1 4481.97 671.274)"/><path d="M1177.47 2256.69 1112.42 2267.5C1084.74 2272.05 1058 2254.98 1050.6 2228.05L1037.9 2180.83 1037.71 2180.83 1017.23 2105.17C1016.28 2101.76 1015.9 2098.34 1015.9 2094.93 1015.9 2077.67 1027.47 2061.74 1045.1 2057.38 1065.77 2052.26 1086.82 2064.97 1091.94 2085.64L1112.99 2169.27C1117.92 2189.18 1128.35 2207.57 1142.77 2221.98L1177.47 2256.69Z" fill="#F7B6AD" transform="matrix(1.00028 0 0 1 4481.97 671.274)"/><path d="M798.197 455.146C911.979 455.146 1139.54 512.036 1139.54 758.563 1139.54 911.41 798.197 1137.84 798.197 1137.84 798.197 1137.84 456.852 911.41 456.852 758.563 456.852 512.036 684.415 455.146 798.197 455.146Z" fill="#504256" transform="matrix(1.00028 0 0 1 4481.97 671.274)"/><path d="M796.301 721.584 746.047 734.29C712.292 742.823 685.743 769.372 677.209 803.128L664.504 853.381 651.798 803.128C643.265 769.372 616.715 742.823 582.96 734.29L532.707 721.584 582.96 708.879C616.715 700.345 643.265 673.796 651.798 640.041L664.504 589.787 677.209 640.041C685.743 673.796 712.292 700.345 746.047 708.879L796.301 721.584Z" fill="#71CC75" transform="matrix(1.00028 0 0 1 4481.97 671.274)"/><path d="M798.197 455.146C798.197 455.146 1107.59 598.814 963.408 862.408 846.706 1075.77 551.651 931.739 551.651 931.739 652.67 1041.29 798.197 1137.84 798.197 1137.84 798.197 1137.84 1139.54 911.41 1139.54 758.563 1139.54 512.036 911.979 455.146 798.197 455.146Z" fill="#47394F" transform="matrix(1.00028 0 0 1 4481.97 671.274)"/><path d="M1196.24 548.826C1146.75 474.109 1082.65 417.218 1082.65 417.218 1082.65 417.218 1272.29 658.549 1111.1 975.469 996.651 1200.47 855.088 1327.47 855.088 1327.47 911.979 1308.51 1044.53 1175.95 1101.61 1100.1L1101.61 1099.91C1158.51 1024.05 1253.32 834.418 1253.32 701.672 1253.32 650.281 1227.72 595.855 1196.24 548.826Z" fill="#5D5560" transform="matrix(1.00028 0 0 1 4481.97 671.274)"/><path d="M1253.32 1517.11 1442.96 1517.11C1442.96 1517.11 1405.03 1327.47 1348.14 1251.62 1291.25 1175.76 1101.61 1099.91 1101.61 1099.91 1101.61 1099.91 1491.17 1397.83 1253.32 1517.11Z" fill="#5D5560" transform="matrix(1.00028 0 0 1 4481.97 671.274)"/><path d="M1629.18 1517.11 1629.18 1873.22C1629.18 1873.22 1628.22 2101.68 1344.35 2029.12L1388.34 2139.3C1398.4 2164.34 1422.86 2180.83 1449.79 2180.83L1629.18 2180.83C1630.32 2180.83 1631.46 2180.83 1632.6 2180.64 1685.31 2178.94 1727.41 2135.7 1727.41 2082.6L1727.41 1615.34C1727.41 1561.1 1683.42 1517.11 1629.18 1517.11Z" fill="#7A7E7F" transform="matrix(1.00028 0 0 1 4481.97 671.274)"/><path d="M524.249 2125.93C514.881 2130.6 511.069 2141.98 515.715 2151.35 515.829 2151.55 522.504 2165.23 527.454 2183.49 488.484 2162.04 424.481 2127.94 382.325 2111.24 386.763 2066.05 399.942 1929.03 399.942 1896.36 399.942 1872.92 389.285 1851.61 378.969 1830.97 370.264 1813.53 362.015 1797.05 362.015 1782.58 362.015 1771.92 366.149 1748.94 370.511 1724.61 381.131 1665.52 394.329 1591.98 380.012 1549.02 359.853 1488.59 320.219 1448.48 318.532 1446.79 311.136 1439.38 299.17 1439.39 291.755 1446.77 284.34 1454.17 284.321 1466.15 291.698 1473.59 292.059 1473.95 326.819 1509.37 344.038 1561.03 355.302 1594.8 342.521 1665.95 333.191 1717.91 328.108 1746.21 324.107 1768.55 324.107 1782.6 324.107 1806.02 334.765 1827.33 345.062 1847.95 353.785 1865.39 362.034 1881.89 362.034 1896.38 362.034 1925.58 350.125 2050.86 345.232 2101.07 311.97 2096.84 282.254 2105.32 280.737 2105.79 270.705 2108.81 265.016 2119.37 268.032 2129.4 271.028 2139.44 281.629 2145.12 291.641 2142.11 292.002 2142.02 326.572 2132.14 356.042 2141.94 401.782 2157.17 500.829 2211.93 532.252 2229.59 529.54 2270.17 514.274 2346.95 514.103 2347.79 512.055 2358.07 518.712 2368.04 528.971 2370.11 530.222 2370.36 531.474 2370.49 532.707 2370.49 541.563 2370.49 549.489 2364.25 551.272 2355.24 552.068 2351.3 570.615 2258.13 570.615 2218.78 570.615 2176.87 550.495 2136.16 549.66 2134.45 544.976 2125.08 533.579 2121.29 524.249 2125.93Z" fill="#3A322B" transform="matrix(1.00028 0 0 1 4481.97 671.274)"/><path d="M626.994 2157.49C624.566 2147.31 614.307 2140.97 604.161 2143.44 593.978 2145.85 587.682 2156.09 590.109 2166.27L602.739 2219.31C608.656 2244.13 610.116 2272.69 606.892 2299.75L600.995 2349.27C599.762 2359.66 607.196 2369.1 617.588 2370.34 618.346 2370.41 619.105 2370.47 619.863 2370.47 629.326 2370.47 637.518 2363.38 638.675 2353.74L644.573 2304.23C648.309 2272.84 646.545 2239.56 639.642 2210.53L626.994 2157.49Z" fill="#3A322B" transform="matrix(1.00028 0 0 1 4481.97 671.274)"/><path d="M1629.13 1498.14 1458.3 1498.14C1447.95 1451.1 1413.21 1306.78 1363.29 1240.22 1315.2 1176.1 1183.33 1114.4 1130.61 1091.53 1186.51 1008.16 1272.17 833.337 1272.27 701.672 1272.31 648.252 1247.43 592.992 1216.33 544.711 1220.16 519.508 1228.73 437.452 1195.14 353.273 1155.45 253.714 940.709 0.0189636 798.197 0 798.197 0 798.197 0 798.178 0 655.648 0 420.973 218.707 363.248 372.635 325.965 472.061 350.353 546.019 360.517 569.799 330.403 637.5 305.143 713.354 305.143 777.527 305.143 856.681 408.817 1029.14 446.498 1089.21 398.217 1106.05 289.555 1153.56 213.853 1259.56 118.124 1393.58-18.5274 2081.48 2.086 2184.55 22.1685 2284.98 118.523 2363.04 122.619 2366.3 126.108 2369.09 130.28 2370.45 134.452 2370.45 140.008 2370.45 145.508 2368.02 149.263 2363.34 155.805 2355.17 154.497 2343.24 146.342 2336.7 145.451 2335.97 56.6443 2263.84 39.2926 2177.1 20.6893 2084.06 153.643 1409.11 244.725 1281.58 313.146 1185.78 413.843 1141.29 458.085 1125.47 460.797 1159.32 469.558 1219.51 497.965 1262.12 539.477 1324.38 619.541 1345.01 622.917 1345.87 624.472 1346.26 626.008 1346.43 627.544 1346.43 636.039 1346.43 643.758 1340.69 645.919 1332.08 648.461 1321.92 642.278 1311.62 632.114 1309.08 631.431 1308.91 562.973 1291.29 529.502 1241.11 513.952 1217.79 505.399 1186.72 500.658 1159.64 543.061 1204.34 593.807 1245.15 596.709 1247.48 600.198 1250.27 604.389 1251.64 608.542 1251.64 614.098 1251.64 619.617 1249.21 623.353 1244.52 629.895 1236.35 628.568 1224.4 620.394 1217.88 619.465 1217.14 527.473 1143.24 491.594 1089.42 439.804 1011.73 343.071 840.505 343.071 777.565 343.071 633.403 490.114 411.036 491.594 408.817 497.396 400.113 495.045 388.318 486.341 382.515 477.617 376.674 465.86 379.045 460.038 387.768 457.004 392.319 421.239 446.422 384.847 518.617 379.177 487.896 377.812 441.833 398.748 385.985 456.075 233.063 680.035 37.9272 798.159 37.9272 798.159 37.9272 798.178 37.9272 798.178 37.9272 919.014 37.9462 1123.12 275.086 1159.93 367.344 1178.95 415.019 1182.63 462.75 1182.02 496.79 1140.13 443.464 1098.71 406.144 1095.22 403.034 1087.39 396.055 1075.43 396.776 1068.45 404.608 1061.49 412.439 1062.19 424.424 1070.02 431.384 1071.65 432.844 1234.4 578.826 1234.32 701.653 1234.25 823.874 1146.81 1007.99 1086.41 1088.51 1025.78 1169.33 897.339 1293.36 849.039 1309.46 836.143 1313.76 821.826 1314.5 807.717 1313.32 810.03 1308.32 812.496 1303.22 815.113 1298 825.41 1277.39 836.068 1256.07 836.068 1232.63 836.068 1203.56 826.263 1165.69 820.385 1145.65 882.301 1103.06 1158.45 904.811 1158.45 758.544 1158.45 504.128 931.966 436.201 798.14 436.163 798.121 436.163 798.102 436.163 798.083 436.163 768.595 436.163 665.755 440.676 574.673 498.364 485.146 555.065 437.832 645.028 437.832 758.544 437.832 910.538 735.94 1118.59 782.059 1149.86 786.686 1164.92 798.14 1205.06 798.14 1232.63 798.14 1247.12 789.891 1263.6 781.168 1281.05 777.091 1289.22 773.108 1297.57 769.6 1306.04 747.394 1299.67 731.085 1291.69 730.744 1291.54 721.338 1286.89 709.978 1290.66 705.313 1300.03 700.629 1309.4 704.422 1320.78 713.771 1325.44 715.383 1326.26 734.347 1335.57 760.573 1342.87 760.516 1344.06 760.194 1345.2 760.194 1346.42 760.194 1375.71 770.453 1444.93 776.56 1483.58 778.285 1494.45 779.158 1505.52 779.158 1516.48L779.158 1615.36 779.158 2082.53 779.158 2351.49C779.158 2361.96 787.653 2370.45 798.121 2370.45 808.589 2370.45 817.085 2361.96 817.085 2351.49L817.085 2168.62C837.983 2187.89 865.802 2199.78 896.41 2199.78L1023.28 2199.78 1032.32 2232.95C1041.2 2265.51 1070.48 2287.24 1103.17 2287.24 1107.23 2287.24 1111.34 2286.9 1115.48 2286.21L1170.89 2276.98 1176.9 2282.99C1192.32 2298.41 1213.29 2306.81 1234.68 2306.81 1241.21 2306.81 1247.79 2306.01 1254.25 2304.42L1288.18 2295.94C1289.07 2296.47 1290.02 2296.89 1290.93 2297.4L1290.93 2351.51C1290.93 2361.97 1299.42 2370.47 1309.89 2370.47 1320.36 2370.47 1328.86 2361.97 1328.86 2351.51L1328.86 2307.23C1334.89 2307.17 1340.95 2306.45 1346.95 2304.95L1399.27 2290.97C1407.06 2292.7 1414.97 2293.78 1422.97 2293.78 1439.74 2293.78 1456.63 2289.97 1472.35 2282.1L1637.6 2199.47C1698.27 2195.08 1746.28 2144.31 1746.28 2082.53L1746.28 1615.4C1746.38 1550.73 1693.77 1498.14 1629.13 1498.14ZM475.816 758.563C475.816 657.279 515.924 580.514 595.021 530.412 677.494 478.186 771.231 474.109 798.121 474.109 798.14 474.109 798.159 474.109 798.197 474.109 917.933 474.128 1120.58 534.091 1120.58 758.563 1120.58 871.378 897.187 1047.45 798.197 1114.97 699.207 1047.45 475.816 871.378 475.816 758.563ZM819.512 1351.71C833.526 1351.71 847.673 1349.92 861.081 1345.45 911.543 1328.63 1002.99 1242.19 1066.91 1170.98 1053.69 1217.84 1030.9 1276.5 993.371 1314.05 924.609 1382.79 855.657 1384.34 855.069 1384.34 844.601 1384.34 836.105 1392.84 836.105 1403.31 836.105 1413.77 844.601 1422.27 855.069 1422.27 858.482 1422.27 939.704 1421.34 1020.19 1340.86 1081.74 1279.3 1107.49 1174.23 1116.39 1126.76 1166.77 1148.74 1290.83 1206.82 1332.95 1262.98 1375.39 1319.56 1407.55 1446.51 1419.37 1498.12L1279.61 1498.12 1309.21 1409.3C1312.53 1399.36 1307.16 1388.63 1297.22 1385.31 1287.25 1381.95 1276.54 1387.38 1273.24 1397.3L1239.63 1498.11 896.466 1498.11C865.859 1498.11 838.04 1510 817.142 1529.26L817.142 1516.48C817.142 1503.53 816.118 1490.46 814.089 1477.64 809.499 1448.63 799.164 1380.38 798.33 1350.4 805.29 1351.21 812.363 1351.71 819.512 1351.71ZM1109.3 2248.82C1091.11 2251.83 1073.8 2240.74 1068.98 2222.99L1035.49 2100.18C1034.09 2095.02 1034.79 2089.64 1037.5 2085.03 1040.21 2080.42 1044.55 2077.16 1049.73 2075.87 1060.29 2073.27 1071.01 2079.66 1073.64 2090.21 1073.64 2090.21 1073.64 2090.21 1073.64 2090.23L1094.58 2173.91C1100.4 2197.2 1112.42 2218.48 1129.42 2235.45L1138.03 2244.06 1109.3 2248.82ZM1203.77 2256.2 1156.19 2208.62C1144.07 2196.5 1135.48 2181.33 1131.33 2164.71L1110.4 2081.03C1107.76 2070.47 1114.19 2059.75 1125.55 2056.93 1136.11 2054.29 1146.82 2060.72 1149.46 2071.26 1149.46 2071.26 1149.46 2071.26 1149.46 2071.28L1170.41 2155.1C1176.22 2178.29 1188.2 2199.49 1205.12 2216.39L1254.14 2265.41 1245.11 2267.67C1230.4 2271.29 1214.52 2266.93 1203.77 2256.2ZM1337.52 2268.24C1324.25 2271.54 1310.01 2267.59 1300.35 2257.96L1231.95 2189.56C1219.91 2177.51 1211.38 2162.42 1207.24 2145.88L1186.29 2062.06C1183.65 2051.5 1190.08 2040.79 1200.64 2038.15L1204.21 2037.26C1214.24 2034.79 1224.46 2040.45 1227.7 2050.16L1244.35 2100.12 1261.71 2152.16C1270.2 2177.63 1284.73 2201.14 1303.71 2220.11L1345.05 2261.45C1346.42 2262.81 1348.05 2263.78 1349.47 2265.05L1337.52 2268.24ZM1455.46 2248.19C1427.52 2262.13 1393.92 2256.73 1371.85 2234.63L1330.51 2193.29C1315.68 2178.46 1304.32 2160.09 1297.68 2140.16L1290.28 2117.97C1290.28 2117.97 1290.28 2117.97 1290.28 2117.95L1283.7 2098.19 1269.99 2057.06C1267.2 2048.71 1268.12 2039.92 1272.53 2032.31 1276.95 2024.71 1284.14 2019.57 1292.75 2017.82 1294.74 2017.42 1296.73 2017.23 1298.68 2017.23 1310.86 2017.23 1322.1 2024.59 1326.77 2036.26L1370.8 2146.3C1383.81 2178.79 1414.82 2199.8 1449.82 2199.8L1552.27 2199.8 1455.46 2248.19ZM1708.45 2082.55C1708.45 2126.28 1672.87 2161.87 1629.13 2161.87L1449.81 2161.87C1430.41 2161.87 1413.21 2150.23 1406 2132.21L1361.97 2022.17C1349.77 1991.67 1317.57 1974.21 1285.3 1980.63 1267.58 1984.18 1252.3 1994.82 1242.29 2009.72 1228.94 2000.24 1211.83 1996.26 1194.97 2000.45L1191.41 2001.34C1176.88 2004.97 1165.18 2013.95 1157.52 2025.54 1145.19 2018.96 1130.44 2016.59 1115.55 2020.31 1101.08 2023.93 1089.4 2032.86 1081.72 2044.41 1069.05 2037.58 1054.57 2035.55 1040.5 2039.06 1025.34 2042.85 1012.64 2052.37 1004.75 2065.86 996.841 2079.34 994.755 2095.08 998.87 2110.16L1012.98 2161.87 896.448 2161.87C852.717 2161.87 817.123 2126.29 817.123 2082.55L817.123 1615.4C817.123 1571.67 852.699 1536.07 896.448 1536.07L1253.23 1536.07C1253.25 1536.07 1253.27 1536.07 1253.29 1536.07 1253.3 1536.07 1253.32 1536.07 1253.34 1536.07L1629.09 1536.07C1672.82 1536.07 1708.41 1571.65 1708.41 1615.4L1708.41 2082.55Z" fill="#3A322B" transform="matrix(1.00028 0 0 1 4481.97 671.274)"/><path d="M815.245 721.584C815.245 712.899 809.348 705.332 800.947 703.208L750.769 690.503C723.613 683.619 702.469 662.475 695.585 635.3L682.879 585.122C680.755 576.702 673.17 570.823 664.504 570.823 655.837 570.823 648.252 576.721 646.128 585.122L633.422 635.3C626.539 662.475 605.394 683.6 578.219 690.484L528.042 703.19C519.622 705.313 513.743 712.899 513.743 721.565 513.743 730.232 519.641 737.817 528.042 739.941L578.219 752.647C605.394 759.53 626.52 780.675 633.403 807.85L646.109 858.027C648.233 866.447 655.818 872.326 664.485 872.326 673.151 872.326 680.737 866.428 682.86 858.027L695.566 807.85C702.45 780.694 723.594 759.549 750.769 752.665L800.947 739.96C809.348 737.836 815.245 730.269 815.245 721.584ZM664.485 781.718C652.955 754.676 631.393 733.114 604.351 721.584 631.393 710.054 652.955 688.493 664.485 661.451 676.015 688.493 697.576 710.054 724.618 721.584 697.576 733.133 676.034 754.676 664.485 781.718Z" fill="#3A322B" transform="matrix(1.00028 0 0 1 4481.97 671.274)"/></g></svg>